<?xml version="1.0" encoding="utf-8"?>
<!-- Generator: Adobe Illustrator 27.6.1, SVG Export Plug-In . SVG Version: 6.00 Build 0)  -->
<svg version="1.1" id="Layer_2" xmlns="http://www.w3.org/2000/svg" xmlns:xlink="http://www.w3.org/1999/xlink" x="0px" y="0px"
	 viewBox="0 0 227.8 142.6" style="enable-background:new 0 0 227.8 142.6;" xml:space="preserve">
<style type="text/css">
	.st0{fill:none;stroke:#848484;stroke-width:3;stroke-linecap:round;stroke-linejoin:round;}
	.st1{fill:none;stroke:#848484;stroke-width:2;stroke-linecap:round;stroke-linejoin:round;}
</style>
<g>
	<path class="st0" d="M1.5,72c0-27,3.4-44.5,5.2-49.9c2.5-7.3,8.8-14.6,16.5-15.8s160.5-4.4,171.2-4.8C207,1,214.7,9.2,218.2,15.1
		c3.7,6.2,7.5,31.1,8.1,56.5c0.5,20.1-2.3,39.3-4.1,47.3c-1.5,6.9-4.1,11.6-9.5,16.3c-3.8,3.3-7.4,5.9-16.2,5.9
		c-5.6,0-154.2-3.8-164.2-4.2c-10-0.4-18-4.2-22.7-13.2C6.4,117.5,1.5,95.8,1.5,72z"/>
	<circle class="st0" cx="107.7" cy="74.3" r="37.9"/>
	<circle class="st0" cx="107.7" cy="74.3" r="33.3"/>
	<path class="st0" d="M118,35.8c7.9-8.1,18.6-13.1,30.3-13.1c24.6,0,44.6,22.1,44.6,49.3c0,28.3-17.5,49.3-44.6,49.3
		c-9.7,0-18.6-3.4-25.9-9.2"/>
	<path class="st0" d="M107.7,36.4c0,0,19.9-0.9,24.6-2.2s6.3-1.6,6.3-1.6"/>
	<path class="st0" d="M107.7,112.2c2.1-0.1,20.5-0.3,26.5,0c6,0.3,9.5,1.6,9.5,1.6"/>
	<path class="st0" d="M83.2,45.4c-2.5-2.1-5.7-3.4-9.2-3.4H31.8c-7.8,0-14.1,6.3-14.1,14.1v31.7c0,7.8,6.3,14.1,14.1,14.1h8.7h27.1
		h6.3c2.3,0,4.5-0.5,6.4-1.5"/>
	<ellipse transform="matrix(0.9793 -0.2025 0.2025 0.9793 -21.8861 9.9532)" class="st1" cx="37.7" cy="111.9" rx="0.9" ry="1.2"/>
	<ellipse transform="matrix(0.9793 -0.2025 0.2025 0.9793 -21.823 10.8204)" class="st1" cx="42" cy="112.1" rx="0.9" ry="1.2"/>
	<ellipse transform="matrix(0.9793 -0.2025 0.2025 0.9793 -21.7599 11.6877)" class="st1" cx="46.2" cy="112.2" rx="0.9" ry="1.2"/>
	<ellipse transform="matrix(0.9793 -0.2025 0.2025 0.9793 -21.6968 12.5549)" class="st1" cx="50.5" cy="112.3" rx="0.9" ry="1.2"/>
	<ellipse transform="matrix(0.9793 -0.2025 0.2025 0.9793 -21.6338 13.4222)" class="st1" cx="54.8" cy="112.4" rx="0.9" ry="1.2"/>
	<ellipse transform="matrix(0.9793 -0.2025 0.2025 0.9793 -21.5707 14.2894)" class="st1" cx="59" cy="112.6" rx="0.9" ry="1.2"/>
	<ellipse transform="matrix(0.9793 -0.2025 0.2025 0.9793 -21.5076 15.1567)" class="st1" cx="63.3" cy="112.7" rx="0.9" ry="1.2"/>
	<ellipse transform="matrix(0.9793 -0.2025 0.2025 0.9793 -21.4446 16.024)" class="st1" cx="67.6" cy="112.8" rx="0.9" ry="1.2"/>
	<ellipse transform="matrix(0.9793 -0.2025 0.2025 0.9793 -21.3815 16.8912)" class="st1" cx="71.8" cy="112.9" rx="0.9" ry="1.2"/>
	<ellipse transform="matrix(0.9793 -0.2025 0.2025 0.9793 -22.768 10.6061)" class="st1" cx="40.4" cy="116.6" rx="0.9" ry="1.2"/>
	<ellipse transform="matrix(0.9793 -0.2025 0.2025 0.9793 -22.7049 11.4734)" class="st1" cx="44.7" cy="116.7" rx="0.9" ry="1.2"/>
	<ellipse transform="matrix(0.9793 -0.2025 0.2025 0.9793 -22.6418 12.3406)" class="st1" cx="49" cy="116.8" rx="0.9" ry="1.2"/>
	<ellipse transform="matrix(0.9793 -0.2025 0.2025 0.9793 -22.5787 13.2079)" class="st1" cx="53.3" cy="116.9" rx="0.9" ry="1.2"/>
	<ellipse transform="matrix(0.9793 -0.2025 0.2025 0.9793 -22.5157 14.0751)" class="st1" cx="57.5" cy="117.1" rx="0.9" ry="1.2"/>
	<ellipse transform="matrix(0.9793 -0.2025 0.2025 0.9793 -22.4526 14.9424)" class="st1" cx="61.8" cy="117.2" rx="0.9" ry="1.2"/>
	<ellipse transform="matrix(0.9793 -0.2025 0.2025 0.9793 -22.3895 15.8096)" class="st1" cx="66.1" cy="117.3" rx="0.9" ry="1.2"/>
	<ellipse transform="matrix(0.9793 -0.2025 0.2025 0.9793 -22.3265 16.6769)" class="st1" cx="70.3" cy="117.4" rx="0.9" ry="1.2"/>
	<ellipse transform="matrix(0.9793 -0.2025 0.2025 0.9793 -23.6499 11.259)" class="st1" cx="43.2" cy="121.2" rx="0.9" ry="1.2"/>
	<ellipse transform="matrix(0.9793 -0.2025 0.2025 0.9793 -23.5868 12.1263)" class="st1" cx="47.5" cy="121.3" rx="0.9" ry="1.2"/>
	<ellipse transform="matrix(0.9793 -0.2025 0.2025 0.9793 -23.5237 12.9936)" class="st1" cx="51.7" cy="121.4" rx="0.9" ry="1.2"/>
	<ellipse transform="matrix(0.9793 -0.2025 0.2025 0.9793 -23.4606 13.8608)" class="st1" cx="56" cy="121.6" rx="0.9" ry="1.2"/>
	<ellipse transform="matrix(0.9793 -0.2025 0.2025 0.9793 -23.3976 14.7281)" class="st1" cx="60.3" cy="121.7" rx="0.9" ry="1.2"/>
	<ellipse transform="matrix(0.9793 -0.2025 0.2025 0.9793 -23.3345 15.5953)" class="st1" cx="64.5" cy="121.8" rx="0.9" ry="1.2"/>
	<ellipse transform="matrix(0.9793 -0.2025 0.2025 0.9793 -23.2714 16.4626)" class="st1" cx="68.8" cy="121.9" rx="0.9" ry="1.2"/>
	<path class="st0" d="M40.4,102c-0.1-0.3-0.7-5.2,0-7.5c0.7-2.3,2.7-3.2,4.7-3.5c2-0.3,12.5-0.1,14.9-0.1c3.2,0.1,5.5,2.6,6.4,5
		c0.5,1.4,1.1,6,1.1,6"/>
	<path class="st0" d="M182.8,1.8c0,0,14.7,0.9,21.4,11c6.4,9.6,13.8,61.3,8.1,93.4c-2.5,14-5.5,22.5-9.3,27.7"/>
	<path class="st0" d="M37.1,5.6c0.4,0.7,1,1.4,1.9,1.7c2.1,0.6,22.6,0.2,25.6,0c1.6-0.1,4.6-1.4,7.9-2.7"/>
	<path class="st0" d="M212.3,29.8c0,0,0.6-1,2-1c1.3,0,4.1,1.6,5.1,11.3c1,8.7-0.4,10.8-1.8,11.1c-1.1,0.2-2.3-0.4-2.3-0.4"/>
	<path class="st0" d="M218.3,71.6c0,0,0.6,8.7,0,17.6c-0.5,8-1.8,15.1-1.8,15.1"/>
	<g id="Group_67" transform="translate(-193 -804.25)">
		<ellipse class="st0" cx="300.7" cy="897.5" rx="2.6" ry="2.6"/>
		<path id="Path_105" class="st0" d="M290.8,864.3c0-5.5,4.4-9.9,9.9-9.9c5.5,0,9.9,4.4,9.9,9.9c0,2.6-1,5.1-2.9,7
			c-1.9,1.7-4.6,3.7-5.9,5.8c-1.2,2.4-1.1,6.5-1.1,6.5v5.1"/>
	</g>
</g>
</svg>
