<svg height="53" viewBox="0 0 40 53" width="40" xmlns="http://www.w3.org/2000/svg"><path d="m29.9499347 26.3576559h-19.4934921v6.4978287h19.4934921zm9.0319835-15.3348816s-9.9416795-9.94168077-9.9416795-9.94168077c-.4548484-.45484819-1.0613112-.71476141-1.711096-.71476141h-.6281223v12.99566188h12.9956604v-.6281238c0-.6281239-.2599142-1.2562478-.7147626-1.7110959m-15.5298137 3.162277v-13.81871918h-20.29489173c-1.36454443 0-2.4475162 1.08297176-2.4475162 2.4475162v47.10927278c0 1.342882 1.08297177 2.4258587 2.4475162 2.4258587h34.11361243c1.3428849 0 2.4258556-1.0829767 2.4258556-2.4258587v-33.3122127h-13.7970604c-1.3428849 0-2.4475159-1.104631-2.4475159-2.4258571m-16.24457697-6.49782995c0-.4548481.36821017-.82305828.82305827-.82305828h8.1222886c.4331889 0 .8013984.36821018.8013984.82305828v1.62445785c0 .4331888-.3682095.801399-.8013984.801399h-8.1222886c-.4548481 0-.82305827-.3682102-.82305827-.801399zm0 6.49782995c0-.4548477.36821017-.8230573.82305827-.8230573h8.1222886c.4331889 0 .8013984.3682096.8013984.8230573v1.6244586c0 .4331889-.3682095.8013985-.8013984.8013985h-8.1222886c-.4548481 0-.82305827-.3682096-.82305827-.8013985zm25.99132157 30.8646968c0 .4331889-.3682081.8014-.801397.8014h-8.1222903c-.4548477 0-.8230573-.3682111-.8230573-.8014v-1.6244587c0-.4548476.3682096-.8230587.8230573-.8230587h8.1222903c.4331889 0 .801397.3682111.801397.8230587zm0-20.3165508v9.746746c0 .8880366-.7364192 1.6244587-1.6244557 1.6244587h-22.7424087c-.88803683 0-1.62445717-.7364221-1.62445717-1.6244587v-9.746746c0-.8880366.73642034-1.6244572 1.62445717-1.6244572h22.7424087c.8880365 0 1.6244557.7364206 1.6244557 1.6244572" fill="#00b5ad" fill-rule="evenodd"/></svg>