<svg viewBox="0 0 44.09 52.04" xmlns="http://www.w3.org/2000/svg"><path d="m31.13 37v-16c0-4.79-3.85-8.26-9.15-8.26a8.83 8.83 0 0 0 -8.64 5.84c-.05.45.06 1.26 1.37 1.66s2-.3 2.16-.78a5.3 5.3 0 0 1 5.13-3.46c3.21 0 5.55 2.15 5.55 5.12v1.27c0 .59-.8 1-1.55 1.14l-6.4 1.63c-4.78 1.09-6.6 2.94-6.6 6.6 0 4.26 3.83 7.48 8.93 7.51a.69.69 0 0 0 .2 0 1.5 1.5 0 0 0 .78-1.51 1.69 1.69 0 0 0 -.78-1.6.43.43 0 0 0 -.22-.06c-3.08 0-5.3-1.84-5.3-4.31 0-2.28 1.25-3 3.88-3.61 0 0 4.62-1.21 6.44-1.76a.47.47 0 0 1 .61.46v6.63a.43.43 0 0 0 0 .19 7.49 7.49 0 0 0 3.21 3.58c.31.13.38-.13.38-.28z" fill="#0e40c0"/></svg>