<?xml version="1.0" encoding="utf-8"?>
<!-- Generator: Adobe Illustrator 27.6.1, SVG Export Plug-In . SVG Version: 6.00 Build 0)  -->
<svg version="1.1" id="Layer_1" xmlns="http://www.w3.org/2000/svg" xmlns:xlink="http://www.w3.org/1999/xlink" x="0px" y="0px"
	 viewBox="0 0 39.7 39.7" style="enable-background:new 0 0 39.7 39.7;" xml:space="preserve">
<style type="text/css">
	.st0{fill:none;stroke:#848484;stroke-width:1.5;stroke-linecap:round;stroke-linejoin:round;}
</style>
<g id="Group_11" transform="translate(-573.518 -584.9)">
	<g id="Group_10" transform="translate(575.018 611.877)">
		<path id="Path_20" class="st0" d="M16.8-16.8l-7.4-0.6L0.7-8.7l7.4,0.6"/>
		<path id="Path_21" class="st0" d="M28-5.6l0.6,7.4l-8.6,8.6L19.3,3"/>
	</g>
	<path id="Path_22" class="st0" d="M605.6,603.7c6.7-6.6,5.3-16.4,5.3-16.4s-9.8-1.4-16.4,5.3c-3.8,3.9-11.2,11.2-11.2,11.2l2.9,2.9
		l-1,3l3.4,3.4l3-1l2.9,2.9C594.4,614.9,601.7,607.5,605.6,603.7z"/>
	<path id="Path_23" class="st0" d="M586,606.8c-2.1-0.1-4.1,0.7-5.5,2.2c-4.6,4.6-0.9,8.7-4.7,13.3c4.6-3.8,8.7-0.1,13.3-4.7
		c1.5-1.4,2.3-3.5,2.2-5.5"/>
	<circle id="Ellipse_5" class="st0" cx="598.1" cy="600" r="3.6"/>
	<path id="Path_24" class="st0" d="M601.1,588.4c0.4,4.6,4.1,8.2,8.6,8.6"/>
	<line id="Line_6" class="st0" x1="592.5" y1="605.6" x2="589.9" y2="608.2"/>
	<line id="Line_7" class="st0" x1="586.7" y1="611.4" x2="584" y2="614.1"/>
</g>
</svg>
