<?xml version="1.0" encoding="utf-8"?>
<!-- Generator: Adobe Illustrator 27.6.1, SVG Export Plug-In . SVG Version: 6.00 Build 0)  -->
<svg version="1.1" id="Layer_1" xmlns="http://www.w3.org/2000/svg" xmlns:xlink="http://www.w3.org/1999/xlink" x="0px" y="0px"
	 viewBox="0 0 39.7 39.7" style="enable-background:new 0 0 39.7 39.7;" xml:space="preserve">
<style type="text/css">
	.st0{fill:url(#SVGID_1_);}
	.st1{fill:none;stroke:#FFFFFF;stroke-width:1.5;stroke-linecap:round;stroke-linejoin:round;}
</style>
<linearGradient id="SVGID_1_" gradientUnits="userSpaceOnUse" x1="3.0845" y1="19.8427" x2="36.6006" y2="19.8427">
	<stop  offset="0" style="stop-color:#1485EF"/>
	<stop  offset="1" style="stop-color:#990AE2"/>
</linearGradient>
<path class="st0" d="M36.1,6.1L20,1.5c-0.1,0-0.3,0-0.4,0l-16,4.6C3.3,6.2,3.1,6.4,3.1,6.8c0,0.3,0,6.8,2,14
	c2.7,9.6,7.7,15.6,14.5,17.4c0.1,0,0.1,0,0.2,0s0.1,0,0.2,0c6.8-1.8,11.8-7.8,14.5-17.4c2-7.2,2-13.7,2-14
	C36.6,6.4,36.4,6.2,36.1,6.1z"/>
<path id="Path_25" class="st1" d="M14.4,18l5.2,4.9l8.5-8.1"/>
</svg>
