<?xml version="1.0" encoding="utf-8"?>
<!-- Generator: Adobe Illustrator 27.6.1, SVG Export Plug-In . SVG Version: 6.00 Build 0)  -->
<svg version="1.1" id="Layer_1" xmlns="http://www.w3.org/2000/svg" xmlns:xlink="http://www.w3.org/1999/xlink" x="0px" y="0px"
	 viewBox="0 0 39.7 39.7" style="enable-background:new 0 0 39.7 39.7;" xml:space="preserve">
<style type="text/css">
	.st0{fill:url(#SVGID_1_);}
	.st1{fill:url(#SVGID_00000038394336935153246820000010136767741081785018_);}
</style>
<g>
	<linearGradient id="SVGID_1_" gradientUnits="userSpaceOnUse" x1="11.5342" y1="17.1056" x2="28.1435" y2="17.1056">
		<stop  offset="0" style="stop-color:#1485EF"/>
		<stop  offset="1" style="stop-color:#990AE2"/>
	</linearGradient>
	<path class="st0" d="M18.9,32.3c0.2,0.3,0.6,0.4,0.9,0.4c0.3,0,0.5-0.1,0.7-0.3c0,0,0.1-0.1,0.2-0.2l7.2-8.6
		c0.2-0.2,0.3-0.5,0.2-0.8c0-0.3-0.2-0.5-0.4-0.7c-0.2-0.2-0.5-0.3-0.7-0.2H24V2.2c0-0.3-0.2-0.6-0.6-0.7c-0.3-0.1-0.7,0.1-0.8,0.3
		l-6.8,11.7c-0.1,0.1-0.1,0.2-0.1,0.4v8h-3c-0.3,0-0.6,0.1-0.8,0.3c-0.2,0.2-0.3,0.5-0.3,0.8c0,0.3,0.1,0.5,0.2,0.7L18.9,32.3z"/>
	
		<linearGradient id="SVGID_00000164471600851016703120000010058298952148163246_" gradientUnits="userSpaceOnUse" x1="4.7773" y1="37.4668" x2="34.9077" y2="37.4668">
		<stop  offset="0" style="stop-color:#1485EF"/>
		<stop  offset="1" style="stop-color:#990AE2"/>
	</linearGradient>
	<path style="fill:url(#SVGID_00000164471600851016703120000010058298952148163246_);" d="M34.2,36.7H5.5c-0.4,0-0.8,0.3-0.8,0.8
		s0.3,0.8,0.8,0.8h28.6c0.4,0,0.8-0.3,0.8-0.8S34.6,36.7,34.2,36.7z"/>
</g>
</svg>
