<?xml version="1.0" encoding="utf-8"?>
<!-- Generator: Adobe Illustrator 27.6.1, SVG Export Plug-In . SVG Version: 6.00 Build 0)  -->
<svg version="1.1" id="Layer_1" xmlns="http://www.w3.org/2000/svg" xmlns:xlink="http://www.w3.org/1999/xlink" x="0px" y="0px"
	 viewBox="0 0 39.7 39.7" style="enable-background:new 0 0 39.7 39.7;" xml:space="preserve">
<style type="text/css">
	.st0{fill:none;stroke:#848484;stroke-width:1.5;}
</style>
<g id="Group_12" transform="translate(-4408.638 65.941)">
	<path id="Path_35" class="st0" d="M4424.1-28.5l-4.4-1.8c-0.4-0.2-0.6-0.6-0.5-1l1.3-4.1c0.1-0.3,0-0.7-0.3-0.9
		c-0.5-0.4-0.9-0.8-1.3-1.3c-0.2-0.2-0.6-0.3-0.9-0.2l-4.1,1.4c-0.4,0.1-0.8-0.1-1-0.4l-1.9-4.4c-0.2-0.4,0-0.8,0.4-1l3.8-2
		c0.3-0.2,0.5-0.5,0.4-0.8c-0.1-0.6-0.1-1.2,0-1.8c0-0.3-0.2-0.6-0.4-0.8l-3.9-1.9c-0.4-0.2-0.6-0.6-0.4-1l1.8-4.4
		c0.2-0.4,0.6-0.6,1-0.5l4.1,1.3c0.3,0.1,0.7,0,0.9-0.3c0.4-0.5,0.8-0.9,1.3-1.3c0.2-0.2,0.3-0.6,0.2-0.9l-1.4-4.1
		c-0.1-0.4,0.1-0.8,0.4-1l4.4-1.9c0.4-0.2,0.8,0,1,0.4l2,3.8c0.2,0.3,0.5,0.5,0.8,0.4c0.6-0.1,1.2-0.1,1.8,0c0.3,0,0.6-0.2,0.8-0.4
		l1.9-3.9c0.2-0.4,0.6-0.6,1-0.4l4.4,1.8c0.4,0.2,0.6,0.6,0.5,1l-1.3,4.1c-0.1,0.3,0,0.7,0.3,0.9c0.5,0.4,0.9,0.8,1.3,1.3
		c0.2,0.2,0.6,0.3,0.9,0.2l4.1-1.4c0.4-0.1,0.8,0.1,1,0.4l1.9,4.4c0.2,0.4,0,0.8-0.4,1l-3.8,2c-0.3,0.2-0.5,0.5-0.4,0.8
		c0.1,0.6,0.1,1.2,0,1.8c0,0.3,0.2,0.6,0.4,0.8l3.9,1.9c0.4,0.2,0.5,0.6,0.4,1l-1.8,4.4c-0.2,0.4-0.6,0.6-1,0.5l-4.1-1.3
		c-0.3-0.1-0.7,0-0.9,0.3c-0.4,0.5-0.8,0.9-1.3,1.3c-0.2,0.2-0.3,0.6-0.2,0.9l1.4,4.1c0.1,0.4-0.1,0.8-0.4,1l-4.4,1.9
		c-0.4,0.2-0.8,0-1-0.4l-2-3.8c-0.2-0.3-0.5-0.5-0.8-0.4c-0.6,0.1-1.2,0.1-1.8,0c-0.3,0-0.6,0.2-0.8,0.4l-1.9,3.9
		C4424.9-28.5,4424.5-28.4,4424.1-28.5z"/>
	<path id="Path_36" class="st0" d="M4426.3-40.7c3,1.2,6.4-0.3,7.6-3.3c0,0,0,0,0,0c1.2-3-0.3-6.4-3.3-7.6c0,0,0,0,0,0
		c-3-1.2-6.4,0.3-7.6,3.3C4421.8-45.3,4423.3-41.8,4426.3-40.7z"/>
</g>
</svg>
