<?xml version="1.0" encoding="utf-8"?>
<!-- Generator: Adobe Illustrator 27.6.1, SVG Export Plug-In . SVG Version: 6.00 Build 0)  -->
<svg version="1.1" id="Layer_1" xmlns="http://www.w3.org/2000/svg" xmlns:xlink="http://www.w3.org/1999/xlink" x="0px" y="0px"
	 viewBox="0 0 39.7 39.7" style="enable-background:new 0 0 39.7 39.7;" xml:space="preserve">
<style type="text/css">
	.st0{fill:url(#SVGID_1_);}
	.st1{fill:none;stroke:#FFFFFF;stroke-width:1.5;}
	.st2{fill:none;stroke:#FFFFFF;stroke-width:1.5;stroke-linecap:round;}
</style>
<linearGradient id="SVGID_1_" gradientUnits="userSpaceOnUse" x1="1.4805" y1="19.8425" x2="38.2046" y2="19.8425">
	<stop  offset="0" style="stop-color:#1485EF"/>
	<stop  offset="1" style="stop-color:#990AE2"/>
</linearGradient>
<path class="st0" d="M19.8,1.5C9.7,1.5,1.5,9.7,1.5,19.8c0,10.1,8.2,18.4,18.4,18.4c10.1,0,18.4-8.2,18.4-18.4
	C38.2,9.7,30,1.5,19.8,1.5z"/>
<g id="Group_67" transform="translate(-193 -804.25)">
	<ellipse class="st1" cx="212.8" cy="832.8" rx="2.1" ry="2.2"/>
	<path id="Path_105" class="st2" d="M209.1,817.4c0-2.1,1.7-3.7,3.7-3.7s3.7,1.7,3.7,3.7c0,1-0.4,1.9-1.1,2.6
		c-0.7,0.5-1.3,1.1-1.9,1.7c-0.7,0.9-0.7,3-0.7,3v2.9"/>
</g>
</svg>
