<?xml version="1.0" encoding="utf-8"?>
<!-- Generator: Adobe Illustrator 27.6.1, SVG Export Plug-In . SVG Version: 6.00 Build 0)  -->
<svg version="1.1" id="Layer_1" xmlns="http://www.w3.org/2000/svg" xmlns:xlink="http://www.w3.org/1999/xlink" x="0px" y="0px"
	 viewBox="0 0 39.7 39.7" style="enable-background:new 0 0 39.7 39.7;" xml:space="preserve">
<style type="text/css">
	.st0{fill:url(#SVGID_1_);}
	.st1{fill:none;stroke:#FFFFFF;stroke-width:1.5;}
</style>
<g id="Group_12" transform="translate(-4408.638 65.941)">
	<linearGradient id="SVGID_1_" gradientUnits="userSpaceOnUse" x1="4410.0923" y1="-46.0987" x2="4446.8691" y2="-46.0987">
		<stop  offset="0" style="stop-color:#1485EF"/>
		<stop  offset="1" style="stop-color:#990AE2"/>
	</linearGradient>
	<path class="st0" d="M4446-43.4l-3.9-2c0-0.6,0-1.3,0-2l3.8-2c0.7-0.4,1-1.3,0.7-2l-1.9-4.4c-0.3-0.7-1.2-1.1-1.9-0.9l-4.1,1.4
		c-0.4-0.5-0.9-0.9-1.4-1.4l1.3-4.1c0.2-0.8-0.2-1.6-0.9-1.9l-4.4-1.8c-0.8-0.3-1.6,0-2,0.8l-2,3.9c-0.6,0-1.3,0-2,0l-2-3.8
		c-0.4-0.7-1.3-1-2-0.7l-4.4,1.9c-0.7,0.3-1.1,1.2-0.9,1.9l1.4,4.1c-0.5,0.4-0.9,0.9-1.4,1.4l-4.1-1.3c-0.8-0.2-1.6,0.2-1.9,0.9
		l-1.8,4.4c-0.3,0.8,0,1.6,0.8,2l3.9,2c0,0.6,0,1.3,0,2l-3.8,2c-0.7,0.4-1,1.3-0.7,2l1.9,4.4c0.3,0.7,1.2,1.1,1.9,0.9l4.1-1.4
		c0.4,0.5,0.9,0.9,1.4,1.4l-1.3,4.1c-0.2,0.8,0.2,1.6,0.9,1.9l4.4,1.8l0,0c0.2,0.1,0.4,0.1,0.6,0.1c0.6,0,1.1-0.3,1.4-0.9l2-3.9
		c0.6,0,1.3,0,2,0l2,3.8c0.4,0.7,1.3,1,2,0.7l4.4-1.9c0.7-0.3,1.1-1.2,0.9-1.9l-1.4-4.1c0.5-0.4,0.9-0.9,1.4-1.4l4.1,1.3
		c0.8,0.2,1.6-0.2,1.9-0.9l1.8-4.4C4447.1-42.2,4446.7-43,4446-43.4z"/>
</g>
<path id="Path_36" class="st1" d="M17.7,25.3c3,1.2,6.4-0.3,7.6-3.3c0,0,0,0,0,0c1.2-3-0.3-6.4-3.3-7.6c0,0,0,0,0,0
	c-3-1.2-6.4,0.3-7.6,3.3C13.2,20.7,14.7,24.1,17.7,25.3z"/>
</svg>
