<svg height="159" viewBox="0 0 231 159" width="231" xmlns="http://www.w3.org/2000/svg"><g fill="none" fill-rule="evenodd"><g fill-rule="nonzero"><path d="m230.169 150.038c0 4.418673-23.728736 8-52.999768 8-29.271496 0-53.000232-3.581327-53.000232-8 0-4.417609 23.728736-8 53.000232-8 29.271032 0 52.999768 3.582391 52.999768 8" fill="#e2e2e2"/><path d="m75 152c0 3.866339-16.7892001 7-37.4998356 7-20.7109643 0-37.5001644-3.133661-37.5001644-7 0-3.865408 16.7892001-7 37.5001644-7 20.7106355 0 37.4998356 3.134592 37.4998356 7" fill="#e2e2e2"/><path d="m206.529 59.4468222s10.915 7.948 18.156 25.425l-8.063 1.897s-15.369-12.045-18.52-20.585c-3.15-8.541 8.427-6.737 8.427-6.737" fill="#32495b"/><path d="m136.509 49.8528222 3.969 19.174s13.482-16.188 23.708-18.56l3.66 8.98s-9.811 12.387-26.892 18.04c0 0-.238 1.477-2.778 1.477-2.056 0-2.136-1.512-2.136-1.512s-2.448-2.467-3.027-10.303c-.579-7.835 0-17.603 0-17.603z" fill="#32495b"/><path d="m150.506 108.125822c1.749 1.405 10.836 8.062 25.35 7.515 11.376-.429 24.527-5.858 31.365-9.061-.063.358 2.538-18.8959998 1.04-29.2639998-.675-4.682-1.907-8.518-3.483-11.741l3.54-6.031c-5.292-4.679-13.808-11.233-20.485-11.742 0 0-1.449-.688-2.069-1.227l-.001.001s.856 7.83-10.224 8.655c-11.789.878-10.576-8.557-10.576-8.557-.557.72-1.167 1.466-1.81 2.246-6.523 1.513-13.95 9.277-18.474 14.702 0 0 3.693 5.707 6.931 9.096-9.721 16.646-6.109 31.2639998-1.104 35.4079998" fill="#b5e5e0"/><path d="m183.638 52.1348222c11.03 1.788 18.707 7.518 22.537 11.061l2.143-3.652c-5.292-4.679-13.808-11.233-20.485-11.742 0 0-1.449-.688-2.069-1.227l-.001.001s.334 3.062-2.125 5.559" fill="#e1f9f8"/><path d="m166.906 52.7928222c-2.398-2.544-1.943-6.119-1.943-6.119-.557.72-1.167 1.466-1.81 2.246-6.523 1.513-13.95 9.277-18.474 14.702l1.752 2.156c2.97-3.56 9.742-10.25 20.475-12.985" fill="#e1f9f8"/><path d="m180.54 128.596822 2.168 14.325.85 2.61 3.762 1.518 2.259-3.125s3.701-11.113 4.448-16.748z" fill="#32495b"/><path d="m199.526 149.624822s2.162-4.633-1.916-6.893c-4.078-2.261-8.023 0-8.023 0-.608.32-1.672.781-3.072.882-1.775.129-3.148-.391-3.807-.692-.296.874-.589 1.967-.761 3.245-.18 1.334-.179 2.51-.116 3.458z" fill="#394c59"/><path d="m193.284 146.096822c-.347.059-.678-.178-.736-.525l-.615-3.66c.389-.08.814-.141 1.269-.168l.607 3.617c.058.346-.178.678-.525.736" fill="#465a5b"/><path d="m190.592 146.096822c-.347.059-.678-.178-.736-.525l-.461-2.744.192-.096s.376-.215 1.014-.446l.516 3.075c.058.346-.178.678-.525.736" fill="#465a5b"/><path d="m173.209 128.596822-2.167 14.325-.85 2.61-3.762 1.518-2.259-3.125s-3.701-11.113-4.449-16.748z" fill="#32495b"/><path d="m154.223 149.624822s-2.161-4.633 1.916-6.893c4.078-2.261 8.024 0 8.024 0 .607.32 1.672.781 3.071.882 1.776.129 3.148-.391 3.808-.692.296.874.589 1.967.76 3.245.18 1.334.18 2.51.117 3.458-5.899 0-11.797 0-17.696 0" fill="#394c59"/><path d="m175.856 115.640822c-14.514.547-23.601-6.11-25.35-7.515 2.541 11.382 6.09 19.776 6.09 19.776s7.072 1.25 17.392 1.534l1.084-7.414 1.022.526 1.785 6.944407c7.169.011593 15.508-.496407 23.979-2.128407 0 0 3.255-8.814 5.363-20.784-6.838 3.203-19.989 8.632-31.365 9.061" fill="#62bfbd"/><path d="m168.143 40.9458222c-.428 1.849-1.602 3.689-3.18 5.728 0 0-1.213 9.436 10.576 8.557 11.08-.825 10.224-8.655 10.224-8.655l.001-.001c-2.473-2.149-4.328-4.46-4.961-7.577-2.055-10.114 14.526-12.746 14.526-12.746l-1.393-7.354s-8.204 7.248-14.897 7.947c-6.694.7-1.943-12.928-1.943-12.928l-9.335 3.623s4.918 8.474 1.834 10.532c-3.084 2.057-10.466-3.348-10.466-3.348l-.137 5.259s10.936 3.248 9.151 10.963" fill="#32495b"/><path d="m160.954 51.5888222-.185.227z" fill="#7ac943"/><g fill="#32495b"><path d="m132.702 35.0188222s-1.662 3.81 1.906 7.547l-3.064 2.969-4.57-3.833s1.029-4.942-.516-7.669c-.221-.391-.662-.604-1.107-.538-.488.073-.866.467-.92.958l-.687 6.396-.809-2.837-3.703-1.306 2.182 8.829 11.382 6.288 2.485 1.606 1.791-4.127 1.673-7.076s-3.134-5.821-6.043-7.207"/><path d="m155.47 5.7188222c-.306-.598.297-1.25.921-1 2.881 1.153 9.186 3.011 16.536 1.042 6.385-1.71 9.753-4.066 11.365-5.566.492-.458 1.295-.05 1.213.617-.417 3.369-2.589 9.889-12.95 12.149-10.725 2.339-15.429-4.008-17.085-7.242"/><path d="m189.329 16.0128222c-.236-.508.288-1.033.801-.805 2.35 1.05 7.497 2.785 13.63 1.401 5.317-1.2 8.179-3.028 9.568-4.216.43-.368 1.089-.008.996.55-.46 2.776-2.479 8.083-11.108 9.609-8.934 1.579-12.618-3.805-13.887-6.539"/><path d="m143.505 22.1458222c-.196-.43.245-.865.679-.678 1.447.622 4.236 1.349 8.485.531 4.147-.799 5.903-2.172 6.632-3.064.259-.318.769-.206.884.188.626 2.125 1.168 6.887-5.705 8.599-6.759 1.683-9.862-3.128-10.975-5.576"/></g><path d="m182.641 12.4468222c0 5.744-5.11 10.4-11.413 10.4s-11.413-4.656-11.413-10.4c0-5.743 5.11-10.399 11.413-10.399s11.413 4.656 11.413 10.399" fill="#b5e5e0"/><path d="m182.641 12.4468222c0 5.744-5.11 10.4-11.413 10.4s-11.413-4.656-11.413-10.4c0-5.743 5.11-10.399 11.413-10.399s11.413 4.656 11.413 10.399" fill="#b5e5e0"/><path d="m160.602 15.5968222c0-5.743 5.11-10.4 11.413-10.4 4.805 0 8.912 2.707 10.596 6.535-.404-5.409-5.344-9.684-11.383-9.684-6.303 0-11.413 4.656-11.413 10.399 0 1.367.292 2.67.817 3.865-.018-.236-.03-.474-.03-.715" fill="#e1f9f8"/><path d="m161.261 27.1968222c0 4.042-3.596 7.319-8.032 7.319s-8.032-3.277-8.032-7.319c0-4.041 3.596-7.318 8.032-7.318s8.032 3.277 8.032 7.318" fill="#b5e5e0"/><path d="m146.132 29.8358222c0-4.042 3.596-7.319 8.032-7.319 3.028 0 5.661 1.527 7.031 3.781-.488-3.617-3.865-6.419-7.966-6.419-4.436 0-8.032 3.277-8.032 7.318 0 1.284.365 2.489 1.002 3.538-.04-.295-.067-.594-.067-.899" fill="#e1f9f8"/><path d="m212.385 22.5168222c0 5.295-4.711 9.588-10.523 9.588s-10.523-4.293-10.523-9.588c0-5.296 4.711-9.588 10.523-9.588s10.523 4.292 10.523 9.588" fill="#b5e5e0"/><path d="m192.676 25.3068222c0-5.296 4.71-9.589 10.522-9.589 3.712 0 6.969 1.756 8.842 4.402-1.17-4.133-5.277-7.191-10.178-7.191-5.812 0-10.523 4.292-10.523 9.588 0 1.913.622 3.691 1.681 5.187-.217-.768-.344-1.568-.344-2.397" fill="#e1f9f8"/><path d="m170.228 16.6058222c0 1.199-.972 2.172-2.172 2.172-1.198 0-2.171-.973-2.171-2.172s.973-2.171 2.171-2.171c1.2 0 2.172.972 2.172 2.171" fill="#32495b"/><path d="m152.882 29.1968222c0 .932-.755 1.687-1.687 1.687-.931 0-1.686-.755-1.686-1.687 0-.931.755-1.686 1.686-1.686.932 0 1.687.755 1.687 1.686" fill="#32495b"/><path d="m198.97 24.2378222c0 .999-.81 1.809-1.809 1.809-1 0-1.809-.81-1.809-1.809 0-1 .809-1.81 1.809-1.81.999 0 1.809.81 1.809 1.81" fill="#32495b"/><g fill="#a0c1bb" transform="translate(164 54)"><path d="m8.016 62.070822c-.141 0-.281-.057-.382-.169-8.367-9.218-8.07-25.2939998-6.349-37.1569998 1.856-12.785 5.719-23.562 5.757-23.67.097-.268.392-.408.661-.31.268.097.407.393.31.661-.154.425-15.158 42.658.384 59.7819998.192.212.176.537-.035.729-.099.09-.223.134-.346.134"/><path d="m11.247 6.9608222c0 .613-.497 1.11-1.11 1.11s-1.109-.497-1.109-1.11.496-1.11 1.109-1.11 1.11.497 1.11 1.11"/><path d="m9.007 16.1358222c0 .614-.497 1.11-1.11 1.11-.614 0-1.11-.496-1.11-1.11 0-.612.496-1.109 1.11-1.109.613 0 1.11.497 1.11 1.109"/><path d="m6.065 38.9498222c0 .613-.496 1.11-1.11 1.11-.612 0-1.109-.497-1.109-1.11s.497-1.11 1.109-1.11c.614 0 1.11.497 1.11 1.11"/><path d="m7.127 49.319822c0 .612-.496 1.109-1.109 1.109s-1.11-.497-1.11-1.109c0-.613.497-1.11 1.11-1.11s1.109.497 1.109 1.11"/><path d="m10.615 57.983822c0 .613-.496 1.109-1.109 1.109s-1.11-.496-1.11-1.109.497-1.11 1.11-1.11 1.109.497 1.109 1.11"/></g><path d="m160.466 146.096822c.346.059.678-.178.736-.525l.615-3.66c-.39-.08-.815-.141-1.269-.168l-.607 3.617c-.058.346.178.678.525.736" fill="#465a5b"/><path d="m163.157 146.096822c.348.059.679-.178.737-.525l.461-2.744-.192-.096s-.376-.215-1.014-.446l-.516 3.075c-.059.346.178.678.524.736" fill="#465a5b"/><path d="m207.914 75.2348222s-1.199 2.121-10.725 5.745c-9.527 3.624-21.942 5.789-21.942 5.789l16.388 14.9749998 21.596-9.9039998s.425-9.077-5.317-16.605" fill="#4f6d2f"/><path d="m205.695 91.7938222-17.929 4.644-10.191-23.277 17.325-7.718z" fill="#ffe340"/><path d="m187.766 96.4378222 7.133-14.018-17.324-9.259z" fill="#fcd51a"/><path d="m194.9 65.4428222-2.776 1.236-2.852 17.089 13.102 8.887 3.321-.861z" fill="#fcd51a"/><path d="m164.45 47.3268222s-.198 22.287 14.196 41.732c0 0 14.962 7.471 26.004.38 7.467-4.794 3.264-14.204 3.264-14.204s10.639 14.003 6.551 30.9649998c0 0-7.251 9.655-15.294 11.397 0 0-21.126-13.186-30.454-35.1039998-9.329-21.918-7.139-33.093-7.139-33.093z" fill="#74a5a1"/><path d="m199.13 74.3428222s-6.825 1.23-9.692 7.182c0 0 .585.947 2.288.217 1.703-.731 2.557-1.671 2.557-1.671s.351 1.874 2.307 1.322c0 0-.377 1.344.874 1.634 1.25.289 1.981 0 1.981 0s.337 1.748 2.081 1.243c1.742-.504 6.735-3.99 5.087-5.811-2.53-2.794-5.943-4.263-7.483-4.116" fill="#32495b"/><path d="m205.003 78.8977547s9.222-.0349325 15.126 2.1470675c5.903 2.182 6.104 7.076 2.011 8.649-4.091 1.573-15.295-3.618-19.757-7.291z" fill="#32495b"/></g><path d="m81.0703898 58-16.0703898 20.4811966s19.4871072 15.1467072 29.7304846 24.5188034l17.2695154-19.5274729z" fill="#eac800"/><path d="m82.4862953 98s-2.4326649 16.184717-21.4862953 9.841471v5.970951s8.8629191 3.594856 16.8805396-1.724392c8.0183685-5.320746 7.0862958-14.08803 7.0862958-14.08803z" fill="#394c59"/><path d="m55.2718414 101.866043c-2.4202063 0-36.8702485-.866043-36.8702485-.866043-3.0386449 0-5.1616991 1.047152-6.4015929 3.714596 3.4609931 7.04685 12.211144 12.741718 25.2390793 14.701868 11.1168094 1.672463 19.3759804-.369671 24.7609207-4.597781 0-3.127296 0-5.88194 0-8.067917 0-4.822862-4.3079522-4.884723-6.7281586-4.884723" fill="#74a5a1"/><path d="m44.3731341 71.3169714c15.1797493 3.74264 23.846456 17.998875 21.1330655 28.7341836-2.7141449 10.734551-13.2885983 18.151728-31.595121 15.35572-18.3057683-2.796764-28.17188873-13.072755-26.78162495-24.1311747 1.39026377-11.0584192 13.63107235-25.7815383 37.24368045-19.9587289" fill="#b5e5e0"/><path d="m10.2781324 94.1421895c1.3899847-11.0484474 13.627582-25.7590462 37.2362045-19.9414875 4.4211017 1.090178 8.2893771 3.0724573 11.4856631 5.5983135-3.6631339-3.8904688-8.6400786-7.0067751-14.6344347-8.4832783-23.6078683-5.8175587-35.84621981 8.8930401-37.23620451 19.9407315-.78361048 6.2295886 2.01144287 12.2104473 7.87909401 16.7435313-3.694056-4.050745-5.35705991-8.8748956-4.7303224-13.8578105" fill="#e1f9f8"/><path d="m48 134.967177.1825009 12.032823h3.746151l.0713481-13z" fill="#394c59"/><path d="m49.0276381 146.08515s-1.491319 2.720579-.8808867 5.91485h9.8532486s-1.2720523-6.834604-8.9723619-5.91485" fill="#394c59"/><path d="m18 134.967177.1825009 12.032823h3.746151l.0713481-13z" fill="#394c59"/><path d="m17.7983812 83.5185057s7.8194526-13.2434324 32.9474934-6.7048182c18.5091042 4.816137 17.1322672 28.8159865-1.0073295 30.0549615-20.7913111 1.418777-36.5214432-8.8072983-31.9401639-23.3501433" fill="#537487"/><path d="m57.1286638 112.791484-7.4867098-21.6474246 6.437069-.2008693 2.920977-7.691791-11.7153017-11.3361341-3.088865-10.915265h-1.1574712l-2.3790949 6.8049599h-7.0158046l-2.5142241-6.0547746-1.3362787.017764-8.7929598 47.0498757s16.0408046 5.282726 36.1286638 3.973659" fill="#b5eeea"/><path d="m46 63.4570281-.8020091-2.4570281h-1.3739468l-2.8240441 7h3.1675308z" fill="#cff9f5"/><path d="m24.5842697 108.839856 8.117647-44.631468-.892267-2.208388-1.2941176.017678-8.5155321 46.822178s12.946464 4.378701 30 4.151606c-15.7607403-.209416-27.4157303-4.151606-27.4157303-4.151606" fill="#cff9f5"/><g fill="#2f7274"><path d="m38 75c0 1.1040508-.4477435 2-1 2s-1-.8959492-1-2 .4477435-2 1-2 1 .8959492 1 2"/><path d="m46 75c0 1.1040508-.4474777 2-.9994065 2-.5531158 0-1.0005935-.8959492-1.0005935-2s.4474777-2 1.0005935-2c.5519288 0 .9994065.8959492.9994065 2"/><path d="m55.0761721 84h2.8473325c.8495265 0 1.3635818.8772403.9046038 1.5445028l-1.3769339 1.9955661c-.4155837.6019361-1.3569058.6159346-1.7908486.0248862l-1.4703985-1.995566c-.4890202-.6641518.0233661-1.5693891.8862447-1.5693891"/><path d="m34.0607772 87.4850866.1088238.5967431v-.0026941c.5538853 3.0456799 3.1321725 5.3652998 6.3159665 5.6845506h.0013952l2.1457823.215528c2.1736859.2182221 4.1199579-1.3066384 4.3459765-3.4066892.2246235-2.0987038-1.3547169-3.9764913-3.5284027-4.1947134l-2.1457824-.215528h.0013952l-.0781299.7206717.7380487-.1252756c-.0585975-.3192509-.3292618-.5617198-.6599188-.5953961l-.0781299.7206717.7380487-.1252756-.0013952-.0026941-.1088238-.5967431c-.3794882-2.078498-2.4317936-3.4659594-4.5845518-3.0995619-2.1527582.3650506-3.5897906 2.347908-3.2103024 4.426406"/></g><path d="m17.8192335 101c-5.2596879 0-7.8192335 3.110622-7.8192335 12.273687v12.800615c0 5.254829-.06112711 9.921142 7.8192335 9.921142h34.4562288c5.3705066 0 9.7245377.465339 9.7245377-8.009604 0-8.474942 0-16.198651 0-21.118923s-4.3654951-4.983382-6.818029-4.983382-37.3627375-.883535-37.3627375-.883535" fill="#b5e5e0"/><path d="m80.5332903 90.456271s-2.6032748 7.249841 3.6936274 9.2327035c6.2969022 1.9820785 8.9934815-5.9901586 8.7590634-10.3057082-.2328759-4.3147652-3.2903357-3.917879-3.4815715-2.0354146 0 0-.7857634-1.7561824-2.274781-.8424028-1.6964468 1.0408459 1.1659216 5.8999571-1.5483933 7.1870922-2.7158572 1.2879193-3.0482065-1.5059716-3.0482065-1.5059716z" fill="#394c59"/><path d="m15.8015677 127.677567c0-4.408365 0-3.050951 0-10.737643 0-7.685932 2.5595313-10.295057 7.8176906-10.295057 0 0 34.9117322.740684 37.3642661.740684.3118211 0 .6549771.000761 1.0164756.010647 0-.176426 0-.358175 0-.528517 0-4.920913-4.3654951-4.984031-6.818029-4.984031s-37.3627375-.88365-37.3627375-.88365c-5.2596879 0-7.8192335 3.111027-7.8192335 12.275285v12.802282c0 5.255513-.06112711 9.922433 7.8192335 9.922433h5.754933c-7.8322117-.015209-7.7725988-3.922433-7.7725988-8.322433" fill="#e1f9f8"/><path d="m53 135.497759c.6855037.002 1.3538084.009 2 0-.6248976 0-1.2940213 0-2 0" fill="#e1f9f8"/><path d="m14.8568753 106.981875s-5.13469697 5.528573-1.1433107 10.773532c4.6057363 6.0517 17.2864354 4.589529 17.2864354 4.589529l-.9596858 3.486247s-22.64631857 2.492459-23.03245988-11.676838c-.30755286-11.306544 8.51928978-12.154345 8.51928978-12.154345z" fill="#394c59"/><path d="m80 57.3557489 4.729737 26.4877285 26.705552 1.1565226 2.564711-2.5231137-31.7593167-28.4768863z" fill="#ffe600"/><path d="m37.7145241 111.221794-7.3647288 23.540032-.3497953 6.064379.8474121.173795 3.7504208-5.902887 6.3336374-22.815629c.2700303-.973561-.2832025-1.988649-1.2155022-2.230117-.8539982-.220704-1.7255594.288377-2.001444 1.170427" fill="#48595b"/><path d="m29.2803127 122.684253c-1.2636826 3.288446 1.9283765 7.406037 5.902024 7.314239 3.9736475-.091058 2.331777-2.471887.7861725-2.648821 0 0 1.8962878.655913 2.2790599-.728462.382772-1.383635-1.5585928-2.123943-1.5585928-2.123943s2.6205751.416053 2.2805879-1.813013c-.3392231-2.229807-7.8777695-4.717981-9.6892515 0" fill="#394c59"/><path d="m18.0280303 146.08515s-1.4912538 2.720579-.8816121 5.91485h9.8535818s-1.2719967-6.834604-8.9719697-5.91485" fill="#394c59"/></g></svg>