<svg height="352" viewBox="0 0 326 352" width="326" xmlns="http://www.w3.org/2000/svg"><g fill="none" fill-rule="evenodd"><path d="m228.167 343.825908c0 4.153-51.08 7.519-114.08 7.519-63.009 0-114.087-3.366-114.087-7.519 0-4.152 51.078-7.519 114.087-7.519 63 0 114.08 3.367 114.08 7.519" fill="#e2e2e2"/><g fill="#1bc4cc"><path d="m231.757 79.2269082s-6.89 32.5339998-31.87 53.1069998c-22.37 18.416-54.68 25.676-54.68 25.676l4.6 15.641s43.03-17.361 62.51-38.388c20.68-22.332 27.05-55.1969998 27.05-55.1969998z"/><path d="m187.647 341.730908h.01s-.39-2.488-4.26-3.506c-2.77-.732-5.25.251-6.42.863-1.43.214-3.63.372-6.23-.143-2.42-.479-4.28-1.36-5.49-2.052-1.35-1.357-3.22-2.993-5.74-4.339-1.91-1.022-3.43-1.586-3.43-1.586 5.24-14.837 1.23-38.658 1.23-38.658l-16.16 13.477c9.75 9.983 9.97 24.925 7.66 29.17s-.42 8.664-.42 8.664h37.99c.75 0 1.37-.614 1.37-1.373 0-.183-.04-.356-.11-.517"/><path d="m22.924 341.730908h-.006s.387-2.488 4.251-3.506c2.777-.732 5.251.251 6.429.863 1.425.214 3.625.372 6.228-.143 2.419-.479 4.283-1.36 5.492-2.052 1.35-1.357 3.216-2.993 5.731-4.339 1.911-1.022 3.44-1.586 3.44-1.586-5.24-14.837-1.233-38.658-1.233-38.658l16.161 13.477c-9.749 9.983-9.976 24.925-7.663 29.17s.415 8.664.415 8.664h-37.981c-.758 0-1.373-.614-1.373-1.373 0-.183.043-.356.109-.517"/></g><path d="m109.767.14290823c-22.84-1.483-55.715 8.286-59.672 42.93999997-3.957 34.655 14.632 46.708 19.562 51.323 4.92 4.615 14.67 25.0649998 6.75 35.2209998s-56.407 61.968-46.374 136.096c3.831 28.309 26.474 45.6 58.474 49.573 32.01 3.972 57.12-2.373 76.6-21.98 16.49-16.601 20.51-42.811 16.53-65.483-6.15-35.06-36.96-83.192-41.67-90.196-6.78-10.092-10.53-19.946-3.96-31.679 11.12-19.8739998 24.36-20.4039998 26.02-56.1949998 1.54-33.365-26.76-47.96499997-52.26-49.61999997" fill="#5ddce2"/><path d="m48.763 231.379908c1.774-14.189 5.225-28.45 11.653-41.283 8.381-16.737 20.941-31.222 27.651-48.823 3.57-9.346 5.52-19.438 2.66-29.236-2.9-9.932-9.59-17.8609998-15.94-25.7729998-11.14-13.888-17.078-30.525-9.53-47.621 6.79-15.392 20.63-27.431 37.47-30.02399997 15.2-2.339 31.75 2.56999997 43.89 11.86999997 8.17 6.26 13 14.471 15.36 23.527-1.77-29.304-28.23-42.31799997-52.21-43.87399997-22.84-1.483-55.715 8.286-59.672 42.93999997-3.957 34.655 14.632 46.708 19.562 51.323 4.92 4.615 14.67 25.0649998 6.75 35.2209998s-56.407 61.968-46.374 136.096c2.935 21.689 16.922 36.902 37.694 44.621-20.134-19.309-22.253-52.655-18.964-78.964" fill="#8eeded"/><path d="m157.417 51.2259082c.83 26.661-21.42 48.9829998-49.68 49.8569998s-51.838-20.0299998-52.663-46.6919998c-.824-26.661 20.843-47.95199997 49.103-48.82599997s52.42 18.99999997 53.24 45.66099997" fill="#1bc4cc"/><path d="m153.847 51.3719082c.76 24.799-19.92 45.56-46.21 46.373s-48.22-18.63-48.987-43.429 19.387-44.60199997 45.677-45.41499997c26.28-.813 48.75 17.67299997 49.52 42.47099997" fill="#d7f7f9"/><path d="m56.01 28.2009082s-11.526.949-18.135-10.455c-.734-1.268-2.665-.878-2.847.576-.853 6.764.126 20.321 16.823 33.831z" fill="#5ddce2"/><path d="m155.947 28.2009082s11.53.949 18.13-10.455c.74-1.268 2.67-.878 2.85.576.85 6.764-.12 20.321-16.82 33.831z" fill="#5ddce2"/><path d="m141.047 49.2269082c.29 10.272-7.47 18.871-17.33 19.208-9.85.337-18.08-7.717-18.36-17.988-.29-10.272 7.27-18.475 17.12-18.811 9.86-.337 18.28 7.32 18.57 17.591" fill="#040707"/><path d="m137.837 49.8319082c.07 2.558-1.86 4.699-4.32 4.783-2.45.084-4.5-1.922-4.57-4.479-.07-2.558 1.81-4.601 4.26-4.685 2.46-.084 4.56 1.823 4.63 4.381" fill="#fff"/><path d="m113.717 56.2079082c-3.93-6.695-3.79-14.774-.11-19.793-6.43 4.796-8.06 14.689-3.62 22.262 4.26 7.266 12.58 9.766 19.07 5.971-5.43 1.045-11.64-2.126-15.34-8.44" fill="#444f4e"/><path d="m190.477 67.0439082s-6.9-.887-10.94-3.152c-4.03-2.266-1.91-4.866-1.91-4.866l13.79 1.47z" fill="#1bc4cc"/><path d="m188.407 65.6489082s-4.13 38.4159998-28.82 61.6289998c-24.69 23.212-70.56 25.224-70.56 25.224-.68 1.631-2.32 6.212-.34 10.368 2.8 5.887 11.97 9.067 21.61 5.489 6.68-1.941 15.85-5.437 26.36-10.683 14.35-7.171 31.06-18.002 40.49-32.641 20.6-32.0029998 18.33-59.3859998 18.33-59.3859998z" fill="#1bc4cc"/><path d="m213.037 33.4729082-63.35 9.59c-3.51.531-6.16 3.606-5.93 7.142 0 .038 0 .076.01.114.07.99.31 1.869.62 2.635.95 2.286 3.16 3.799 5.62 4.061 21.55 2.29 43.1 4.581 64.65 6.872z" fill="#4a83a5"/><path d="m185.457 60.9689082s-7.65-3.887-8.61-10.208 3.95-4.418 5.17-1.139c1.22 3.28 5.46 6.265 5.46 6.265s-2.43-6.932-1.16-10.984c1.28-4.052 5.78-1.641 5.36 2.795-.41 4.435 1.28 7.504 2.87 8.106 0 0-.65-5.134 0-8.89s3.81-4.757 5.52-3.273c1.71 1.483-.94 4.205 0 7.673s3.48 8.437 2.85 12.577c-.62 4.139-5.31 4.901-9.63 3.968-4.32-.932-6.12-5.983-6.12-5.983z" fill="#1bc4cc"/><path d="m262.357 21.0859082-42.83 6.231c-6.54.951-12.05 5.511-14 11.823-.93 3.024-1.58 6.583-1.51 10.586.06 3.77.74 7.118 1.67 9.973 2 6.123 7.38 10.531 13.74 11.518 12.72 1.971 25.44 3.943 38.15 5.915z" fill="#6ba4c1"/><path d="m232.267 71.3409082 20.31 5.015s-2.26 4.446-5.82 6.389c-3.57 1.944-16.06 1.51-19.38-2.6s-5.67-13.874-2.2-20.31c3.46-6.436 8.31-1.782 6.83 4.06-1.19 4.672.26 7.446.26 7.446" fill="#1bc4cc"/><path d="m267.867 11.7279082c-5.38.262-10.33 3.153-13.04 7.808-3.37 5.803-6.97 15.183-6.97 28.798 0 14.744 2.91 23.821 5.94 29.282 2.6 4.686 7.47 7.673 12.81 8.064l38.94 2.843v-78.62999997z" fill="#84bdd3"/><path d="m325.097 49.2079082c0 21.714-8.75 39.315-19.55 39.315-10.81 0-19.56-17.601-19.56-39.315 0-21.713 8.75-39.31499997 19.56-39.31499997 10.8 0 19.55 17.60199997 19.55 39.31499997" fill="#4a83a5"/><path d="m317.487 49.2079082c0 18.948-6.39 34.308-14.26 34.308-7.88 0-14.26-15.36-14.26-34.308 0-18.947 6.38-34.307 14.26-34.307 7.87 0 14.26 15.36 14.26 34.307" fill="#11d3f2"/><path d="m306.757 29.6649082c1.06 0 2.09.305 3.08.879.88.513 1.9-.36 1.57-1.322-1.81-5.209-4.37-8.459-7.21-8.459-5.48 0-9.93 12.118-9.93 27.066 0 2.767.15 5.436.44 7.951.15-14.479 5.49-26.115 12.05-26.115" fill="#fff"/><path d="m309.457 67.1429082c-.43 3.097-2.11 5.423-3.75 5.197-1.64-.227-2.62-2.922-2.2-6.018.43-3.097 2.06-5.31 3.7-5.083s2.67 2.808 2.25 5.904" fill="#fff"/><path d="m94.387 107.519908c.89.881 1.96 1.824 3.04 2.575.55.374 1.08.786 1.65 1.102.56.351 1.11.698 1.7.977 2.3 1.206 4.7 2.06 7.17 2.598 1.24.181 2.47.452 3.74.474.63.027 1.25.118 1.88.095l1.91-.057c.63.016 1.26-.077 1.9-.154l1.91-.213c1.28-.182 2.54-.512 3.84-.695l.11-.015c.59-.084 1.13.449 1.19 1.188.06.64-.25 1.225-.72 1.426-1.29.548-2.59 1.059-3.92 1.518l-2.02.509c-.67.184-1.35.326-2.05.385l-2.07.236c-.69.065-1.39.013-2.08.022-1.4.056-2.79-.242-4.18-.411-2.77-.582-5.49-1.624-8-3.215-2.52-1.599-4.79-3.61-6.69-6.448-.4-.598-.34-1.488.14-1.989.42-.436 1.02-.431 1.43-.025z" fill="#1aa8b7"/></g></svg>