<svg height="215" viewBox="0 0 345 215" width="345" xmlns="http://www.w3.org/2000/svg"><g fill="none"><path d="m344.035 189.736s1.52 2.003-9.14 4.203c-12.5 2.583-42.88.636-45.85 5.401-3.24 5.21 20.7 3.74 20.43 9.82-.24 5.17-16.52 4.98-34.88 4.98s-189.11 0-203.97 0c-14.87 0-12.18-4.51-10.08-6.56 3.06-2.97 1.72-5.72-11.66-6.1-12.99-.37-13.18-6.919-27.91-6.919-9.519 0-20.975-2.396-20.975-5.172 58.485-4.099 121.285-6.369 187.895-5.866 54.82.414 106.96 2.667 156.14 6.213" fill="#e2e2e2"/><path d="m303.645 124.758-36.03 4.562-28.56 54.515 27.31 12.575 4.58-2.496 33.03-66.002z" fill="#d3d3d3"/><path d="m299.915 127.396-31.38 3.601-27.64 51.748 25.2 10.995z" fill="#eaeaea"/><path d="m198.875 197.56.07 2.07c.04 1.23 1.05 2.2 2.28 2.2l65.58-.81c1.46 0 2.71-1.03 3.01-2.46l.41-2.05-3.86-.1z" fill="#b2b2b2"/><path d="m266.365 196.41 37.28-71.652 1.32.523c1.16.589 1.63 2.008 1.05 3.176l-36.41 70.743-2.26.67z" fill="#b2b2b2"/><path d="m266.365 196.41-27.31-12.575-59.51 2.487 19.33 11.238z" fill="#d3d3d3"/><g fill="#b2b2b2" transform="translate(179 136)"><path d="m.545 50.322.09 1.561c.05.999.6 1.904 1.46 2.413l19.03 11.254-1.25-3.99z"/><path d="m88.265 44.566-17.04-6.203-1.7 3.244 17.07 6.213z"/><path d="m103.225 15.429-19.38-1.149-1.85 3.525 19.41 1.152z"/><path d="m111.145-.002-20.59 1.466-1.98 3.779 20.63-1.469z"/><path d="m107.385 7.31-20.01.231-1.92 3.653 20.06-.233z"/><path d="m91.905 37.467-17.61-4.958-1.73 3.286 17.65 4.966z"/><path d="m99.425 22.817-18.81-2.379-1.8 3.43 18.85 2.384z"/><path d="m95.665 30.154-18.21-3.685-1.75 3.349 18.23 3.69z"/></g><g fill="#5d7e93"><path d="m223.745 182.159-.94-3.1c-1.13-3.71-3.03-7.116-5.54-10.018l3.58.512c.87.123 1.68-.439 1.87-1.294l.01-.027c.17-.752-.2-1.518-.89-1.867-1.16-.591-2.61-1.197-4.31-1.659-2.06-.556-3.88-.741-5.32-.78-3.18-9.205-8.28-20.814-16.63-32.918-6.63-9.598-13.59-17.038-19.6-22.599-.82 5.131-1.64 10.261-2.46 15.392 5.76 3.76 14.9 10.78 22.63 22.391 5.24 7.879 8.2 15.43 9.93 21.278-2.46 1.699-3.58 4.765-2.79 7.649l1.15 4.195c.19.668.81 1.115 1.5 1.073l.37-.023c.74-.045 1.32-.625 1.37-1.356l.14-1.943 1.56 2.426c.3.46.83.716 1.37.665l.32-.032c.86-.082 1.46-.882 1.3-1.726l-.34-1.79 2.25 2.673c.3.354.75.545 1.21.517.83-.052 1.45-.79 1.36-1.62l-.22-2.033 4.36 7.344c.31.52.91.806 1.51.731.98-.123 1.59-1.131 1.25-2.061"/><path d="m77.395 200.66s.24-1.53 2.61-2.15c1.71-.45 3.23.15 3.96.53.87.13 2.23.23 3.83-.09 1.48-.29 2.63-.84 3.37-1.26.83-.84 1.98-1.84 3.53-2.67 1.17-.629 2.11-.975 2.11-.975-2.43-6.878-1.62-16.893-1.08-21.41.16-1.326 1.53-2.15 2.77-1.66 1.14.448 2.47 1.151 3.76 2.262 1.72 1.481 2.73 3.123 3.3 4.318.3.611.27 1.324-.07 1.909-2.45 4.183-7.62 10.774-4.21 17.036 1.42 2.61.26 5.33.26 5.33h-23.36c-.47 0-.84-.38-.84-.85 0-.11.02-.22.06-.32"/><path d="m184.755 200.66s-.24-1.53-2.61-2.15c-1.71-.45-3.23.15-3.96.53-.88.13-2.23.23-3.83-.09-1.49-.29-2.63-.84-3.38-1.26-.83-.84-1.97-1.84-3.52-2.67-1.18-.629-2.11-.975-2.11-.975 3.22-9.124.75-23.773.75-23.773l-9.93 8.288c5.99 6.138 6.13 15.327 4.71 17.94-1.43 2.61-.26 5.33-.26 5.33h23.36c.46 0 .84-.38.84-.85 0-.11-.02-.22-.06-.32"/><path d="m191.435 14.199s-4.75-5.294-1.62-12.77c.35-.831-.56-1.632-1.34-1.182-3.63 2.096-9.91 7.613-10.32 20.815z"/><path d="m230.685 48.332s5.44 4.58 12.82 1.216c.82-.374 1.65.509 1.22 1.303-1.98 3.694-7.3 10.143-20.48 10.972z"/></g><path d="m222.855 26.993c-10.46-13.288-28.27-19.387-43.26-9.17-14.99 10.218-13.25 18.11-19.2 31.416-5.95 13.307 3.7 14.011-17.92 24.243-21.63 10.23-50.54 23.243-59.11 59.619-3.28 13.891 2.78 33.323 18.62 42.187 15.84 8.865 31.78 13.566 48.68 8.306 14.31-4.453 22.71-19.528 26-30.291 5.09-16.645.74-42.43.05-54.113-.99-16.836 31.13-14.331 46.27-27.719 14.11-12.481 11.56-29.646-.13-44.478" fill="#cae5e1"/><path d="m102.945 117.796c4.6-7.404 9.84-13.924 16.78-18.918 9.04-6.514 19.16-9.489 28.22-16.381 4.82-3.659 9.84-9.039 12.93-14.827s4.98-13.069 6.74-19.345c3.09-11.014 8.88-21.147 20.07-24.961 10.07-3.433 20.39-2.209 28.78 4.445 7.57 6.006 11.83 15.386 12.96 24.862.76 6.38-1.17 11.139-3.88 16.844 11.22-13.78 8.1-28.551-2.74-42.546-10.31-13.331-28.29-19.28-43.21-9.163-14.93 10.118-13.35 18.362-19.17 31.354-5.82 12.994 3.34 14.881-17.93 24.272-21.28 9.39-51.34 25.098-58.66 58.719-2.14 9.838-2.14 26.832 8.54 34.364-5.78-15.901 2.05-34.988 10.57-48.719" fill="#daf2f0"/><path d="m220.805 65.84c-10.76 12.379-29.28 13.899-41.36 3.396-12.09-10.505-13.16-29.055-2.39-41.435 10.76-12.379 28.61-13.654 40.69-3.15 12.08 10.505 13.82 28.81 3.06 41.189" fill="#97b2bc"/><path d="m222.315 67.18c-10.01 11.514-27.44 12.751-38.93 2.763s-12.69-27.419-2.68-38.933c10.01-11.515 26.82-12.529 38.3-2.541 11.49 9.988 13.32 27.196 3.31 38.711" fill="#e4f4f2"/><path d="m216.455 60.258c-4.24 4.879-11.87 5.19-17.05.692-5.17-4.496-5.92-12.095-1.68-16.974s11.6-5.101 16.77-.604c5.17 4.496 6.2 12.007 1.96 16.886" fill="#040707"/><path d="m199.845 53.933c-1.45-4.861.05-9.758 3.39-12.086-5.13 1.647-7.96 7.351-6.31 12.85 1.57 5.275 6.7 8.45 11.7 7.425-3.82-.442-7.41-3.606-8.78-8.189" fill="#444f4e"/><path d="m212.155 60.202c-1.21 1.394-3.39 1.483-4.87.198-1.48-1.286-1.7-3.457-.48-4.852 1.21-1.394 3.31-1.458 4.79-.173s1.77 3.433.56 4.827" fill="#fff"/><g fill="#5d7e93"><path d="m168.085 69.467c.18.747.44 1.587.76 2.326.16.372.31.757.5 1.108.18.363.36.723.58 1.057.81 1.37 1.79 2.59 2.9 3.663.59.494 1.15 1.034 1.81 1.451.31.215.61.464.95.656l1.01.58c.33.213.69.367 1.05.531l1.06.503c.73.314 1.49.547 2.23.869l.06.027c.34.147.45.597.25 1.006-.18.354-.53.56-.84.514-.85-.126-1.7-.278-2.54-.463l-1.22-.383c-.41-.12-.81-.264-1.19-.456l-1.16-.541c-.38-.188-.73-.44-1.1-.659-.74-.42-1.37-1.021-2.05-1.558-1.25-1.193-2.34-2.612-3.14-4.251-.8-1.649-1.34-3.431-1.42-5.529-.01-.442.31-.887.72-.996.36-.095.67.1.75.445z"/><path d="m141.535 74.858c2.65 1.05 3.86 4.118 2.65 6.703-3.83 8.172-9.63 25.714 1.13 41.58 13.37 19.688 28.51 21.346 28.51 21.346l-3.27 5.799s-26.16-7.279-37.84-31.815c-8.81-18.517-1.39-34.75 2.79-41.602 1.25-2.051 3.8-2.896 6.03-2.011"/><path d="m186.635 144.327-4.74 3.912s7.45 3.082 5.61 5.8c-1.49 2.205-4.69.724-4.69.724s2.12 2.219-.19 4.238c-1.28 1.121-4.31-.504-4.31-.504s.52 1.369-.83 2.43c-1.36 1.061-6.93-.518-10.11-3.531-3.17-3.016-1.74-6.609 1.33-9.973 3.06-3.363 7.99-8.424 17.93-3.096"/></g></g></svg>