<svg height="352" viewBox="0 0 229 352" width="229" xmlns="http://www.w3.org/2000/svg"><g fill="none" fill-rule="evenodd"><path d="m228.169 343.825908c0 4.153-51.077 7.519-114.084 7.519-63.008 0-114.085-3.366-114.085-7.519 0-4.152 51.077-7.519 114.085-7.519 63.007 0 114.084 3.367 114.084 7.519" fill="#e2e2e2"/><path d="m30.763 341.730908h-.005s.386-2.488 4.251-3.506c2.776-.732 5.251.251 6.429.863 1.425.214 3.625.372 6.227-.143 2.419-.479 4.282-1.36 5.492-2.052 1.351-1.357 3.216-2.993 5.731-4.339 1.912-1.022 3.44-1.586 3.44-1.586-3.95-11.183-2.646-27.471-1.764-34.815.26-2.157 2.488-3.496 4.509-2.7 1.85.73 4.007 1.873 6.108 3.679 2.804 2.408 4.442 5.078 5.373 7.021.477.995.439 2.153-.119 3.106-3.986 6.8-12.389 17.519-6.842 27.698 2.315 4.245.416 8.664.416 8.664h-37.981c-.759 0-1.374-.614-1.374-1.373 0-.183.043-.356.109-.517" fill="#1bc4cc"/><path d="m205.333 341.730908h.006s-.387-2.488-4.251-3.506c-2.777-.732-5.252.251-6.43.863-1.425.214-3.625.372-6.227-.143-2.42-.479-4.283-1.36-5.492-2.052-1.351-1.357-3.216-2.993-5.732-4.339-1.91-1.022-3.439-1.586-3.439-1.586 5.241-14.837 1.232-38.658 1.232-38.658l-16.158 13.477c9.746 9.983 9.974 24.925 7.661 29.17-2.315 4.245-.415 8.664-.415 8.664h37.98c.759 0 1.374-.614 1.374-1.373 0-.183-.043-.356-.109-.517" fill="#1bc4cc"/><path d="m120.802.14290823c-22.841-1.483-55.718 8.286-59.675 42.93999997-3.956 34.655 14.637 46.708 19.56 51.323 4.922 4.615 14.675 25.0649998 6.754 35.2209998-7.92 10.156-56.409 61.968-46.376 136.096 3.831 28.309 26.475 45.6 58.478 49.573 32.004 3.972 57.116-2.373 76.592-21.98 16.49-16.601 20.515-42.811 16.539-65.483-6.15-35.06-36.967-83.192-41.672-90.196-6.78-10.092-10.53-19.946-3.966-31.679 11.12-19.8739998 24.36-20.4039998 26.018-56.1949998 1.547-33.365-26.758-47.96499997-52.252-49.61999997" fill="#5ddce2"/><path d="m59.795 231.379908c1.774-14.189 5.225-28.45 11.652-41.283 8.383-16.737 20.941-31.222 27.655-48.823 3.565-9.346 5.52-19.438 2.657-29.236-2.901-9.932-9.588-17.8609998-15.937-25.7729998-11.146-13.888-17.08-30.525-9.537-47.621 6.792-15.392 20.638-27.431 37.474-30.02399997 15.197-2.339 31.746 2.56999997 43.887 11.86999997 8.174 6.26 12.999 14.471 15.367 23.527-1.773-29.304-28.232-42.31799997-52.211-43.87399997-22.841-1.483-55.718 8.286-59.675 42.93999997-3.956 34.655 14.637 46.708 19.56 51.323 4.922 4.615 14.675 25.0649998 6.754 35.2209998-7.92 10.156-56.409 61.968-46.376 136.096 2.935 21.689 16.922 36.902 37.692 44.621-20.132-19.309-22.25-52.655-18.962-78.964" fill="#8eeded"/><path d="m67.042 28.2009082s-11.526.949-18.134-10.455c-.735-1.268-2.665-.878-2.848.576-.852 6.764.125 20.321 16.824 33.831z" fill="#5ddce2"/><path d="m166.979 28.2009082s11.526.949 18.134-10.455c.734-1.268 2.665-.878 2.848.576.852 6.764-.125 20.321-16.824 33.831z" fill="#5ddce2"/><path d="m165.257 51.2259082c.825 26.661-21.417 48.9829998-49.679 49.8569998-28.261.874-51.84-20.0299998-52.665-46.6919998-.824-26.661 20.843-47.95199997 49.103-48.82599997 28.262-.874 52.416 18.99999997 53.241 45.66099997" fill="#1bc4cc"/><path d="m161.682 51.3719082c.768 24.799-19.921 45.56-46.207 46.373-26.287.813-48.218-18.63-48.986-43.429-.767-24.799 19.387-44.60199997 45.674-45.41499997 26.286-.813 48.753 17.67299997 49.519 42.47099997" fill="#d7f7f9"/><path d="m141.922 40.4559082c.324 10.508-8.442 19.305-19.58 19.65-11.138.344-20.431-7.895-20.756-18.402-.326-10.508 8.214-18.899 19.352-19.244 11.139-.344 20.658 7.489 20.984 17.996" fill="#040707"/><path d="m122.273 52.3129082c-8.246.255-15.312-4.155-17.577-10.371.443 8.754 8.23 15.574 17.557 15.286 8.949-.277 16.078-6.998 16.555-15.284-2.288 5.811-8.758 10.129-16.535 10.369" fill="#444f4e"/><path d="m127.517 31.7279082c.094 3.004-2.412 5.518-5.595 5.616-3.184.099-5.84-2.256-5.933-5.259s2.348-5.402 5.531-5.5c3.184-.098 5.905 2.14 5.997 5.143" fill="#fff"/><g fill="#1bc4cc"><path d="m151.043 146.204908s37.25 7.295 47.059 33.025c9.245 24.249 5.989 42.119 5.989 42.119l-5.831.146s4.104-46.662-31.957-57.254c-2.234-.982-6.48-3.209-10.142-7.76-3.207-3.986-4.536-7.977-5.118-10.276"/><path d="m203.383 218.497908c-.919-.601-1.555-.941-1.555-.941l-4.153.139s-7.848-1.199-13.011 6.805c-.74 1.148-.251 2.699.986 3.281.786.37 1.704.268 2.389-.267 1.906-1.486 6.009-4.199 9.286-3.009 3.919 1.423 4.439 8.338 1.256 13.733-.696 1.178-.427 2.68.696 3.46l.584.404c.475.329 1.118.224 1.462-.24 1.278-1.728 4.068-6.017 4.423-10.972 0 0 1.096 3.392-.305 8.103-.402 1.353.335 2.776 1.703 3.122l.165.042c.55.14 1.109-.167 1.276-.708.503-1.636 1.497-5.139 1.942-8.619.5 1.825.53 3.88.481 5.147-.028.714.426 1.354 1.113 1.554.94.273 1.885-.391 1.983-1.366 1.357-13.394-10.721-19.668-10.721-19.668"/><path d="m76.362 144.567908s-36.801 9.298-45.206 35.52c-7.921 24.714-3.702 42.382-3.702 42.382l5.829-.169s-6.62-46.373 28.816-58.898c2.217-1.066 6.844-3.669 10.378-9.007 2.548-3.849 3.494-7.559 3.885-9.828"/><path d="m28.007 219.583908c.884-.65 1.501-1.023 1.501-1.023l4.154-.086s7.772-1.622 13.36 6.092c.802 1.107.397 2.682-.807 3.33-.765.412-1.686.359-2.4-.138-1.984-1.381-6.226-3.869-9.434-2.503-3.837 1.633-3.983 8.567-.513 13.781.758 1.139.572 2.653-.508 3.492l-.561.436c-.457.354-1.104.283-1.473-.161-1.37-1.656-4.387-5.788-5.009-10.717 0 0-.912 3.446.742 8.075.475 1.329-.184 2.789-1.531 3.209l-.164.052c-.541.168-1.115-.108-1.311-.639-.591-1.606-1.773-5.051-2.406-8.501-.401 1.849-.32 3.903-.201 5.165.066.712-.354 1.376-1.028 1.612-.924.324-1.903-.289-2.054-1.257-2.078-13.301 9.643-20.219 9.643-20.219"/></g><path d="m130.911 121.994908c-.889-.88-1.963-1.823-3.033-2.575-.55-.373-1.076-.784-1.649-1.101-.555-.351-1.11-.698-1.693-.976-2.292-1.207-4.693-2.061-7.148-2.599-1.239-.181-2.471-.452-3.729-.474-.627-.027-1.253-.118-1.883-.095l-1.894.057c-.635-.016-1.265.076-1.899.154l-1.907.213c-1.274.182-2.532.513-3.828.695l-.11.015c-.591.083-1.124-.449-1.19-1.188-.058-.64.254-1.226.722-1.425 1.282-.55 2.585-1.06 3.904-1.518l2.018-.51c.672-.183 1.351-.326 2.041-.385l2.066-.237c.689-.064 1.387-.012 2.081-.021 1.393-.056 2.777.241 4.166.41 2.758.582 5.468 1.625 7.971 3.216 2.518 1.599 4.778 3.61 6.676 6.448.401.598.337 1.488-.14 1.988-.417.437-1.013.432-1.424.026z" fill="#1aa8b7"/></g></svg>