<svg height="154" viewBox="0 0 167 154" width="167" xmlns="http://www.w3.org/2000/svg"><g fill="none" fill-rule="evenodd"><path d="m55.1184371 59.8330063s-9.192 5.334-17.556 18.152c-1.715 2.628-.516 6.169 2.448 7.2 1.433.498 3.016.294 4.274-.553 4.542-3.062 15.372-10.827 18.519-17.228 4.016-8.169-7.685-7.571-7.685-7.571" fill="#32495b"/><path d="m17.0594371 62.9580063-5.938-1.587s-1.70100004-4.775-4.45000004-6.289c-.387-.213-.868-.156-1.208.127-.379.317-.497.85-.286 1.296l2.742 5.819-3.593-2.145c-1.077-.772-3.093-1.494-4.057-.586-.375.353-.356.955.041 1.283l8.535 6.132 11.54200004 2.704 2.955-2.769c-.25-3.719-6.283-3.985-6.283-3.985" fill="#5d7e93"/><path d="m21.3224371 65.5010063c4.302 1.548 9.992 3.618 15.171 7.144 1.878 1.278 3.58 2.583 5.114 3.871 1.646 1.788 3.292 3.576 4.937 5.364l-2.539 3.483c-.672.921-1.782 1.415-2.916 1.297l-.559-.059c-1.115-.115-2.087-.805-2.564-1.818l-19.422-15.644z" fill="#5d7e93"/><path d="m27.4014371 59.8190063-2.112 4.347-3.116 4.814-6.246-3.962 6.811-3.383 1.056-1.972c.574-1.07 1.819-1.592 2.984-1.25.597.175.894.846.623 1.406" fill="#5d7e93"/><path d="m110.748437 59.4470063s8.591 6.255 15.586 19.87c1.434 2.791-.125 6.189-3.179 6.908-1.477.347-3.031-.019-4.195-.992-4.2-3.515-14.17-12.358-16.638-19.049-3.1499999-8.541 8.426-6.737 8.426-6.737" fill="#32495b"/><path d="m54.7254371 108.125006c1.75 1.406 8.917 8.257 25.351 7.827 8.515-.223 14.522-1.562 19.9969999-4.02 3.947-1.772 6.922-5.138 8.211-9.268 2.775-8.8989997 2.666-20.6179997-.531-33.0429997l4.784-10.077c-5.292-4.679-13.8069999-11.233-20.4839999-11.743 0 0-1.45-.687-2.07-1.226v.001s.855 7.829-10.225 8.655c-11.788.878-10.576-8.557-10.576-8.557-.557.719-1.166 1.466-1.81 2.245-6.522 1.514-13.95 9.278-18.473 14.703 0 0 3.692 5.707 6.93 9.096-9.72 16.645-6.109 31.2629997-1.104 35.4069997" fill="#daf2f0"/><path d="m87.8574371 52.1350063c11.03 1.787 18.7079999 7.518 22.5369999 11.061l2.143-3.652c-5.292-4.679-13.8069999-11.233-20.4839999-11.743 0 0-1.45-.687-2.07-1.226v.001s.334 3.063-2.126 5.559" fill="#cae5e1"/><path d="m71.1254371 52.7930063c-2.398-2.544-1.943-6.119-1.943-6.119-.557.719-1.166 1.466-1.81 2.245-6.522 1.514-13.95 9.278-18.473 14.703l1.752 2.156c2.969-3.56 9.742-10.251 20.474-12.985" fill="#cae5e1"/><path d="m144.741 149c0 2.762-28.6 5-63.87 5-35.28 0-63.871-2.238-63.871-5 0-2.761 28.591-5 63.871-5 35.27 0 63.87 2.239 63.87 5" fill="#c9c9c9"/><path d="m84.7604371 128.597006 2.168 14.325.85 2.61 3.761 1.518 2.259-3.125s3.701-11.113 4.448-16.749z" fill="#5d7e93"/><path d="m103.745437 149.625006s2.163-4.633-1.916-6.894c-4.0769999-2.26-8.0229999 0-8.0229999 0-.607.321-1.672.782-3.071.883-1.776.129-3.148-.39-3.807-.692-.297.873-.59 1.967-.762 3.245-.179 1.333-.179 2.51-.116 3.458z" fill="#5d7e93"/><path d="m97.5034371 146.097006c-.346.058-.677-.178-.736-.525l-.614-3.66c.388-.08.814-.141 1.268-.168l.608 3.616c.057.347-.179.679-.526.737" fill="#465a5b"/><path d="m94.8124371 146.097006c-.347.058-.679-.178-.737-.525l-.46-2.744.191-.097s.376-.214 1.015-.445l.515 3.074c.059.347-.177.679-.524.737" fill="#465a5b"/><path d="m76.4954371 128.597006-1.234 14.325-.85 2.61-3.761 1.518-2.26-3.125s-3.7-11.113-4.448-16.749z" fill="#5d7e93"/><path d="m58.4434371 149.625006s-2.161-4.633 1.916-6.894c4.078-2.26 8.023 0 8.023 0 .608.321 1.672.782 3.071.883 1.776.129 3.149-.39 3.808-.692.296.873.589 1.967.761 3.245.179 1.333.179 2.51.116 3.458-5.898 0-11.797 0-17.695 0" fill="#5d7e93"/><path d="m78.9494371 115.641006c-13.87.547-22.552-6.11-24.224-7.516 2.429 11.382 7.998 19.776 7.998 19.776s5.201 1.25 15.062 1.534l.414-7.413 1.599.526 3.571 6.944c6.851.011 7.04-.185 15.134-1.818 0 0 3.7329999-6.635 5.7469999-18.604-6.5349999 3.203-14.4319999 6.142-25.3009999 6.571" fill="#94c4bf"/><path d="m72.3634371 40.9450063c-.429 1.85-1.603 3.69-3.181 5.729 0 0-1.212 9.435 10.576 8.557 11.08-.826 10.225-8.655 10.225-8.655v-.001c-2.472-2.149-4.327-4.459-4.96-7.578-2.055-10.113 14.526-12.745 14.526-12.745l-1.393-7.354s-8.205 7.247-14.898 7.947-1.942-12.928-1.942-12.928l-9.335 3.623s4.918 8.474 1.834 10.531c-3.084 2.058-10.467-3.347-10.467-3.347l-.137 5.259s10.937 3.247 9.152 10.962" fill="#5d7e93"/><path d="m65.1734371 51.5880063-.184.227z" fill="#7ac943"/><path d="m59.6904371 5.71900629c-.306-.598.297-1.25.921-1 2.881 1.153 9.185 3.01 16.536 1.042 6.385-1.71 9.753-4.067 11.364-5.566.493-.458 1.296-.051 1.213.617-.416 3.369-2.589 9.88900001-12.949 12.14900001-10.726 2.339-15.429-4.00800001-17.085-7.24200001" fill="#5d7e93"/><path d="m93.5484371 16.0130063c-.236-.509.289-1.034.801-.805 2.351 1.049 7.4969999 2.785 13.6309999 1.401 5.317-1.2 8.179-3.028 9.567-4.216.43-.368 1.089-.008.996.55-.459 2.776-2.478 8.083-11.108 9.609-8.9329999 1.579-12.6169999-3.805-13.8869999-6.539" fill="#5d7e93"/><path d="m47.7244371 22.1450063c-.195-.429.246-.864.68-.678 1.447.622 4.235 1.35 8.485.531 4.146-.798 5.902-2.171 6.631-3.063.26-.318.769-.206.885.187.626 2.126 1.168 6.888-5.706 8.6-6.758 1.683-9.862-3.128-10.975-5.577" fill="#5d7e93"/><path d="m86.8614371 12.4470063c0 5.744-5.111 10.4-11.413 10.4-6.304 0-11.414-4.656-11.414-10.4 0-5.74300001 5.11-10.39900001 11.414-10.39900001 6.302 0 11.413 4.656 11.413 10.39900001" fill="#b5e5e0"/><path d="m86.8614371 12.4470063c0 5.744-5.111 10.4-11.413 10.4-6.304 0-11.414-4.656-11.414-10.4 0-5.74300001 5.11-10.39900001 11.414-10.39900001 6.302 0 11.413 4.656 11.413 10.39900001" fill="#cae5e1"/><path d="m64.8224371 15.5970063c0-5.74400001 5.11-10.39900001 11.413-10.39900001 4.804 0 8.912 2.705 10.595 6.53400001-.403-5.40900001-5.343-9.68400001-11.382-9.68400001-6.304 0-11.414 4.656-11.414 10.39900001 0 1.366.292 2.67.818 3.865-.018-.236-.03-.475-.03-.715" fill="#daf2f0"/><path d="m65.4814371 27.1970063c0 4.042-3.597 7.319-8.032 7.319-4.437 0-8.033-3.277-8.033-7.319s3.596-7.319 8.033-7.319c4.435 0 8.032 3.277 8.032 7.319" fill="#cae5e1"/><path d="m50.3524371 29.8350063c0-4.042 3.596-7.318 8.032-7.318 3.027 0 5.661 1.527 7.03 3.781-.488-3.617-3.865-6.42-7.965-6.42-4.437 0-8.033 3.277-8.033 7.319 0 1.284.366 2.489 1.002 3.538-.04-.296-.066-.594-.066-.9" fill="#daf2f0"/><path d="m116.604437 22.5170063c0 5.295-4.711 9.588-10.523 9.588-5.811 0-10.5229999-4.293-10.5229999-9.588s4.7119999-9.588 10.5229999-9.588c5.812 0 10.523 4.293 10.523 9.588" fill="#cae5e1"/><path d="m96.8954371 25.3070063c0-5.296 4.7109999-9.588 10.5219999-9.588 3.713 0 6.969 1.756 8.842 4.401-1.17-4.134-5.276-7.191-10.178-7.191-5.811 0-10.5229999 4.292-10.5229999 9.588 0 1.913.622 3.69 1.682 5.187-.217-.768-.345-1.568-.345-2.397" fill="#daf2f0"/><g fill="#32495b"><path d="m75.4484371 12.6060063c0 1.199-.973 2.171-2.172 2.171s-2.171-.972-2.171-2.171.972-2.171 2.171-2.171 2.172.972 2.172 2.171"/><path d="m57.1014371 27.1970063c0 .931-.755 1.686-1.687 1.686-.93 0-1.685-.755-1.685-1.686s.755-1.686 1.685-1.686c.932 0 1.687.755 1.687 1.686"/><path d="m104.190437 22.2370063c0 .999-.811 1.809-1.81 1.809s-1.809-.81-1.809-1.809.81-1.809 1.809-1.809 1.81.81 1.81 1.809"/></g><g fill="#94c4bf" transform="translate(68 54)"><path d="m8.2364371 62.071006c-.141 0-.282-.057-.383-.17-8.366-9.217-8.07-25.2929997-6.348-37.1559997 1.856-12.786 5.718-23.562 5.757-23.67.097-.268.392-.409.66-.31.269.097.406.393.31.661-.154.425-15.157 42.658.385 59.7819997.192.211.175.538-.036.728-.098.09-.222.135-.345.135"/><path d="m11.4664371 6.9610063c0 .613-.496 1.11-1.109 1.11-.614 0-1.11-.497-1.11-1.11s.496-1.11 1.11-1.11c.613 0 1.109.497 1.109 1.11"/><path d="m9.2264371 16.7590063c0 .613-.497 1.11-1.11 1.11s-1.11-.497-1.11-1.11.497-1.11 1.11-1.11 1.11.497 1.11 1.11"/><path d="m7.2184371 27.2730063c0 .613-.497 1.11-1.109 1.11-.614 0-1.111-.497-1.111-1.11 0-.612.497-1.109 1.111-1.109.612 0 1.109.497 1.109 1.109"/><path d="m6.2844371 38.3270063c0 .613-.496 1.11-1.109 1.11s-1.11-.497-1.11-1.11.497-1.11 1.11-1.11 1.109.497 1.109 1.11"/><path d="m7.3474371 49.008006c0 .614-.497 1.11-1.11 1.11s-1.11-.496-1.11-1.11c0-.613.497-1.11 1.11-1.11s1.11.497 1.11 1.11"/><path d="m10.8354371 57.984006c0 .613-.497 1.109-1.11 1.109-.612 0-1.109-.496-1.109-1.109s.497-1.11 1.109-1.11c.613 0 1.11.497 1.11 1.11"/></g><path d="m64.6854371 146.097006c.347.058.679-.178.736-.525l.615-3.66c-.389-.08-.814-.141-1.269-.168l-.607 3.616c-.058.347.178.679.525.737" fill="#465a5b"/><path d="m67.3774371 146.097006c.347.058.678-.178.737-.525l.461-2.744-.193-.097s-.375-.214-1.014-.445l-.516 3.074c-.058.347.179.679.525.737" fill="#465a5b"/><path d="m149.415437 68.1090063 6.049 1.092s3.571-3.597 6.703-3.797c.442-.028.853.228 1.039.629.209.448.089.98-.292 1.295l-4.959 4.098 4.165-.412c1.303-.24 3.435-.035 3.921 1.197.189.479-.085 1.015-.584 1.143l-10.333 1.916-11.595-2.465-1.495-3.764c1.809-3.259 7.381-.932 7.381-.932" fill="#5d7e93"/><path d="m143.778437 68.5780063c-4.44 1.096-10.313 2.566-15.829 5.538-2 1.077-3.828 2.199-5.487 3.321-1.822 1.608-3.643 3.217-5.466 4.826l2.166 3.726c.574.985 1.627 1.592 2.767 1.592h.563c1.12 0 2.158-.586 2.737-1.545l20.935-13.553z" fill="#5d7e93"/><path d="m141.394437 60.8680063.06 4.831.771 5.682 7.339-.926-4.724-5.959-.117-2.235c-.063-1.212-.968-2.215-2.168-2.401-.615-.096-1.169.385-1.161 1.008" fill="#5d7e93"/></g></svg>