<svg height="77" viewBox="0 0 63 77" width="63" xmlns="http://www.w3.org/2000/svg"><g fill="none" fill-rule="evenodd"><path d="m62.046 71.76c0 2.629681-13.7713985 4.76-30.7686603 4.76s-30.7773397-2.130319-30.7773397-4.76 13.7800779-4.76 30.7773397-4.76 30.7686603 2.130319 30.7686603 4.76" fill="#dcdcdb"/><path d="m27.73 15.689-.81-.689-6.92 8.178.81.69z" fill="#65797c"/><g fill="#5b7072"><path d="m14.4715242 30.0744359c-.561-.476-.632-1.317-.156-1.879l5.689-6.723c.47-.562 1.31-.633 1.88-.157.56.476.63 1.317.15 1.879l-5.68 6.723c-.48.562-1.32.632-1.883.157"/><path d="m27 18.055h9.99v-2.055h-9.99z"/><path d="m30 26.205h2.63v-10.205h-2.63z"/></g><path d="m27 31.457h8.84v-5.457h-8.84z" fill="#45595b"/><path d="m46.38 5h-3.38v9.063h3.38c1.63 0 2.95-2.029 2.95-4.532s-1.32-4.531-2.95-4.531" fill="#45595b"/><path d="m45.9 9.531c0 2.503-1.32 4.532-2.95 4.532s-2.95-2.029-2.95-4.532 1.32-4.531 2.95-4.531 2.95 2.028 2.95 4.531" fill="#65797c"/><path d="m42.9 5h-4.9v8.273h4.9c1.49 0 2.69-1.853 2.69-4.137s-1.2-4.136-2.69-4.136" fill="#5b7072"/><path d="m27.25 0h1.54c.81 0 1.53.527 1.77 1.304l.48 1.538h-6.04l.48-1.538c.24-.777.96-1.304 1.77-1.304" fill="#5b7072"/><path d="m38.35 16.083h-14.02c-1.28 0-2.33-1.043-2.33-2.33v-9.423c0-1.286 1.05-2.33 2.33-2.33h14.02c1.29 0 2.33 1.044 2.33 2.33v9.423c0 1.287-1.04 2.33-2.33 2.33" fill="#45595b"/><path d="m24 12.603h9.15v-6.603h-9.15z" fill="#fff"/><g fill="#45595b"><path d="m31.98 72.545c-.54 0-.98-.436-.98-.974v-43.571h1.95v43.571c0 .538-.43.974-.97.974"/><path d="m17.7389695 70.437c-.52-.13-.84-.661-.71-1.182l10.63-42.255 1.89.475-10.63 42.254c-.13.523-.66.839-1.18.708"/><path d="m44.81 70.437c.52-.13.84-.661.71-1.182l-10.63-42.255-1.89.475 10.63 42.254c.13.523.66.839 1.18.708"/></g><g fill="#516768"><path d="m32.1 60.234c-.42 0-.78-.086-1.1-.234v11.139c0 .538.44.974.98.974s.97-.436.97-.974v-11.037c-.25.084-.53.132-.85.132"/><path d="m21.5289695 58.703c-.77 0-1.35-.28-1.75-.703l-2.75 10.909c-.13.521.19 1.052.71 1.182.52.131 1.05-.185 1.18-.708l2.69-10.685z"/><path d="m45.58 68.831-2.72-10.831c-.4.38-.96.625-1.68.625l-.18-.01 2.69 10.69c.13.523.66.839 1.18.708.52-.13.84-.661.71-1.182"/></g></g></svg>