<svg height="13" viewBox="0 0 13 13" width="13" xmlns="http://www.w3.org/2000/svg"><path d="m6 0c-3.31451613 0-6 2.68548387-6 6s2.68548387 6 6 6 6-2.68548387 6-6-2.68548387-6-6-6zm0 10.8387097c-2.6733871 0-4.83870968-2.1653226-4.83870968-4.8387097s2.16532258-4.83870968 4.83870968-4.83870968 4.8387097 2.16532258 4.8387097 4.83870968-2.1653226 4.8387097-4.8387097 4.8387097zm1.49516129-2.52580647-2.05403226-1.49274194c-.075-.05564516-.11854838-.14274194-.11854838-.23467742v-3.97258064c0-.15967742.13064516-.29032258.29032258-.29032258h.77419354c.15967742 0 .29032258.13064516.29032258.29032258v3.4282258l1.61612904 1.17580645c.13064516.09435484.15725806.27580646.06290322.40645162l-.45483871.6266129c-.09435484.12822581-.27580645.15725806-.40645161.06290323z" fill="#21ba45" transform="translate(.2758 .648004)"/></svg>