<svg height="13" viewBox="0 0 14 13" width="14" xmlns="http://www.w3.org/2000/svg"><g fill="#db2828" transform="translate(.562005 .231221)"><path d="m1.72655877 5.23934622c-.075-.05564516-.11854839-.14274194-.11854839-.23467742v-3.97258065c0-.15967742.13064517-.29032258.29032258-.29032258h.77419355c.15967742 0 .29032258.13064516.29032258.29032258.01817341 1.77887264.01817341 3.11385217 0 4.00493859-.00134176.06578973-.00134176.1280365-.08580558.20231948-.05630922.04952199-.43980413.04952199-1.15048474 0z" transform="matrix(.58778525 -.80901699 .80901699 .58778525 -1.489538 3.094872)"/><path d="m10.7625733 11.804395c-.075-.0556451-.1185484-.1427419-.1185484-.2346774v-3.97258063c0-.15967742.1306452-.29032258.2903226-.29032258h.7741936c.1596774 0 .2903225.13064516.2903225.29032258.0181734 1.77887264.0181734 3.11385213 0 4.00493853-.0013417.0657898-.0013417.1280365-.0858055.2023195-.0563093.049522-.4398042.049522-1.1504848 0z" transform="matrix(.58778525 -.80901699 -.80901699 -.58778525 12.415346 24.366488)"/><rect height="10" rx=".684234" transform="matrix(.58778525 -.80901699 .80901699 .58778525 -2.231617 7.780182)" width="1.368469" x="5.834691" y="1.079989"/><path d="m7 0c-3.31451613 0-6 2.68548387-6 6s2.68548387 6 6 6c3.3145161 0 6-2.68548387 6-6s-2.6854839-6-6-6zm0 10.8387097c-2.6733871 0-4.83870968-2.1653226-4.83870968-4.8387097s2.16532258-4.83870968 4.83870968-4.83870968 4.8387097 2.16532258 4.8387097 4.83870968-2.1653226 4.8387097-4.8387097 4.8387097zm1.49516129-2.52580647-2.05403226-1.49274194c-.075-.05564516-.11854838-.14274194-.11854838-.23467742v-3.97258064c0-.15967742.13064516-.29032258.29032258-.29032258h.77419354c.15967742 0 .29032258.13064516.29032258.29032258v3.4282258l1.61612904 1.17580645c.13064516.09435484.15725801.27580646.06290322.40645162l-.45483871.6266129c-.09435484.12822581-.27580645.15725806-.40645161.06290323z"/></g></svg>