<svg height="13" viewBox="0 0 13 13" width="13" xmlns="http://www.w3.org/2000/svg" xmlns:xlink="http://www.w3.org/1999/xlink"><mask id="a" fill="#fff"><use fill="#fff" fill-rule="evenodd" xlink:href="#b"/></mask><g fill="none" fill-rule="evenodd"><path id="b" d="m6.00251175 12.1369075c3.32509758 0 6.02062175-2.69552417 6.02062175-6.02062175s-2.69552417-6.02062175-6.02062175-6.02062175-6.02062175 2.69552417-6.02062175 6.02062175 2.69552417 6.02062175 6.02062175 6.02062175z" mask="url(#a)" stroke="#db2828" stroke-dasharray="1.5 1.2" stroke-width="2.25"/><path d="m7.24677117 8.72680193-2.06798516-1.50288203c-.07550947-.05602316-.11935368-.14371158-.11935368-.23627157v-3.99956613c0-.1607621.13153262-.29229472.29229472-.29229472h.77945259c.1607621 0 .29229473.13153262.29229473.29229472v3.45151352l1.62710729 1.18379363c.13153262.09499578.15832631.27767999.06333052.40921261l-.4579284.63086945c-.09499578.12909683-.27767998.1583263-.40921261.06333052z" fill="#db2828" fill-rule="nonzero" mask="url(#a)"/></g></svg>