<svg height="49" viewBox="0 0 37 49" width="37" xmlns="http://www.w3.org/2000/svg"><g fill="none" fill-rule="evenodd"><path d="m8.23 2.27410617c.325.176.714.111.969-.13 1.53.626 5.061 2.627 5.377 7.547.345-.086.691-.158 1.039-.213-.588-5.021-4.528-7.218-6.153-7.917.007-.305-.149-.604-.436-.759-.406-.22-.914-.069-1.134.337-.22.407-.069.915.338 1.135" fill="#b5eeea"/><path d="m36.047 24.3951062c0 9.716-7.876 15.502-17.592 15.502s-17.592-5.786-17.592-15.502 7.876-17.59200003 17.592-17.59200003 17.592 7.87600003 17.592 17.59200003" fill="#eff"/><path d="m23.972 32.7921062 4.716-.147 2.14-5.629-8.583-8.296-2.263-7.988h-.848l-1.743 4.98h-5.14l-1.842-4.431-.979.013-6.442 37.5668181h26.6619901z" fill="#b5eeea"/><path d="m20.477 12.4801062-.495-1.748h-.848l-1.743 4.98h1.955z" fill="#cff9f5"/><path d="m11.084 12.9051062-.675-1.624-.979.013-6.442 37.4925958s10.7652036.167 23.6662036 0c-11.923-.154-21.7112036-5.0605958-21.7112036-5.0605958z" fill="#cff9f5"/><g fill="#2f7274"><path d="m15.148 21.0051062c0 .695-.377 1.259-.842 1.259s-.842-.564-.842-1.259.377-1.259.842-1.259.842.564.842 1.259"/><path d="m20.756 21.0051062c0 .695-.377 1.259-.842 1.259-.466 0-.843-.564-.843-1.259s.377-1.259.843-1.259c.465 0 .842.564.842 1.259"/><path d="m27.299 26.7711062h1.706c.509 0 .817.564.542.993l-.825 1.283c-.249.387-.813.396-1.073.016l-.881-1.283c-.293-.427.014-1.009.531-1.009"/><path d="m12.426 29.9931062.078.443v-.002c.397 2.261 2.245 3.983 4.527 4.22h.001l1.538.16c1.558.162 2.953-.97 3.115-2.529.161-1.558-.971-2.952-2.529-3.114l-1.538-.16h.001l-.056.535.529-.093c-.042-.237-.236-.417-.473-.442l-.056.535.529-.093-.001-.002-.078-.443c-.272-1.543-1.743-2.573-3.286-2.301-1.543.271-2.573 1.743-2.301 3.286"/></g><path d="m15.625 7.41610617c.054.25-.332.547-.863.662-.531.116-1.005.007-1.059-.243-.055-.25.331-.547.862-.662.531-.116 1.005-.007 1.06.243" fill="#b5eeea"/></g></svg>