<svg height="121" viewBox="0 0 124 121" width="124" xmlns="http://www.w3.org/2000/svg"><g fill="none" fill-rule="evenodd"><g fill="#fff" fill-rule="nonzero"><path d="m85.3104813 23.1562088-19.3499578-19.82455019c-2.0756808-2.1265906-4.8893814-3.33165861-7.8183977-3.33165861h-47.0718281c-6.11172687.02362878-11.0702977 5.10381745-11.0702977 11.3654453v98.2957437c0 6.261628 4.95857083 11.341816 11.0702977 11.341816h66.4217859c6.1117268 0 11.0702976-5.080188 11.0702976-11.341816v-78.4711935c0-3.0008556-1.1762191-5.9071961-3.2518999-8.0337867zm-74.2401836 86.5049802v-98.2957437h36.9009921v24.5739359c0 3.1426283 2.4677539 5.6709083 5.5351489 5.6709083h23.9856449v68.0508995z"/><path d="m121.351149 45.2338877-7.947951-8.142889c-2.47919-2.5399962-6.500105-2.5399962-8.979295 0l-7.4772354 7.6606284 16.9272454 17.3424165 7.477236-7.6606284c2.479189-2.5413508 2.479189-6.6595313 0-9.1995275z"/><path d="m23.7265625 71.781716v8.5488281h34.5042065l8.161565-8.5488281z"/></g><path d="m27.5 60.05613h34.5" stroke="#fff" stroke-linecap="square" stroke-width="8"/><g fill="#fff" fill-rule="nonzero"><path d="m95.8354492 49.5454102 13.0888668 14.1367187-36.7567951 37.6583221-13.134604 3.183043c-2.0203742.228939-2.3947206-.253274-2.1699407-2.323202l2.2275776-15.0114613z"/><path d="m24.0754395 88.0497824-.025879 8.0205078h28.9580079l.8884277-8.0205078z"/></g></g></svg>