<svg height="122" viewBox="0 0 124 122" width="124" xmlns="http://www.w3.org/2000/svg"><g fill="none" fill-rule="nonzero"><path d="m11.65 110.045744v-98.295744h36.9009921v24.5739359c0 3.1426283 2.4677539 5.6709083 5.5351489 5.6709083h23.9856449v22.6086273l10.8905953-10.8206015v34.685l-10.8905953 11.711176v9.866698z" fill="#fff"/><g fill="#767676"><path d="m58.6421258.44387c2.9290163 0 5.7427169 1.20506801 7.8183977 3.33165862l19.3499578 19.82455018c2.0756808 2.1265906 3.2518999 5.0329311 3.2518999 8.0337867v22.1490045l-11.0703812 11.341.0000836-23.0697105h-23.9856449c-3.067395 0-5.5351489-2.52828-5.5351489-5.6709083v-24.5739359h-36.9009921v98.2957437h66.4217859l-.0000836-10.296189 11.0703812-11.341v21.637189c0 6.16379-4.8048261 11.182772-10.7846695 11.33811l-.2856281.003706h-66.4217859c-6.11172687 0-11.0702977-5.080188-11.0702977-11.341816v-98.2957437c0-6.26162785 4.95857083-11.34181651 11.0702977-11.3654453z"/><path d="m121.851149 45.6777577-7.947951-8.142889c-2.47919-2.5399962-6.500105-2.5399962-8.979295 0l-7.4772354 7.6606284 16.9272454 17.3424165 7.477236-7.6606284c2.479189-2.5413509 2.479189-6.6595313 0-9.1995275z"/><path d="m96.7822038 51.2597485 12.2281672 12.2285111-36.5529463 36.5536934-10.9023823 1.203555c-1.4595094.16143-2.692642-1.072692-2.530262-2.5322432l1.2130739-10.9103304z"/></g></g></svg>