<svg height="929" viewBox="0 0 2483 929" width="2483" xmlns="http://www.w3.org/2000/svg"><g fill="#2185d0" transform="translate(0 -.088975)"><path d="m187.37911 281.553191c-4.83559 0-6.044487-2.417794-3.626692-6.044487l25.386847-32.640232c2.417795-3.626693 8.462282-6.044487 13.297872-6.044487h431.576403c4.83559 0 6.044487 3.626692 3.626692 7.253384l-20.551257 31.431335c-2.417795 3.626693-8.462283 7.253385-12.088975 7.253385zm-182.54352006 111.218569c-4.83558994 0-6.04448743-2.417795-3.62669245-6.044487l25.38684721-32.640232c2.417795-3.626693 8.4622824-6.044488 13.2978723-6.044488h551.257253c4.83559 0 7.253385 3.626693 6.044488 7.253385l-9.67118 29.01354c-1.208898 4.83559-6.044487 7.253385-10.880077 7.253385zm292.55319106 111.218569c-4.83559 0-6.044487-3.626693-3.626692-7.253385l16.924565-30.222437c2.417795-3.626693 7.253385-7.253385 12.088975-7.253385h241.779497c4.83559 0 7.253385 3.626692 7.253385 8.462282l-2.417795 29.01354c0 4.83559-4.83559 8.462282-8.462283 8.462282zm1254.835589-244.197292c-76.16054 19.34236-128.14313 33.849129-203.09478 53.191489-18.13346 4.83559-19.34236 6.044488-35.05802-12.088975-18.13347-20.551257-31.43134-33.849129-56.81819-45.938104-76.16054-37.475822-149.90328-26.595745-218.81044 18.133462-82.205029 53.191489-124.516441 131.769826-123.307543 229.690522 1.208897 96.711799 67.698259 176.499033 163.201163 189.796906 82.20503 10.880077 151.11218-18.133463 205.51257-79.787234 10.88008-13.297873 20.55126-27.804643 32.64023-44.729207h-233.31721c-25.38685 0-31.43134-15.715668-22.96906-36.266925 15.71567-37.475822 44.72921-100.338491 61.65378-131.769826 3.62669-7.253385 12.08897-19.34236 30.22243-19.34236h440.03869c-2.4178 32.640232-2.4178 65.280465-7.25339 97.920697-13.29787 87.040619-45.9381 166.827853-99.12959 236.943907-87.04062 114.845261-200.67698 186.170213-344.53578 205.512572-118.47196 15.715668-228.481628-7.253385-325.193427-79.787234-89.458414-67.698259-140.232109-157.156673-153.529981-268.375242-15.715667-131.769825 22.969052-250.241779 102.756286-354.206963 85.831722-112.427466 199.468085-183.7524176 338.491292-209.13926475 113.63637-20.55125725 222.43714-7.25338491 320.35784 59.23597675 64.07156 42.311412 110.00967 100.338491 140.23211 170.454545 7.25338 10.880078 2.41779 16.924565-12.08898 20.551258z"/><path d="m1952.36944 928.313346c-110.00967-2.417795-210.34816-33.849129-294.97099-106.382978-71.32495-61.653772-116.05416-140.232109-130.56093-233.317215-21.76015-136.605416 15.71567-257.495165 97.9207-365.087041 88.24952-116.054158 194.6325-176.4990327 338.4913-201.8858799 123.30754-21.76015473 239.3617-9.6711799 344.53578 61.6537718 95.5029 65.2804641 154.73888 153.5299811 170.45455 269.5841391 20.55125 163.201161-26.59575 296.179884-139.02322 409.816248-79.78723 80.996131-177.70793 131.769826-290.13539 154.738878-32.64023 6.044487-65.28047 7.253385-96.7118 10.880077zm287.7176-488.394584c-1.2089-15.715667-1.2089-27.804642-3.62669-39.893617-21.76016-119.680851-131.76983-187.37911-246.61509-160.783366-112.42747 25.386848-184.96131 96.711799-211.55706 210.348163-21.76015 94.294004 24.17795 189.796905 111.21857 228.481625 66.48936 29.013539 132.97872 25.386847 197.05029-7.253385 95.5029-49.564797 147.48549-126.934236 153.52998-230.89942z"/></g></svg>