<svg height="87" viewBox="0 0 200 87" width="200" xmlns="http://www.w3.org/2000/svg"><g fill="none" fill-rule="evenodd"><path d="m80.91.00317513c2.08 1.561 3.62 3.85 4.2 6.593 1.26 6.00899997-2.58 11.90499997-8.59 13.16899997-2.74.577-5.46.086-7.73-1.187 2.43 5.849 8.74 9.335 15.16 7.984 7.26-1.527 11.9-8.646 10.37-15.902-1.35-6.42199997-7.08-10.79499997-13.41-10.65699997" fill="#ffe600"/><path d="m191.18 77.5751751c.04-1.758-.21-10.21-8.65-13.788-8.41-3.57-15.1-1.12-18.07.441 2.26-3.17 5.21-9.235 2.54-17.081-3.86-11.312-15.44-10.409-17.7-10.116-.09-.925-.49-3.357-2.17-6.034-1.92-3.07-5.98-7.039-14.38-8.512-9.36-1.644-15.52.771-19.04 3.086-3.11 2.043-4.73 4.322-5.27 5.174-1.77-1.245-10.63-6.819-20.28-1.482-4.35 2.403-6.73 5.657-8.02 8.688-3.54-1.025-6.32.164-7.46.808-.05-1.61-.69-5.733-5.53-8.374-5.55-3.026-10.73-.943-11.89-.4-.87-.859-4.73-4.173-10.3-2.149-5.221 1.899-6 6.565-6.109 8.195-1.071-.509-11.764-2.717-17.921 5.399-6.178 8.143-3.607 16.285-2.258 18.264-2.789.836-4.679 2.328-5.622 4.441-1.6 3.582-.001 7.829.614 9.221-12.871 1.381-13.02 12.819-13.02 12.936 0 .192.156.348.348.348h198.538c.19 0 .34-.156.34-.348 0-6.707-7.09-8.417-8.69-8.717" fill="#00b2bb"/><path d="m199.87 86.2921751c0-6.707-7.09-8.417-8.69-8.717.04-1.758-.21-10.21-8.65-13.789-8.41-3.569-15.1-1.119-18.07.442 2.26-3.17 5.21-9.235 2.54-17.081-3.86-11.312-15.44-10.409-17.7-10.116-.09-.925-.49-3.357-2.17-6.034-1.92-3.07-5.98-7.039-14.38-8.512-9.36-1.644-15.52.771-19.04 3.086-3.11 2.043-4.73 4.322-5.27 5.174-1.77-1.245-10.63-6.819-20.28-1.482-4.35 2.403-6.73 5.657-8.02 8.688 0 0 5.92-3.605 18.01 1.666 11.12 4.849 10.62 12.901 10.62 12.901s10.67-4.592 20.9 1.838c10.23 6.431 6.25 15.726 6.25 15.726s5.05-6.995 16.45-5.699c8.29.943 11.35 5.698 13.09 7.938 0 0 12.53-2.37 16.65 5.492 0 0 10.53-.829 11.53 8.827h5.89c.19 0 .34-.156.34-.348" fill="#00f3e8"/><path d="m16.134 86.0151751c.032-1.351.267-2.808.796-4.359 2.909-8.532 11.643-7.851 13.35-7.63.07-.698.368-2.531 1.635-4.551 1.453-2.316 4.516-5.31 10.848-6.421 7.064-1.239 11.707.582 14.367 2.328 2.34 1.541 3.57 3.26 3.97 3.903 1.34-.939 8.02-5.143 15.3-1.118 3.28 1.813 5.08 4.267 6.05 6.553 11.06 1.013 10.33 8.799 10.29 11.295z" fill="#00f3e8"/><path d="m59.78 82.0101751c.06.958-5.99 2.166-13.519 2.698-7.531.531-13.693.186-13.76-.772-.067-.959 5.983-2.166 13.515-2.698 7.534-.532 13.694-.186 13.764.772" fill="#6e8e88"/><g fill="#99180b"><path d="m53.59 81.9701751h-.8s-1.82-3.426-1.62-8.063l3.03.403s-1.41 3.83-.61 7.66"/><path d="m48.91 74.3101751s-2.015 3.427-2.015 7.66h-1.008s-2.829-8.892 2.416-14.323z"/><path d="m56.41 74.3101751s2.02 3.427 2.02 7.66h1.01s2.83-8.892-2.42-14.323z"/></g><path d="m48.681 71.7911751-.378-4.144c-5.245 5.431-2.416 14.323-2.416 14.323h.353c-.297-2.864-.122-6.982 2.441-10.179" fill="#ef4d3c"/><path d="m52.68 44.8781751c1.86 0 6.19 10.483 3.72 29.432 0 0-3.72 1.411-7.429 0 0 0-1.315-7.814-.619-15.321.667-7.202 2.618-14.111 4.328-14.111" fill="#ba2c19"/><path d="m51.95 74.3101751s-.92-7.814-.44-15.321c.37-5.694 1.3-11.2 2.26-13.259-.4-.563-.78-.852-1.09-.852-1.71 0-3.661 6.909-4.328 14.111-.696 7.507.619 15.321.619 15.321 1.679.639 3.359.699 4.699.573-.55-.079-1.14-.253-1.72-.573" fill="#ef4d3c"/><path d="m54.2 56.3691751c0 .89-.73 1.613-1.62 1.613s-1.61-.723-1.61-1.613c0-.891.72-1.613 1.61-1.613s1.62.722 1.62 1.613" fill="#ffe000"/><path d="m54.2 68.6661751c0 .89-.73 1.612-1.62 1.612s-1.61-.722-1.61-1.612c0-.891.72-1.613 1.61-1.613s1.62.722 1.62 1.613" fill="#ffe000"/><path d="m54.36 62.6181751c0 .981-.8 1.776-1.78 1.776s-1.77-.795-1.77-1.776.79-1.776 1.77-1.776 1.78.795 1.78 1.776" fill="#ffe000"/></g></svg>