<svg height="167" viewBox="0 0 167 167" width="167" xmlns="http://www.w3.org/2000/svg"><path d="m167 0v167h-167v-167zm-83.8530237 17c-20.235019 0-37.6107963 11.6278466-43.2691906 29.1169247-.2353491 2.2160136.3455126 6.2297371 6.8902218 8.2415787 7.1806526 2.1960943 9.8295823-1.4790024 10.7910086-3.9041678 3.7255269-10.6518047 13.7704287-17.5388762 25.5879602-17.5388762 16.1038904 0 27.7962357 10.7115624 27.7962357 25.4617473v6.3243534c0 2.9580047-3.97089 4.8851895-7.721454 5.7118373l-31.9724321 8.3063161c-23.9254938 5.4180288-33.2493259 14.6356494-33.2493259 32.8766785 0 21.199033 19.183459 37.219068 44.6963077 37.403608.3455126.004693.6810103-.055065.9964783-.189519 1.191768-.51292 3.9158092-2.255852 3.9158092-7.489628 0-5.223817-2.7140263-7.320315-3.9057943-7.992589-.3304903-.184253-.6910252-.263929-1.0615749-.268909-15.432895-.194213-26.5844385-9.157863-26.5844385-21.462963 0-11.368897 6.2592858-14.859741 19.428823-17.9920388 0 0 23.1643647-6.0504641 32.2878995-8.7644583 1.547296-.4581421 3.084576.7071324 3.054532 2.3106299l-.080119 5.0345837.065096 27.9367105c0 .338627.070104.677254.200297.986002 3.239807 7.559345 8.788038 13.689486 16.058824 17.822725 1.55731.791789 1.92786-.5179 1.92786-1.359487v-79.4378628c0-23.8333507-19.283608-41.1331962-45.8530237-41.1331962z" fill="#fff" fill-rule="evenodd"/></svg>