<svg height="495" viewBox="0 0 509 495" width="509" xmlns="http://www.w3.org/2000/svg" xmlns:xlink="http://www.w3.org/1999/xlink"><mask id="a" fill="#fff"/><g fill="#2185d0" fill-opacity=".95" fill-rule="nonzero" transform="translate(0 .681245)"><path d="m374.424959 451.175746c-46.749154 0-84.652158-37.906814-84.652158-84.660667 0-46.732689 37.903004-84.660668 84.652158-84.660668s84.652157 37.927979 84.652157 84.660668c0 46.753853-37.903003 84.660667-84.652157 84.660667m-168.859892-194.04225c-29.226157 0-52.907598-23.704987-52.907598-52.912917 0-29.229096 23.681441-52.912917 52.907598-52.912917 29.226158 0 52.907599 23.683821 52.907599 52.912917 0 29.20793-23.681441 52.912917-52.907599 52.912917m172.60575-165.1729623h-141.284452c-71.99666 0-130.406648 58.4158603-130.406648 130.4409233v141.277489c0 72.046229 58.409988 130.419759 130.406648 130.419759h141.284452c72.038986 0 130.406649-58.37353 130.406649-130.419759v-141.277489c0-72.025063-58.367663-130.4409233-130.406649-130.4409233"/><path d="m84.6521577 42.3303338c0 23.3875095-18.9620833 42.3303339-42.3260789 42.3303339-23.3851585 0-42.3260788-18.9428244-42.3260788-42.3303339 0-23.3663442 18.9409203-42.3303338 42.3260788-42.3303338 23.3639956 0 42.3260789 18.9639896 42.3260789 42.3303338" mask="url(#a)"/></g></svg>