<svg height="53" viewBox="0 0 129 53" width="129" xmlns="http://www.w3.org/2000/svg"><g fill="none" fill-rule="evenodd"><path d="m67.7087081 23.9298994h-5.7837842v-5.7837837c0-.7111911-.5740936-1.2852851-1.2852845-1.2852851h-1.2852853c-.7111917 0-1.2852853.574094-1.2852853 1.2852851v5.7837837h-5.7837837c-.7111911 0-1.2852851.5740936-1.2852851 1.2852853v1.2852853c0 .711191.574094 1.2852846 1.2852851 1.2852846h5.7837837v5.7837841c0 .7111901.5740936 1.2852847 1.2852853 1.2852847h1.2852853c.7111909 0 1.2852845-.5740946 1.2852845-1.2852847v-5.7837841h5.7837842c.71119 0 1.2852846-.5740936 1.2852846-1.2852846v-1.2852853c0-.7111917-.5740946-1.2852853-1.2852846-1.2852853" fill="#000" fill-opacity=".25"/><path d="m29.3953639 26.3576559h-19.49349208v6.4978287h19.49349208zm9.0319835-15.3348816s-9.9416795-9.94168077-9.9416795-9.94168077c-.4548484-.45484819-1.0613112-.71476141-1.711096-.71476141h-.6281223v12.99566188h12.9956604v-.6281238c0-.6281239-.2599142-1.2562478-.7147626-1.7110959m-15.5298137 3.162277v-13.81871918h-20.29489174c-1.36454443 0-2.4475162 1.08297176-2.4475162 2.4475162v47.10927278c0 1.342882 1.08297177 2.4258587 2.4475162 2.4258587h34.11361244c1.3428849 0 2.4258556-1.0829767 2.4258556-2.4258587v-33.3122127h-13.7970604c-1.3428849 0-2.4475159-1.104631-2.4475159-2.4258571m-16.24457698-6.49782995c0-.4548481.36821017-.82305828.82305827-.82305828h8.12228861c.4331888 0 .8013984.36821018.8013984.82305828v1.62445785c0 .4331888-.3682096.801399-.8013984.801399h-8.12228861c-.4548481 0-.82305827-.3682102-.82305827-.801399zm0 6.49782995c0-.4548477.36821017-.8230573.82305827-.8230573h8.12228861c.4331888 0 .8013984.3682096.8013984.8230573v1.6244586c0 .4331889-.3682096.8013985-.8013984.8013985h-8.12228861c-.4548481 0-.82305827-.3682096-.82305827-.8013985zm25.99132158 30.8646968c0 .4331889-.3682081.8014-.801397.8014h-8.1222903c-.4548477 0-.8230573-.3682111-.8230573-.8014v-1.6244587c0-.4548476.3682096-.8230587.8230573-.8230587h8.1222903c.4331889 0 .801397.3682111.801397.8230587zm0-20.3165508v9.746746c0 .8880366-.7364192 1.6244587-1.6244557 1.6244587h-22.74240871c-.88803683 0-1.62445717-.7364221-1.62445717-1.6244587v-9.746746c0-.8880366.73642034-1.6244572 1.62445717-1.6244572h22.74240871c.8880365 0 1.6244557.7364206 1.6244557 1.6244572" fill="#000" fill-opacity=".25"/><g fill="#00b5ad" fill-rule="nonzero" transform="translate(81)"><path d="m18.3852647 14.9479482c-9.61568912-.5707646-16.6599905-3.3207642-18.13714834-7.10846977-.20667621-.53967031-.24811636-.82004589-.24811636-1.75392849v-1.11043489l.59904626-.47748173c1.31192179-1.05825973 4.05903672-2.1897755 7.18855508-2.96765964 11.89856936-2.93656536 29.73619456-1.4735529 35.52050546 2.91601151l.6918932.52912986v1.09989446c0 1.62902432-.3719123 2.48016449-1.6009537 3.71497653-2.7266572 2.74999966-8.6242728 4.58667056-16.4228899 5.12634086-1.3213638.0938099-6.217072.1148907-7.5908917.0316213z" transform="matrix(1 0 0 -1 0 15)"/><path d="m.00052455 22.6018482v-4.3870942l.41334748-.3593713c2.24088888-1.9594029 7.23987554-3.6141695 13.22030017-4.3760367 3.0466018-.3814864 4.7409068-.479346 8.3660901-.479346 4.4204051 0 7.1785029.2178343 10.896532.8707843 4.7204492.8271069 8.8827744 2.3729563 10.5660638 3.9193587l.5371419.5009083v4.3544743 4.3544744l-.3304682-.2288919c-2.4790357-1.7200063-7.2608576-3.1895585-12.735089-3.9298633-3.8937542-.5224706-9.6879627-.707685-13.6441387-.424611-4.968038.3372561-10.28752636 1.360635-13.31367054 2.5471131-1.10523241.424611-3.08804139 1.4153701-3.63567434 1.7963036l-.34095922.2393966v-4.3975989z" transform="matrix(1 0 0 -1 0 40)"/><path d="m.0005321 34.6623131v-4.3266719l.54487407-.4989772c1.44572544-1.3014162 5.08158922-2.7438237 9.04203619-3.5787568 3.47836114-.7264359 8.72756294-1.2468923 12.68800994-1.2579072h.7433487l.0734303.8894571c.2304008 2.9173092 1.2680028 5.4006294 3.2059241 7.6669552l.7018446.8244689-3.6252217-.0435091c-5.0709472-.0539732-9.0106421.2274587-12.7928343.9109363-4.20095783.75893-7.81553747 1.9948073-10.13125226 3.4697089l-.45069174.2819827v-4.3376869z" transform="matrix(1 0 0 -1 0 64)"/><path d="m34.1286828 51.9124077c-.3932754-.0516458-1.1388163-.2387298-1.6566991-.415274-3.3333774-1.1209235-5.7145866-3.8808089-6.3875713-7.4401494-.1761327-.9549193-.0620408-3.1962393.2071531-4.1506316.8485917-2.9264167 2.9816378-5.2820951 5.7561224-6.3608588 1.2939183-.5085525 2.1740561-.6434638 3.7681887-.5812781 1.9153776.0621857 3.3643978.5085525 4.8034284 1.4634718.3312346.2176499.6109439.3836541.6314489.3631012.5899132-.6745567 5.3318266-5.5830106 5.4869285-5.6657492.3207193-.1865571.6209336-.1660042.9211479.0727257.3107296.2492697.4143062.6229109.2896989.9649322-.0620408.1454513-1.1593214 1.3802062-2.463755 2.7393326-1.2939183 1.3696662-2.4947754 2.6255011-2.6609185 2.8020452l-.2896989.3320084.4658316.601831c1.3044337 1.6811218 1.946398 3.6004463 1.946398 5.8006605 0 1.8054931-.3002143 2.9991423-1.1698367 4.6075384-1.1172598 2.0853287-3.022122 3.6837119-5.3097443 4.4515471-1.4390306.4774597-2.7955154.611844-4.3381226.414747zm2.3812093-1.7638604c2.6088673-.3631012 4.772408-1.9509444 5.9527601-4.3893614.5799235-1.1831092.7455409-2.0963957.6934897-3.6215262-.0930612-2.1791343-.7145205-3.6109863-2.2571276-5.1571967-.993704-.9960251-1.8428215-1.5356704-3.054194-1.9404044-.7555305-.2592828-.973199-.2803627-2.3812092-.2803627s-1.6251529.0205529-2.3812092.2803627c-1.2113725.404734-2.0599641.9443793-3.0541939 1.9404044-1.0147348 1.017105-1.449546 1.7016747-1.8943468 2.9780624-.4348112 1.2658478-.517357 2.9986153-.1861224 4.2855429.3932755 1.5567504 1.0247244 2.6876868 2.1015 3.7458976 1.355959 1.3385735 3.3538824 2.1996872 5.2797754 2.2618779.2076789.000522.7355512-.0411108 1.1808779-.1032965z" transform="matrix(1 0 0 -1 0 81)"/><path d="m0 48.3566238c0-3.1290173.02100353-3.7259665.18041497-4.158258 1.18750746-3.4274918 7.18967101-6.000855 16.36229103-7.0091868 2.0890437-.2263389 9.6072315-.2571795 11.6117226-.0512268 2.4175605.2571795 5.9596179.8133563 5.8427521.9163326-.0210035.0308406-.4453826.133817-.9333109.2367933-2.4283315.514359-4.4640586 1.6570305-6.3096768 3.5403999-1.399697 1.4306917-2.5451974 3.406583-3.0008125 5.1665898l-.1060948.4218371-2.9372633.0616813c-9.0982998.2059527-16.35151996 1.7396207-20.41328017 4.3328473l-.29674223.1855665z" transform="matrix(1 0 0 -1 0 89)"/></g></g></svg>