<svg height="514" viewBox="0 0 384 514" width="384" xmlns="http://www.w3.org/2000/svg"><path d="m358.4 3.22693312-38.4 44.79999998-54.4-44.79999998c-5.677635-4.30029586-13.522365-4.30029586-19.2 0l-54.4 44.79999998-54.4-44.79999998c-5.677635-4.30029586-13.522365-4.30029586-19.2 0l-54.4 44.79999998-38.4-44.79999998c-10.6-7.9-25.6-.4-25.6 12.79999998v479.9999999c0 13.2 15 20.7 25.6 12.8l38.4-44.8 54.4 44.8c5.677635 4.300296 13.522365 4.300296 19.2 0l54.4-44.8 54.4 44.8c5.677635 4.300296 13.522365 4.300296 19.2 0l54.4-44.8 38.4 44.8c10.5 7.9 25.6.4 25.6-12.8v-479.9999999c0-13.19999998-15-20.69999998-25.6-12.79999998zm-38.4 356.79999988c0 4.4-3.6 8-8 8h-240c-4.4 0-8-3.6-8-8v-16c0-4.4 3.6-8 8-8h240c4.4 0 8 3.6 8 8zm0-96c0 4.4-3.6 8-8 8h-240c-4.4 0-8-3.6-8-8v-16c0-4.4 3.6-8 8-8h240c4.4 0 8 3.6 8 8zm0-96c0 4.4-3.6 8-8 8h-240c-4.4 0-8-3.6-8-8v-16c0-4.4 3.6-8 8-8h240c4.4 0 8 3.6 8 8z" fill="#00b5ad" transform="translate(0 .973067)"/></svg>