<svg height="215" viewBox="0 0 178 215" width="178" xmlns="http://www.w3.org/2000/svg"><g fill="none" fill-rule="evenodd"><path d="m127.741 209.244404c0 2.762-28.6 5-63.87 5-35.28 0-63.871-2.238-63.871-5 0-2.761 28.591-5 63.871-5 35.27 0 63.87 2.239 63.87 5" fill="#c9c9c9"/><path d="m17.941 158.402404s.89 24.732 6.61 45.581l5.51-1.902s-2.26-14.982 1.58-38.551z" fill="#5d7e93"/><path d="m28.991 200.552404s6.18-.227 9.54 2.033c3.36 2.261 2.63 6.9 2.63 6.9h-16.11s-2.01-3.296-1.15-7.358z" fill="#5d7e93"/><path d="m34.801 207.206404.12-.008c.44-.064.74-.473.68-.913-.32-2.212-.05-4.035.24-5.186-.54-.121-1.07-.216-1.59-.29-.32 1.315-.59 3.303-.24 5.71.06.399.4.687.79.687" fill="#4c6672"/><path d="m30.891 207.206404.12-.008c.44-.064.74-.473.68-.913-.37-2.508.03-4.517.35-5.612-.61-.06-1.17-.093-1.64-.109-.35 1.306-.68 3.392-.3 5.955.05.399.4.687.79.687" fill="#4c6672"/><path d="m63.871 158.402404s2.08 27.805 10.9 45.581l5.51-1.902s-4.69-10.454-1.64-38.014z" fill="#5d7e93"/><path d="m79.211 200.552404s6.18-.227 9.54 2.033c3.36 2.261 2.63 6.9 2.63 6.9h-16.11s-2.01-3.296-1.15-7.358z" fill="#5d7e93"/><path d="m85.021 207.206404.12-.008c.44-.064.74-.473.68-.913-.32-2.212-.05-4.035.24-5.186-.54-.121-1.08-.216-1.59-.29-.32 1.315-.59 3.303-.24 5.71.06.399.4.687.79.687" fill="#4c6672"/><path d="m81.111 207.206404.12-.008c.44-.064.74-.473.68-.913-.37-2.508.03-4.517.35-5.612-.61-.06-1.17-.093-1.64-.109-.35 1.306-.68 3.392-.31 5.955.06.399.41.687.8.687" fill="#4c6672"/><path d="m100.341 106.944404s17.05 14.846 43.09 12.066c26.04-2.781 29.68-20.8050001 26.01-35.1390001-3.66-14.334-10.02-16.532-10.02-16.532l4.59-5.774s22.82 17.115 9.47 48.5350001c-11.37 26.752-58.1 23.325-75.65 9.982z" fill="#5d7e93"/><path d="m65.611 79.3484039-5.22 8.01 41.63 21.7410001 4.16-7.114z" fill="#94c4bf"/><path d="m62.421 79.6014039c-11.72-6.566-21.82-18.159 7.6-37.448 29.42-19.288 52.02-7.606 70.95 9.057 18.92 16.664 9.79 39.633-.83 48.1-10.63 8.4670001-18.64 13.3730001-35.02 4.3560001-16.39-9.0160001-42.7-24.0650001-42.7-24.0650001" fill="#cae5e1"/><path d="m82.291 47.2204039c13.32-8.737 25.38-11.733 36.42-10.961-14.01-6.11-29.97-6.38-48.69 5.894-29.42 19.289-19.32 30.882-7.6 37.448 0 0 .42.244 1.2.686-5.46-7.596-3.87-18.293 18.67-33.067" fill="#daf2f0"/><path d="m86.881 51.5104039c-11.24 10.693-17.86 24.474 12.84 42.964 25.95 15.6260001 38.32 3.281 42.32-4.786 4.01-8.069 6.02-20.636-10.1-35.351-16.13-14.715-31.35-15.863-45.06-2.827" fill="#e4f4f2"/><path d="m86.881 51.5104039c-11.24 10.693-17.86 24.474 12.84 42.964 25.95 15.6260001 38.32 3.281 42.32-4.786 4.01-8.069 6.02-20.636-10.1-35.351-16.13-14.715-31.35-15.863-45.06-2.827" fill="#e4f4f2"/><path d="m131.941 54.3374039c-5.89-5.378-11.67-8.935-17.29-10.659 4.81 1.935 9.72 5.19 14.71 9.75 16.12 14.715 14.12 27.282 10.11 35.35-3.31 6.655-12.31 16.2030001-29.92 10.582 19.32 7.4480001 29.03-2.702 32.49-9.672 4.01-8.069 6.02-20.636-10.1-35.351" fill="#94c4bf"/><path d="m112.721 148.463404-24.47 33.058c-1.23 1.671-.75 4.045 1.04 5.096 1.55.905 3.52.501 4.59-.936l24.76-33.482z" fill="#fcd51a"/><path d="m150.721 134.858404c-7.95 11.74-22.38 16.073-29.83 12.09s-10.36-17.152.47-32.754c10.97-15.7930001 26.77-15.8480001 32.77-10.66 6.01 5.189 4.54 19.583-3.41 31.324zm6.86-37.6160001c-9.36-8.525-30.92-7.577-45.24 11.7140001-13.44 18.085-8.88 34.562 4.23 42.009 11.56 6.563 27.89 1.708 37.82-12.965s12.08-32.665 3.19-40.7580001z" fill="#fcd51a"/><path d="m57.851 81.9214039c11.19 5.763 34.98 21.2360001 41.62 24.5470001 6.65 3.311 5.21 8.531 2.56 14.173s-12.8 20.916-16.82 36.887c-4.02 15.969-15.59 11.778-28.44 10.913-12.84-.866-21.61-1.549-27.43-1.997-6.95-.538-14.36-.428-15.37-20.121-1.01-19.692 4.68-44.301 12.87-57.4610001 8.19-13.16 16.42-14.446 31.01-6.941" fill="#cae5e1"/><path d="m28.321 152.024404c-1.02-19.693 4.67-44.302 12.86-57.4610001 5.69-9.139 11.4-12.547 19.25-11.267-.92-.5-1.79-.965-2.58-1.375-14.59-7.505-22.82-6.219-31.01 6.941-8.19 13.1600001-13.88 37.7690001-12.87 57.4610001 1.01 19.693 8.42 19.583 15.38 20.121.71.054 1.47.113 2.28.175-1.73-2.907-2.94-7.44-3.31-14.595" fill="#daf2f0"/><g fill="#5d7e93"><path d="m44.001 86.9334039c3.16.507 5.23 3.575 4.53 6.701-2.21 9.8790001-4.32 30.5040001 11.32 45.2720001 19.42 18.328 36.42 16.467 36.42 16.467l-2.18 7.148s-30.43-1.628-49.17-25.673c-14.15-18.147-9.95-37.7310001-7.04-46.2470001.87-2.551 3.46-4.095 6.12-3.668"/><path d="m110.261 152.092404-4.25 5.436s8.91 1.569 7.55 4.993c-1.09 2.777-4.96 1.929-4.96 1.929s2.86 1.918.82 4.691c-1.13 1.538-4.84.492-4.84.492s.9 1.375-.33 2.865c-1.22 1.489-7.71 1.113-11.92-1.419s-3.51-6.817-.97-11.245 6.72-11.168 18.9-7.742"/><path d="m142.291 52.7614039 3.57-11.843 9.97-2.619 11.49 11.52s3.93 13.366-5.24 19.324c0 0-10.02.268-14.86-7.675 0-2.301 2.35-3.854 4.47-2.949l5.52 2.363 2.07-7.289-6.23-7.998-2.61.374s-1.87 8.236-8.15 6.792"/></g><path d="m107.531 74.3664039c-1.31 1.294-3.43 1.276-4.72-.042-1.3-1.317-1.28-3.433.04-4.727 1.31-1.294 3.43-1.275 4.72.042 1.3 1.317 1.28 3.433-.04 4.727" fill="#639296"/><path d="m126.531 88.4864039c-1.32 1.294-3.44 1.275-4.73-.042-1.3-1.317-1.28-3.433.04-4.727s3.43-1.275 4.73.042c1.29 1.317 1.27 3.434-.04 4.727" fill="#639296"/><path d="m88.091 121.550404c-.94-.441-1.35-1.572-.91-2.514l7.21-15.407c.44-.941 1.58-1.351 2.52-.91.94.44 1.35 1.571.91 2.513l-7.22 15.407c-.44.941-1.57 1.351-2.51.911" fill="#94c4bf"/><path d="m94.221 11.3214039c-2.3-2.95500003-4.73-5.09900003-6.49-6.45700003.52-1.869-.44-3.867-2.29-4.595-1.97-.779-4.2.189-4.98 2.161-.78 1.973.19 4.203 2.16 4.981 1.36.539 2.85.242 3.9-.645 1.64 1.288 3.89 3.29200003 5.98 5.99800003 5.24 6.759 7.15 14.481 5.67 22.953l2.21.385c1.99-11.398-2.25-19.767-6.16-24.781" fill="#cae5e1"/></g></svg>