<?xml version="1.0" encoding="UTF-8"?>
<svg width="110px" height="105px" viewBox="0 0 110 105" version="1.1" xmlns="http://www.w3.org/2000/svg" xmlns:xlink="http://www.w3.org/1999/xlink">
    <title>Group 2</title>
    <g id="Page-1" stroke="none" stroke-width="1" fill="none" fill-rule="evenodd">
        <g id="Group-2" transform="translate(0.500000, 0.500184)" fill-rule="nonzero">
            <polygon id="Path" fill="#FAE18B" points="89.78 69.864 74.52 43.968 86.83 36.249 109.31 60.468"></polygon>
            <polygon id="Path" fill="#FAE18B" points="20.35 69.864 39.17 44.163 24.03 35.663 0 62.242"></polygon>
            <path d="M109.5,95.9998156 C109.5,100.693516 85.099232,104.499816 55.0007028,104.499816 C24.900768,104.499816 0.5,100.693516 0.5,95.9998156 C0.5,91.3061156 24.900768,87.4998156 55.0007028,87.4998156 C85.099232,87.4998156 109.5,91.3061156 109.5,95.9998156" id="Path" fill="#C1DBF1" transform="translate(55.000000, 95.999816) scale(-1, 1) translate(-55.000000, -95.999816) "></path>
            <polygon id="Path" fill="#D8BF71" points="39.17 44.163 74.52 44.163 89.78 69.864 20.35 69.864"></polygon>
            <path d="M34.47,61.578 C34.47,61.578 30.46,61.38 29.77,56.082 C29.08,50.784 27.75,42.328 30.27,38.034 C32.78,33.74 37.43,30.986 44.36,29.981 C51.29,28.976 68.17,27.909 73.4,31.023 C79.07,34.396 79.25,45 79.42,49.804 C79.6,54.609 78.86,59.22 74.46,60.168 C70.06,61.117 44.12,61.38 34.47,61.578" id="Path" fill="#BCE1DD"></path>
            <path d="M34.47,61.578 C34.47,61.578 30.46,61.38 29.77,56.082 C29.08,50.784 27.75,42.328 30.27,38.034 C32.78,33.74 37.43,30.986 44.36,29.981 C51.29,28.976 68.17,27.909 73.4,31.023 C79.07,34.396 79.25,45 79.42,49.804 C79.6,54.609 78.86,59.22 74.46,60.168 C70.06,61.117 44.12,61.38 34.47,61.578" id="Path" fill="#DAF2F0"></path>
            <path d="M42.35,61.289 C42.35,61.289 38.94,61.069 38.32,55.769 C37.71,50.468 36.54,42.006 38.65,37.727 C40.76,33.448 44.69,30.72 50.57,29.753 C52.41,29.451 55.07,29.149 57.99,28.971 C52.75,29.053 47.52,29.523 44.36,29.981 C37.43,30.986 32.78,33.74 30.27,38.034 C27.75,42.328 29.08,50.784 29.77,56.082 C30.46,61.38 34.47,61.578 34.47,61.578 C41.14,61.442 55.6,61.273 65.35,60.868 C57.37,61.123 47.31,61.201 42.35,61.289" id="Path" fill="#DAF2F0"></path>
            <path d="M32.38,47.742 C32.68,54.191 32.92,60.53 38.37,60.33 C43.82,60.131 64.83,59.203 70.97,57.764 C77.11,56.324 75.86,48.986 75.68,43.998 C75.49,39.011 74.37,33.971 65.6,32.934 C57.72,32.001 48.65,31.976 41.4,33.821 C36.54,35.058 32.02,40.07 32.38,47.742" id="Path" fill="#EEFFFF"></path>
            <path d="M37.18,48.944 C36.71,43.197 38.88,37.754 42.55,33.55 C42.16,33.637 41.77,33.725 41.4,33.821 C36.54,35.058 32.02,40.07 32.38,47.742 C32.68,54.191 32.92,60.53 38.37,60.33 C39.02,60.307 39.89,60.273 40.93,60.229 C38.84,56.924 37.51,53.061 37.18,48.944" id="Path" fill="#EEFFFF"></path>
            <path d="M74.73,93.578 L36.08,94.994 C34.03,95.069 32.3,93.464 32.22,91.407 L31.2,63.313 C31.16,62.352 31.91,61.545 32.87,61.51 L74.99,59.967 C75.95,59.932 76.75,60.682 76.79,61.642 L77.84,90.239 C77.9,92.019 76.51,93.513 74.73,93.578" id="Path" fill="#D7F8F8"></path>
            <path d="M73.1,64.834 C73,62.188 70.78,60.121 68.13,60.218 L39.72,61.259 C37.08,61.357 35.01,63.58 35.11,66.226 L35.79,84.733 C35.99,90.399 40.76,94.823 46.42,94.615 L65.28,93.925 C70.18,93.745 74.01,89.627 73.83,84.727 L73.1,64.834 Z" id="Path" fill="#CAE5E1"></path>
            <path d="M55.85,94.27 L46.42,94.615 C40.76,94.823 35.99,90.399 35.79,84.733 L35.11,66.226 C35.01,63.58 37.08,61.357 39.72,61.259 L45.15,61.061 L35.92,61.399 C33.28,61.495 31.21,63.719 31.31,66.364 L31.99,84.871 C32.19,90.537 36.95,94.962 42.62,94.755 L63.69,93.983 L55.85,94.27 Z" id="Path" fill="#DAF2F0"></path>
            <path d="M76.9,64.694 C76.8,62.048 74.58,59.982 71.93,60.078 L68.13,60.218 C70.78,60.122 73,62.188 73.1,64.834 L73.83,84.727 C74.01,89.627 70.18,93.745 65.28,93.925 L69.08,93.785 C73.98,93.606 77.81,89.487 77.63,84.587 L76.9,64.694 Z" id="Path" fill="#94C4BF"></path>
            <path d="M62.62,67.665 C62.64,68.161 63.06,68.547 63.55,68.529 C64.05,68.511 64.43,68.095 64.42,67.6 L64.15,60.315 L62.36,60.38 L62.62,67.665 Z" id="Path" fill="#94C4BF"></path>
            <path d="M45.04,44.294 C45.08,45.356 44.79,46.231 43.87,46.262 C42.97,46.292 42.56,45.448 42.52,44.387 C42.48,43.325 42.81,42.452 43.73,42.419 C44.65,42.385 45.01,43.234 45.04,44.294" id="Path" fill="#64847E"></path>
            <path d="M62.77,43.645 C62.81,44.706 62.52,45.581 61.6,45.612 C60.69,45.643 60.29,44.799 60.25,43.737 C60.21,42.676 60.54,41.803 61.46,41.769 C62.37,41.736 62.73,42.584 62.77,43.645" id="Path" fill="#64847E"></path>
            <path d="M65.5600008,20.912 C64.9000008,20.937 64.3600008,21.366 64.1500008,21.952 C55.6700008,20.833 56.4700008,29.392 56.4700008,29.392 L57.6200008,29.478 C57.3400008,22.264 62.2700008,22.373 64.0700008,22.653 C64.1700008,23.454 64.8600008,24.064 65.6800008,24.033 C66.5400008,24.002 67.2100008,23.278 67.1800008,22.416 C67.1500008,21.554 66.4200008,20.881 65.5600008,20.912" id="Path" fill="#CAE5E1" transform="translate(61.815407, 25.194485) scale(-1, 1) translate(-61.815407, -25.194485) "></path>
            <path d="M53.22,52.082 C51.47,52.082 49.86,50.932 49.26,49.18 C49.11,48.741 49.35,48.263 49.79,48.112 C50.23,47.961 50.7,48.196 50.86,48.636 C51.25,49.793 52.42,50.545 53.55,50.377 C54.53,50.236 55.34,49.459 55.58,48.443 C55.69,47.991 56.14,47.711 56.6,47.819 C57.05,47.927 57.33,48.38 57.22,48.832 C56.82,50.514 55.44,51.804 53.79,52.041 C53.6,52.069 53.41,52.082 53.22,52.082" id="Path" fill="#64847E"></path>
            <path d="M75.68,43.998 C75.49,39.011 74.37,33.971 65.6,32.934 C62.11,32.522 58.39,32.287 54.7,32.314 C58.17,32.318 61.65,32.542 64.93,32.927 C73.7,33.953 74.82,38.957 75,43.908 C75.18,48.86 76.43,56.146 70.29,57.576 C64.15,59.006 43.14,59.933 37.69,60.133 C37.15,60.153 36.68,60.092 36.23,59.99 C36.84,60.238 37.54,60.361 38.37,60.33 C43.82,60.131 64.83,59.203 70.97,57.764 C77.11,56.324 75.86,48.986 75.68,43.998" id="Path" fill="#94C4BF"></path>
            <polygon id="Path" fill="#E3CC81" points="20.35 69.864 89.78 69.864 85.54 97.78 25.58 97.78"></polygon>
            <polygon id="Path" fill="#E6BA6E" points="89.78 69.864 85.54 97.78 85.1 97.78 86.78 83.534 89.13 70.243"></polygon>
            <polygon id="Path" fill="#E6BA6E" points="20.35 69.864 25.58 97.78 25.96 97.78 23.23 83.534 20.88 70.243"></polygon>
            <polygon id="Path" fill="#FAE18B" points="89.78 69.864 89.07 70.621 20.95 70.621 20.35 69.864"></polygon>
            <path d="M38.55,69.864 L35.07,69.875 L35.66,73.148 C35.77,73.731 35.39,74.291 34.8,74.402 C34.29,74.499 33.78,74.219 33.59,73.734 L32.27,70.342 L31.9,70.424 L32.63,73.464 C32.76,74.04 32.37,74.61 31.78,74.686 C31.31,74.746 30.87,74.47 30.71,74.024 L29.61,70.838 L29.3,70.95 L29.89,72.799 C30.08,73.402 29.71,74.04 29.09,74.179 C28.65,74.278 28.19,74.094 27.95,73.711 C27.36,72.792 26.39,71.061 26.47,69.857 C26.58,68.147 28.68,66.297 31.9,66.577 C35.12,66.858 37.17,67.53 38.55,69.864" id="Path" fill="#7BA1BA"></path>
            <polygon id="Path" fill="#E6BA6E" points="109.31 60.468 109.54 61.006 89.66 70.415 89.78 69.864"></polygon>
            <polygon id="Path" fill="#E6BA6E" points="0 62.242 0 62.849 20.44 70.354 20.35 69.864"></polygon>
            <g id="Group" transform="translate(19.690000, -0.000000)" fill="#FFDF00">
                <polygon id="Path" points="7.69 20.503 4.49 23.137 1.29 20.4 1.19 20.786 2.56 24.643 0 25.522 0.03 25.831 2.9 26.329 3.03 29.399 3.53 29.446 5.42 26.41 9.29 26.373 9.45 25.755 6.74 24.262 7.9 20.825"></polygon>
                <polygon id="Path" points="56.67 9.13 55.4 12.172 54.86 12.106 54.62 9.253 51.33 9.467 51.26 9.112 54.21 7.175 53.02 4.282 53.38 4.014 55.81 5.819 58.36 4 58.76 4.298 57.64 7.022 60.5 8.654 60.37 9.097"></polygon>
                <polygon id="Path" points="35.67 5.13 34.4 8.17200001 33.86 8.10600001 33.62 5.253 30.33 5.467 30.26 5.112 33.21 3.175 32.02 0.282 32.38 0.014 34.81 1.819 37.36 -8.8817842e-16 37.76 0.298 36.64 3.022 39.5 4.654 39.37 5.097"></polygon>
                <polygon id="Path" points="12.94 8.86300001 12.63 9.21500001 14.45 11.738 13.16 14.652 13.5 14.8 16.06 13.337 19.46 14.312 19.71 14.156 17.68 11.577 18.94 7.98700001 18.63 7.77900001 16.01 9.99500001"></polygon>
                <polygon id="Path" points="63.94 16.863 63.63 17.215 65.45 19.738 64.16 22.652 64.5 22.8 67.06 21.337 70.46 22.312 70.71 22.156 68.68 19.577 69.94 15.987 69.63 15.779 67.01 17.995"></polygon>
            </g>
            <polygon id="Path" fill="#E6BA6E" points="85.54 97.78 25.58 97.78 25.52 97.43 68.34 96.93 85.54 97.36"></polygon>
            <polygon id="Path" fill="#E6BA6E" points="60.31 97.78 60.31 87.346 52.3 87.346 51.41 89.253 50.78 87.346 49 87.346 49.63 97.78"></polygon>
            <path d="M76.64,65.998 C76.92,65.969 77.08,65.942 77.29,65.908 C77.48,65.875 77.67,65.841 77.86,65.801 C78.23,65.725 78.6,65.639 78.96,65.538 C79.68,65.342 80.4,65.111 81.09,64.829 C82.49,64.28 83.83,63.549 85.06,62.633 C86.28,61.719 87.39,60.606 88.28,59.336 C89.18,58.069 89.84,56.655 90.27,55.208 C90.51,54.486 90.64,53.75 90.78,53.019 C90.86,52.286 90.97,51.553 90.97,50.828 C91.04,49.371 90.89,47.952 90.71,46.553 C90.28,43.771 89.47,41.129 88.49,38.591 C88.19,37.812 87.31,37.423 86.53,37.724 C85.78,38.013 85.4,38.836 85.64,39.593 L85.64,39.611 C86.43,42.045 87.03,44.522 87.27,46.98 C87.35,48.203 87.41,49.427 87.28,50.605 C87.25,51.202 87.12,51.77 87.03,52.346 C86.89,52.903 86.76,53.464 86.55,53.987 C85.79,56.112 84.39,57.862 82.54,59.072 C81.61,59.681 80.59,60.173 79.5,60.527 C78.96,60.711 78.41,60.856 77.85,60.973 C77.57,61.033 77.29,61.082 77.02,61.121 L76.61,61.175 C76.49,61.187 76.32,61.202 76.28,61.201 C74.95,61.182 73.85,62.246 73.8294649,63.578 C73.82,64.91 74.88,66.006 76.21,66.0265912 C76.3,66.027 76.39,66.023 76.48,66.015 L76.64,65.998 Z" id="Path" fill="#7BA1BA"></path>
            <path d="M80.4,33.414 C79.26,33.887 80.45,37.618 82.54,39.07 C84.64,40.523 89.43,40.411 91.33,37.766 C93.22,35.12 92.5,31.398 91.88,30.784 C91.26,30.171 90.24,30.826 90.25,32.697 C90.25,34.569 89.6,34.052 89.65,33.02 C89.7,31.934 89.98,28.912 88.35,28.562 C86.72,28.21 87.28,31.236 86.93,32.265 C86.59,33.294 86.36,32.401 86.13,31.322 C85.88,30.159 85.19,27.668 83.82,27.872 C82.45,28.075 83.6,30.497 84.05,32.025 C84.5,33.552 85,35.584 83.5,35.75 C82,35.916 82.26,32.644 80.4,33.414" id="Path" fill="#7BA1BA"></path>
            <path d="M83.4999731,84.5473913 L83.4999731,77.9275694 C83.4999731,75.9414569 81.8047108,74.4998031 79.468938,74.4998031 C77.6900352,74.4998031 76.1624944,75.4687903 75.6650531,76.9262135 C75.6443631,77.1108813 75.6954279,77.4453582 76.2707869,77.6130117 C76.9020531,77.7960195 77.134926,77.4897615 77.219447,77.2876644 C77.5469658,76.400014 78.4300341,75.8260914 79.468938,75.8260914 C80.8846646,75.8260914 81.9125631,76.7187216 81.9125631,77.9479036 L81.9125631,78.4749331 C81.9125631,78.7214335 81.5634738,78.8820322 81.2337539,78.9509195 L78.4229907,79.6431125 C76.3196506,80.0946149 75.4999731,80.86275 75.4999731,82.3828357 C75.4999731,84.1494218 77.186431,85.4844247 79.4293188,85.4999156 C79.4596935,85.5001941 79.4891878,85.4952143 79.5169213,85.4840098 C79.6216921,85.4412664 79.8611682,85.2960221 79.8611682,84.8598741 C79.8611682,84.4245561 79.6225725,84.2498479 79.5178017,84.1938251 C79.4887476,84.1784707 79.4570522,84.1718309 79.4244764,84.1714159 C78.0677384,84.1552316 77.0873829,83.4082607 77.0873829,82.3828357 C77.0873829,81.4354276 77.6376498,81.144524 78.7954113,80.8834991 C78.7954113,80.8834991 80.831839,80.3792938 81.633908,80.1531276 C81.769934,80.1149491 81.9050795,80.2120553 81.9024382,80.3456801 L81.8953948,80.7652288 L81.9011176,83.093288 C81.9011176,83.1215069 81.9072806,83.1497258 81.9187261,83.1754548 C82.2035443,83.8054002 82.6913008,84.3162453 83.3304908,84.6606819 C83.4673972,84.7266643 83.4999731,84.6175235 83.4999731,84.5473913" id="Path" fill="#3480DE" transform="translate(79.499973, 79.999859) rotate(40.000000) translate(-79.499973, -79.999859) "></path>
        </g>
    </g>
</svg>