<svg height="102" viewBox="0 0 137 102" width="137" xmlns="http://www.w3.org/2000/svg"><g fill="none" transform="translate(.355269 -9.658887)"><g transform="translate(0 12.658887)"><path d="m133.98 88.0263617c0 1.57-24.4 2.84-54.4900003 2.84-30.0999997 0-54.4899997-1.27-54.4899997-2.84 0-1.5699998 24.39-2.8399998 54.4899997-2.8399998 30.0900003 0 54.4900003 1.27 54.4900003 2.8399998" fill="#cececc"/><path d="m70 96.0263617c0 1.57-15.6726005 2.84-35 2.84-19.3338227 0-35-1.27-35-2.84 0-1.5699998 15.6661773-2.8399998 35-2.8399998 19.3273995 0 35 1.27 35 2.8399998" fill="#cececc"/><g fill="#728589"><g transform="matrix(.68199836 -.7313537 -.7313537 -.68199836 131.255933 57.28452)"><path d="m7.1515988 11.7909808s3.07 11.37-6.76999999 17.09l2.84999999 3.62s9.77-5.99 7.18-20.14l-.39-2.19z"/><path d="m2.2315988 11.8209808c-3.63999999-1.64-2.32999999-5.18999999.39-3.24999998 2.71 1.93999998 3.68-.93 2.53-2.59000001-1.15-1.67-3.92-4.53-2.49-5.74999999 1.43-1.22 4.26 2.69999999 4.84 4.57999999 0 0-.38-2.02-1.25-3.16 0 0 2.1-1.00999999 3.00999999 1.17.92000001 2.17.92000001 3.44.92000001 3.44s.22-1.45.02-2.47c0 0 2.17.21 2.37 3.20000001.21 2.97999999-.96 4.78999998-3.93 5.67999998 0 0-2.77.79-6.41-.85z"/></g><path d="m52.09 38.4163619s1.86-2.19 1.89-6.19c.03-3.99-3.76-4.27-3.12-.99.64 3.27-2.38 2.96-3.41 1.22s-2.48-5.45-4.19-4.65c-1.71.79.69 4.99 2.15 6.3 0 0-1.68-1.18-2.35-2.45 0 0-1.79 1.49-.19 3.23 1.59 1.73 2.74 2.26 2.74 2.26s-1.41-.41-2.25-1.01c0 0-.71 2.06 1.92 3.49s4.75 1.12 6.81-1.21"/><path d="m51.73 35.6763619s6.84 12.54 21.4 12.53l1.3499997 5.63s-14.6699997 1.28-24.8899997-15.93z"/></g><path d="m77.7799997.02636189c.62-.12 1.23.18 1.55.69 7.77-2.82 8.79 5.43 8.79 5.43l-1.07.32c-1.23-6.87-5.86-5.75-7.51-5.11.08.78-.44 1.5-1.22 1.64-.82.15-1.61-.4-1.76-1.22s.4-1.6 1.22-1.75" fill="#cae5e1"/><path d="m76.3099997 62.7263619c-4.4999997 10.9.84 21.13.84 21.13-4.0099997-.07-5.6399997 1.38-6.8699997 2.67-.7.73-.17 1.9499998.84 1.9499998h10.5799997c-5.16-13.6799998.17-22.1799998.17-22.1799998z" fill="#728589"/><path d="m114.21 58.6963619c4.46 11.14 3.01 24.71 3.01 24.71 3.96-.06 6.24 1.35 7.48 2.63.72.74.18 1.9899998-.86 1.9899998h-10.52c2.3-15.8599998-5.96-25.7499998-5.96-25.7499998z" fill="#728589"/><path d="m70.69 46.5763619s-3.65 1.3-6.23-3.17-6.89-11.53-6.24-16.3c.65-4.76 3.78-8.94 9.59-12.41 5.82-3.46 20.4899997-10.67000001 26.3099997-9.83000001 6.3100003.92 10.4000003 10.31000001 12.3400003 14.54000001 1.94 4.22 2.98 8.61-.59 11.09-3.58 2.47-26.6400003 12.32-35.18 16.08" fill="#bce1dd"/><path d="m70.69 46.5763619s-3.65 1.3-6.23-3.17-6.89-11.53-6.24-16.3c.65-4.76 3.78-8.94 9.59-12.41 5.82-3.46 20.4899997-10.67000001 26.3099997-9.83000001 6.3100003.92 10.4000003 10.31000001 12.3400003 14.54000001 1.94 4.22 2.98 8.61-.59 11.09-3.58 2.47-26.6400003 12.32-35.18 16.08" fill="#cae5e1"/><path d="m106.46 19.4063619c-1.94-4.23-6.03-13.62000001-12.3400003-14.54000001-3.83-.55-11.5 2.38-17.95 5.44000001 5.2-2.29000001 10.79-4.15000001 13.84-3.55000001 5.81 1.14 9.92 10.53000001 11.8600003 14.75000001 1.94 4.23 3.06 8.58-.11 10.87-.98.71-3.6300003 2.04-7.0600003 3.63 5.3600003-2.43 9.7700003-4.54 11.1700003-5.51 3.57-2.48 2.53-6.87.59-11.09" fill="#daf2f0"/><path d="m77.6199997 43.3963619s-3.12 1.06-5.6399997-3.44c-2.51-4.5-6.69-11.62-6.39-16.23.3-4.6 2.79-8.49 7.68-11.53 1.5299997-.95 3.7899997-2.21000001 6.3399997-3.45000001-4.65 2.02000001-9.1499997 4.37000001-11.7999997 5.95000001-5.81 3.47-8.94 7.65-9.59 12.41-.65 4.77 3.66 11.83 6.24 16.3s6.23 3.17 6.23 3.17c5.9099997-2.6 18.7599997-8.11 27.3099997-12.08-7.03 3.18-15.98 6.98-20.38 8.9" fill="#cae5e1"/><path d="m63.7 34.9963619c2.66 5.64 5.22 11.21 10.0099997 9.02 4.79-2.2 23.21-10.81 28.1500003-14.38 4.95-3.55 1.12-9.64-.9-14.03-2.0100003-4.38-4.8700003-8.47000001-13.0900003-6.14000001-7.38 2.09000001-15.4899997 5.43000001-21.2799997 9.76000001-3.88 2.9-6.05 9.05-2.89 15.77" fill="#eaf3f2"/><path d="m68.43 34.2863619c-2.55-4.95-2.63-10.62-.91-15.73-.32.22-.63.44-.93.67-3.88 2.9-6.05 9.05-2.89 15.77 2.65 5.64 5.22 11.21 10.0099997 9.02.57-.27 1.34-.62 2.25-1.04-3.0899997-2.18-5.7099997-5.14-7.5299997-8.69" fill="#eaf3f2"/><path d="m100.96 15.6063619c-1.6900003-3.69-3.9900003-7.17000001-9.5900003-6.79000001 5 0 7.17 3.31000001 8.7700003 6.82000001 2.02 4.38 5.85 10.47.9 14.03-4.9400003 3.56-23.3600003 12.18-28.15 14.37-.53.25-1.03.39-1.51.45.72.05 1.49-.09 2.3299997-.47 4.79-2.2 23.21-10.81 28.1500003-14.38 4.95-3.55 1.12-9.64-.9-14.03" fill="#cae5e1"/><path d="m109.17 66.4063619-24.7800003 6.39c-5.3 1.37-10.71-1.83-12.0799997-7.13l-2.67-13.65c-1.06-2.33-.04-5.08 2.28-6.14l31.66-14.53c2.33-1.06 5.08-.04 6.15 2.29l5.61 22.31c1.19 4.59-1.58 9.27-6.17 10.46" fill="#d7f8f8"/><path d="m106.38 35.1663619c-1.06-2.33-3.81-3.35-6.14-2.28l-24.9800003 11.45c-2.3199997 1.07-3.3399997 3.82-2.2699997 6.15l2.8799997 14.26c1.37 5.3 6.78 8.5 12.08 7.13l8.83-2.28 8.8400003-2.28c4.59-1.18 7.35-5.86 6.16-10.45z" fill="#cae5e1"/><path d="m96.7799997 69.5963619-8.83 2.28c-5.3 1.37-10.71-1.83-12.08-7.13l-2.8799997-14.26c-1.07-2.33-.05-5.08 2.2699997-6.15l9.35-4.28-12.6899997 5.82c-2.32 1.06-3.34 3.81-2.28 6.14l2.67 13.65c1.3699997 5.3 6.7799997 8.5 12.0799997 7.13l20.8800003-5.39z" fill="#cae5e1"/><path d="m115.34 55.9463619-5.61-22.31c-1.07-2.33-3.82-3.35-6.15-2.29l-3.34 1.54c2.33-1.07 5.08-.05 6.14 2.28l5.4 21.7c1.19 4.59-1.57 9.27-6.16 10.45l3.55-.91c4.59-1.19 7.36-5.87 6.17-10.46" fill="#daf2f0"/><path d="m73.03 26.0163619c.43.93.48 1.83-.32 2.19s-1.47-.24-1.9-1.17c-.43-.94-.46-1.84.35-2.21.8-.37 1.44.26 1.87 1.19" fill="#6e868e"/><path d="m88.6099997 18.8663619c.43.94.49 1.83-.32 2.19-.79.37-1.47-.24-1.9-1.17-.42-.93-.46-1.83.35-2.21.81-.37 1.44.26 1.87 1.19" fill="#6e868e"/><path d="m83.0299997 30.8263619c-1.56.65-3.42.21-4.6-1.13-.3-.33-.27-.85.07-1.14.34-.3.85-.27 1.14.07.79.88 2.11 1.12 3.06.55.81-.48 1.25-1.48 1.09-2.48-.07-.44.23-.86.68-.93.44-.07.86.23.93.68.26 1.65-.49 3.31-1.87 4.13-.16.1-.33.18-.5.25" fill="#6e868e"/><path d="m46.3837191 30.4778269c.3921358.7201727.7491199 1.4427484 1.0662809 1.978535.4834694.8167347 1.4053853 1.3184049 2.1814371 1.2826622l-.0158383.0265867c-.0547895.0913315-.1080411.1817826-.1597548.2713534-.8933718 1.5473654-1.7847943 3.6235622-2.6742674 6.2285903-.4828965-.1423323-.9822954-.3568458-1.5015766-.6391926-2.63-1.43-1.92-3.49-1.92-3.49.84.6 2.25 1.01 2.25 1.01s-.9556586-.4404339-2.3291202-1.8288558c.4945677-.641647.9417135-1.2550487 1.3416545-1.8413948.4404555.3865173.7874657.6302506.7874657.6302506-.2178458-.1954644-.4566194-.4552703-.6995448-.7584894.3530215-.5245105.6679163-1.0257828.9447219-1.5052243.2208836-.3825815.441679-.7931179.6623862-1.231609zm4.4762809.758535c-.4065055-2.0833406.9742033-2.7304549 2.0280858-1.9029058-.7368589.8694606-1.387294 1.6898568-1.9518764 2.4611069-.0118479-.1733114-.0372459-.3591217-.0762094-.5582011z" fill="#728589"/></g><circle cx="44.144731" cy="47.158887" fill="#728589" r="1.5"/><path d="m33.0351316 3.80534567-14.219946 1.3630533-12.02431678 23.92762263 11.56263718 5.4025223z" fill="#eaeaea" transform="matrix(.20791169249 .97814759995 .97814759995 -.20791169249 10.35989643188 75.51825742809)"/><g fill="#b2b2b2" transform="matrix(-.94551858 -.32556815 .32556815 -.94551858 36.62255530165 106.83665349436)"><path d="m8.74706024 23.8577984-8.1477876-3.1196226-.7725577 1.5178895 8.1621226 3.1246788z" transform="matrix(-.51503807 -.8571673 -.8571673 .51503807 26.260614 14.85754)"/><path d="m16.7204039 10.8892636-9.20504731-.7515195-.8407792 1.6493419 9.21930931.7532612z" transform="matrix(-.51503807 -.8571673 -.8571673 .51503807 27.441604 15.525712)"/><path d="m20.9423732 4.02142945-9.7517331.4737733-.8997954 1.7682234 9.7706762-.4747657z" transform="matrix(-.51503807 -.8571673 -.8571673 .51503807 28.067678 15.879928)"/><path d="m18.9426021 7.27805217-9.48949257-.1048108-.8726486 1.7092026 9.51318967.104399z" transform="matrix(-.51503807 -.8571673 -.8571673 .51503807 27.775193 15.714448)"/><path d="m10.6912319 20.7002422-8.40518018-2.5361963-.7863502 1.5374559 8.424238 2.5404126z" transform="matrix(-.51503807 -.8571673 -.8571673 .51503807 26.552198 15.022511)"/><path d="m14.6985786 14.1792544-8.94749821-1.327843-.8180526 1.604893 8.96652461 1.3306388z" transform="matrix(-.51503807 -.8571673 -.8571673 .51503807 27.145246 15.358041)"/><path d="m12.6902835 17.442745-8.67651131-1.9398327-.79518 1.5670734 8.68605071 1.9424144z" transform="matrix(-.51503807 -.8571673 -.8571673 .51503807 26.843975 15.18759)"/></g><path d="m22.4904996 65.1958803 18.5371625 9.2691912 11.4628376 5.7308089-22.2607417-3.0689167z" fill="#b2b2b2" transform="matrix(.89879405 .43837115 -.43837115 .89879405 35.662038 -9.077498)"/><path d="m33.0351316 3.80534567-14.219946 1.3630533-12.02431678 23.92762263 11.56263718 5.4025223z" fill="#eaeaea" transform="matrix(.20791169249 .97814759995 .97814759995 -.20791169249 18.83192043188 42.30693842809)"/><g fill="#b2b2b2" transform="matrix(-.94551858 -.32556815 .32556815 -.94551858 45.09457930165 73.62533449436)"><path d="m8.74706024 23.8577984-8.1477876-3.1196226-.7725577 1.5178895 8.1621226 3.1246788z" transform="matrix(-.51503807 -.8571673 -.8571673 .51503807 26.260614 14.85754)"/><path d="m16.7204039 10.8892636-9.20504731-.7515195-.8407792 1.6493419 9.21930931.7532612z" transform="matrix(-.51503807 -.8571673 -.8571673 .51503807 27.441604 15.525712)"/><path d="m20.9423732 4.02142945-9.7517331.4737733-.8997954 1.7682234 9.7706762-.4747657z" transform="matrix(-.51503807 -.8571673 -.8571673 .51503807 28.067678 15.879928)"/><path d="m18.9426021 7.27805217-9.48949257-.1048108-.8726486 1.7092026 9.51318967.104399z" transform="matrix(-.51503807 -.8571673 -.8571673 .51503807 27.775193 15.714448)"/><path d="m10.6912319 20.7002422-8.40518018-2.5361963-.7863502 1.5374559 8.424238 2.5404126z" transform="matrix(-.51503807 -.8571673 -.8571673 .51503807 26.552198 15.022511)"/><path d="m14.6985786 14.1792544-8.94749821-1.327843-.8180526 1.604893 8.96652461 1.3306388z" transform="matrix(-.51503807 -.8571673 -.8571673 .51503807 27.145246 15.358041)"/><path d="m12.6902835 17.442745-8.67651131-1.9398327-.79518 1.5670734 8.68605071 1.9424144z" transform="matrix(-.51503807 -.8571673 -.8571673 .51503807 26.843975 15.18759)"/></g><path d="m31.1728343 31.9450593 18.5371625 9.2691913 11.4628377 5.7308087-22.2607417-3.0689166z" fill="#b2b2b2" transform="matrix(.89879405 .43837115 -.43837115 .89879405 21.964541 -16.248763)"/><path d="m33.0351316 3.80534567-14.219946 1.3630533-12.02431678 23.92762263 11.56263718 5.4025223z" fill="#eaeaea" transform="matrix(.20791169249 .97814759995 .97814759995 -.20791169249 27.30394243188 9.09561842809)"/><g fill="#b2b2b2" transform="matrix(-.94551858 -.32556815 .32556815 -.94551858 53.56660130165 40.41401449436)"><path d="m8.74706024 23.8577984-8.1477876-3.1196226-.7725577 1.5178895 8.1621226 3.1246788z" transform="matrix(-.51503807 -.8571673 -.8571673 .51503807 26.260614 14.85754)"/><path d="m16.7204039 10.8892636-9.20504731-.7515195-.8407792 1.6493419 9.21930931.7532612z" transform="matrix(-.51503807 -.8571673 -.8571673 .51503807 27.441604 15.525712)"/><path d="m20.9423732 4.02142945-9.7517331.4737733-.8997954 1.7682234 9.7706762-.4747657z" transform="matrix(-.51503807 -.8571673 -.8571673 .51503807 28.067678 15.879928)"/><path d="m18.9426021 7.27805217-9.48949257-.1048108-.8726486 1.7092026 9.51318967.104399z" transform="matrix(-.51503807 -.8571673 -.8571673 .51503807 27.775193 15.714448)"/><path d="m10.6912319 20.7002422-8.40518018-2.5361963-.7863502 1.5374559 8.424238 2.5404126z" transform="matrix(-.51503807 -.8571673 -.8571673 .51503807 26.552198 15.022511)"/><path d="m14.6985786 14.1792544-8.94749821-1.327843-.8180526 1.604893 8.96652461 1.3306388z" transform="matrix(-.51503807 -.8571673 -.8571673 .51503807 27.145246 15.358041)"/><path d="m12.6902835 17.442745-8.67651131-1.9398327-.79518 1.5670734 8.68605071 1.9424144z" transform="matrix(-.51503807 -.8571673 -.8571673 .51503807 26.843975 15.18759)"/></g><g transform="translate(9.644731 76.658887)"><path d="m3.26341818 29-3.24963091-24.35245092c-.19677161-2.46953769 1.73808477-4.5769236 4.17898051-4.55259704l42.69673272-.09495204c2.5441139.02550365 4.466213 2.34633546 4.0548869 4.8943459l-3.8816969 24.0350286z" fill="#eaeaea"/><path d="m3.26341818 30-3.24963091-24.35284328c-.19677161-2.46914533 1.73808477-4.5769236 4.17898051-4.55220468l42.69673272-.09495204c2.5441139.02550365 4.466213 2.34594309 4.0548869 4.8943459l-3.8816969 24.0346363z" fill="#ddd"/><path d="m28 17.5c0 1.3809218-1.1196319 2.5-2.5 2.5-1.3807248 0-2.5-1.1190782-2.5-2.5s1.1192752-2.5 2.5-2.5c1.3803681 0 2.5 1.1190782 2.5 2.5" fill="#ccccce"/><path d="m46.3278295 33h-42.65565902c-.369849 0-.67217048-.3592263-.67217048-.7967455v-2.2032545h44v2.2032545c0 .4375192-.3027096.7967455-.6721705.7967455" fill="#b2b2b2"/><g fill="#8c8c8c" transform="translate(37 31)"><path d="m7.7108523 1h-2.4217046c-.1590684 0-.2891477-.1832461-.2891477-.408377v-.183246c0-.2251309.1300793-.408377.2891477-.408377h2.4217046c.1590684 0 .2891477.1832461.2891477.408377v.183246c0 .2251309-.1300793.408377-.2891477.408377"/><path d="m2.7105165 1h-2.421033c-.1590487 0-.2894835-.1832461-.2894835-.408377v-.183246c0-.2251309.1304348-.408377.2894835-.408377h2.421033c.1594203 0 .2894835.1832461.2894835.408377v.183246c0 .2251309-.1300632.408377-.2894835.408377"/></g></g></g></svg>