<svg height="173" viewBox="0 0 179 173" width="179" xmlns="http://www.w3.org/2000/svg"><g fill="none" transform="translate(-4 -4)"><path d="m164.089901 172.809273c0 2.304106-23.867207 4.172698-53.308759 4.172698-29.4415531 0-53.3095362-1.868592-53.3095362-4.172698 0-2.304881 23.8679831-4.173473 53.3095362-4.173473 29.441552 0 53.308759 1.868592 53.308759 4.173473" fill="#c9c9c9" transform="matrix(-1 0 0 1 221.561506 0)"/><g fill="#cae5e1"><path d="m55.2911216 83.3306011.9370802 4.1711447s-16.8247426 10.7791448-33.0540084-3.9980263l4.8034093-7.8438945s11.7239831 16.6869077 27.3135189 7.6707761" transform="matrix(-.89879405 -.43837115 -.43837115 .89879405 111.978755 25.852333)"/><path d="m13.946637 75.7539358s-3.2824979-8.2918289.5721856-8.8818289c3.1722532-.4851974 1.5698228 5.7307631 6.6558313 5.0646842 5.0867848-.6645263 2.2724388-6.0389606 4.1535865-8.2483553 1.8795949-2.2093947 4.1590211 1.0193026 3.5868354 4.9280526 0 0 1.6544473 2.3095395-.0263966 6.3945132 0 0-.4339916 5.558421-6.5525739 6.4077104-6.1185822.8500658-8.3894683-5.6647762-8.3894683-5.6647762" transform="matrix(-.89879405 -.43837115 -.43837115 .89879405 71.810823 16.578835)"/><path d="m69.767693 53.7157513s-17.2323375 31.8250657-20.4830042 39.2660525c-3.2491139 7.4409872-.0760844 11.4506582 8.4438144 15.2088022 8.5191223 3.757369 19.6321012 8.648158 25.76 11.494132 6.1271224 2.845974 11.4848608 2.697697 16.7703968-6.102618 5.285536-8.79954 10.443747-17.0199478 13.434329-23.6574478 2.990582-6.6359473 4.824371-10.0214605-3.63497-15.0744998-8.458566-5.0530395-40.290566-21.1344211-40.290566-21.1344211" transform="matrix(-.89879405 -.43837115 -.43837115 .89879405 194.287536 44.854812)"/><path d="m57.2193223 48.4912184c7.1356287 3.7185526 27.5417719 14.9867763 31.1837297 17.2932105 3.6419578 2.3072105 9.1029536 2.9135131 14.081823-4.9769605 4.978869-7.8904737 15.783629-26.9498027-3.0340592-39.7760922-21.8866834-14.91846046-43.4752403 7.6405-47.2258901 13.0692764-3.7514262 5.4287763-4.2024979 9.5975921 4.9943966 14.3905658" transform="matrix(-.89879405 -.43837115 -.43837115 .89879405 169.999539 39.247486)"/></g><path d="m95.1626017 32.2848192c-4.2498565-3.9413553-11.4980591-9.8343685-18.4403715-11.5717632-10.7209114-2.6837237-19.1212489 6.7671447-22.6219071 13.1841711-3.5006583 6.4170263-3.0340591 9.3336447 6.0665654 14.3509736 7.4469536 4.1043816 19.4364558 13.6227895 26.5487934 11.0493027.5263797-.6389079 1.0512067-1.359329 1.5705991-2.1822237 3.2234937-5.1097105 8.9880507-15.0908026 6.8763207-24.8304605" fill="#daf2f0" transform="matrix(-.89879405 -.43837115 -.43837115 .89879405 157.752019 36.419923)"/><path d="m91.5532249 31.4515886c-.4689283-.4347368-.9797806-.8966447-1.5178059-1.3701974 2.0014852 9.6814343-3.707173 19.5701448-6.9112574 24.6480264-.5193924.8221184-1.0442194 1.5433157-1.5705992 2.1822236-7.1123373 2.5734869-19.1018394-6.944921-26.548793-11.0493026-2.2274093-1.2281316-3.9346498-2.3305-5.1962531-3.3886184 1.2460759 1.54875 3.4168101 3.1037105 6.7489957 4.94125 7.4469536 4.1043816 19.4364557 13.6227895 26.5487931 11.0493026.5263797-.6389079 1.0512067-1.3593289 1.5705991-2.1822237 3.2234937-5.1097105 8.9880507-15.0908026 6.8763207-24.8304605" fill="#afcec9" transform="matrix(-.89879405 -.43837115 -.43837115 .89879405 154.142501 35.5866)"/><g fill="#64847e"><path d="m76.8946119 37.0667306c0 1.37175-1.1125401 2.4834342-2.4843882 2.4834342s-2.4836118-1.1116842-2.4836118-2.4834342 1.1117637-2.4834343 2.4836118-2.4834343 2.4843882 1.1116843 2.4843882 2.4834343" transform="matrix(-.89879405 -.43837115 -.43837115 .89879405 157.539412 36.370839)"/><path d="m61.9139263 37.4996804c0 1.1574869-.9386329 2.0960527-2.0962026 2.0960527-1.1575696 0-2.0962025-.9385658-2.0962025-2.0960527 0-1.1574868.9386329-2.0960526 2.0962025-2.0960526 1.1575697 0 2.0962026.9385658 2.0962026 2.0960526" transform="matrix(-.89879405 -.43837115 -.43837115 .89879405 130.020316 30.017555)"/><path d="m9.41422739 44.3804242c.64827001-.4393948 1.53100421-.2701579 1.96965401.3788421.4402025.6482236.2701772 1.5308947-.3780928 1.9702894-.6490464.4386185-1.53100425.2693816-1.97043041-.3796184-.43942616-.6482237-.27017722-1.5301184.3788692-1.9695131zm20.67010971 24.8421052-16.4101603-26.0089079c-1.2903292-2.0719868-4.04334182-2.6573289-6.06501269-1.2879079-2.02011814 1.3686448-2.49913924 4.1424211-1.05275949 6.108829l18.06848948 24.8863552c-3.0092152 3.7395132-3.3764389 9.1457764-.54346 13.326237 1.7895359 2.6410263 4.5068355 4.2743947 7.4221097 4.7665789l1.8865823-1.2778158-4.3251645-6.384421 2.7033249-5.9357106 6.3577046-.2010658 4.3243882 6.3836448 1.8865823-1.2770395c.6242025-2.8902237.1156793-6.0195527-1.6738566-8.6613553-2.8322025-4.1804606-7.9896371-5.8441053-12.5787679-4.4374211z" transform="matrix(.97029573 -.2419219 -.2419219 -.97029573 16.738083 136.320745)"/></g><path d="m150.8051 84.1048361-6.405064-.0069868 3.000675 4.8931184-6.13178 4.0515921-1.658329-1.9656316s-1.796524 2.6837237-.844692 4.9505658c.951831 2.2668421 3.807325 2.5043948 3.807325 2.5043948s-1.506937 1.8359872.317535 3.6937102c1.823697 1.857724 8.85141-.385052 11.841216-4.973855 2.989806-4.5888026.411476-10.7007368-3.926886-13.1469079" fill="#cae5e1" transform="matrix(-.89879405 -.43837115 -.43837115 .89879405 320.589531 74.013925)"/><path d="m8.14708851 143.7858 10.63162869 7.336961 6.4904641.662974c1.9991562.204947 3.5798481 1.78475 3.7840338 3.783763l.1397468 1.368644h-12.9258059l-9.39952738-7.486789c-.86720675-.690921-1.076827-1.922934-.48600844-2.8615z" fill="#819b96" transform="matrix(-.89879405 -.43837115 -.43837115 .89879405 99.371053 22.941615)"/><path d="m46.8710363 152.725289s18.5312067-30.152105-17.573941-45.190118l3.6582616-5.504856s39.231595 12.940408 17.1213165 52.906698z" fill="#cae5e1" transform="matrix(-.89879405 -.43837115 -.43837115 .89879405 138.095687 31.881902)"/><path d="m148.55141 128.031409s-22.142886 42.211395-56.5765062 12.899263l3.4082701-4.019763s24.6901601 27.545237 47.9191901-14.650632z" fill="#cae5e1" transform="matrix(-.89879405 -.43837115 -.43837115 .89879405 288.312983 66.562297)"/><path d="m152.30181 150.167931-4.00297 4.9855c-2.680034 3.337382-4.475004 7.295816-5.217215 11.511211-.348591 1.978829-2.040304 3.440631-4.048777 3.499631l-1.374177.040369.292692-4.022869c.416912-5.742408 2.770093-11.172737 6.673688-15.403658l2.118717-2.295566c.752304-.815907 1.996051-.934684 2.890431-.277144z" fill="#819b96" transform="matrix(-.89879405 -.43837115 -.43837115 .89879405 344.98559 79.646199)"/><path d="m96.6158508 105.800728c2.9005232-6.6406056 16.2673082-31.5323948 20.5008612-39.3840527-3.841486-1.9586447-6.387984-3.245-6.387984-3.245s-17.2323371 31.8250656-20.4830037 39.2660527c-3.1629368 7.24225-.238346 11.234065 7.7753586 14.906815-3.0340591-2.951552-3.6039156-6.509407-1.4052321-11.543815" fill="#daf2f0" transform="matrix(-.89879405 -.43837115 -.43837115 .89879405 235.248486 54.311392)"/><path d="m113.342116 22.5505364c-16.2735194-.7856315-30.0121861 13.8292895-32.9336713 18.056329-3.3050124 4.7821053-4.0448942 8.5876053 2.114059 12.7028553 2.2848608-5.3076711 11.2084726-23.1078158 30.8196123-30.7591843" fill="#daf2f0" transform="matrix(-.89879405 -.43837115 -.43837115 .89879405 198.183175 45.754191)"/><path d="m105.140377 9.98432414c-1.197164-2.11778947-2.551156-3.72553947-3.553451-4.76502632.511628-1.15127631.083071-2.52613158-1.032574-3.16969737-1.1925066-.6885921-2.7172998-.27947368-3.4059412.91294737-.6870886 1.19319737-.2787173 2.71710527.9137891 3.40569737.8252827.47588158 1.8081687.42619737 2.5643541-.04347368.935528.9835921 2.184709 2.48498684 3.273958 4.42267109 2.720405 4.8395526 3.208743 9.9803157 1.453367 15.281l1.380388.4580263c2.363275-7.1312369.437097-12.9101316-1.59389-16.50214476" fill="#afcec9" transform="matrix(-.89879405 -.43837115 -.43837115 .89879405 200.463972 46.280755)"/><path d="m69.5338056 63.4969314-4.4618059 8.6698947c-.3229705.6272632-.0729789 1.4051316.5535527 1.7273027.6280844.3229473 1.4052321.0745263 1.7282026-.5527369l4.4338565-8.6147763z" fill="#afcec9" transform="matrix(-.89879405 -.43837115 -.43837115 .89879405 159.945139 36.926245)"/><path d="m102.913825 74.5026312s16.914025-16.3150526 46.260084-2.3786315c1.346228.6389078 2.204118 2.0028947 2.204118 3.4918684v.159921c0 1.6527763-1.051206 3.1215657-2.615595 3.6548947-.966582.3299342-2.017012.2647237-2.934683-.1824342-5.278549-2.5758157-24.458802-10.8396973-37.886144-2.2784868-1.482869.9455526-3.436219.3966974-4.290227-1.1404079z" fill="#cae5e1" transform="matrix(-.89879405 -.43837115 -.43837115 .89879405 273.45353 63.131722)"/><g fill="#fff"><path d="m177.396089 39.4760306c0-.8096974.216608-1.4222105.6506-1.8367632.433991-.4153289 1.065957-.6226052 1.895898-.6226052.800439 0 1.419983.2127105 1.85941.6373552.437873.4238685.657586 1.0317237.657586 1.8220132 0 .7623421-.222042 1.3632105-.66535 1.8018289-.443308.4386185-1.060523.6583158-1.851646.6583158-.810531 0-1.437839-.2150394-1.881147-.6435658-.444085-.4293026-.665351-1.0348289-.665351-1.8165789" transform="matrix(-.89879405 -.43837115 -.43837115 .89879405 358.951227 82.87042)"/><path d="m169.801256 35.7720481c0-.8096973.216608-1.4222105.651376-1.8367631.433215-.415329 1.065181-.6226053 1.895122-.6226053.800439 0 1.419983.2127105 1.859409.6373553.43865.4238684.657587 1.0317237.657587 1.8220131 0 .7623421-.222042 1.3632106-.66535 1.801829s-1.060523.6583158-1.851646.6583158c-.810531 0-1.437839-.2150395-1.881147-.6435658-.444085-.4293026-.665351-1.034829-.665351-1.816579" transform="matrix(-.89879405 -.43837115 -.43837115 .89879405 342.906484 79.1662)"/><path d="m162.206424 32.0680658c0-.8096974.216608-1.4222106.6506-1.8367632.434767-.4153289 1.065181-.6226053 1.895898-.6226053.800439 0 1.419983.2127106 1.858633.6373553.439426.4238684.658363 1.0317237.658363 1.8220132 0 .7623421-.222042 1.3632105-.664574 1.8018289-.444861.4386184-1.062076.6583158-1.852422.6583158-.810531 0-1.437839-.2150395-1.881147-.6435658-.443308-.4293026-.665351-1.0348289-.665351-1.8165789" transform="matrix(-.89879405 -.43837115 -.43837115 .89879405 326.861743 75.461979)"/></g></g></svg>