<svg height="163" viewBox="0 0 156 163" width="156" xmlns="http://www.w3.org/2000/svg"><g fill="none" fill-rule="evenodd"><path d="m155.373 157.642c0 2.761-34.666 5-77.429 5-42.764 0-77.43-2.239-77.43-5s34.666-5 77.43-5c42.763 0 77.429 2.239 77.429 5" fill="#c9c9c9"/><path d="m53.626 74.657s-4.742 4.074-4.742 14.049h35.894v-8.55z" fill="#86b2ac"/><path d="m94.152 86.26h-43.504c-11.758 0-25.867-3.196-27.631 21.093-1.625 22.383-1.176 23.649-1.764 33.876-.586 10.207 9.994 16.618 27.043 16.618h48.207c12.934 0 19.988-.639 19.988-18.536v-33.236c0-7.031-2.351-19.815-22.339-19.815" fill="#cae5e1"/><path d="m54.763 86.249c-11.758 0-32.334-2.94-34.098 19.4-1.625 20.588-1.175 21.752-1.763 31.158-.586 9.388 5.879 21.164 22.927 21.164 14.817 0 1.858-31.841 12.934-71.722" fill="#daf2f0"/><path d="m129.719 157.971h-36.105c-2.625 0-4.753-2.128-4.753-4.753 0-3.544 2.873-6.417 6.417-6.417h34.441c3.084 0 5.585 2.501 5.585 5.585 0 3.085-2.501 5.585-5.585 5.585" fill="#8ab2ad"/><path d="m136.742 130.444s-10.256-3.631-13.196 6.363c-2.939 9.994 0 16.461 3.527 19.4 3.528 2.94 6.878 1.032 6.878 1.032z" fill="#8ab2ad"/><path d="m133.515 157.221c5.855.525 7.922-10.498 8.175-18.745.307-10.007-9.594-11.485-10.645.225-1.051 11.711-2.214 18.099 2.47 18.52" fill="#819b96"/><path d="m94.152 86.249h-36.291l1.605.763s40.954 22.249 57.025 19.374v-1.913c0-6.466-2.351-18.224-22.339-18.224" fill="#94c4bf"/><path d="m116.491 26.284c-22.546-12.472-54.085-17.636-71.722 8.231s-15.873 35.861 0 41.74 39.388 15.285 50.558 19.4 28.807 8.231 39.389-13.521c10.581-21.752 9.406-40.564-18.225-55.85" fill="#f1f9f9"/><path d="m116.491 26.284c-22.546-12.472-54.085-17.636-71.722 8.231s-15.873 35.861 0 41.74 39.388 15.285 50.558 19.4 28.807 8.231 39.389-13.521c10.581-21.752 9.406-40.564-18.225-55.85" fill="#cae5e1"/><path d="m127.115 33.343c-2.99-2.43-6.511-4.784-10.624-7.059-22.546-12.472-54.085-17.636-71.722 8.231s-15.873 35.861 0 41.74c3.733 1.383 6.806 2.542 11.125 4.2 15.246-53.851 50.68-54.562 71.221-47.112" fill="#daf2f0"/><path d="m93.858 157.971h-27.875c-2.625 0-4.753-2.128-4.753-4.753 0-3.544 2.873-6.417 6.417-6.417h26.211c3.084 0 5.585 2.501 5.585 5.585 0 3.085-2.501 5.585-5.585 5.585" fill="#85b5af"/><path d="m100.882 130.444s-10.258-3.631-13.197 6.363c-2.94 9.994 0 16.461 3.527 19.4 3.528 2.94 6.878 1.032 6.878 1.032z" fill="#85b5af"/><path d="m97.655 157.221c5.855.525 7.92-10.498 8.174-18.745.308-10.007-9.593-11.485-10.645.225-1.051 11.711-2.214 18.099 2.471 18.52" fill="#6d8c8c"/><path d="m36.018 97.618s-5.861 17.654 3.287 27.523c17.589 1.419 14.724 27.394 14.724 27.394s-15.968 6.408-21.834-3.128c-5.867-9.535 1.355-17.586 1.355-17.586s-8.99-13.845-3.652-33.764z" fill="#daf2f0"/><path d="m39.707 143.264c-2.81-4.2-1.518-7.215-1.453-7.416.125-.385.479-.65.885-.661 5.257-.135 5.4 2.051 6.289 5.328.404 1.49 2.353 2.151 2.927 2.331.523-4.414-.295-7.771-2.438-9.99-3.692-3.825-10.217-3.104-10.282-3.097-.427.048-.83-.187-.995-.581-6.368-15.201-1.971-26.194 1.378-31.56 1.061-1.699.027-3.922-1.958-4.187l-.05-.007-.064-.008c-2.905-.373-5.648 1.448-6.584 4.222-2.179 6.453-4.997 19.978 3.028 33.571l1.134 1.69c-1.192 1.689-3.824 5.989-3.369 10.498.276 2.761 1.68 5.195 4.172 7.236.875.253 5.02 1.361 8.962 1.064 0 0 2.301.296 4.802-.23 1.846-.388 1.963-2.972.175-3.569-2.96-.988-5.156-2.537-6.559-4.634" fill="#6d8c8c"/><path d="m67.697 42.158c-7.308 15.177-5.291 30.569 27.043 41.739 32.333 11.17 38.8-6.467 40.564-17.049 1.764-10.581-5.291-23.515-23.516-32.333-18.224-8.818-36.449-8.231-44.091 7.643" fill="#e4f4f2"/><path d="m86.803 47.932h.006zm8.014 9.453c-3.223 0-5.82-.844-7.742-2.522-3.174-2.772-3.211-6.763-3.211-6.931 0-.812.658-1.47 1.469-1.47.81 0 1.466.654 1.47 1.462.001.054.069 2.881 2.231 4.747 1.812 1.562 4.618 2.098 8.334 1.589.809-.107 1.544.454 1.655 1.258.11.805-.453 1.545-1.258 1.655-1.034.141-2.018.212-2.948.212z" fill="#429999"/><path d="m120.471 68.131c-2.173 0-4.068-.511-5.663-1.53-3.552-2.27-4.18-6.212-4.205-6.378-.12-.803.432-1.551 1.235-1.672.806-.117 1.547.43 1.671 1.228.01.058.497 2.841 2.911 4.363 2.023 1.278 4.875 1.39 8.478.336.776-.225 1.594.219 1.822.998.228.78-.219 1.596-.998 1.824-1.897.554-3.649.831-5.251.831" fill="#429999"/><path d="m111.788 34.515c-18.224-8.818-36.449-8.231-44.091 7.643-.714 1.482-1.337 2.967-1.854 4.449.344-.847.721-1.695 1.129-2.542 7.415-15.401 25.097-15.971 42.779-7.415 17.682 8.555 24.527 21.104 22.816 31.371-1.085 6.509-4.006 15.764-13.989 18.911 12.159-2.464 15.528-12.898 16.725-20.083 1.764-10.582-5.29-23.516-23.515-32.334" fill="#9eccc3"/><path d="m90.997 119.519c-.762 0-1.387-.625-1.387-1.388v-17.805c0-.764.625-1.388 1.387-1.388.764 0 1.388.624 1.388 1.388v17.805c0 .763-.624 1.388-1.388 1.388" fill="#94c4bf"/><path d="m103.824 5.035c3.252-1.145 6.197-1.601 8.236-1.777.525-1.706 2.265-2.774 4.055-2.422 1.916.377 3.163 2.234 2.786 4.148-.376 1.915-2.234 3.162-4.149 2.785-1.324-.26-2.328-1.229-2.697-2.435-1.915.179-4.649.617-7.617 1.672-7.414 2.632-12.727 7.667-15.79 14.963l-1.902-.798c4.121-9.816 11.563-14.193 17.078-16.136" fill="#89ccc9"/></g></svg>