<svg height="111" viewBox="0 0 85 111" width="85" xmlns="http://www.w3.org/2000/svg"><g fill="none" fill-rule="nonzero"><path d="m50.01 110.35001c-19.06 0-34.5-1.477-34.5-3.299s15.44-3.299 34.5-3.299c19.05 0 34.49 1.477 34.49 3.299s-15.44 3.299-34.49 3.299" fill="#c9c9c9" transform="matrix(-1 0 0 1 100.01 0)"/><path d="m55.58 106.14901h12.6s-.14-4.63-4.84-5.3c-1.71-.243-3.16-.251-4.32-.163l1.58-17.0959997-5.59-1.867 1.16 19.4589997c-.2.061-.3.103-.3.103z" fill="#6d8c8c" transform="matrix(-1 0 0 1 123.19 0)"/><path d="m26.53 106.14901h12.6s-.13-4.63-4.84-5.3c-1.71-.243-3.16-.251-4.32-.163l1.58-17.0959997-5.59-1.867 1.16 19.4589997c-.2.061-.3.103-.3.103z" fill="#6d8c8c" transform="matrix(-1 0 0 1 65.09 0)"/><path d="m26.938916 58.8890103c0 5.536.14 13.307.22 20.499.02 2.33 1.92 4.203 4.25 4.203h40.52c2.35 0 4.25-1.903 4.25-4.251v-26.697s1.06-8.076-9.2-8.076c-12.82 0-24.92.641-31.91 1.851-6.98 1.21-8.13 7.407-8.13 12.471" fill="#cae5e1" transform="matrix(-1 0 0 1 103.148916 0)"/><path d="m43.88 79.3880103c-.08-7.192-.23-14.963-.23-20.499 0-5.064 1.15-11.261 8.14-12.471 6.05-1.048 14.05-1.668 24.42-1.815-.45-.023-.91-.036-1.4-.036-12.82 0-22.4.641-29.39 1.851-6.98 1.21-8.13 7.407-8.13 12.471 0 5.536.14 13.307.22 20.499.02 2.33 1.92 4.202 4.25 4.202h6.37c-2.33 0-4.23-1.872-4.25-4.202" fill="#daf2f0" transform="matrix(-1 0 0 1 113.5 0)"/><path d="m34.0778369 42.9490103h32.55c6.95 0 9.32-3.462 9.32-13.247 0-9.784-5.57-22.92199995-23.01-22.92199995-17.45 0-24 10.49799995-25.43 20.18499995-1.42 9.686-.29 15.984 6.57 15.984" fill="#cae5e1" transform="matrix(-1 0 0 1 102.917836 0)"/><path d="m42.3478369 27.4990103c1.38-9.363 8.44-17.2259999 25.34-17.2259999 3.18 0 5.91.143 8.26.4079999-3.43-2.38399995-7.98-3.90099995-13.9-3.90099995-17.45 0-24 10.49799995-25.43 20.18499995-1.42 9.686-.29 15.984 6.57 15.984h5.52c-6.65 0-7.75-6.087-6.36-15.45" fill="#daf2f0" transform="matrix(-1 0 0 1 112.027836 0)"/><path d="m67.6451705 29.7020103c0-3.171-.58-6.694-1.97-10.008-1.09-2.63-3.67-4.341-6.52-4.341h-15.76c-8.8 0-15.42 9.324-13.25 16.816 2.16 7.493 11.23 6.395 18.87 6.395h12.87c2.92 0 5.37-2.223 5.62-5.131.1-1.125.14-2.367.14-3.731" fill="#eff" transform="matrix(-1 0 0 1 97.37517 0)"/><path d="m61.3 19.6940103c-.8-1.935-2.41-3.369-4.34-3.994 1.37.755 2.48 1.956 3.11 3.461 1.39 3.314 1.97 6.837 1.97 10.008 0 1.364-.05 2.605-.14 3.731-.26 2.908-2.71 5.13-5.63 5.13h-12.86c-4.66 0-9.85.405-13.68-.972 3.9 2.007 9.73 1.506 14.91 1.506h12.87c2.92 0 5.37-2.223 5.62-5.131.1-1.125.14-2.367.14-3.731 0-3.171-.58-6.694-1.97-10.008" fill="#94c4bf" transform="matrix(-1 0 0 1 93 0)"/><path d="m39.24 32.4290103c0 .98-.8 1.775-1.78 1.775s-1.77-.795-1.77-1.775.79-1.775 1.77-1.775 1.78.795 1.78 1.775" fill="#6e868e" transform="matrix(-1 0 0 1 74.93 0)"/><path d="m52.16 32.3700103c0 .98-.79 1.775-1.77 1.775s-1.78-.795-1.78-1.775.8-1.775 1.78-1.775 1.77.795 1.77 1.775" fill="#6e868e" transform="matrix(-1 0 0 1 100.77 0)"/><path d="m72.0640002 3.44701035c-1.78-.796-3.43-1.187-4.57-1.379-.23-.989-1.16-1.672-2.19-1.554-1.1.126-1.89 1.12-1.76 2.22.12 1.101 1.12 1.891 2.22 1.765.76-.088 1.37-.591 1.63-1.256 1.08.188 2.6.56 4.24 1.291 4.07 1.826 6.85 4.916 8.25 9.18299995l1.12-.365c-1.89-5.74099995-5.9-8.55499995-8.94-9.90499995" fill="#daf2f0" transform="matrix(-1 0 0 1 144.534 0)"/><path d="m36.471275 56.6330103s-1.12-2.245-1.26-3.913c-.14-1.669 1.07-1.557 1.07-1.557l2.35 4.429z" fill="#647c84" transform="matrix(-1 0 0 1 73.831276 0)"/><g transform="matrix(.96592583 .25881905 -.25881905 .96592583 9.528417 36.878482)"><path d="m39.0418133 15.010001-13.16-14.315c-.73-.792-1.95-.937-2.8-.28l-.03.021c-.24.187-.42.395-.55.605-.42.626-.43 1.439-.07 2.103 3.08 5.811 6.15 11.623 9.23 17.434z" fill="#f9a91c" transform="matrix(-1 0 0 1 61.215356 0)"/><path d="m31.0900875 25.320001-8.84-9.721c-1.35-1.485-3.43-2.096-5.35-1.516-.92.278-1.92.718-2.92 1.414-.94.656-1.66 1.395-2.22 2.114-1.21 1.542-1.4 3.642-.57 5.411 1.66 3.535 3.32 7.069 4.98 10.604z" fill="#f7be1e" transform="matrix(-1 0 0 1 41.77363 0)"/><path d="m20.027458 25.120001c-.98-1.309-2.55-2.066-4.18-1.957-2.03.136-5 .822-8.43000002 3.132-3.71 2.501-5.5 4.771-6.36 6.462-.74 1.45-.67 3.18.14 4.592l5.89 10.279 19.79000002-13.339z" fill="#fcd51a" transform="matrix(-1 0 0 1 27.421002 0)"/><path d="m13.7535434 45.881001c-5.46000004 3.683-11.38000004 4.465-13.21000004 1.747s1.11-7.908 6.58-11.591c5.46000004-3.683 11.38000004-4.466 13.21000004-1.748 1.83 2.719-1.11 7.908-6.58 11.592" fill="#f9a91c" transform="matrix(-1 0 0 1 20.877086 0)"/><path d="m13.2535434 43.964001c-4.77000004 3.214-9.72000004 4.213-11.05000004 2.231-1.34-1.982 1.44-6.194 6.21-9.408 4.77000004-3.215 9.72000004-4.214 11.05000004-2.232 1.34 1.982-1.44 6.194-6.21 9.409" fill="#e4f4f2" transform="matrix(-1 0 0 1 21.667086 0)"/><g fill="#fff"><path d="m11.9190962 37.949001c.18.267.28.579.3.923.02.308.41.419.6.172 1-1.339 1.39-2.535.91-3.249-.94-1.38-4.74000004-.443-8.50000004 2.092-.7.47-1.34.961-1.93 1.459 3.67-2.418 7.51000004-3.049 8.62000004-1.397" transform="matrix(-1 0 0 1 17.23264 0)"/><path d="m15.130754 44.985001c-.86.418-1.73.39-1.95-.061s.29-1.156 1.14-1.573c.86-.418 1.69-.385 1.91.067.22.451-.25 1.15-1.1 1.567" transform="matrix(-1 0 0 1 29.414298 0)"/></g></g><path d="m32.0473485 54.9010103s-.38-3.075 1.32-4.642c1.7-1.566 2.12.292 1.39 1.32-.74 1.027-.78 2.902-.78 2.902s1.59-2.127 3.06-2.566c1.47-.437 1.66 1.399.24 2.171-1.41.772-1.99 1.897-1.85 2.497 0 0 1.41-1.233 2.67-1.796 1.26-.564 2.19.182 2.1.994-.1.812-1.45.568-2.3 1.55-.85.983-1.83 2.746-3.2 3.395-1.36.648-2.54-.601-3.13-2.085-.6-1.484.55-3.044.55-3.044z" fill="#6d8c8c" transform="matrix(-1 0 0 1 71.597348 0)"/><path d="m39.6359277 52.4060103c1.4 2.539 3.39 4.687 5.9 6.18.62.385 1.29.704 1.96 1.011.68.299 1.4.533 2.13.746 1.45.417 2.95.677 4.47.772 3.03.187 6.12-.272 9.07-1.294 1.48-.503 2.92-1.143 4.3-1.89.69-.372 1.37-.777 2.03-1.205.33-.215.65-.434.97-.662l.46-.343c.14-.11.31-.244.41-.327l.05-.038c.74-.611 1.83-.508 2.44.23.6.716.51 1.77-.17 2.39-.21.193-.36.322-.55.475l-.52.425c-.35.278-.71.542-1.07.801-.72.513-1.46.999-2.23 1.45-1.52.904-3.11 1.695-4.78 2.341-3.31 1.306-6.93 2.018-10.59 1.943-1.82-.038-3.65-.276-5.43-.706-.88-.219-1.76-.475-2.65-.764-.87-.309-1.75-.647-2.59-1.071-.43-.197-.84-.437-1.26-.66-.4-.248-.82-.483-1.21-.756-.79-.526-1.55-1.114-2.26-1.75-1.44-1.265-2.68-2.738-3.74-4.31l-.01-.017c-.88-1.308-.53-3.081.77-3.962 1.31-.882 3.08-.537 3.96.77z" fill="#6d8c8c" transform="matrix(-1 0 0 1 108.505928 0)"/><g fill="#647c84" transform="matrix(-1 0 0 1 17.5 59.500768)"><path d="m8.28 2.0332423s-2.29-1.038-3.96-1.109-1.51 1.132-1.51 1.132l4.51 2.169z"/><path d="m5.58 2.9462423s-3.09-.257-4.58 1.503c-1.5 1.76.37 2.109 1.37 1.332s2.87-.887 2.87-.887-2.07 1.669-2.44 3.156c-.38 1.488 1.46 1.601 2.17.16.72-1.442 1.82-2.066 2.43-1.948 0 0-1.18 1.454-1.69 2.733-.52 1.278.26 2.188 1.07 2.056.81-.131.51-1.471 1.46-2.359.95-.887 2.67-1.933 3.27-3.325.59-1.392-.71-2.516-2.21-3.051-1.51-.534-3.02.676-3.02.676z"/></g></g></svg>