<svg height="219" viewBox="0 0 266 219" width="266" xmlns="http://www.w3.org/2000/svg" xmlns:xlink="http://www.w3.org/1999/xlink"><linearGradient id="a" x1="50%" x2="50%" y1="0%" y2="100%"><stop offset="0" stop-color="#eee"/><stop offset="1" stop-color="#d8d8d8"/></linearGradient><g fill="none" fill-rule="evenodd" transform="translate(-21)"><g fill-rule="nonzero" transform="translate(129 36)"><g fill="#7a99a5" transform="matrix(-.06975647 .99756405 -.99756405 -.06975647 57.187569 59.809335)"><path d="m48.2602302 4.79648943c-.546 1.469-2.008 2.427-3.613 2.355-4.656-.211-14.1979994.797-17.8009994 11.86599997-5.295 16.266 17.8749994 25.974 37.8989994 24.476l1.436 6.0170004s-25.097 2.067-39.5119994-10.5990004c-14.415-12.665-6.435-32.30599997 6.869-36.95099997 4.7139994-1.646 8.5669994-2.021 11.3339994-1.953 2.52.062 4.245 2.485 3.388 4.789" transform="matrix(-1 0 0 1 85.18123 0)"/><path d="m15.2565587 35s-6.978 1.369-11.256 2.452c-6.005 1.52-4.88 14.3800004.913 14.1060004 7.702-.364 16.087-4.07 16.087-4.07l-1.047-3.8630004-13.169 2.445v-4.374l8.973-3.198z" transform="matrix(-1 0 0 1 21.000558 0)"/></g><path d="m153.002976 113.150381c-1.646 1.978-4.585 2.246-6.562.6-1.979-1.647-2.247-4.585-.601-6.563 1.646-1.977 4.585-2.246 6.563-.599 1.978 1.646 2.247 4.585.6 6.562zm-11.72 14.076001c-1.646 1.979-4.584 2.248-6.562.601s-2.246-4.585-.6-6.562c1.647-1.979 4.585-2.248 6.563-.601 1.977 1.646 2.246 4.585.599 6.562zm-.738-24.447001c-2.387 2.867-3.147 6.549-2.389 9.928-3.461-.134-6.943 1.281-9.33 4.149-4.081 4.902001-3.415 12.185001 1.487 16.266001s12.184 3.415 16.266-1.487c1.363-1.637 2.194-3.54 2.517-5.5l8.298 6.908c1.418 1.181 3.525.988 4.706-.43 1.18-1.418.987-3.525-.431-4.706l-8.28-6.892c1.852-.676 3.556-1.832 4.909-3.456 4.081-4.903001 3.415-12.185001-1.487-16.266001-4.902-4.0809997-12.185-3.4159997-16.266 1.486z" fill="#5d7e93" transform="matrix(-.74314483 -.66913061 -.66913061 .74314483 330.333746 126.803245)"/><path d="m54.1399537 71.4529225c-1.288 6.1220001 15.8500003 25.3230004 23.2300003 30.7470015 7.3790013 5.423 33.952003 11.424 42.578003 12.1 8.627.674 3.109-20.5590011 3.109-20.5590011s-65.4430033-38.8010018-68.9170033-22.2880004" fill="#94c4bf" transform="matrix(-.74314483 -.66913061 -.66913061 .74314483 216.677729 83.174787)"/><path d="m118.094787 162.568345c3.69-18.071 9.396-27.525002 11.506-32.203002 2.83-6.273001 1.616-11.310001-3.98-15.373001-5.597-4.064-10.948001-8.527-22.272002-16.4389999-7.3879997-5.1630002-21.253001-7.5560003-29.9970011-8.5970003-5.0050002-.596-9.9260002 1.787-12.4760002 6.1350001-10.0680003 17.1750001-13.7940003 40.0030021-17.0270003 60.7900031-.318 2.045-.502 3.93-.582 5.687z" fill="#cae5e1" transform="matrix(-.74314483 -.66913061 -.66913061 .74314483 236.404558 90.747207)"/><path d="m95.5010428 177.46659c.103-1.113.233-2.259.422-3.477 3.2330001-20.787001 6.9590002-43.615003 17.0270002-60.789003 2.537-4.328 7.422-6.706 12.403-6.141-4.729-1.06-9.433-1.758-13.19-2.205-5.005-.596-9.926 1.787-12.4760001 6.135-10.0680001 17.175-13.7940003 40.003002-17.0270003 60.789003-.318 2.046-.502 3.931-.582 5.688z" fill="#daf2f0" transform="matrix(-.74314483 -.66913061 -.66913061 .74314483 275.215814 105.645453)"/><path d="m117.390268 25.6064488c-.69-.62-1.587-.861-2.437-.741-1.191-1.721-3.181-4.089-6.22-6.2420001-5.031-3.564-14.0030005-7.171-28.1740025-4.102-.525.114-.859.631-.746 1.158.046.208.154.386.302.517.224.202.539.296.856.228 10.620002-2.3 19.8010025-1.011 26.5480025 3.7270001 2.73 1.917 4.558 4.045 5.677 5.62l-.067.067c-1.113 1.241-1.008 3.1490001.232 4.2620001 1.241 1.112 3.149 1.009 4.262-.233 1.112-1.241 1.008-3.1490001-.233-4.2610001" fill="#6d8c8c" transform="matrix(.40673664 -.91354546 .91354546 .40673664 38.582955 103.646753)"/><path d="m116.701933 106.064568c-4.88 3.145-9.07 6.995-16.8990005-1.382-7.8280002-8.3770009-18.0260003-22.8480011-33.6830016-27.4600013-15.6550013-4.6130001-29.9200016-6.4450001-21.3230014-15.1940008 8.5970011-8.7490003 17.3130013-18.5390006 23.1970014-23.533001 5.8850011-4.9940001 17.2620013-9.2780002 34.9540021-3.994 17.693 5.284 33.904001 23.2710007 35.207001 34.8890013 1.773 15.7930007-16.572001 33.5310008-21.453001 36.6740018" fill="#cae5e1" transform="matrix(-.74314483 -.66913061 -.66913061 .74314483 204.750704 78.596431)"/><path d="m82.6990562 79.0988149c8.5960002-8.7500002 17.3130008-18.5400011 23.1970008-23.5340013 5.885-4.9940002 17.262001-9.2780002 34.955001-3.9940002 2.468.7370001 4.905 1.7300001 7.279 2.9090001-5.214-4.0870001-11.165-7.4430001-17.294-9.2730002-17.692001-5.2840002-29.069001-1-34.9540015 3.9940001-5.8840002 4.9940001-14.6000003 14.7840007-23.1970006 23.5330013-5.869 5.9740002-1.081 8.7230003 7.5300003 11.3340003.171-1.733.954-3.412 2.484-4.9690001" fill="#daf2f0" transform="matrix(-.74314483 -.66913061 -.66913061 .74314483 232.638828 89.301679)"/><path d="m73.7472161 36.0761757c-12.8300002-1.162-25.4350014 15.7640005-22.2910014 24.2480008 3.146 8.4840003 7.0830011 4.8930001 21.5410013 20.3810004 14.4590003 15.4880013 17.9540004 17.0140013 24.7930005 9.8050012 6.8390005-7.2090011 14.4330005-12.5680012 11.7900005-22.4030014-2.642-9.8350002-18.5430006-30.4650009-35.8330009-32.031001" fill="#e4f4f2" transform="matrix(-.74314483 -.66913061 -.66913061 .74314483 184.119989 70.677042)"/><path d="m87.2190124 59.523514c-2.5040001-9.3200005-16.9160003-28.3230011-33.1320006-31.6210012 15.0660003 4.7240001 28.0140005 22.1190007 30.3750005 30.9070011 2.6430001 9.8360003-4.9500002 15.194001-11.7900002 22.4030012-2.621 2.762-4.7520001 4.237-7.1960001 4.139 3.7500001 1.698 6.4020001.318 9.9530001-3.425 6.8390002-7.2090002 14.4330013-12.5680009 11.7900003-22.4030011" fill="#94c4bf" transform="matrix(-.74314483 -.66913061 -.66913061 .74314483 161.758783 62.093379)"/><path d="m87.5540698 71.4948978c0 1.969-1.597 3.565-3.565 3.565s-3.5640001-1.596-3.5640001-3.565c0-1.9679998 1.5960001-3.5639998 3.5640001-3.5639998s3.565 1.596 3.565 3.5639998" fill="#5d7e93" transform="matrix(-.74314483 -.66913061 -.66913061 .74314483 194.245743 74.563955)"/><path d="m67.2145164 72.0099947c0 1.969-1.595 3.565-3.564 3.565-1.9690001 0-3.5650001-1.596-3.5650001-3.565 0-1.968 1.596-3.5639999 3.5650001-3.5639999 1.969 0 3.564 1.5959999 3.564 3.5639999" fill="#5d7e93" transform="matrix(-.74314483 -.66913061 -.66913061 .74314483 159.135622 61.086442)"/><g fill="#7a99a5" transform="translate(89 118)"><path d="m39.2246868 11.7254618c-4.656-.211-16.270223.650609-19.873223 11.719609-3.172071 9.744458 8.894168 23.238828 1.895223 20.040391-17.45673607-7.977525-6.435-32.306 6.869-36.95099993 4.714-1.646 8.567-2.021 11.334-1.953 2.52.062 4.245 2.485 3.388 4.789-.546 1.46899993-2.008 2.42699993-3.613 2.35499993z" transform="matrix(-.61566148 -.78801075 -.78801075 .61566148 63.796675 31.115717)"/><path d="m18.6277864 36.0812873s-6.9779999 1.3689999-11.25599969 2.4519999c-6.00499982 1.52-4.87999983 14.3799996.913 14.1059996 7.70199979-.364 16.08699969-4.07 16.08699969-4.07l-1.047-3.8629999-13.1689999 2.445v-4.3739999l8.9729999-3.1979998z" transform="matrix(-.80901699 .58778525 .58778525 .80901699 -.981799 .319006)"/></g></g><path d="m55.1476072 18.9571847 192.9999998 188.0000003" stroke="#7a99a5" stroke-linecap="square" stroke-width="6" transform="matrix(.99862953 .05233596 -.05233596 .99862953 6.11955 -7.781819)"/><g fill-rule="nonzero"><g><path d="m20.147022 32.1934146h70l-33.2124324 81.6338674c-.8325165 2.046267-3.1662322 3.030207-5.2124999 2.197691-1.0516629-.427865-1.8719518-1.28249-2.2563568-2.350805z" fill="#3682e0" transform="matrix(.67815967 .7349146 -.7349146 .67815967 72.321217 -16.629398)"/><path d="m78.1978151 74.6938895v-19.4741445c0-5.8427317-4.6453792-10.0837784-11.0458946-10.0837784-4.8745721 0-9.0603594 2.8505597-10.4234545 7.1379966-.056695.5432544.0832336 1.5272164 1.6598398 2.0204181 1.7298037.5383712 2.3679249-.3625765 2.5995306-.9571045.8974712-2.6112835 3.3172663-4.2996448 6.1640841-4.2996448 3.8793928 0 6.6960537 2.625933 6.6960537 6.241932v1.5504116c0 .725153-.9565795 1.1976012-1.8600819 1.4002534l-7.7020899 2.0362885c-5.7635999 1.3282266-8.0096908 3.5879208-8.0096908 8.0596981 0 5.1969302 4.6212535 9.1242326 10.7672438 9.1696422.0832335.0009804.1640538-.0136687.2400496-.0466306.2870944-.1257418.94331-.5530204.94331-1.8360778 0-1.2806153-.6538029-1.7945706-.9408973-1.9593782-.0796144-.0451696-.1664665-.0647021-.2557313-.0659231-3.717751-.047611-6.4041338-2.2450443-6.4041338-5.2616325 0-2.7870782 1.5078487-3.6428565 4.6803614-4.4107375 0 0 5.5802458-1.4832676 7.7780858-2.1486016.3727399-.1123134.7430672.1733531.7358295.5664495l-.0193003 1.2342252.0156817 6.8486678c0 .0830142.0168881.1660285.048251.2417174.7804625 1.8531695 2.1170191 3.3559698 3.8685359 4.3692307.3751527.194107.4644175-.1269629.4644175-.3332776" fill="#fff" transform="matrix(.74314483 -.66913061 .66913061 .74314483 -23.758192 60.739619)"/><circle cx="54.469344" cy="8.728425" fill="url(#a)" r="7.5" stroke="#979797" stroke-width="2" transform="matrix(.99862953 .05233596 -.05233596 .99862953 .531459 -2.838743)"/></g><path d="m225.302961 19.3062961c-7.02882 1.95012-14.233487 5.8282994-19.301751 9.5833337-5.068261 3.7550321-18.30728 13.216771-21.329802 16.2149958-2.930529 2.9069692-6.392099 3.9209778-7.90684 7.5030409-.584162 1.3814214 3.961226 5.5486086 4.851923 5.9812501 2.311532 1.1227786 6.079316-.8680919 7.798575-.9869882 5.579719-.3858677 11.297668-1.1343523 16.948962 2.7213969-1.045683 1.0642016.614824-.08151-1.52272 9.2522585-.753775 3.2914198-2.40094 11.830646-.376983 13.4598678 2.010906 1.6187173 3.239056-4.691455 5.236975-3.7253523-.001001.0015028-.00042.0053102-.001136.0066618-.000435.0012128-.000975.0056002-.001133.0066643.000118.0009203-.001531.0058801-.001138.0066618.000673.0006404.005275.0007136.006218.0012153.006079.0018256.019423.0009179.032215-.0005824.003757.001823.008664.0006051.012431.0024332.014123.0068434.026989.0149122.041242.0218337l.011889-.0320937c.94584-.2464186 8.320046-3.5214789 15.051923-2.2045424 3.794839.7423675 9.847496-1.338808 13.329489-2.4244752 5.521896-1.7216877 13.273887-3.277549 18.191515-3.366384 3.622661-.0654405 6.900398-2.1329318 10.385592-2.3739519 2.056175-.1421949.149631-6.8246894.107132-7.5306085-.204255-3.3926984-4.393568-8.6059602-6.551188-13.2388054-2.15762-4.6328476-5.773555-10.5138984-9.756071-15.1255093-3.982512-4.6116115-9.35531-10.583087-13.138196-12.4205497-3.782883-1.8374627-4.490651-3.448263-12.119123-1.3317708z" fill="#d00000" transform="matrix(-.9781476 .20791169 .20791169 .9781476 429.00753 -45.090508)"/><path d="m205.649882 35.5181578c-4.592775 1.118151-8.526118 15.8716258-14.186608 18.436351-3.702217 1.6774481-13.791142 4.2260996-12.894154 4.6604924 2.327856 1.1273234 6.122248-.8716059 7.853648-.9909835 5.619124-.3874296 11.377454-1.1389439 17.068658 2.7324129-1.053067 1.0685093.619166-.08184-1.533474 9.2897105-.759098 3.3047432-2.417895 11.8785351-.379644 13.5143519 2.025106 1.6252696 3.26193-4.7104455 5.273958-3.7404322-.001007.0015089-.000423.0053318-.001143.0066888-.000439.0012178-.000983.0056229-.001141.0066913.000118.0009241-.001542.0059039-.001147.0066888.000678.000643.005313.0007164.006263.0012203.006121.0018329.019559.0009215.032441-.0005849.003784.0018305.008726.0006076.01252.0024431.014222.0068711.027179.0149725.041533.0219221l.011972-.0322236c.95252-.2474161 8.378804-3.5357335 15.158222-2.2134661 3.821639.7453724 9.91704-1.3442274 13.423623-2.4342892 5.560893-1.728657 13.367629-3.2908162 18.319985-3.3800108 3.648246-.0657054 6.94913-2.1415657 10.458937-2.3835614 2.070695-.1427705-12.868257 1.1444935-6.914493-3.1838162 2.641222-1.9201299-26.445168 4.0020385-37.611821-8.8044583-11.05713-12.6808887-9.434903-22.6601873-14.138135-21.5151469z" fill="#0e0000" opacity=".101124" transform="matrix(-.9781476 .20791169 .20791169 .9781476 425.82941 -44.756475)"/><path d="m236.295877 70.7930331c-1.880513-.663312-3.623165-.7565637-5.285917-.6542933-1.141998-.9594729-2.497238-.6448152-3.48671-.3301273-.166053-1.8473436-2.426345 1.6488846-3.632853 1.6639903-.856699.4890476-.266208-1.455973-1.800335-.7161465-1.90734.1792167-4.118525-.9970613-5.533431-.3878038-.339865 2.0112689-3.394214 3.1442708-3.851368.9398467-1.665319.7207474-3.730681 3.425414-3.750738 1.1455597-3.125557-.1362718-4.464539 2.9200359-7.067414 3.9126745.230321-1.7801866-3.932241-1.7427313-4.733234.125599-1.612585.6458619-.428827-3.3731869-2.759189-2.5527343-2.624861-.759011-2.553199 4.4421944-5.684841 3.3844797-2.979975-.0953401-2.563782 2.8509236-4.530415 4.6488738-.523955 1.8906675-1.563135.6870924-2.483236.828648 1.514037 2.1370236-4.641854 1.6918922-2.814371 4.9876057-.404848 2.5515848.214143 4.3855647 3.036477 4.9169221.913905-1.2308394 1.789074-2.2387669 1.99349.0319608 1.629752-.471836 3.772097-3.1727275 3.552199-.3969505 1.105918-1.6750446 4.606955-2.5480732 4.562938-4.3522485 1.772143.185015 3.760995 2.1534997 5.256934-.23921 1.501828-1.7673902 1.749853-.3253105 1.772518 1.0397426 1.825629 1.6959335 3.918939-.9095351 5.816994-1.3411321-.4889-2.1866879 4.441649-.150248 1.837982-2.3272696 1.034125-1.0299884 3.832951-1.6318964 5.450362-1.2739675 1.419152 1.3388981 5.790524 2.2433076 6.46886-.4385199.142335-2.1095382 3.453063-2.8310461 4.690968-1.3725657 2.152685-1.8771807 5.548279.8505383 7.400687-.5884088-1.665069-2.1493656 2.353262-3.5537917 3.103687-1.9058935 1.4743-.7873171 2.846303-3.6202384 4.459068-1.5920967 1.854924-.6012203 4.11995-1.4371625 5.689109-2.0637395 1.177752 1.9310369 4.22662-.0554977 2.904979-2.3926695-.715442-1.6693719 2.349552.8219084 1.515135-1.296119.018638-2.4238421-.899242-6.1746922-3.915302-5.3401305-2.224038-.5526805-3.542765.9399998-3.635081 3.0523594-.028122-1.5414685-3.539701-.9848347-4.917905-.4258615l-.451488.237478-.32268.2539617" fill="#fff" transform="matrix(-.9781476 .20791169 .20791169 .9781476 405.83405 -42.654877)"/></g><path d="m233.82281 62.3479889c.762954-10.086423 5.779146-14.6799794 4.896143-22.7472426-.521918-4.7683122-4.746897-1.153832-3.369832 3.3191515" transform="matrix(-.9781476 .20791169 .20791169 .9781476 457.11742 -48.044977)"/><path d="m219.338237 78.0308763c-.530914 1.9353816-1.583897.7033404-2.516219.848244 1.534147 2.187567-4.703509 1.7319103-2.851755 5.1055718-.410223 2.6119332.21699 4.4892867 3.076813 5.0332114.926042-1.2599505 1.812835-2.2917168 2.019967.0327192 1.651398-.4829981 3.822198-3.2477693 3.599383-.4063415 1.120604-1.7146591 4.668144-2.6083385 4.623542-4.4551824 1.79568.1893883 3.724899 1.8884534 5.240709-.5608445 1.521775-1.8091939 1.859141-.0170302 1.882111 1.3803082 1.849877 1.7360471 3.970991-.9310442 5.894259-1.3728491-.495396-2.2384086 2.267399-.3970401 1.86239-2.3823126-.265244-1.3001751 8.603947-.9152473 7.328312-2.1867089-3.811846-3.7993714-9.766534 1.9250551-10.628049 1.5596757-.861514-.3653769-1.81343-.1437782-.609877-.6986949 1.203555-.5549142-1.724241.3577919-4.162593-.5124388-2.438355-.8702307-4.22319.2299469-4.386066 2.4005787-1.836576-1.1476865-1.968166.1559265-4.829444.955328 1.823199-2.6780782-3.22207-.7114367-3.22207-.7114367s.879011-2.9363481-.700535-2.5487918c.84919-1.5324601-.093313-2.0045715-.093313-2.0045715s.465187-1.3159412-1.527565.5245357z" fill-rule="nonzero" opacity=".11236" transform="matrix(-.9781476 .20791169 .20791169 .9781476 440.917941 -46.342343)"/><path d="m269.42018 39.4458554c-.323388-.5946186-1.331016-.7583421-1.460677-1.2625988.225208-.5856747-.660627-.1608636-.835177-.4828217-1.042068.880691-2.480543 1.2619088-3.252744 2.4732273.410617-.0929704.409634-.7126815-.039019-.2555038-.844967.4333831-1.661602 1.194662-1.343872 2.2809307.07696.5574197-.602603 1.0370789.226965 1.1691001-.108172.8924203-1.40491.8548443-1.405683 1.6424931.287032.8591175.160768 1.7544387-.521905 2.3570368-.675265.6519443-.397167 1.6115654-.372556 2.4035412-.339613.529734-.530773 1.0223049-.083157 1.5268951.094769.9100823.826557 1.5126701.832009 2.4595717.308078.4962926.925861.4655829 1.241415 1.0264191.921828.0808973.989464 1.4097991 1.86757 1.5941188.754308.2539982 1.646814.0778759 2.32649.2641322.557431.4665627 1.19728.7917655 1.899043.9227838.882182.5796651 1.182017-.8630367 1.715904-1.327586.027683-.7263705.533153-.7828935.871658-.1712592.770411.5392344 1.568651-.389382 2.120971-.88075.53998-.6076407 1.145775-1.1336914 1.747048-1.6664648.853619-.9948168 1.156689-2.4186383 1.108926-3.7281058.084614-.8206002-.654421-.8660017-1.140473-.9597031.219766-.6879942.773502-1.6778607-.355897-1.7515404-.647671-.1746449-2.116031-.9217168-1.275111-1.7087499.620562-.7486237-.233473-1.7563779-.614523-2.432612-.659909-.5422379-1.043323-1.2975765-1.453656-1.9570643-.794429-.1306874-1.538917-.6291089-1.741437-1.4992171-.212079-.6909977-.058731-.1792951.008191.1570907" fill="#fff" fill-rule="nonzero" transform="matrix(-.9781476 .20791169 .20791169 .9781476 520.364672 -54.692531)"/><g fill="#000" fill-rule="nonzero" transform="translate(232 36)"><path d="m34.581396 12.802254c-.3914607-.4703303 1.1542215-.2487752 1.026635-.7185273.2216054-.5455941-.0435801-.5683102-.215339-.8682402-1.0253983.8204282-.7839115-1.1232302-1.5437604.0052018.4040489-.0866064.3376093-1.51334589-.1038677-1.0874513-.8314505.4037256-.6552956-1.38726659-.6560559-.65351399.2824406.80033089.1581962 1.63438829-.5135569 2.19575249-.6644637.607334-.390814 1.5012913-.3665965 2.2390748-.3341805.4934861-.5222824.952352-.0818265 1.4224147.0932523.8478084.813335 1.4091631.8187002 2.2912714.30315.462333.9110509.4337246 1.2215566.9561846.9070825.0753618.9736367 1.3133312 1.8376967 1.4850386.7422415.2366179 1.6204714.0725471 2.2892748.2460584.5485149.4346374 1.1781288.7375876 1.8686661.8596407.8680709.5400006 1.1631095-.8039819 1.6884562-1.2367436.0272405-.6766673.5246245-.7293226.8577155-.1595405.758087.5023364 1.543558-.3627379 2.087043-.8204832.531343-.5660618-2.040296.0858537-1.448641-.4104614.839963-.9267471-1.895213 1.2935708-1.9422127.0737059.0832603-.7644468-3.0241287.9726213-2.3660591-.3712919.2162518-.640917.3754765-.1787035-.7358563-.2473439-.6373108-.1626945-2.3966224-1.3126431-1.569154-2.0458222.6106363-.6973978-.3280881.1090476-.7030429-.5209116-.6493535-.5051344-.2346012-.2269958-.6383704-.8413523-.7817216-.1217449-.438029-.4340615-.6373096-1.2446286-.3381838.9509972-.2399461-.8613994-.1740952-.5480314z" opacity=".095506" transform="matrix(-.9781476 .20791169 .20791169 .9781476 72.718117 -7.642982)"/><path d="m2.26362565 21.2775851s2.8331678-8.460853 3.5139181-11.83640906c.6369183-3.1581801.5545047-7.97900689-.3994157-8.87126879-.9539225-.892262-2.2086451.6509539-2.3408891 2.4783026-.132242 1.82734629-.2430032 2.28783799.3973464 5.77346309.2902861 1.58011766.1453058 5.32548656-.249368 7.09318046-.3946738 1.767694-1.2558757 5.7933102-.9215917 5.3627317z" fill-opacity=".223464" transform="matrix(-.9781476 .20791169 .20791169 .9781476 6.037337 -.63455)"/></g></g></svg>