<svg height="219" viewBox="0 0 266 219" width="266" xmlns="http://www.w3.org/2000/svg" xmlns:xlink="http://www.w3.org/1999/xlink"><linearGradient id="a" x1="50%" x2="50%" y1="0%" y2="100%"><stop offset="0" stop-color="#eee"/><stop offset="1" stop-color="#d8d8d8"/></linearGradient><g fill="none" fill-rule="evenodd"><g fill-rule="nonzero" transform="translate(108 36)"><g fill="#7a99a5" transform="matrix(-.06975647 .99756405 -.99756405 -.06975647 57.187569 59.809335)"><path d="m48.2602295 4.79648943c-.546 1.469-2.008 2.427-3.613 2.355-4.656-.211-14.1979993.797-17.8009993 11.86599997-5.295 16.266 17.8749993 25.974 37.8989993 24.476l1.436 6.0170004s-25.097 2.067-39.5119993-10.5990004c-14.415-12.665-6.435-32.30599997 6.869-36.95099997 4.7139993-1.646 8.5669993-2.021 11.3339993-1.953 2.52.062 4.245 2.485 3.388 4.789" transform="matrix(-1 0 0 1 85.18123 0)"/><path d="m15.256558 35s-6.978 1.369-11.256 2.452c-6.005 1.52-4.88 14.3800004.913 14.1060004 7.702-.364 16.087-4.07 16.087-4.07l-1.047-3.8630004-13.169 2.445v-4.374l8.973-3.198z" transform="matrix(-1 0 0 1 21.000558 0)"/></g><path d="m153.002973 113.150383c-1.646 1.978-4.585 2.246-6.562.6-1.979-1.647-2.247-4.585-.601-6.563 1.646-1.977 4.585-2.246 6.563-.599 1.978 1.646 2.247 4.585.6 6.562zm-11.72 14.076c-1.646 1.979-4.584 2.248-6.562.601s-2.246-4.585-.6-6.562c1.647-1.979 4.585-2.248 6.563-.601 1.977 1.646 2.246 4.585.599 6.562zm-.738-24.447c-2.387 2.867-3.147 6.549-2.389 9.928-3.461-.134-6.943 1.281-9.33 4.149-4.081 4.902-3.415 12.185 1.487 16.266s12.184 3.415 16.266-1.487c1.363-1.637 2.194-3.54 2.517-5.5l8.298 6.908c1.418 1.181 3.525.988 4.706-.43 1.18-1.418.987-3.525-.431-4.706l-8.28-6.892c1.852-.676 3.556-1.832 4.909-3.456 4.081-4.903 3.415-12.185-1.487-16.266-4.902-4.0810011-12.185-3.4160011-16.266 1.486z" fill="#5d7e93" transform="matrix(-.74314483 -.66913061 -.66913061 .74314483 330.333743 126.803243)"/><path d="m54.1399514 71.452921c-1.288 6.122001 15.8500001 25.3230011 23.2300011 30.747002 7.3790011 5.423 33.9520025 11.424 42.5780025 12.1 8.627001.674 3.109001-20.5590009 3.109001-20.5590009s-65.4430046-38.8010021-68.9170046-22.2880011" fill="#94c4bf" transform="matrix(-.74314483 -.66913061 -.66913061 .74314483 216.677726 83.174786)"/><path d="m118.094785 162.568344c3.69-18.071 9.396-27.525001 11.506-32.203001 2.83-6.273001 1.616-11.310001-3.98-15.373001-5.597-4.064-10.948-8.527-22.272002-16.4390001-7.3879999-5.163-21.253001-7.5560001-29.9970021-8.5970001-5.005-.596-9.926 1.7870001-12.476 6.1350001-10.0680001 17.1750001-13.7940001 40.0030011-17.0270001 60.7900021-.318 2.045-.502 3.93-.582 5.687z" fill="#cae5e1" transform="matrix(-.74314483 -.66913061 -.66913061 .74314483 236.404553 90.747206)"/><path d="m95.5010396 177.46659c.103-1.113.233-2.259.422-3.477 3.233-20.787001 6.9589994-43.615003 17.0270004-60.789003 2.537-4.328 7.422-6.706 12.403-6.141-4.729-1.06-9.433-1.758-13.19-2.205-5.005-.596-9.926001 1.787-12.4760004 6.135-10.0680001 17.175-13.7940001 40.003002-17.0270001 60.789003-.318 2.046-.502 3.931-.582 5.688z" fill="#daf2f0" transform="matrix(-.74314483 -.66913061 -.66913061 .74314483 275.215809 105.645451)"/><path d="m117.390266 25.6064463c-.69-.62-1.587-.861-2.437-.741-1.191-1.7210001-3.181-4.0890001-6.22-6.2420002-5.031-3.564-14.0030003-7.171-28.1740023-4.102-.525.114-.859.631-.746 1.158.046.208.154.386.302.517.224.202.539.296.856.228 10.620002-2.3 19.8010023-1.011 26.5480023 3.7270001 2.73 1.917 4.558 4.0450001 5.677 5.6200001l-.067.067c-1.113 1.241-1.008 3.1490001.232 4.2620001 1.241 1.112 3.149 1.009 4.262-.233 1.112-1.241 1.008-3.1490001-.233-4.2610001" fill="#6d8c8c" transform="matrix(.40673664 -.91354546 .91354546 .40673664 38.582956 103.64675)"/><path d="m116.70193 106.064567c-4.880001 3.145-9.070001 6.995-16.8990008-1.382-7.8280011-8.377-18.0260011-22.8480001-33.6830022-27.4600001-15.6550011-4.613001-29.9200012-6.445001-21.3230012-15.1940018 8.5970011-8.7490003 17.3130011-18.5390007 23.1970012-23.5330011 5.885001-4.9940001 17.2620011-9.2780003 34.954002-3.994 17.693001 5.284 33.904002 23.2710008 35.207002 34.8890019 1.773 15.7930011-16.572001 33.5310011-21.453001 36.6740011" fill="#cae5e1" transform="matrix(-.74314483 -.66913061 -.66913061 .74314483 204.750698 78.596429)"/><path d="m82.6990543 79.0988144c8.596-8.75 17.3129997-18.5400013 23.1970007-23.5340014 5.885-4.9940004 17.262002-9.2780005 34.955002-3.9940004 2.468.7370001 4.905 1.7300001 7.279 2.9090001-5.214-4.0870001-11.165-7.4430001-17.294-9.2730002-17.692002-5.2840002-29.069003-1-34.9540026 3.9940001-5.8840001 4.9940001-14.6000001 14.7840007-23.1970012 23.5330018-5.869 5.974-1.081 8.7230001 7.5300011 11.3340001.171-1.733.954-3.4120001 2.484-4.9690001" fill="#daf2f0" transform="matrix(-.74314483 -.66913061 -.66913061 .74314483 232.638824 89.301678)"/><path d="m73.7472137 36.0761746c-12.83-1.162-25.4350011 15.7640006-22.2910011 24.2480009 3.146 8.4840008 7.083001 4.8930007 21.5410011 20.3809998 14.4590001 15.4880021 17.9540001 17.0140021 24.7930002 9.8050011 6.8390001-7.2090011 14.4330011-12.5680011 11.7900011-22.4030001-2.642001-9.8350009-18.5430012-30.4650016-35.8330013-32.0310017" fill="#fff6f6" transform="matrix(-.74314483 -.66913061 -.66913061 .74314483 184.119984 70.67704)"/><g fill="#9f3a38"><path d="m92.9999966 63.9990168c0 3.8667415-.223734 7.0009818-.49993 7.0009818s-.50007-3.1342403-.50007-7.0009818c0-3.8647777.223874-6.9990182.50007-6.9990182s.49993 3.1342405.49993 6.9990182" transform="matrix(-.74314483 -.66913061 -.66913061 .74314483 204.065249 78.33331)"/><path d="m93.0000046 63.9990177c0 3.866742-.223734 7.0009818-.49993 7.0009818s-.50007-3.1342398-.50007-7.0009818c0-3.8647777.223874-6.9990182.50007-6.9990182s.49993 3.1342405.49993 6.9990182" transform="matrix(.74314483 -.66913061 .66913061 .74314483 -19.065254 78.333316)"/><path d="m72.9999981 63.9990173c0 3.8667414-.223734 7.0009818-.49993 7.0009818s-.50007-3.1342404-.50007-7.0009818c0-3.8647777.223874-6.9990182.50007-6.9990182s.49993 3.1342405.49993 6.9990182" transform="matrix(-.74314483 -.66913061 -.66913061 .74314483 169.202354 64.950699)"/><path d="m73.0000035 63.9990166c0 3.8667413-.223734 7.0009817-.49993 7.0009817s-.50007-3.1342404-.50007-7.0009817c0-3.8647777.223874-6.9990183.50007-6.9990183s.49993 3.1342406.49993 6.9990183" transform="matrix(.74314483 -.66913061 .66913061 .74314483 -24.202357 64.950702)"/></g><g fill="#7a99a5" transform="translate(89 118)"><path d="m39.2246882 11.7254625c-4.656-.211-16.270223.650609-19.873223 11.719609-3.172071 9.744458 8.894168 23.238828 1.895223 20.040391-17.45673594-7.977525-6.435-32.306 6.869-36.95100002 4.714-1.646 8.567-2.021 11.334-1.953 2.52.062 4.245 2.485 3.388 4.789-.546 1.46900002-2.008 2.42700002-3.613 2.35500002z" transform="matrix(-.61566148 -.78801075 -.78801075 .61566148 63.796679 31.115719)"/><path d="m18.6277858 36.0812875s-6.9779999 1.3689999-11.25599963 2.4519999c-6.00499979 1.5199998-4.87999982 14.3799995.91299998 14.1059995 7.70199975-.364 16.08699945-4.07 16.08699945-4.07l-1.047-3.8629999-13.1689997 2.445v-4.3739999l8.9729999-3.1979997z" transform="matrix(-.80901699 .58778525 .58778525 .80901699 -.981799 .319006)"/></g></g><path d="m55.1476061 18.9571845 192.9999999 188.0000005" stroke="#7a99a5" stroke-linecap="square" stroke-width="6" transform="matrix(.99862953 .05233596 -.05233596 .99862953 -14.88045 -7.781819)"/><g fill-rule="nonzero"><path d="m216.21901 95.5235139c-2.504-9.3200004-16.916-28.3230011-33.132-31.6210013 15.066 4.7240002 28.014 22.1190009 30.375 30.9070013 2.643 9.8360011-4.95 15.1940011-11.79 22.4030011-2.621 2.762-4.752 4.237-7.196 4.139 3.75 1.698 6.402.318 9.953-3.425 6.839-7.209 14.433001-12.568 11.79-22.4030011" fill="#94c4bf" transform="matrix(-.74314483 -.66913061 -.66913061 .74314483 389.713163 157.658012)"/><path d="m20.1470227 32.1934158h70l-33.2124323 81.6338662c-.8325165 2.046267-3.1662321 3.030207-5.2124998 2.197691-1.0516629-.427865-1.8719518-1.28249-2.2563568-2.350805z" fill="#3682e0" transform="matrix(.67815967 .7349146 -.7349146 .67815967 51.321218 -16.629398)"/><path d="m78.1978567 74.6938737v-19.4741446c0-5.8427316-4.6453792-10.0837783-11.0458946-10.0837783-4.8745723 0-9.0603595 2.8505597-10.4234546 7.1379966-.056695.5432544.0832336 1.5272163 1.6598398 2.020418 1.7298037.5383712 2.3679249-.3625765 2.5995305-.9571044.8974712-2.6112835 3.3172663-4.2996448 6.1640843-4.2996448 3.8793928 0 6.6960537 2.625933 6.6960537 6.2419319v1.5504116c0 .725153-.9565795 1.1976013-1.860082 1.4002535l-7.70209 2.0362885c-5.7635998 1.3282265-8.0096907 3.5879209-8.0096907 8.0596982 0 5.1969301 4.6212535 9.1242326 10.7672439 9.1697685.0832335.0008541.1640538-.013795.2400496-.0467569.2870944-.1257418.9433101-.5530204.9433101-1.8360778 0-1.2806154-.653803-1.7945707-.9408974-1.9593783-.0796144-.0451696-.1664665-.0647021-.2557313-.0659231-3.7177512-.0476111-6.4041339-2.2450443-6.4041339-5.2616324 0-2.7870782 1.5078486-3.6428565 4.6803613-4.4107375 0 0 5.580246-1.4832676 7.778086-2.1486017.3727399-.1123135.7430672.1733531.7358295.5664496l-.0193003 1.2342252.0156817 6.8486678c0 .0830142.0168881.1660285.048251.2417174.7804625 1.8531694 2.1170191 3.3559697 3.8685359 4.3692307.3751527.194107.4644175-.1269629.4644175-.3332777" fill="#fff" transform="matrix(.74314483 -.66913061 .66913061 .74314483 -44.758213 60.73966)"/><circle cx="54.469344" cy="8.728425" fill="url(#a)" r="7.5" stroke="#979797" stroke-width="2" transform="matrix(.99862953 .05233596 -.05233596 .99862953 -20.468541 -2.838743)"/></g><path d="m52.590041 1.0038387c-7.0288202 1.95012002-14.2334874 5.82829947-19.3017511 9.5833337-5.0682611 3.7550321-18.3072796 13.216771-21.3298024 16.2149958-2.93052909 2.9069693-6.39209876 3.9209779-7.9068401 7.503041-.58416186 1.3814214 3.96122653 5.5486086 4.85192388 5.9812501 2.31153182 1.1227786 6.07931532-.8680919 7.79857422-.9869882 5.5797192-.3858677 11.297668-1.1343523 16.9489619 2.7213969-1.0456825 1.0642016.6148244-.08151-1.5227198 9.2522585-.7537746 3.2914198-2.4009396 11.830646-.3769823 13.4598678 2.0109053 1.6187173 3.2390559-4.691455 5.2369744-3.7253523-.0010005.0015028-.0004202.0053102-.0011356.0066618-.0004352.0012128-.0009755.0056002-.001133.0066643.0001175.0009203-.0015308.0058801-.0011381.0066618.0006728.0006404.0052752.0007136.0062182.0012153.0060782.0018256.0194227.0009179.0322144-.0005824.0037569.001823.0086645.0006051.0124315.0024332.0141224.0068434.0269891.0149122.0412416.0218337l.0118887-.0320937c.9458402-.2464186 8.3200462-3.5214789 15.0519234-2.2045424 3.7948394.7423675 9.847496-1.338808 13.3294891-2.4244752 5.5218962-1.7216877 13.2738875-3.277549 18.1915148-3.366384 3.6226617-.0654405 6.9003979-2.1329318 10.3855927-2.3739519 2.0561741-.1421949.1496308-6.8246894.1071311-7.5306085-.2042545-3.3926984-4.3935679-8.6059602-6.5511876-13.2388054-2.1576197-4.6328477-5.7735554-10.5138985-9.7560706-15.1255094-3.9825127-4.6116115-9.3553108-10.583087-13.1381964-12.42054969-3.7828832-1.83746268-4.4906513-3.44826294-12.1191229-1.33177081z" fill="#d00000" transform="matrix(.95630476 .2923717 -.2923717 .95630476 149.27668576 1.5799047)"/><path d="m32.1369336 17.0895783c-4.592775 1.118151-8.5261179 15.8716258-14.186608 18.436351-3.7022171 1.6774481-13.79114137 4.2260996-12.89415381 4.6604924 2.32785605 1.1273234 6.12224801-.8716059 7.85364851-.9909835 5.6191238-.3874296 11.3774533-1.1389439 17.0686573 2.7324129-1.0530672 1.0685093.6191663-.08184-1.5334734 9.2897105-.7590979 3.3047432-2.4178953 11.8785351-.3796447 13.5143519 2.0251066 1.6252696 3.2619305-4.7104455 5.2739586-3.7404322-.0010076.0015089-.0004232.0053318-.0011436.0066888-.0004383.0012178-.0009824.0056229-.0011411.0066913.0001184.0009241-.0015416.0059039-.0011462.0066888.0006776.000643.0053125.0007164.0062622.0012203.0061211.0018329.0195598.0009215.0324419-.0005849.0037835.0018305.0087257.0006076.0125193.0024431.0142221.0068711.0271797.0149725.0415328.0219221l.0119727-.0322236c.9525198-.2474161 8.3788033-3.5357335 15.1582217-2.2134661 3.8216389.7453724 9.91704-1.3442274 13.4236233-2.4342892 5.5608924-1.728657 13.367629-3.2908162 18.3199851-3.3800108 3.6482454-.0657054 6.9491293-2.1415657 10.4589368-2.3835614 2.070695-.1427705-12.8682575 1.1444935-6.9144933-3.1838162 2.6412225-1.9201299-26.445168 4.0020385-37.6118207-8.8044583-11.0571302-12.6808887-9.4349033-22.6601873-14.1381354-21.5151469z" fill="#0e0000" opacity=".101124" transform="matrix(.95630476 .2923717 -.2923717 .95630476 152.14560004 2.4570198)"/><path d="m87 33.2055064c.8218647.6010733 6.3413317 8.3067975 6.9933934 7.7674716.0788291-.8509086-.5648957-1.1858686-1.017716-1.2830279.6063172-.8504923.7206157-1.7398299-.3315623-1.8162356-1.1665674-.2273523-2.4400959-.3868516-1.1879275-1.771862.5781325-.7762707-.0388716-2.1548256-.3938679-2.8560318-.9326429-.5559794-1.6354411-1.5619756-2.0177184-2.2458207" fill="#000" opacity=".269663" stroke="#000" stroke-width=".830161" transform="matrix(.95630476 .2923717 -.2923717 .95630476 70.85969544 -22.3945747)"/><path d="m57.7564369 50.0549448c-1.8805123-.663312-3.6231643-.7565637-5.2859166-.6542933-1.1419978-.9594729-2.4972379-.6448152-3.4867098-.3301273-.1660531-1.8473436-2.4263455 1.6488846-3.632853 1.6639903-.8566995.4890476-.2662084-1.455973-1.800335-.7161465-1.9073398.1792167-4.1185249-.9970613-5.5334316-.3878038-.3398643 2.0112689-3.3942141 3.1442708-3.8513675.9398467-1.665319.7207474-3.7306814 3.425414-3.7507377 1.1455597-3.1255575-.1362718-4.4645396 2.9200359-7.0674143 3.9126745.2303206-1.7801866-3.9322413-1.7427313-4.733234.125599-1.6125851.6458619-.4288268-3.3731869-2.7591887-2.5527343-2.6248617-.759011-2.5531996 4.4421944-5.6848419 3.3844797-2.97997463-.0953401-2.56378178 2.8509236-4.53041475 4.6488739-.52395476 1.8906675-1.56313461.6870924-2.48323602.828648 1.51403744 2.1370236-4.64185374 1.6918922-2.81437067 4.9876057-.40484855 2.5515848.21414335 4.3855647 3.03647647 4.9169221.91390558-1.2308394 1.78907401-2.2387669 1.99349079.0319608 1.62975172-.471836 3.77209625-3.1727275 3.55219874-.3969505 1.10591814-1.6750446 4.60695524-2.5480732 4.56293834-4.3522485 1.7721421.185015 3.7609943 2.1534997 5.2569338-.23921 1.5018276-1.7673902 1.7498523-.3253105 1.7725182 1.0397426 1.8256281 1.6959335 3.9189386-.9095351 5.8169935-1.3411321-.4888998-2.1866879 4.4416491-.150248 1.8379819-2.3272696 1.0341247-1.0299884 3.8329516-1.6318964 5.4503621-1.2739675 1.4191518 1.3388981 5.7905243 2.2433076 6.4688599-.4385199.1423348-2.1095382 3.453063-2.8310462 4.6909685-1.3725657 2.1526844-1.8771808 5.5482789.8505383 7.4006866-.5884088-1.6650691-2.1493657 2.3532626-3.5537918 3.1036867-1.9058936 1.4743009-.7873171 2.8463038-3.6202384 4.4590681-1.5920967 1.8549239-.6012203 4.1199508-1.4371625 5.6891096-2.0637395 1.1777518 1.9310369 4.2266199-.0554977 2.9049786-2.3926695-.7154423-1.6693719 2.3495526.8219084 1.5151353-1.296119.0186379-2.4238421-.8992426-6.1746922-3.9153018-5.3401305-2.2240386-.5526805-3.542765.9399998-3.6350815 3.0523594-.0281222-1.5414685-3.5397011-.9848347-4.9179048-.4258615l-.4514876.237478-.3226801.2539617" fill="#fff" transform="matrix(.95630476 .2923717 -.2923717 .95630476 177.0095238 10.058684)"/><path d="m61 47c.7629537-10.086423 5.7791459-14.6799794 4.8961434-22.7472426-.5219181-4.7683122-4.7468969-1.153832-3.3698327 3.3191515" transform="matrix(.95630476 .2923717 -.2923717 .95630476 122.50015248 -6.6065029)"/><path d="m39.7149062 60.9802536c-.5309141 1.9353816-1.5838967.7033404-2.5162193.848244 1.5341475 2.187567-4.7035086 1.7319103-2.8517547 5.1055718-.4102234 2.6119332.2169902 4.4892867 3.0768132 5.0332114.9260418-1.2599505 1.8128346-2.2917168 2.0199665.0327192 1.6513987-.4829981 3.8221986-3.2477693 3.5993829-.4063415 1.1206048-1.7146591 4.668144-2.6083385 4.6235425-4.4551824 1.7956804.1893883 3.7248993 1.8884534 5.2407085-.5608445 1.5217753-1.8091939 1.8591418-.0170302 1.8821113 1.3803082 1.8498768 1.7360471 3.9709914-.9310442 5.8942595-1.3728491-.4953961-2.2384086 2.2673986-.3970401 1.8623896-2.3823126-.2652436-1.3001751 8.6039471-.9152473 7.3283125-2.1867089-3.8118468-3.7993714-9.7665348 1.9250551-10.6280489 1.5596757-.861514-.3653769-1.8134304-.1437782-.6098778-.6986949 1.2035553-.5549142-1.7242402.3577919-4.1625929-.5124388-2.4383553-.8702307-4.2231902.2299469-4.3860659 2.4005787-1.8365764-1.1476865-1.9681663.1559265-4.8294443.955328 1.8231992-2.6780782-3.2220692-.7114367-3.2220692-.7114367s.8790109-2.9363481-.7005359-2.5487918c.8491905-1.5324601-.0933126-2.0045715-.0933126-2.0045715s.465187-1.3159412-1.527565.5245357z" opacity=".11236" transform="matrix(.95630476 .2923717 -.2923717 .95630476 144.49516196 .1180462)"/><path d="m96.3501184 30.7454205c-.3233881-.5946186-1.3310165-.7583421-1.4606767-1.2625988.2252078-.5856747-.6606272-.1608636-.8351779-.4828217-1.0420676.880691-2.480543 1.2619088-3.252744 2.4732273.4106171-.0929704.4096348-.7126815-.0390189-.2555038-.8449667.4333831-1.6616016 1.194662-1.3438715 2.2809307.0769596.5574197-.6026029 1.0370789.2269653 1.1691001-.1081728.8924203-1.4049106.8548443-1.4056832 1.6424931.287032.8591175.1607679 1.7544387-.5219053 2.3570368-.6752653.6519443-.3971671 1.6115654-.372556 2.4035412-.3396129.529734-.5307726 1.0223049-.0831566 1.5268951.0947682.9100823.8265566 1.5126701.8320091 2.4595717.308078.4962926.925861.4655829 1.2414143 1.0264191.9218281.0808973.9894642 1.4097991 1.8675705 1.5941188.7543074.2539982 1.6468139.0778759 2.3264894.2641322.5574317.4665627 1.1972806.7917655 1.8990433.9227838.8821824.5796651 1.1820172-.8630367 1.715904-1.327586.0276831-.7263705.5331529-.7828935.8716582-.1712592.7704106.5392344 1.5686505-.389382 2.1209706-.88075.53998-.6076407 1.145775-1.1336914 1.747048-1.6664648.853619-.9948168 1.156689-2.4186383 1.108926-3.7281058.084614-.8206002-.654421-.8660017-1.140473-.9597031.219766-.6879942.773502-1.6778607-.355897-1.7515404-.647671-.1746449-2.116031-.9217168-1.275111-1.7087499.620562-.7486237-.2334725-1.7563779-.6145226-2.432612-.6599092-.5422379-1.0433232-1.2975765-1.4536561-1.9570643-.7944294-.1306874-1.5389172-.6291089-1.7414373-1.4992171-.2120788-.6909977-.0587306-.1792951.008191.1570907" fill="#fff" transform="matrix(.95630476 .2923717 -.2923717 .95630476 62.2529526 -25.02592)"/><path d="m92.7124658 40.5010963c-.3914607-.4703303 1.1542215-.2487752 1.026635-.7185273.2216054-.5455941-.0435801-.5683102-.215339-.8682402-1.0253983.8204282-.7839115-1.1232302-1.5437604.0052018.4040489-.0866064.3376093-1.5133459-.1038677-1.0874513-.8314505.4037256-.6552956-1.3872666-.6560559-.653514.2824406.8003309.1581962 1.6343883-.5135569 2.1957525-.6644637.607334-.390814 1.5012913-.3665965 2.2390748-.3341805.4934861-.5222824.952352-.0818265 1.4224147.0932523.8478084.813335 1.4091631.8187002 2.2912714.30315.462333.9110509.4337246 1.2215566.9561846.9070825.0753618.9736367 1.3133312 1.8376967 1.4850386.7422415.2366179 1.6204714.0725471 2.2892748.2460584.5485149.4346374 1.1781288.7375876 1.8686661.8596407.8680709.5400006 1.1631095-.8039819 1.6884562-1.2367436.0272405-.6766673.5246245-.7293226.8577155-.1595405.758087.5023364 1.543558-.3627379 2.087043-.8204832.531343-.5660618-2.040296.0858537-1.448641-.4104614.839963-.9267471-1.895213 1.2935708-1.9422127.0737059.0832603-.7644468-3.0241287.9726213-2.3660591-.3712919.2162518-.640917.3754765-.1787035-.7358563-.2473439-.6373108-.1626945-2.3966224-1.3126431-1.569154-2.0458222.6106363-.6973978-.3280881.1090476-.7030429-.5209116-.6493535-.5051344-.2346012-.2269958-.6383704-.8413523-.7817216-.1217449-.438029-.4340615-.6373096-1.2446286-.3381838.9509972-.2399461-.8613994-.1740952-.5480314z" fill="#000" opacity=".095506" transform="matrix(.95630476 .2923717 -.2923717 .95630476 59.38403832 -25.9030351)"/><path d="m62.075477 41.9679949s2.8331678-8.460853 3.5139181-11.8364091c.6369183-3.1581801.5545047-7.9790069-.3994157-8.8712688-.9539225-.892262-2.2086451.6509539-2.3408891 2.4783026-.132242 1.8273463-.2430032 2.287838.3973464 5.7734631.2902861 1.5801177.1453058 5.3254866-.249368 7.0931805-.3946738 1.767694-1.2558757 5.7933102-.9215917 5.3627317z" fill="#000" fill-opacity=".223464" transform="matrix(.95630476 .2923717 -.2923717 .95630476 121.54384772 -6.8988746)"/></g></svg>