<svg height="105" viewBox="0 0 90 105" width="90" xmlns="http://www.w3.org/2000/svg"><g fill="none"><path d="m89.43 102.214c0 1.194-18.42 2.161-41.15 2.161s-41.15-.967-41.15-2.161c0-1.193 18.42-2.161 41.15-2.161s41.15.968 41.15 2.161" fill="#e8e8e6"/><path d="m23.87 74.325c-.52 8.224 3.1 23.501 3.1 23.501-4.45-.077-6.99 1.528-8.36 2.963-.78.815-.19 2.166.93 2.166h11.77c-1.22-7.517.19-24.653.19-24.653z" fill="#5d7e93"/><path d="m67.46 69.849c2.76 10.553 3.35 27.477 3.35 27.477 4.4-.076 6.93 1.495 8.31 2.918.81.825.2 2.211-.95 2.211h-11.7c.54-16.118-6.64-28.63-6.64-28.63z" fill="#5d7e93"/><path d="m18.11 52.568s-4.25.714-6.2-4.687c-1.94-5.402-5.28-13.976-3.62-19.062 1.65-5.087 5.89-9.047 12.94-11.697 7.04-2.649 24.51-7.651 30.72-5.587 6.72 2.237 9.36 13.326 10.65 18.33 1.29 5.003 1.57 10.015-2.83 12.023-4.4 2.007-31.58 8.253-41.66 10.68" fill="#bce1dd"/><path d="m18.11 52.568s-4.25.714-6.2-4.687c-1.94-5.402-5.28-13.976-3.62-19.062 1.65-5.087 5.89-9.047 12.94-11.697 7.04-2.649 24.51-7.651 30.72-5.587 6.72 2.237 9.36 13.326 10.65 18.33 1.29 5.003 1.57 10.015-2.83 12.023-4.4 2.007-31.58 8.253-41.66 10.68" fill="#cae5e1"/><path d="m62.6 29.865c-1.29-5.004-3.93-16.093-10.65-18.33-4.09-1.359-13.06.345-20.72 2.424 6.14-1.492 12.62-2.429 15.85-1.169 6.13 2.391 8.79 13.475 10.08 18.478s1.66 9.99-2.26 11.874c-1.21.582-4.37 1.512-8.43 2.583 6.33-1.608 11.57-3.049 13.3-3.837 4.4-2.008 4.12-7.02 2.83-12.023" fill="#daf2f0"/><path d="m26.32 50.453s-3.63.552-5.5-4.871c-1.86-5.422-5.04-14.036-3.81-19.014 1.24-4.978 4.73-8.746 10.68-11.113 1.86-.739 4.58-1.67 7.61-2.529-5.48 1.293-10.86 2.988-14.07 4.196-7.05 2.65-11.29 6.61-12.94 11.697-1.66 5.086 1.68 13.66 3.62 19.062 1.95 5.401 6.2 4.687 6.2 4.687 6.97-1.678 22.12-5.183 32.25-7.849-8.31 2.102-18.85 4.499-24.04 5.734" fill="#cae5e1"/><path d="m12.73 38.525c1.8 6.702 3.52 13.3 9.19 11.836 5.67-1.463 27.52-7.272 33.63-10.195 6.12-2.924 3.12-10.34 1.78-15.534s-3.68-10.227-13.12-9.297c-8.5.836-18.03 2.895-25.21 6.502-4.82 2.415-8.41 8.718-6.27 16.688" fill="#eff"/><path d="m18.05 38.684c-1.82-5.926-.79-12.14 2.09-17.397-.38.18-.77.361-1.14.55-4.82 2.415-8.41 8.718-6.27 16.688 1.8 6.702 3.52 13.3 9.19 11.836.68-.173 1.59-.411 2.66-.696-2.95-2.988-5.23-6.738-6.53-10.981" fill="#eff"/><path d="m57.33 24.632c-1.13-4.376-2.97-8.639-9.17-9.316 5.48.979 7.19 5.028 8.26 9.184 1.34 5.193 4.34 12.609-1.77 15.533-6.12 2.924-27.96 8.733-33.63 10.196-.63.163-1.21.22-1.75.195.78.198 1.65.195 2.65-.063 5.67-1.463 27.52-7.272 33.63-10.195 6.12-2.924 3.12-10.34 1.78-15.534" fill="#94c4bf"/><path d="m67.98 76.837-40.75 10.509c-2 .513-4.03-.685-4.54-2.677l-7.65-29.652c-.24-.931.32-1.879 1.25-2.12l44.11-11.375c.93-.24 1.88.32 2.12 1.25l7.77 30.14c.45 1.723-.59 3.481-2.31 3.925" fill="#daf2f0"/><path d="m59.41 47.098c-.71-2.755-3.52-4.413-6.27-3.702l-29.59 7.629c-2.75.711-4.41 3.521-3.7 6.276l4.97 19.271c1.52 5.901 7.54 9.449 13.44 7.929l9.82-2.533 9.82-2.532c5.1-1.316 8.17-6.52 6.86-11.623z" fill="#cae5e1"/><path d="m48.08 81.968-9.82 2.532c-5.9 1.521-11.92-2.027-13.44-7.928l-4.97-19.271c-.71-2.755.95-5.565 3.7-6.276l11.07-2.854-15.02 3.874c-2.76.711-4.42 3.52-3.71 6.276l4.97 19.272c1.53 5.9 7.54 9.45 13.44 7.928l23.22-5.988z" fill="#daf2f0"/><path d="m68.71 66.792-5.34-20.715c-.71-2.756-3.52-4.413-6.27-3.703l-3.96 1.021c2.75-.709 5.56.948 6.27 3.703l5.35 20.715c1.31 5.103-1.76 10.307-6.86 11.623l3.96-1.021c5.1-1.315 8.17-6.519 6.85-11.623" fill="#daf2f0"/><path d="m50.48 52.172c.13.516.66.825 1.17.692.52-.133.83-.658.7-1.174l-1.96-7.586-1.87.481z" fill="#94c4bf"/><path d="m25.43 33.425c.28 1.104.17 2.092-.78 2.335-.94.24-1.56-.553-1.85-1.658-.28-1.105-.14-2.097.82-2.344.95-.246 1.52.561 1.81 1.667" fill="#6a8286"/><path d="m43.89 28.663c.29 1.106.18 2.093-.78 2.336-.94.239-1.56-.553-1.85-1.658-.28-1.105-.14-2.097.82-2.344.95-.246 1.53.562 1.81 1.666" fill="#6a8286"/><path d="m50.84.654c-.68.177-1.16.754-1.24 1.417-9.16.776-6.35 9.577-6.35 9.577l1.23-.176c-1.96-7.507 3.24-8.527 5.2-8.648.29.819 1.15 1.3 2 1.08.9-.231 1.44-1.146 1.21-2.044-.23-.897-1.15-1.437-2.05-1.206" fill="#d7f8f8"/><path d="m6.12 11.366.08-.078s-1.33-2.017-.44-4.009c.88-1.958 5.05-1.644 5.76 1.039 1.29 4.858-1.25 9.584-1.25 9.584s-6.61.811-9.43-2.655c-1.91-2.338-.23-5.427 1.8-5.528 2.11-.106 3.48 1.647 3.48 1.647" fill="#db2828"/><path d="m33.16 41c-.57 0-1.05-.444-1.08-1.02-.04-.598.42-1.112 1.02-1.147.76-.046 1.5-.216 2.2-.507.76-.317 1.46-.768 2.06-1.34.44-.41 1.12-.392 1.54.043.41.435.39 1.121-.05 1.533-.79.753-1.71 1.348-2.72 1.768-.93.383-1.9.608-2.91.668z" fill="#6a8286"/><g fill="#5d7e93" transform="translate(14 40)"><path d="m22.42 2.887c.48.2.7.749.49 1.224-.54 1.27-1.38 3.645-.73 4.921.91 1.797 2.32 2.344 1.57 4.456-1.03 2.898-5.1 1.969-6.31-.198-1.2-2.166-1.31-5.082 0-7.329.72-1.237 1.25-2.059 1.57-2.546.23-.334.66-.448 1.02-.27.35.173.53.58.41.957l-.75 2.394.41-.146 1.12-3.012c.22-.445.74-.644 1.2-.451"/><path d="m24.09 2.272c-.3.422-.2 1.004.22 1.303 1.13.796 3.09 2.375 3.21 3.8.17 2.007-1.24 4.249 1.7 5.521 2.53 1.093 4.68-1.908 4.57-4.383-.11-2.476-1.56-5.014-3.85-6.238-1.26-.674-2.14-1.097-2.68-1.34-.36-.167-.79-.038-1 .302-.21.334-.15.772.15 1.03l1.9 1.643-.43.091-2.53-1.974c-.42-.264-.97-.157-1.26.245"/><path d="m22.74 14.228c-.67.165-1.39.263-2.18.263-.35 0-.69-.019-1.02-.053-.01 1.083-.09 2.154-.27 3.185-.25 1.476-.72 2.868-1.44 4-.37.556-.79 1.059-1.28 1.472-.5.393-1.02.754-1.63.989-.3.139-.63.215-.94.324-.34.062-.64.161-1 .202-.72.114-1.43.16-2.12.142-1.37-.045-2.64-.396-3.7-1.089-1.07-.683-1.94-1.709-2.59-2.934-.33-.611-.61-1.267-.83-1.951-.11-.34-.2-.687-.28-1.034-.05-.173-.08-.347-.11-.516-.03-.158-.07-.37-.07-.45l-.01-.021-.01-.073c-.1-.716-.55-1.296-1.14-1.592-.01.001-3.15 2.145-1.69 6.259.2.455.43.903.68 1.342.95 1.673 2.31 3.241 4.06 4.291.87.526 1.82.915 2.78 1.167s1.93.343 2.88.359c.95-.001 1.88-.094 2.77-.261.45-.066.93-.215 1.39-.324.46-.163.92-.3 1.37-.518.9-.389 1.74-.969 2.5-1.621.74-.672 1.36-1.462 1.88-2.294 1-1.684 1.52-3.519 1.78-5.311.19-1.329.25-2.649.22-3.953"/><path d="m47.97 3.658c-.02.321.02.651.15.968l.01.012c.03.074.1.275.15.427.06.164.11.334.16.505.09.343.18.693.25 1.044.14.703.21 1.412.22 2.106.02 1.388-.25 2.707-.85 3.82-.59 1.12-1.54 2.042-2.72 2.746-.59.349-1.23.651-1.91.898-.34.14-.66.2-.99.31-.32.056-.65.148-.97.168-.65.088-1.28.028-1.91-.074-.63-.126-1.23-.364-1.83-.671-1.18-.642-2.26-1.635-3.2-2.803-.71-.889-1.35-1.873-1.92-2.909-.85.541-1.86.921-3.01 1.097.66 1.338 1.43 2.641 2.36 3.872 1.1 1.441 2.44 2.797 4.13 3.785.85.479 1.78.871 2.76 1.099.97.204 1.99.305 2.97.21.49-.025.97-.13 1.45-.208.45-.127.94-.229 1.36-.387.87-.287 1.73-.653 2.56-1.111.82-.474 1.63-1.023 2.35-1.709.72-.687 1.36-1.485 1.86-2.365 1.03-1.766 1.46-3.799 1.49-5.722.01-.921-.06-1.827-.21-2.716-.55-3.265-4.65-2.405-4.71-2.392"/></g></g></svg>