<svg height="76" viewBox="0 0 103 76" width="103" xmlns="http://www.w3.org/2000/svg"><g fill="none" transform="translate(-7 -2)"><g fill="#cae5e1"><path d="m38.3164352 60.5600032.6699842 3.0313538s-12.0291852 7.8336774-23.6326224-2.9055411l3.4342932-5.7005022s8.3822956 12.1271078 19.528345 5.5746895" transform="matrix(-.89879405 -.43837115 -.43837115 .89879405 78.185163 18.050467)"/><path d="m8.75637291 55.053708s-2.34688733-6.0260359.40909551-6.4548147c2.26806568-.3526143 1.12237608 4.1647969 4.75871938 3.6807281 3.6368982-.4829404 1.6247254-4.3887775 2.9696895-5.9944416 1.3438538-1.605664 2.973575.740772 2.5644794 3.581432 0 0 1.1828801 1.6784437-.0188727 4.6471733 0 0-.310291 4.0395484-4.6848934 4.6567642-4.3746024.6177801-5.99821769-4.1168413-5.99821769-4.1168413" transform="matrix(-.89879405 -.43837115 -.43837115 .89879405 49.408259 11.406795)"/><path d="m76.2151295 45.388721s.9205089 21.3139158.6355183 26.098966c-.2859886 4.7846548-3.6042199 6.1083503-10.2781619 5.935936-6.6731957-.1726285-15.3748274-.4034566-20.2206342-.4514523-4.8453079-.047798-8.2409432-1.4917734-8.8299138-7.5181312-.5892179-6.0259457-1.2813764-11.7114921-1.0855896-16.0030144.1952915-4.2906966.096962-6.5582073 7.1451003-7.0897921 7.0476405-.5317824 32.6336809-.972512 32.6336809-.972512"/><path d="m39.6950403 35.2406947c5.10176 2.7024353 19.691539 10.8915477 22.2954294 12.5677345 2.6038903 1.6767512 6.5083382 2.1173779 10.0680802-3.6169754 3.5597416-5.7343534 11.2848202-19.5856038-2.1692612-28.907031-15.6483207-10.84189957-31.08349 5.5526865-33.7650919 9.4980164-2.6821569 3.94533-3.0046596 6.9749913 3.5708435 10.4582555" transform="matrix(-.89879405 -.43837115 -.43837115 .89879405 119.452432 27.577767)"/></g><path d="m66.8233461 23.4627943c-3.0385197-2.8643558-8.2207666-7.147067-13.1843113-8.4097079-7.6651295-1.9503798-13.6711182 4.9179809-16.1739836 9.5815154-2.5028655 4.6635345-2.1692611 6.783169 4.3374119 10.429482 5.3243479 2.9828342 13.8964817 9.9002787 18.9815892 8.030013.3763457-.4643224.7515812-.987884 1.1229312-1.5859177 2.3047011-3.7134507 6.426186-10.9671482 4.9163626-18.0453848" fill="#daf2f0" transform="matrix(-.89879405 -.43837115 -.43837115 .89879405 110.68721 25.554156)"/><path d="m64.2427497 22.8572488c-.3352696-.3159423-.7005137-.651631-1.0851856-.9957826 1.4310018 7.035923-2.6505172 14.2224827-4.9413413 17.912802-.3713499.5974695-.7465854 1.1215952-1.1229312 1.5859176-5.0851073 1.8702658-13.657241-5.0471787-18.981589-8.0300129-1.5925306-.8925371-2.8131563-1.6936766-3.7151647-2.4626576.8909068 1.1255445 2.4429165 2.2556025 4.825329 3.5910232 5.324348 2.9828341 13.8964817 9.9002786 18.9815891 8.0300128.3763456-.4643224.7515812-.9878839 1.1229311-1.5859177 2.3047011-3.7134507 6.4261861-10.9671482 4.9163626-18.0453848" fill="#afcec9" transform="matrix(-.89879405 -.43837115 -.43837115 .89879405 108.129747 24.963719)"/><g fill="#64847e"><path d="m53.7622826 26.9380194c0 .9969109-.7954327 1.8048205-1.7762629 1.8048205-.9808301 0-1.7757079-.8079096-1.7757079-1.8048205s.7948778-1.8048207 1.7757079-1.8048207c.9808302 0 1.7762629.8079098 1.7762629 1.8048207" transform="matrix(-.89879405 -.43837115 -.43837115 .89879405 110.520122 25.515581)"/><path d="m43.0515428 27.2526632c0 .8411965-.6710943 1.5232934-1.498722 1.5232934-.8276274 0-1.4987217-.6820969-1.4987217-1.5232934s.6710943-1.5232934 1.4987217-1.5232934c.8276277 0 1.498722.6820969 1.498722 1.5232934" transform="matrix(-.89879405 -.43837115 -.43837115 .89879405 90.84703 20.97369)"/><path d="m6.730889 29.826149c.46349357-.3193275 1.09462199-.1963356 1.40824341.2753212.31473156.4710925.19316858 1.1125683-.27032498 1.4318957-.46404868.3187633-1.09462203.1957714-1.40879852-.2758854-.3141765-.4710926-.19316859-1.1120041.27088009-1.4313315zm14.7785071 18.0538475-11.73277132-18.9018142c-.9225466-1.5058037-2.89086787-1.9311975-4.33630177-.9359792-1.44432374.9946542-1.78680943 3.0104791-.75269139 4.439554l12.91842688 18.086006c-2.1514984 2.7176682-2.4140523 6.6466368-.3885576 9.6847609 1.2794644 1.9193496 3.2222519 3.1063901 5.3065853 3.4640819l1.3488497-.9286448-3.0923626-4.6398387 1.932796-4.3137413 4.5455677-.1461233 3.0918076 4.6392747 1.3488496-.9280806c.4462861-2.1004524.0827073-4.374673-1.1967571-6.2945868-2.0249396-3.0381241-5.7123504-4.2471677-8.993441-3.2248686z" transform="matrix(.97029573 -.2419219 -.2419219 -.97029573 11.568344 94.216601)"/></g><path d="m106.606059 61.1226733-4.579429-.0050776 2.145392 3.5560438-4.3840379 2.9444697-1.1856553-1.4285108s-1.2844607 1.9503799-.6039294 3.5977934c.6805305 1.6474136 2.7221226 1.8200536 2.7221226 1.8200536s-1.0774144 1.3342924.227028 2.6843812c1.303888 1.3500895 6.328493-.2798342 8.466114-3.6147186 2.137622-3.3348842.294193-7.7766949-2.807605-9.5544347" fill="#cae5e1" transform="matrix(-.89879405 -.43837115 -.43837115 .89879405 227.387266 52.496487)"/><path d="m71.6466913 71.7700395c.2546504-4.2703366-.3937418-20.9129371-.6093477-26.1669342 3.0934481-.0627304 5.140242-.0979229 5.140242-.0979229s.9205087 21.3144621.6355179 26.0996351c-.2779637 4.6571368-3.430849 6.0346737-9.7522618 5.9458244 2.8913549-.7964632 4.3926161-2.5432243 4.5858496-5.7806024" fill="#daf2f0"/><path d="m79.8211521 16.388464c-11.6350772-.5709529-21.4578109 10.0503513-23.546585 13.1223263-2.3629845 3.4753657-2.8919778 6.2409895 1.5114886 9.2317222 1.6336068-3.8573174 8.013721-16.7934634 22.0350964-22.3540485" fill="#daf2f0" transform="matrix(-.89879405 -.43837115 -.43837115 .89879405 139.583568 32.225406)"/><path d="m73.9571548 7.25604594c-.8559362-1.5390905-1.8239998-2.70751295-2.5406106-3.46295363.3657986-.836683.0593933-1.83585063-.7382594-2.30355812-.8526063-.50043009-1.9427876-.20310578-2.4351455.6634789-.4912477.86714886-.1992745 1.97463958.6533317 2.47506966.5900523.34584402 1.2927863.30973633 1.8334361-.03159423.6688744.71481952 1.5620013 1.80594894 2.3407815 3.21414909 1.9450078 3.51711519 2.2941548 7.25313319 1.0391138 11.10537299l.9869359.3328678c1.6896706-5.1825827.3125112-9.38235893-1.1395835-11.99283246" fill="#afcec9" transform="matrix(-.89879405 -.43837115 -.43837115 .89879405 141.091356 32.573506)"/><path d="m48.4995273 46.1460052-3.1900571 6.3007928c-.2309142.4558597-.0521777 1.0211707.3957735 1.2553066.4490615.2347 1.0046987.0541615 1.2356129-.4016981l3.1700741-6.2607358z" fill="#afcec9" transform="matrix(-.89879405 -.43837115 -.43837115 .89879405 112.403757 25.950452)"/><path d="m72.3652363 54.1443295s12.0930195-11.8568645 33.0745697-1.7286559c.962512.4643223 1.575878 1.4555915 1.575878 2.5376939v.1162217c0 1.201145-.751581 2.2685787-1.870072 2.6561722-.691077.2397777-1.442103.1923864-2.09821-.1325829-3.7740038-1.8719582-17.4873082-7.8776836-27.0874541-1.6558763-1.0602068.6871746-2.4567933.2882974-3.0673834-.8287844z" fill="#cae5e1" transform="matrix(-.89879405 -.43837115 -.43837115 .89879405 193.581028 44.691702)"/></g></svg>