<svg height="219" viewBox="0 0 266 219" width="266" xmlns="http://www.w3.org/2000/svg" xmlns:xlink="http://www.w3.org/1999/xlink"><linearGradient id="a" x1="50%" x2="50%" y1="0%" y2="100%"><stop offset="0" stop-color="#eee"/><stop offset="1" stop-color="#d8d8d8"/></linearGradient><g fill="none" fill-rule="evenodd" transform="translate(-20.852978 .228425)"><g fill-rule="nonzero" transform="translate(128.852978 35.771575)"><path d="m48.2602302 4.79648943c-.546 1.469-2.008 2.427-3.613 2.355-4.656-.211-14.1979994.797-17.8009994 11.86599997-5.295 16.266 17.8749994 25.974 37.8989994 24.476l1.436 6.0170004s-25.097 2.067-39.5119994-10.5990004c-14.415-12.665-6.435-32.30599997 6.869-36.95099997 4.7139994-1.646 8.5669994-2.021 11.3339994-1.953 2.52.062 4.245 2.485 3.388 4.789" fill="#7a99a5" transform="matrix(.06975647 -.99756405 -.99756405 -.06975647 51.24562708494 144.78306778278)"/><path d="m15.2565587 35s-6.978 1.369-11.256 2.452c-6.005 1.52-4.88 14.3800004.913 14.1060004 7.702-.364 16.087-4.07 16.087-4.07l-1.047-3.8630004-13.169 2.445v-4.374l8.973-3.198z" fill="#3682e0" transform="matrix(.06975647 -.99756405 -.99756405 -.06975647 55.72264420589 80.75873669074)"/><path d="m153.002975 113.150381c-1.646 1.978-4.585 2.246-6.562.6-1.979-1.647-2.247-4.585-.601-6.563 1.646-1.977 4.585-2.246 6.563-.599 1.978 1.646 2.247 4.585.6 6.562zm-11.72 14.076001c-1.646 1.979-4.584 2.248-6.562.601s-2.246-4.585-.6-6.562c1.647-1.979 4.585-2.248 6.563-.601 1.977 1.646 2.246 4.585.599 6.562zm-.738-24.447001c-2.387 2.867-3.147 6.549-2.389 9.928-3.461-.134-6.943 1.281-9.33 4.149-4.081 4.902001-3.415 12.185001 1.487 16.266001s12.184 3.415 16.266-1.487c1.363-1.637 2.194-3.54 2.517-5.5l8.298 6.908c1.418 1.181 3.525.988 4.706-.43 1.18-1.418.987-3.525-.431-4.706l-8.28-6.892c1.852-.676 3.556-1.832 4.909-3.456001 4.081-4.903 3.415-12.185-1.487-16.266-4.902-4.0809996-12.185-3.4159996-16.266 1.486z" fill="#5d7e93" transform="matrix(-.74314483 -.66913061 -.66913061 .74314483 330.333744 126.803244)"/><path d="m54.1399531 71.4529215c-1.288 6.122 15.8500001 25.3230001 23.2300001 30.7470015 7.3790021 5.423 33.9520028 11.424 42.5780028 12.1 8.627001.674 3.109-20.5590014 3.109-20.5590014s-65.4430029-38.8010014-68.9170029-22.2880001" fill="#94c4bf" transform="matrix(-.74314483 -.66913061 -.66913061 .74314483 216.677728 83.174787)"/><path d="m118.094786 162.568345c3.69-18.071 9.396-27.525002 11.506-32.203002 2.83-6.273001 1.616-11.310001-3.98-15.373001-5.597-4.064-10.948001-8.527-22.272002-16.4390002-7.3879999-5.1630001-21.253001-7.5560001-29.997001-8.5970001-5.005-.596-9.9260001 1.787-12.4760001 6.135-10.068 17.1750003-13.7940001 40.0030023-17.0270001 60.7900033-.318 2.045-.502 3.93-.582 5.687z" fill="#cae5e1" transform="matrix(-.74314483 -.66913061 -.66913061 .74314483 236.404555 90.747206)"/><path d="m95.5010421 177.46659c.103-1.113.233-2.259.422-3.477 3.233-20.787001 6.9589999-43.615003 17.0269999-60.789003 2.537-4.328 7.422-6.706 12.403-6.141-4.729-1.06-9.433-1.758-13.19-2.205-5.005-.596-9.926 1.787-12.4759999 6.135-10.068 17.175-13.7940001 40.003002-17.0270001 60.789003-.318 2.046-.502 3.931-.582 5.688z" fill="#daf2f0" transform="matrix(-.74314483 -.66913061 -.66913061 .74314483 275.215811 105.645452)"/><path d="m117.390268 25.6064483c-.69-.62-1.587-.861-2.437-.741-1.191-1.721-3.181-4.089-6.22-6.2420001-5.031-3.564-14.0030011-7.171-28.1740031-4.102-.525.114-.859.631-.746 1.158.046.208.154.386.302.517.224.202.539.296.856.228 10.620002-2.3 19.8010031-1.011 26.5480031 3.7270001 2.73 1.917 4.558 4.045 5.677 5.62l-.067.067c-1.113 1.241-1.008 3.1490001.232 4.2620001 1.241 1.112 3.149 1.009 4.262-.233 1.112-1.241 1.008-3.1490001-.233-4.2610001" fill="#6d8c8c" transform="matrix(.40673664 -.91354546 .91354546 .40673664 38.582955 103.646753)"/><path d="m116.701932 106.064568c-4.88 3.145-9.07 6.995-16.8989998-1.382-7.8280001-8.3770009-18.0260001-22.848001-33.6830022-27.460001-15.6550011-4.613-29.9200012-6.445-21.3230011-15.1940011 8.597001-8.7490002 17.3130011-18.5390006 23.1970011-23.5330009 5.885002-4.9940002 17.2620021-9.2780003 34.954002-3.9940001 17.693 5.2840001 33.904001 23.2710008 35.207001 34.889001 1.773 15.7930011-16.572001 33.5310011-21.453001 36.6740021" fill="#cae5e1" transform="matrix(-.74314483 -.66913061 -.66913061 .74314483 204.750702 78.596431)"/><path d="m82.6990554 79.0988151c8.596001-8.7500001 17.3130006-18.5400012 23.1970016-23.5340014 5.885-4.9940002 17.262001-9.2780002 34.955001-3.9940002 2.468.7370001 4.905 1.7300001 7.279 2.9090001-5.214-4.0870001-11.165-7.4430001-17.294-9.2730002-17.692001-5.2840002-29.069002-1-34.9540015 3.9940001-5.8840001 4.9940001-14.6000011 14.7840007-23.1970012 23.5330015-5.869 5.9740001-1.081 8.7230001 7.5300001 11.3340001.171-1.733.954-3.412 2.484-4.969" fill="#daf2f0" transform="matrix(-.74314483 -.66913061 -.66913061 .74314483 232.638826 89.301678)"/><path d="m73.7472151 36.0761747c-12.83-1.162-25.4350011 15.7640005-22.2910011 24.2480007 3.146 8.4839999 7.0830011 4.8929998 21.5410011 20.3810009 14.4590001 15.4880011 17.9540001 17.0140011 24.7930002 9.8050011 6.8390007-7.2090011 14.4330007-12.5680011 11.7900007-22.4030021-2.642-9.8349999-18.5430008-30.4650006-35.8330009-32.0310006" fill="#e4f4f2" transform="matrix(-.74314483 -.66913061 -.66913061 .74314483 184.119987 70.677041)"/><path d="m87.219012 59.523514c-2.504-9.3200005-16.9160001-28.3230011-33.1320012-31.6210012 15.0660011 4.7240001 28.0140012 22.1190007 30.3750012 30.9070012 2.643 9.8360003-4.95 15.1940014-11.7900001 22.4030014-2.621 2.762-4.752 4.237-7.196 4.139 3.75 1.698 6.402.318 9.9530001-3.425 6.839-7.209 14.433001-12.5680011 11.79-22.4030014" fill="#94c4bf" transform="matrix(-.74314483 -.66913061 -.66913061 .74314483 161.758783 62.093379)"/><path d="m87.5540691 71.4948964c0 1.9690001-1.597 3.5650001-3.565 3.5650001s-3.564-1.596-3.564-3.5650001c0-1.968 1.596-3.564 3.564-3.564s3.565 1.596 3.565 3.564" fill="#5d7e93" transform="matrix(-.74314483 -.66913061 -.66913061 .74314483 194.24574 74.563954)"/><path d="m67.214516 72.009995c0 1.969-1.595 3.565-3.564001 3.565-1.969 0-3.565-1.596-3.565-3.565 0-1.968 1.596-3.564 3.565-3.564 1.969001 0 3.564001 1.596 3.564001 3.564" fill="#5d7e93" transform="matrix(-.74314483 -.66913061 -.66913061 .74314483 159.135622 61.086442)"/><path d="m39.2246868 11.7254618c-4.656-.211-16.270223.650609-19.873223 11.719609-3.172071 9.744458 8.894168 23.238828 1.895223 20.040391-17.45673607-7.977525-6.435-32.306 6.869-36.95099993 4.714-1.646 8.567-2.021 11.334-1.953 2.52.062 4.245 2.485 3.388 4.789-.546 1.46899993-2.008 2.42699993-3.613 2.35499993z" fill="#7a99a5" transform="matrix(-.61566148 -.78801075 -.78801075 .61566148 152.796675 149.115717)"/><path d="m18.6277864 36.0812873s-6.9779999 1.3689999-11.25599969 2.4519999c-6.00499982 1.52-4.87999983 14.3799996.913 14.1059996 7.70199979-.364 16.08699969-4.07 16.08699969-4.07l-1.047-3.8629999-13.1689999 2.445v-4.3739999l8.9729999-3.1979998z" fill="#3682e0" transform="matrix(-.80901699 .58778525 .58778525 .80901699 88.018201 118.319006)"/></g><path d="m55.000585 18.72876 192.999998 187.999998" stroke="#7a99a5" stroke-linecap="square" stroke-width="6" transform="matrix(.99862953 .05233596 -.05233596 .99862953 6.107394 -7.774437)"/><g fill-rule="nonzero"><path d="m20 31.9649898h70l-33.2124325 81.6338672c-.8325165 2.046267-3.1662321 3.030207-5.2124998 2.197691-1.0516629-.427865-1.8719518-1.28249-2.2563568-2.350805z" fill="#3682e0" transform="matrix(.67815967 .7349146 -.7349146 .67815967 72.106026 -16.594866)"/><circle cx="54.322322" cy="8.5" fill="url(#a)" r="7.5" stroke="#979797" stroke-width="2" transform="matrix(.99862953 .05233596 -.05233596 .99862953 .519302 -2.831362)"/><path d="m175.384879 113.517343c12.565442 2.115132 21.435865 3.371891 26.611272 3.770276 7.763109.597578 5.738099.449933 15.856827 0 10.118728-.449932 13.527374.194231 20.112591-1.599392 4.390144-1.195748 7.496148-3.334632 9.31801-6.416652l10.87449-10.0747453v6.4010583l-7.163888 8.490947c1.065094 12.234537-1.33523 19.336385-7.20097 21.305545-5.86574 1.969159-14.342798 2.798612-25.431173 2.488358-10.431584.333505-18.166473-.181884-23.204667-1.546166-7.55729-2.046422-17.489289-14.854711-18.859647-17.747654-.913571-1.928629-1.217853-3.619154-.912845-5.071575z" fill="#73dde7" fill-opacity=".933758" stroke="#fff" stroke-width=".5"/><path d="m138.040479 93.5733326-2.550782 6.7073574 4.237695 4.02539 1.762305-6.9160156z" fill="#3682e0"/><path d="m235.430126 198.714934-6.884114 3.595476 4.02251 3.213444 6.481722-2.791341z" fill="#3682e0"/><path d="m78.0507754 74.4654703v-19.4741444c0-5.8427317-4.6453792-10.0837784-11.0458945-10.0837784-4.8745722 0-9.0603594 2.8505597-10.4234545 7.1379967-.056695.5432544.0832336 1.5272163 1.6598398 2.020418 1.7298037.5383712 2.3679249-.3625765 2.5995305-.9571044.8974712-2.6112835 3.3172663-4.2996449 6.1640842-4.2996449 3.8793927 0 6.6960536 2.6259331 6.6960536 6.241932v1.5504116c0 .725153-.9565795 1.1976012-1.8600819 1.4002534l-7.7020899 2.0362885c-5.7635998 1.3282265-8.0096907 3.5879207-8.0096907 8.0596981 0 5.1969301 4.6212535 9.1242325 10.7672438 9.1695913.0832335.0010312.1640538-.0136179.2400496-.0465798.2870944-.1257418.94331-.5530204.94331-1.8360778 0-1.2806153-.6538029-1.7945706-.9408973-1.9593782-.0796144-.0451696-.1664665-.0647021-.2557313-.0659231-3.7177511-.047611-6.4041338-2.2450443-6.4041338-5.2616324 0-2.7870783 1.5078486-3.6428566 4.6803613-4.4107376 0 0 5.5802458-1.4832676 7.7780858-2.1486016.3727399-.1123134.7430672.1733531.7358295.5664495l-.0193003 1.2342252.0156817 6.8486679c0 .0830142.0168881.1660285.048251.2417174.7804625 1.8531694 2.1170191 3.3559697 3.8685359 4.3692306.3751527.194107.4644175-.1269629.4644175-.3332776" fill="#fff" transform="matrix(.74314483 -.66913061 .66913061 .74314483 -23.6431 60.582554)"/></g></g></svg>