<svg height="91" viewBox="0 0 93 91" width="93" xmlns="http://www.w3.org/2000/svg"><g fill="none" fill-rule="evenodd" transform="translate(0 -2)"><path d="m22.5390625 42.8105469c12.7240318 13.2167074 26.2135817 18.5492431 40.4686497 15.9976071v-2.546755c0-8.60811-3.128026-24.261399-29.722229-24.261399" fill="#94c4bf"/><path d="m86.6825019 88.9240417c0 1.943-19.32 3.518-43.15 3.518s-43.14000002-1.575-43.14000002-3.518 19.31000002-3.518 43.14000002-3.518 43.15 1.575 43.15 3.518" fill="#c9c9c9"/><path d="m33.5000629 6.82363916c-.8559362-1.53909051-1.8239999-2.70751297-2.5406107-3.46295365.3657986-.83668302.0593933-1.83585065-.7382594-2.30355815-.8526064-.50043009-1.9427877-.20310578-2.4351456.66347891-.4912477.86714886-.1992745 1.9746396.6533317 2.47506968.5900523.34584402 1.2927864.30973633 1.8334362-.03159423.6688744.71481953 1.5620014 1.80594896 2.3407816 3.21414912 1.9450078 3.51711526 2.2941548 7.25313326 1.0391138 11.10537306l.9869359.3328678c1.6896706-5.1825827.3125112-9.38235898-1.1395835-11.99283254" fill="#afcec9" transform="matrix(.89879405 -.43837115 .43837115 .89879405 -1.116493 14.794522)"/><g fill="#cae5e1" transform="matrix(-1 0 0 1 92 9)"><path d="m33.3164332 56.5600028.6699842 3.0313539s-12.0291853 7.8336775-23.6326226-2.9055412l3.4342933-5.7005022s8.3822956 12.1271079 19.5283451 5.5746895" transform="matrix(-.89879405 -.43837115 -.43837115 .89879405 66.937704 15.453787)"/><path d="m3.75637383 51.0537083s-2.34688736-6.026036.40909551-6.4548148c2.2680657-.3526144 1.12237609 4.1647969 4.75871942 3.6807281 3.63689824-.4829404 1.62472544-4.3887776 2.96968954-5.9944417 1.3438538-1.605664 2.973575.740772 2.5644794 3.5814321 0 0 1.1828801 1.6784437-.0188727 4.6471734 0 0-.310291 4.0395484-4.68489343 4.6567642-4.37460244.6177801-5.99821774-4.1168413-5.99821774-4.1168413" transform="matrix(-.89879405 -.43837115 -.43837115 .89879405 38.160807 8.810116)"/><path d="m71.2151295 41.388721s.9205089 21.3139158.6355183 26.098966c-.2859886 4.7846548-3.6042199 6.1083503-10.2781619 5.935936-6.6731957-.1726285-15.3748274-.4034566-20.2206342-.4514523-4.8453079-.047798-8.2409432-1.4917734-8.8299138-7.5181312-.5892179-6.0259457-1.2813764-11.7114921-1.0855896-16.0030144.1952915-4.2906966.096962-6.5582073 7.1451003-7.0897921 7.0476405-.5317824 32.6336809-.972512 32.6336809-.972512"/><path d="m34.695038 31.2406945c5.10176 2.7024353 19.6915392 10.8915478 22.2954296 12.5677346 2.6038903 1.6767512 6.5083382 2.1173779 10.0680803-3.6169754 3.5597416-5.7343535 11.2848203-19.585604-2.1692612-28.9070313-15.6483209-10.84189966-31.0834903 5.5526866-33.7650922 9.4980165-2.682157 3.94533-3.0046597 6.9749914 3.5708435 10.4582556" transform="matrix(-.89879405 -.43837115 -.43837115 .89879405 108.204973 24.981086)"/></g><path d="m60.6552313 28.4627943c-3.0385197-2.8643559-8.2207668-7.1470671-13.1843115-8.409708-7.6651295-1.9503798-13.6711183 4.9179809-16.1739838 9.5815155s-2.1692611 6.7831691 4.3374121 10.4294821c5.3243479 2.9828342 13.8964817 9.9002788 18.9815893 8.030013.3763457-.4643224.7515812-.987884 1.1229312-1.5859177 2.3047012-3.7134507 6.4261861-10.9671482 4.9163627-18.0453849" fill="#daf2f0" transform="matrix(.89879405 -.43837115 .43837115 .89879405 -10.3352 23.356262)"/><path d="m62.2789946 27.8572486c-.3352696-.3159423-.7005137-.651631-1.0851856-.9957826 1.4310018 7.035923-2.6505172 14.2224827-4.9413414 17.9128021-.3713499.5974695-.7465854 1.1215952-1.1229312 1.5859176-5.0851073 1.8702659-13.6572411-5.0471788-18.9815892-8.030013-1.5925306-.8925371-2.8131563-1.6936766-3.7151647-2.4626576.8909068 1.1255445 2.4429165 2.2556025 4.8253291 3.5910232 5.324348 2.9828341 13.8964818 9.9002788 18.9815892 8.030013.3763456-.4643224.7515812-.9878839 1.1229311-1.5859178 2.3047012-3.7134508 6.4261862-10.9671483 4.9163627-18.0453849" fill="#afcec9" transform="matrix(.89879405 -.43837115 .43837115 .89879405 -11.55659 24.608895)"/><path d="m45.2377174 36.633199c0 .8285401-.6718237 1.4999999-1.5002344 1.4999999-.8284106 0-1.4997656-.6714598-1.4997656-1.4999999 0-.8285402.671355-1.5000001 1.4997656-1.5000001.8284107 0 1.5002344.6714599 1.5002344 1.5000001" fill="#64847e" transform="matrix(.89879405 -.43837115 .43837115 .89879405 -11.63242 22.880851)"/><path d="m54.9459021 37.2293702c0 .8283333-.6710943 1.5-1.498722 1.5-.8276275 0-1.4987218-.6716667-1.4987218-1.5 0-.8283334.6710943-1.5 1.4987218-1.5.8276277 0 1.498722.6716666 1.498722 1.5" fill="#64847e" transform="matrix(.89879405 -.43837115 .43837115 .89879405 -10.911109 27.197535)"/><path d="m24.7180013 76.7700395c.2546504-4.2703366-.3937418-20.9129371-.6093477-26.1669342 3.0934481-.0627304 5.140242-.0979229 5.140242-.0979229s.9205087 21.3144621.6355179 26.0996351c-.2779637 4.6571368-3.430849 6.0346737-9.7522618 5.9458244 2.8913549-.7964632 4.3926161-2.5432243 4.5858496-5.7806024" fill="#daf2f0" transform="matrix(-1 0 0 1 50.07131 0)"/><path d="m42.5206346 21.3884635c-11.6350773-.5709529-21.4578111 10.0503515-23.5465852 13.1223265-2.3629845 3.4753657-2.8919778 6.2409895 1.5114886 9.2317223 1.6336068-3.8573175 8.013721-16.7934636 22.0350966-22.3540488" fill="#daf2f0" transform="matrix(.89879405 -.43837115 .43837115 .89879405 -11.24994 16.379965)"/><path d="m50.1801463 51.1460046-3.1900571 6.3007929c-.2309142.4558597-.0521777 1.0211707.3957735 1.2553066.4490615.2347 1.0046987.0541615 1.2356129-.4016981l3.1700742-6.2607359z" fill="#afcec9" transform="matrix(.89879405 -.43837115 .43837115 .89879405 -19.106142 27.193217)"/><path d="m76.0625019 90.4690417h-27s-3.41-.974-2.88-4.695c.55-3.721 4-3.347 8.07-2.697s20.36 2.361 20.36 2.361z" fill="#85b5af"/><path d="m51.9725019 90.4690417h-27s-3.41-.974-2.87-4.695 3.99-3.347 8.07-2.697c4.07.65 20.35 2.361 20.35 2.361z" fill="#85b5af"/><path d="m24.2125019 81.1610417 20.67.22 9.29-33.657c.33-1.186 1.5-1.937 2.71-1.747l34.27 3.508c1.16.181 1.9 1.324 1.6 2.454l-8.47 33.342c-.35 1.326-1.6 2.217-2.97 2.132l-57.2-3.541c-.74-.046-1.31-.683-1.27-1.426.04-.726.64-1.292 1.37-1.285" fill="#c9e2e2"/><path d="m24.1125019 83.8720417 21.63 1.34 10.85-39.253c-1.11-.037-2.11.676-2.42 1.765l-9.29 33.657-20.67-.22c-.73-.007-1.33.559-1.37 1.285-.04.743.53 1.38 1.27 1.426" fill="#9fc6c4"/><path d="m60.3325019 72.5850417s-5.73-2.666-8.51 5.296c-1.38 3.935-2.16 7.054-2.6 9.203-.36 1.748.97 3.385 2.75 3.385h.62l1.91-3.427z" fill="#85b5af"/><path d="m52.2225019 90.4690417h1.7c.98 0 1.88-.545 2.32-1.418 2.05-3.994 7.39-15.141 4.09-16.466-3.3-1.322-7.81 11.47-9.35 16.182-.27.841.36 1.702 1.24 1.702" fill="#6d8c8c"/><path d="m72.4125019 67.0130417c-.72 1.709-2.31 2.669-3.56 2.144-1.24-.524-1.67-2.334-.95-4.043.72-1.708 2.31-2.668 3.56-2.144 1.24.525 1.67 2.335.95 4.043" fill="#e8f1f1"/><path d="m83.7825019 72.5850417s-5.73-2.666-8.51 5.296c-1.38 3.935-2.16 7.054-2.6 9.203-.36 1.748.97 3.385 2.75 3.385h.62l1.91-3.427z" fill="#85b5af"/><g fill="#6d8c8c" transform="translate(3 53)"><path d="m72.6825019 37.4690417h1.69c.98 0 1.88-.545 2.33-1.418 2.04-3.994 7.38-15.141 4.08-16.466-3.3-1.322-7.81 11.47-9.34 16.182-.28.841.35 1.702 1.24 1.702"/><path d="m15.0794985 27.2801432c-1.4756484-2.2068883-.7971652-3.7911186-.763031-3.896734.0656427-.2022981.2515429-.3415425.4647505-.3473224 2.7606703-.0709357 2.8357655 1.0776974 3.3026166 2.7995957.2121573.7829196 1.2356586 1.130242 1.53709 1.2248229.2746491-2.3193345-.1549168-4.0832688-1.2802957-5.2492415-1.9388234-2.0098447-5.3653735-1.6309955-5.3995077-1.6273174-.2242356.0252217-.4358677-.0982591-.5225161-.305286-3.34410285-7.9873592-1.0350544-13.76362648.7236454-16.58318888.5571754-.89273891.0141788-2.06081331-1.0282276-2.20005771l-.0262571-.0036781-.0336091-.0042035c-1.5255369-.1959929-2.96600075.7608508-3.45753355 2.21844801-1.14428391 3.3907263-2.62413342 10.49743198 1.59012935 17.63986808l.5955108.8880101c-.625969.8874843-2.00814215 3.1469172-1.76920265 5.5161697.1449391 1.4507663.8822382 2.7297106 2.19089155 3.802153.459499.1329388 2.6362117.7151367 4.7063206.5590785 0 0 1.2083512.1555329 2.5217308-.1208533.9694117-.2038745 1.0308533-1.5616362.0918998-1.8753299-1.5544196-.5191439-2.707631-1.3330654-3.4444049-2.4349333" transform="matrix(.87461971 .48480962 -.48480962 .87461971 9.652856 -4.50783)"/></g></g></svg>