<svg height="810" viewBox="0 0 837 810" width="837" xmlns="http://www.w3.org/2000/svg"><g fill="none" fill-rule="evenodd"><path d="m837 673.496536c0 11.874013-186.694144 21.503464-416.996497 21.503464s-417.003503-9.629451-417.003503-21.503464 186.70115-21.496536 417.003503-21.496536 416.996497 9.622523 416.996497 21.496536" fill="#c9c9c9"/><g fill="#64847e" transform="matrix(.87461971 -.48480962 -.48480962 -.87461971 752.136727 479.839432)"><path d="m54.7375919 90.1788307s23.4389015 86.9487303-51.82189179 130.6962113l21.84922999 27.682695s74.7005567-45.75733 54.9242023-154.0370721l-3.0042691-16.7580793z"/><path d="m66.0963903 96.9226796s-21.1559372 6.0015354-49.0207084-6.5127513c-27.8717742-12.5212895-17.80152013-39.7277827 2.9762573-24.8605021 20.7637715 14.8672806 28.1869073-7.1009998 19.3771857-19.832378-8.8167245-12.7383813-30.00767649-34.6156231-19.0480467-43.9505666 10.9526269-9.33494347 32.5567534 20.679736 37.0316437 35.0358006 0 0-2.8992247-15.4485261-9.5660411-24.1672092 0 0 16.0437776-7.71025719 23.03273 8.9217689 6.9889525 16.6250231 7.0379732 26.3031115 7.0379732 26.3031115s1.6386922-11.0786801.1050443-18.8869786c0 0 16.6040143 1.6036774 18.172677 24.4613335 1.5616597 22.857656-7.3250945 36.646481-30.098715 43.4883713"/></g><g fill="#64847e" transform="matrix(.98768834 .15643447 .15643447 -.98768834 92.302396 535.794301)"><path d="m75.5911748 82.0062884s14.2580232-16.7370704 14.4681119-47.2909777c.2240947-30.5469043-28.7051262-32.70381547-23.8380702-7.6332246 4.874059 25.0705909-18.1866828 22.6755791-26.0930228 9.3699583-7.9133429-13.3126238-18.992023-41.68861105-32.04553735-35.61004321-13.04651139 6.07856784 5.25922175 38.20814071 16.45695215 48.25038301 0 0-12.8504286-9.0618281-17.99760298-18.7469195 0 0-13.68378061 11.3798073-1.47062125 24.6504134 12.20615643 13.270606 20.98786613 17.3463278 20.98786613 17.3463278s-10.749541-3.1233194-17.22027454-7.7592779c0 0-5.45530455 15.7636593 14.67820064 26.7022802 20.1405082 10.9316178 36.3803686 8.5856269 52.0739983-9.2789198"/><path d="m72.8320092 61.0324282s52.3611198 95.9615378 163.7501748 95.9195208l10.315358 42.984158s-112.229411 9.839156-190.3614169-121.8164605z"/></g><path d="m406.530226.18701183c4.811235-.8676939 9.453654 1.35360249 11.894441 5.22004652 59.725424-21.35221155 67.575333 41.16339875 67.575333 41.16339875l-8.243811 2.4295429c-9.425517-52.07551724-44.996295-43.54435079-57.67854-38.6922065.597888 5.8794939-3.411474 11.32167-9.411449 12.3976105-6.295402 1.1245313-12.330547-2.9987501-13.477083-9.21838-1.146537-6.21268838 3.038674-12.17548087 9.341109-13.30001217" fill="#bcedef"/><path d="m395.547081 480c-34.374975 83.439909 6.371435 161.710354 6.371435 161.710354-30.577292-.532357-43.040406 10.514045-52.482159 20.383658-5.350327 5.603755-1.300864 14.905988 6.441374 14.905988h80.814411c-39.431558-104.657126 1.307858-169.639667 1.307858-169.639667z" fill="#6d8c8c"/><path d="m685.369689 449c34.078754 85.063911 22.989525 188.765931 22.989525 188.765931 30.247166-.524525 47.629148 10.273689 57.124213 20.050829 5.516647 5.664866 1.349446 15.18324-6.551455 15.18324h-80.37244c17.535805-121.144213-45.559532-196.68975-45.559532-196.68975z" fill="#6d8c8c"/><path d="m352.890818 356.63598s-27.921692 10.011859-47.651714-24.213425c-19.744025-34.232291-52.734751-88.25009-47.72873-124.710352 5.00602-36.467269 28.908893-68.457576 73.38196-94.976041 44.459063-26.518465 156.649935-81.6502491 201.179013-75.218558 48.253838 6.9781748 79.543216 78.889807 94.365238 111.216411 14.81502 32.326605 22.796648 65.935344-4.536925 84.880108-27.326571 18.951769-203.699527 94.310452-269.008842 123.021857" fill="#bce1dd"/><path d="m352.890818 356.63598s-27.921692 10.011859-47.651714-24.213425c-19.744025-34.232291-52.734751-88.25009-47.72873-124.710352 5.00602-36.467269 28.908893-68.457576 73.38196-94.976041 44.459063-26.518465 156.649935-81.6502491 201.179013-75.218558 48.253838 6.9781748 79.543216 78.889807 94.365238 111.216411 14.81502 32.326605 22.796648 65.935344-4.536925 84.880108-27.326571 18.951769-203.699527 94.310452-269.008842 123.021857" fill="#cae5e1"/><path d="m626.449121 148.832077c-14.808323-32.354717-46.068784-104.3288858-94.278024-111.313129-29.287883-4.2424369-87.877639 18.2319602-137.171097 41.6600291 39.717363-17.5938416 82.428567-31.8358075 105.791722-27.2287314 44.355019 8.7513409 75.762374 80.6694113 90.563702 113.0171163s23.412119 65.698168-.81841 83.249936c-7.477609 5.420502-27.762982 15.574301-53.92412 27.782702 40.892516-18.610624 74.587221-34.766946 85.303495-42.214 27.30831-18.961239 19.33406-52.599205 4.532732-84.953923" fill="#daf2f0"/><path d="m406.009346 332.315423s-23.885346 8.146295-43.145009-26.338751c-19.245646-34.478036-51.239955-88.999321-48.948139-124.24151 2.291816-35.242188 21.397289-65.037156 58.83028-88.3192943 11.697372-7.2769826 29.01565-16.8954992 48.520614-26.4158677-35.624769 15.4513197-70.016023 33.482533-90.298943 45.582795-44.518697 26.535048-68.446095 58.545359-73.457252 95.02842-5.011157 36.490072 28.013418 90.541649 47.777701 124.795346 19.750266 34.246686 47.700606 24.228566 47.700606 24.228566 45.212549-19.860975 143.578404-62.050649 209.010796-92.462547-53.798098 24.375788-122.293252 53.448666-155.990654 68.142843" fill="#cae5e1"/><path d="m298.602302 267.325522c20.324855 43.153917 39.96358 85.719945 76.587526 68.923091 36.637948-16.796854 177.448654-82.640522 215.276829-109.858424 37.835176-27.210904 8.506613-73.745188-6.868303-107.261911-15.381917-33.5167224-37.310076-64.7378749-100.111987-46.9752017-56.493714 15.9780074-118.490473 41.4952287-162.752868 74.6270227-29.664626 22.192844-46.313783 69.203039-22.131197 120.545423" fill="#eaf3f2"/><path d="m335.603576 262.061769c-19.420472-37.826724-19.999458-81.05427-6.926914-120.061769-2.39268 1.690814-4.771409 3.381628-7.066428 5.107376-29.556229 22.155253-46.144549 69.085822-22.050328 120.341242 20.250585 43.080824 39.817548 85.574753 76.307666 68.806349 4.345889-1.991248 10.198538-4.70214 17.132428-7.937044-23.557088-16.60072-43.493765-39.168196-57.396424-66.256154" fill="#eaf3f2"/><path d="m584.562273 119.133609c-12.984878-28.2501889-30.618229-54.8624832-73.492163-51.9086725 38.330629-.0349978 54.877233 25.2823795 67.203051 52.1116595 15.403766 33.520852 44.773988 80.060869 6.88507 107.275125-37.888919 27.214255-178.89964 93.073034-215.582619 109.871957-4.059527 1.861881-7.901705 2.953811-11.575612 3.43678 5.489827.398975 11.407341-.685956 17.857712-3.639767 36.689991-16.798923 177.700712-82.650702 215.582619-109.871957 37.888919-27.214256 8.518697-73.754273-6.878058-107.275125" fill="#94c4bf"/><path d="m646.714381 507.638624-189.616811 48.935044c-40.610657 10.481074-82.012931-13.965416-92.479089-54.599731l-20.378886-104.49525c-8.168367-17.814319-.357279-38.874616 17.443598-47.049152l242.227821-111.190517c17.800877-8.167526 38.852287-.357549 47.013649 17.456771l42.978502 170.894075c9.058061 35.144897-12.070409 70.983858-47.188784 80.04876" fill="#d7f8f8"/><path d="m625.629277 268.688649c-8.163103-17.800618-29.193945-25.618599-46.983349-17.45035l-190.992813 87.658061c-17.775403 8.168249-25.574457 29.205342-17.418354 47.00596l22.038978 109.115476c10.466415 40.603063 51.842007 65.030751 92.419491 54.557739l67.524126-17.422329 67.531127-17.429334c35.095743-9.050924 56.203595-44.862321 47.158373-79.980187z" fill="#cae5e1"/><path d="m552.001003 532.117809-67.599237 17.428178c-40.622621 10.476527-82.044237-13.959361-92.522294-54.576053l-22.063494-109.152106c-8.165175-17.806594-.357445-38.85075 17.43773-47.021741l71.524127-32.796087-97.084979 44.519988c-17.809193 8.170991-25.623931 29.222154-17.451748 47.028748l20.388407 104.449932c10.471048 40.616692 51.892665 65.052581 92.515286 54.576053l159.855199-41.219356z" fill="#cae5e1"/><path d="m693.896711 428.133411-43.110794-170.487919c-8.186483-17.764987-29.302691-25.563397-47.15836-17.415283l-25.627557 11.701112c17.848642-8.14112 38.957822-.342711 47.144306 17.42927l41.431335 165.787892c9.078915 35.061369-12.107563 70.815154-47.334036 79.851517l27.321071-7.008077c35.226472-9.043358 56.419977-44.797142 47.334035-79.858512" fill="#daf2f0"/><path d="m571.387884 314.156364c1.520897 3.311295 5.441742 4.758247 8.762599 3.24173 3.306905-1.516517 4.765013-5.426071 3.251092-8.737366l-22.387884-48.660728-12.013691 5.495636z" fill="#94c4bf"/><path d="m365.59611 273.729692c3.338206 7.010835 3.794713 13.712066-2.496521 16.470992-6.198506 2.717644-11.448334-1.80947-14.78654-8.820306-3.331073-7.010836-3.580725-13.780868 2.710509-16.567314 6.291234-2.779566 11.241479 1.905792 14.572552 8.916628" fill="#64847e"/><path d="m445.596619 228.72927c3.331159 7.011007 3.801944 13.712401-2.496587 16.471394-6.198666 2.717711-11.455764-1.809514-14.786923-8.820521s-3.580818-13.781204 2.710579-16.567718c6.284264-2.779634 11.241771 1.912718 14.572931 8.916845" fill="#64847e"/><g transform="translate(0 527)"><path d="m167.578238 283c-49.835208 0-90.2341702-5.560333-90.2341702-12.420826 0-6.859348 40.3989622-12.420826 90.2341702-12.420826 49.836359 0 90.235321 5.561478 90.235321 12.420826 0 6.860493-40.398962 12.420826-90.235321 12.420826" fill="#c9c9c9"/><path d="m207.322715 16.6403024c-4.388631.617582-7.446207 4.6818017-6.830259 9.0762472.617115 4.3944455 4.675607 7.4572409 9.064238 6.8393085 4.388631-.6167643 7.447374-4.6818016 6.830259-9.0762472-.615948-4.3943287-4.67444-7.4570072-9.064238-6.8393085" fill="#333"/><path d="m189.225424 66.9800785 8.631086-26.5515071 9.853659 3.1060427-8.648485 26.6065219z" fill="#333"/><path d="m266.982256 59.9122203c-.571436 0-1.106005-.6274158-1.32375-2.2943847-2.543813-19.4717622-13.899954-39.3116852-29.324122-53.47274708-2.342197-2.15059708-2.187817-2.94171657-1.146328-2.94171657.884804 0 2.411322.57215714 3.586453 1.36650005 16.682249 11.2787483 31.190506 30.9079977 30.089109 54.4539333-.066822 1.4505392-1.017295 2.888415-1.881362 2.888415m16.51174-5.8608692c-.548394-.0011512-.95969-.5848206-.820287-2.1424234 1.472369-16.4498056-4.223559-34.810639-14.296273-49.25167798-1.360617-1.94982404-1.297252-2.65724972-.665907-2.65724972.682036 0 2.02998.82945517 2.95626 1.80972037 11.633795 12.30437163 19.955334 31.06721173 14.745587 50.19706113-.297239 1.095963-1.221214 2.0445696-1.91938 2.0445696" fill="#c9c9c9"/><path d="m241.777495 68.6234436c7.387474-21.6296256-7.196458-40.4773133-30.847881-48.0914017-22.955251-7.3900838-45.067041-1.274077-52.144977 20.1512177-.784776 2.3781083.718034 5.5604245 3.922725 5.6582181 26.799729.820315 51.046062 9.2547185 72.45938 24.4794439 2.272626 1.6164693 5.638414.6488887 6.610753-2.197478" fill="#ba2c19"/><path d="m220.379896 34.5834768c-.353881 0-.712374-.1009256-1.032827-.3110881-1.759035-1.1564877-3.669074-2.228673-5.71398-3.2058695-2.012631-.9629482-4.132463-1.815472-6.341054-2.5480725-4.562423-1.5126955-9.067211-2.3830297-13.359901-2.5884428-.668571-.0320587-1.333684-.0486817-1.993034-.0486817-3.513458 0-6.872453.4571332-9.991684 1.3820859-.175212.0522438-.352729.0771784-.527941.0771784-.83802 0-1.608029-.568745-1.848946-1.4402666-.290482-1.0520001.300857-2.1491199 1.323311-2.4483344 3.455822-1.0258782 7.166393-1.5328805 11.033733-1.5328805.720443 0 1.44665.0178104 2.17862.0534311 4.655793.2232236 9.497172 1.1517383 14.358147 2.7641719 2.372276.7860317 4.641961 1.6991109 6.794069 2.7273638 2.147497 1.0270656 4.206236 2.1871154 6.15662 3.4706506.894503.5877427 1.15732 1.8119099.586729 2.7333005-.366561.5924922-.987872.9154539-1.621862.9154539" fill="#ec6565"/><path d="m236.982972 61.373494c-1.015968 0-1.844784-.8432193-1.857038-1.8943713-.025622-2.7755009-.489046-5.4636931-1.341256-8.0289636-.878946-2.6456865-2.172301-5.1523682-3.826591-7.4844323-.606016-.8558561-.424434-2.0563521.405496-2.6801505.330858-.2492896.715188-.3699136 1.096176-.3699136.57371 0 1.139622.2734144 1.503901.7880768 1.878204 2.6491329 3.348684 5.498157 4.349056 8.5068644.971408 2.9259937 1.499444 6.0128194 1.529522 9.2225668.012254 1.0580448-.809878 1.9265377-1.835872 1.9391745-.007798 0-.015596.0011488-.023394.0011488" fill="#ec6565"/><path d="m64.365585 54.654155c4.1093105-1.6620389 8.7866693.3258671 10.4464902 4.4395012 1.6598209 4.114802-.3254322 8.7984114-4.4347427 10.4604504-4.1081441 1.662039-8.785503-.3258671-10.4453238-4.4395011-1.6598209-4.1148021.3254322-8.7984115 4.4335763-10.4604505" fill="#333"/><path d="m105.071186 89.8285277-20.8013965-18.7132093-6.9257217 7.5519285 20.8440914 18.7509975z" fill="#333"/><path d="m16.0023422 125.669535c-.6415056 0-1.4864377-.350815-2.077685-.943174-13.93146485-13.953234-16.08983672-34.3407582-12.21390729-50.7957047.35488516-1.5067789 1.28574643-3.1193775 1.88793434-3.1193775.4050295 0 .66144941.7280848.49426363 2.7099017-1.4817652 17.5234943 2.72671237 36.2535625 12.13059922 49.7524615 1.1831785 1.698864.6829887 2.395893-.2212049 2.395893m17.1252033-3.183789c-.7962693 0-1.9142601-.692428-2.5416341-1.679311-12.5977394-19.82507-9.8855005-44.0508557-1.1770244-62.1379543.7626498-1.5826931 2.1589417-3.1400814 2.8917328-3.1400814.5503341 0 .7266371.8787627-.0213113 3.2850082-6.2038804 19.9527441-6.1128228 42.7879215 1.3458056 60.9060765.822937 1.99907.3410955 2.766262-.4975686 2.766262" fill="#c9c9c9"/><path d="m60.1481523 117.266547c-17.2646065-15.06215-14.0507832-38.7108318 2.6739546-57.155974 16.230685-17.9024347 38.5028691-23.66827 55.3971381-8.6291648 1.874191 1.6684511 2.165014 5.1816469-.568952 6.8708385-22.8653695 14.1288314-39.6950111 33.5844927-50.6585712 57.5108653-1.1632914 2.539549-4.5712275 3.385297-6.8435695 1.403435" fill="#ba2c19"/><path d="m60.778917 77.4475043c-.2983774 0-.6013629-.0687092-.8836118-.2152889-.9412137-.4855453-1.3087132-1.6387153-.8190978-2.5743061 1.0667856-2.0406643 2.2844879-4.0320869 3.6461948-5.9570907 1.3628589-1.927294 2.8846988-3.8179432 4.5563034-5.6536249 3.4261558-3.7606855 7.1645135-6.9407779 11.087197-9.4395038 3.9192274-2.4987259 8.0135643-4.3080691 12.1528306-5.3272561.1566769-.0389352.3145059-.0584028.4700308-.0584028.860571 0 1.6439557.5794479 1.8628426 1.4463294.2592082 1.0237676-.3663475 2.0624222-1.396268 2.3189367-3.7383576.9218489-7.4513705 2.5651448-11.0203789 4.8394205-3.6150898 2.3040497-7.0907832 5.267708-10.3072684 8.7982176-1.555249 1.7085696-2.9757097 3.4732518-4.2521659 5.2780144-1.2948887 1.8311011-2.4284924 3.6759441-3.3904427 5.5150613-.3421548.6550281-1.0114878 1.0294934-1.7061657 1.0294934" fill="#ec6565"/><path d="m139.88761 66.2444062 2.153068-.6834953-5.631102-18.8001536-2.151949.6834953z" fill="#333"/><path d="m140.728471 31.448098-20.344192 7.2149352c-2.462482.8723979-3.755745 3.5841202-2.875959 6.0259231l2.255744 6.2525642c.880935 2.4418029 3.615623 3.7242049 6.076956 2.8518071l20.344193-7.2149353c2.462482-.8735367 3.755744-3.585259 2.875958-6.025923l-2.255744-6.2537031c-.880934-2.440664-3.615622-3.724205-6.076956-2.8506682" fill="#4d4d4d"/><path d="m127.395847 234.777969c-1.52745 7.468585-3.034181 14.877668-5.13716 23.95737-1.502127 7.259185 7.804156 12.571984 12.743334 4.972954l11.903064-22.63575z" fill="#333"/><path d="m127.410127 234.777969c-1.532471 7.520872-3.041862 14.979531-5.151317 24.121399-.542365 2.635992.323111 5.016219 1.885585 6.624543 2.823762 1.648647 6.718407 1.273064 9.362149-2.814567 4.186599-10.365393 6.901888-17.056756 9.020575-23.033822z" fill="#4d4d4d"/><path d="m242.346463 203.604131c5.075744 5.77259 10.10318 11.503525 16.486678 18.397309 4.948073 5.602502-.434768 14.933062-8.528584 10.759534l-21.677438-13.839637z" fill="#333"/><path d="m242.221399 203.604131c5.111429 5.74384 10.171905 11.446233 16.599984 18.305684 1.796064 2.010171 2.239579 4.502738 1.689527 6.67294-1.625837 2.836805-5.198278 4.453232-9.551214 2.235826-8.847149-6.882476-14.568846-11.31959-19.413933-15.434339z" fill="#4d4d4d"/><path d="m192.958211 249.85265c53.314361-14.304666 84.953085-69.17838 70.667523-122.56404-14.284412-53.3845075-69.085989-85.0655426-122.3992-70.7608763-53.3143603 14.3035145-84.953084 69.1772283-70.6675222 122.5628873 14.2844116 53.38566 69.0859892 85.066695 122.3991992 70.762029" fill="#ba2c19"/><path d="m188.552997 233.389513c44.234312-11.868123 70.483839-57.396083 58.631595-101.688502-11.852245-44.2935739-57.319291-70.578269-101.552449-58.7101454-44.234312 11.8681235-70.4849924 57.3960834-58.6315946 101.6885024 11.8522446 44.293574 57.3192906 70.578269 101.5524486 58.710145"/><path d="m187.366082 230.105039c42.287671-11.345517 67.383491-54.871447 56.051975-97.215672-11.330365-42.344225-54.798163-67.473607-97.085834-56.1269365-42.287671 11.3466706-67.3834913 54.8714475-56.0519751 97.2156725 11.3303651 42.344225 54.7981631 67.473607 97.0858341 56.126936" fill="#fff"/><g fill="#64847e"><path d="m167.554703 156.356282c-1.607173 0-2.987739-1.206065-3.16089-2.82917l-5.309598-49.687803c-.185935-1.737473 1.080745-3.295885 2.827369-3.480723 1.752435-.183682 3.315449 1.075524 3.501383 2.811842l5.309598 49.687803c.185935 1.737473-1.080745 3.29473-2.828532 3.479568-.113885.012707-.22777.018483-.33933.018483"/><path d="m141.471381 185.581756c-1.309159 0-2.619472-.481609-3.640016-1.454022-2.103429-2.002297-2.178469-5.322983-.167397-7.416084l25.945362-27.016065c2.012226-2.093101 5.34631-2.167814 7.449738-.165517 2.103429 2.002297 2.177314 5.322983.166243 7.416085l-25.945362 27.016064c-1.035552 1.07816-2.419751 1.619539-3.808568 1.619539"/><path d="m169.114734 161.900581c4.668948-1.252777 7.441136-6.060264 6.190033-10.735457-1.251104-4.675193-6.052171-7.451088-10.721119-6.198312-4.670098 1.252777-7.441137 6.060265-6.190034 10.735458 1.251104 4.676343 6.052171 7.451088 10.72112 6.198311"/><path d="m106.126519 136.832816c.500072-1.870279-.611839-3.798246-2.478466-4.298987-1.867779-.50074-3.7931707.612658-4.2943946 2.481782-.5000717 1.869125.6118389 3.798246 2.4796186 4.298987 1.866627.50074 3.792018-.612658 4.293242-2.481782zm16.335292 61.047681c-1.366555-1.368383-3.590377-1.368383-4.956932 0-1.366556 1.368384-1.366556 3.59518 0 4.963564 1.366555 1.368384 3.590377 1.368384 4.956932 0s1.366555-3.59518 0-4.963564zm28.295532 16.357147c-1.867779-.500741-3.79317.612657-4.293242 2.481782-.500072 1.870278.611839 3.798245 2.478466 4.30014 1.866627.50074 3.792018-.613811 4.293242-2.481782.500072-1.870278-.611839-3.798246-2.478466-4.30014zm60.964964-16.357147c-1.366555 1.368384-1.366555 3.59518.001153 4.963564 1.366555 1.368384 3.590376 1.369538 4.956932 0 1.366555-1.368384 1.366555-3.59518 0-4.963564-1.366556-1.368383-3.591529-1.368383-4.958085 0zm16.336444-28.332234c-.500071 1.869124.611839 3.798245 2.478466 4.298986 1.866628.500741 3.793171-.612658 4.293243-2.481782.500072-1.869125-.611839-3.798246-2.478466-4.298986-1.866627-.501895-3.792019.611503-4.293243 2.481782zm-16.335291-61.047682c1.366555 1.368384 3.590376 1.368384 4.956932-.001154 1.366555-1.368383 1.366555-3.59518 0-4.963564-1.367708-1.368383-3.590377-1.368383-4.956932 0-1.366556 1.369538-1.367708 3.595181 0 4.964718zm-28.294381-16.3583003c1.866627.5007408 3.792019-.6126575 4.292091-2.4817819.500071-1.8702782-.610687-3.7982455-2.478467-4.2989863-1.866627-.5007407-3.79317.6126575-4.293242 2.481782-.500072 1.8691244.611839 3.7982455 2.479618 4.2989862zm-77.30256 77.4059823c-.501224-1.872586-2.423158-2.983677-4.293242-2.482936-1.8700842.501894-2.9796903 2.427554-2.4784664 4.298986.501224 1.872586 2.4231584 2.983677 4.2932424 2.482936 1.868932-.501895 2.97969-2.427554 2.478466-4.298986zm44.630824-77.4059823c1.868932-.5018945 2.978538-2.4264004 2.478466-4.2989862-.501224-1.8725858-2.42431-2.9836765-4.293242-2.481782-1.870084.5018946-2.97969 2.4264005-2.478466 4.2989863.500072 1.871432 2.423158 2.9825227 4.293242 2.4817819zm77.301408 44.6905353c.501224 1.871432 2.423159 2.982522 4.293243 2.481782 1.870084-.501895 2.97969-2.427555 2.478466-4.298987-.501224-1.872585-2.423159-2.983676-4.293243-2.481782-1.868931.501895-2.978537 2.426401-2.478466 4.298987zm-44.629672 77.404828c-1.870083.501894-2.97969 2.4264-2.479618 4.298986.501224 1.872586 2.424311 2.983676 4.293242 2.481782 1.870084-.501895 2.97969-2.4264 2.478467-4.298986-.500072-1.871432-2.423159-2.983677-4.292091-2.481782zm-60.967268-105.738217c1.366555-1.368383 1.367708-3.59518 0-4.963564-1.366555-1.368383-3.590377-1.368383-4.956932 0-1.366556 1.369538-1.367708 3.595181 0 4.963564 1.366555 1.369538 3.590377 1.369538 4.956932 0z"/></g><path d="m216.383494 176.814114c-.146652 0-.295613-.03073-.436491-.094466l-49.455176-22.276922c-.528871-.237872-.762128-.853609-.519633-1.376018.242495-.52127.868364-.751176 1.39608-.513303l49.454021 22.276921c.530026.237872.763283.854747.520788 1.376018-.176675.382417-.558894.60777-.959589.60777" fill="#ba2c19"/><path d="m168.162412 157.18826c2.205255-.59208 3.513224-2.861336 2.923085-5.069541-.591289-2.208204-2.857514-3.517922-5.06277-2.926994-2.205255.59208-3.514374 2.861336-2.923085 5.06954.590139 2.208205 2.857514 3.519075 5.06277 2.926995" fill="#fff"/><path d="m235.591609 93.0344234c-.488295 0-.973128-.1988229-1.327517-.5906552-11.219247-12.424688-25.659164-21.4961288-41.595135-26.2120687-8.137099-2.4079664-16.667836-3.6788053-25.360184-3.6788053-7.75616 0-15.640454 1.0115552-23.492426 3.1311702-.155839.0418575-.312833.0616235-.466363.0616235-.793047 0-1.51914-.5325198-1.733852-1.341764-.257423-.9650469.311678-1.956836 1.269799-2.2161197 8.150952-2.1998418 16.342306-3.2497663 24.3986-3.2497663 9.045583 0 17.921474 1.3231606 26.395647 3.8299571 16.563944 4.9008104 31.574117 14.3315277 43.236639 27.2468781.666067.738319.611812 1.8800974-.120054 2.5509793-.344.313931-.775732.468571-1.205154.468571" fill="#ec6565"/><path d="m256.035894 131.51463c-.784056 0-1.501917-.527983-1.715336-1.330333-1.032853-3.897621-2.29282-7.638462-3.754793-11.214452-1.497352-3.657839-3.225242-7.190022-5.161985-10.58387-.489607-.857684-.198582-1.952845.650526-2.447397.278471-.162545.583192-.239783.884488-.239783.612865 0 1.209751.321632 1.538438.89688 1.994948 3.497599 3.790173 7.170424 5.360567 11.010406 1.544145 3.771966 2.85661 7.660365 3.914572 11.650211.254504.956825-.308144 1.940165-1.256543 2.197239-.152931.041501-.308144.061099-.459934.061099" fill="#ec6565"/><path d="m144.329642 41.8898451c-.657642 0-1.274327-.4008916-1.508363-1.0441561l-1.011037-2.7729294c-.06202-.172303-.197761-.2561571-.272652-.2906177-.073722-.0356093-.227015-.0850028-.401372-.0218251l-9.114542 3.1990922c-.834339.292915-1.750591-.1332477-2.047817-.9511125-.298397-.8178649.135741-1.7184352.96891-2.0102016l9.114541-3.2002408c.936145-.3273757 1.948352-.2791308 2.850562.1401398.90338.4192706 1.584425 1.1567274 1.920267 2.0756766l1.009867 2.7729295c.298396.8178648-.135741 1.7184351-.96891 2.0113502-.177868.062029-.360416.0918949-.539454.0918949" fill="#666"/></g></g></svg>