<svg height="102" viewBox="0 0 115 102" width="115" xmlns="http://www.w3.org/2000/svg"><g fill="none" fill-rule="evenodd"><path d="m42.634403 57.9986814h42.899c9.155 0 12.281-4.562 12.281-17.457s-7.341-30.208-30.33-30.208c-22.988 0-31.619 13.835-33.501 26.601-1.882 12.764-.384 21.064 8.651 21.064" fill="#b5e5e0"/><path d="m41.522403 37.6386814c1.823-12.339 11.13-22.7 33.402-22.7 4.195 0 7.792.187 10.885.536-4.522-3.142-10.52-5.141-18.325-5.141-22.988 0-31.619 13.835-33.501 26.601-1.881 12.764-.384 21.064 8.651 21.064h7.269c-8.753 0-10.204-8.021-8.381-20.36" fill="#e1f9f8"/><path d="m91.724403 39.9956814v-.182c-.056-10.377-8.562-18.728-18.938-18.728h-13.028c-11.589 0-20.312 12.287-17.462 22.161 2.849 9.875 14.802 8.427 24.871 8.427h12.973c6.375 0 11.572-5.15 11.584-11.525z" fill="#e9f4f2"/><path d="m58.293403 35.4336814c0 1.292-1.048 2.338-2.34 2.338s-2.338-1.046-2.338-2.338 1.046-2.339 2.338-2.339 2.34 1.047 2.34 2.339" fill="#394c59"/><path d="m81.344403 35.4336814c0 1.292-1.047 2.338-2.339 2.338s-2.339-1.046-2.339-2.338 1.047-2.339 2.339-2.339 2.339 1.047 2.339 2.339" fill="#394c59"/><path d="m40.501403 4.19968135c-2.085-.928-4.004-1.384-5.34-1.608-.257-1.154-1.349-1.95-2.549-1.814-1.283.148-2.204 1.308-2.057 2.591s1.307 2.204 2.59 2.058c.888-.103 1.601-.689 1.909-1.465 1.255.22 3.035.653 4.939 1.506 4.753 2.13 7.993 5.73300005 9.629 10.71100005l1.297-.427c-2.201-6.69500005-6.88-9.97800005-10.418-11.55200005" fill="#32495b"/><path d="m96.994403 101.316681v-24.078092s1.458-15.7909076-15.444-15.7909076c-16.903 0-29.519 1.2508678-38.728 3.6190588-9.209 2.3652233-10.725 14.4821705-10.725 24.3852449 0 3.3356475.018 7.4117256.046 11.8646959z" fill="#b5e5e0"/><path d="m40.489403 89.4519851c0-9.9030744 1.516-22.0200216 10.725-24.3852449 7.977-2.0506517 18.514-3.2614561 32.174-3.5508027-.588-.0430311-1.198-.0682561-1.838-.0682561-16.903 0-29.519 1.2508678-38.728 3.6190588-9.209 2.3652233-10.725 14.4821705-10.725 24.3852449 0 3.3356475.018 7.4117256.046 11.8646959h8.393c-.029-4.4529703-.047-8.5290484-.047-11.8646959z" fill="#e1f9f8"/><g fill="#b5e5e0"><path d="m46.831403 63.2696814c-6.47.625-11.838.596-15.49.426-5.019-.232-9.768-2.466-13.052-6.27-4.126-4.78-8.18-13.117-7.334-27.163l-4.18399999-.053s-2.085 9.565.062 20.061c2.248 10.989 11.44699999 22.636 27.13999999 25.67 7.984 4.118 37.348-7.928 37.348-7.928s-12.113-5.938-24.49-4.743"/><path d="m14.574403 27.6286814c-.159.245-.318.46-.476.647-.937 1.11-2.594 1.253-3.724.343-.59799999-.482-.96099999-1.196-.99699999-1.963l-.037-.777c.043-.134.073-.274.073-.422v-5.002c0-.76-.622-1.382-1.382-1.382-.761 0-1.382.622-1.382 1.382v5.002l.017.17c-.15.056-.3.111-.449.167l-.359-3.593c-.081-.82-.767-1.419-1.522-1.331-.756.089-1.308.833-1.226 1.654l.425 4.262c-.155.061-.305.12-.451.18l-.339-2.012c-.126-.749-.843-1.259-1.593-1.133-.75.127-1.26.844-1.133 1.593l.822 4.87c.023.136.071.261.13.379.081.45.571 2.689 2.474 4.145 1.628 1.245 4.654 1.807 7.14199999.828l.24-.12.057-.009c2.335-.597 4.442-2.233 6.054-6.355 1.61-4.116-.805-3.938-2.364-1.523"/><path d="m114.430403 101.184681c-.204-.715-1.931868-10.8824349-2.67-12.7039996-4.721886-11.6526853-9.936-25.071-23.376-26.136l1.318 8.759c7.3235655 0 15.063222 15.099 18.369 30.0809996z"/></g></g></svg>