<svg height="2956" viewBox="0 0 3404 2956" width="3404" xmlns="http://www.w3.org/2000/svg"><g fill="none" transform="translate(.596598 .319506)"><g transform="matrix(-1 0 0 1 3403.403404 714.680494)"><path d="m2212.99083 1356.28135c-27.34356 25.14201-24.21859 69.48435 6.77077 90.0598 146.35311 97.06533 314.32065 131.00316 459.6321 113.74884 225.77962-26.7507 404.68458-132.35237 404.68458-132.35237l-23.69775-68.42055c-340.36212 135.62161-567.96464 64.00966-680.98466-5.57846-54.6871-33.54864-119.00956-40.70984-166.40504 2.54274" fill="#5d7e93"/><path d="m977.707798 1633.74559c0 156.47398 4.16606 285.194 6.24909 488.45396.781137 65.84403 54.158782 118.80045 120.034612 118.80045h1119.36827c66.39658 0 120.29499-53.81559 120.29499-120.15431l25.77749-663.59544s29.68318-202.37476-259.858-202.37476c-362.44722 0-704.32453-7.7586-901.95201 26.42615-197.3671 34.23681-229.914442 209.32624-229.914442 352.44395" fill="#cae5e1"/><path d="m1157.60195 1633.75561c0-143.12149 32.54236-318.21553 229.87921-352.45326 171.04263-29.60326 397.01677-21.27164 689.89799-25.43745-12.49627-.65091-25.51321-.98939-39.31118-.98939-362.39169 0-632.88376-7.75881-830.48095 26.42684-197.33687 34.23773-229.879222 209.33177-229.879222 352.45326 0 156.4781 4.165422 285.20152 6.248133 488.46684.781016 65.84577 54.150489 118.77755 120.016209 118.77755h179.89416c-65.60539 0-119.2352-52.93178-120.01621-118.77755-2.08272-203.26532-6.24814-331.98874-6.24814-488.46684z" fill="#daf2f0"/><path d="m1186.4787 1199.07012h920.4829c196.39053 0 263.33-97.89051 263.33-374.652046 0-276.709419-157.58125-648.260861-650.64128-648.260861-493.06002 0-678.25056 296.902432-718.62261 570.849968-40.372062 273.947539-8.33488 452.062939 185.45099 452.062939" fill="#daf2f0"/><path d="m1160.04067 762.119371c39.12784-264.802055 238.94069-487.159699 717.60466-487.159699 89.99404 0 167.46718 4.038602 233.72366 11.516531-97.03705-67.405581-225.89809-110.31899-393.62611-110.31899-493.7934 0-679.25939 296.902432-719.691488 570.849968-40.432106 273.947539-8.347273 452.062939 185.726838 452.062939h156.25052c-188.07451 0-219.37678-172.1487-179.98808-436.950749" fill="#cae5e1"/><path d="m2290.31551 825.885228c0-89.595487-16.66401-189.189424-55.72028-282.846783-30.98465-74.311397-103.88969-122.663278-184.34561-122.663278h-445.50187c-248.65827 0-435.60761 263.500823-374.41946 475.264874 60.92779 211.764049 317.3973 180.727189 533.2483 180.727189h363.74408c82.53891 0 151.7987-62.8288 158.82883-145.029598 2.86414-31.791947 4.16601-66.864636 4.16601-105.452404" fill="#eff"/><path d="m2234.67216 543.223264c-22.88139-54.662571-68.12411-95.190963-122.7274-112.839164 38.74233 21.344432 70.20422 55.287286 87.88529 97.793942 39.00235 93.629175 55.64336 193.167114 55.64336 282.76167 0 38.550128-1.30008 73.586233-4.16026 105.420673-7.02042 82.150034-76.18459 144.933905-158.60955 144.933905h-363.24189c-131.30792 0-277.69674 11.4531-385.86326-27.46144 109.98663 56.71892 274.57655 42.55872 420.70535 42.55872h363.24189c82.42498 0 151.58914-62.8099 158.60957-144.985963 2.86016-31.782381 4.16025-66.844516 4.16025-105.420673 0-89.568527-16.64101-189.132494-55.64335-282.76167" fill="#94c4bf"/><path d="m2161.35405 729.137618c0 27.915908-22.5543 50.558228-50.35378 50.558228-28.06175 0-50.61605-22.64232-50.61605-50.558228 0-27.88967 22.5543-50.53199 50.61605-50.53199 27.79948 0 50.35378 22.64232 50.35378 50.53199" fill="#6e868e"/><path d="m1871.44069 729.137618c0 27.915908-22.5543 50.558228-50.35378 50.558228-28.06174 0-50.61604-22.64232-50.61604-50.558228s22.5543-50.53199 50.61604-50.53199c27.79948 0 50.35378 22.616082 50.35378 50.53199" fill="#6e868e"/><path d="m952.850552 44.2739253c-6.249668-27.9225454-32.81076-47.23151886-61.97588-43.90059081-30.987938 3.56513392-53.382585 31.64381651-49.736944 62.74115261 3.645639 31.0713131 31.769148 53.3729169 62.757087 49.8338069 21.613438-2.472174 38.800025-16.6806637 46.351708-35.4952026 30.206732 5.3346894 73.433607 15.8479311 119.524907 36.4840706 115.35847 51.603362 193.73972 138.858063 233.32096 259.396022l31.50875-10.331081c-53.38259-162.17456-166.65783-241.648421-252.33037-279.7719333-50.51815-22.4577414-97.130264-33.5174635-129.420218-38.9562444z" fill="#cae5e1"/><path d="m1805.82774 1572.40331c-15.63718 0-28.35896-12.56372-28.35896-28.07286v-288.20941h56.98297v288.20941c0 15.50914-12.72178 28.07286-28.62401 28.07286" fill="#94c4bf"/><g fill="#5d7e93" transform="translate(0 1113.994193)"><path d="m2973.34929 90.0935152c-14.29173-.4426751-26.24479 10.3639898-27.28419 24.5298518 0 0-9.61444 90.151086 32.48118 166.422755 23.38645 39.372749 75.87604 69.423108 108.35722 73.719732 72.498 9.608826 112.51482-9.218217 162.92561-34.529266 40.53652-20.441543 84.19123-51.403305 84.19123-51.403305 12.21292-7.39541 15.59097-23.384079 7.79548-35.180277-6.49623-9.712988-18.96901-13.619014-29.88269-9.348423l-80.81318 31.821089 54.30854-46.429627c11.95308-10.103587 11.69323-28.513997-.25985-38.357182l-4.67729-3.749786c-8.57503-7.082921-21.0478-7.447487-30.14253-.96348l-75.0965 53.460481 48.07215-62.183946c8.57503-11.119154 6.23639-27.133856-5.19699-35.414637l-2.07879-1.562404c-10.39399-7.655812-24.94556-5.989245-33.52058 3.827906l-58.46613 67.860693c-15.33112 17.655237-39.23727 25.180853-61.58433 19.504087-16.37051-4.114342-31.96148-19.035368-38.45772-29.217075-16.63036-26.04017-25.2054-69.709543-25.2054-69.709543-1.81895-12.889894-12.47277-22.680992-25.46524-23.0976438"/><path d="m1144.34157 302.924798c22.90587 29.371763 12.75441 72.713995-21.34412 87.985233-160.34116 72.037591-331.354375 78.047224-471.913182 37.176499-218.386739-63.530438-377.166132-197.277372-377.166132-197.277372l38.523524-44.643012c313.394082 189.966948 545.576408 137.259058 668.435217 87.022654 59.347043-24.246669 124.160273-20.760558 163.464693 29.735998"/><path d="m393.087973 6.95749971c14.091121 1.57126229 24.528988 14.06283049 23.746148 28.30898459 0 0-3.13136 91.1596467-55.84259 161.0548147-29.226029 35.798689-85.329567 58.267802-118.208848 57.901164-73.586966-.811814-110.641395-25.297386-157.0899047-57.691667-37.5763226-26.161588-76.45737864-63.217289-76.45737864-63.217289-11.22070744-9.08715-12.26449418-25.533077-2.87041354-36.1391224 7.82840058-8.7729095 20.87573478-10.8417459 31.05265548-5.0542407l75.9354854 43.2360161-47.4922968-53.9991918c-10.4378673-11.7583138-7.5674538-30.0373772 5.7408271-38.1032156l5.2189337-3.0901578c9.6550273-5.7874951 21.9195215-4.4257298 30.008868 3.3520315l67.063299 63.9767367-38.881056-68.795287c-6.784615-12.2820613-2.34852-27.8899807 10.17692-34.51548367l2.34852-1.25701183c11.481655-6.10175557 25.572776-2.38308681 32.618336 8.6157792l48.536083 75.918354c12.786388 19.7717753 35.227803 30.6920713 58.713005 28.2304243 16.700588-1.754576 34.444962-14.350897 42.273362-23.5951875 20.092895-23.5689944 34.966857-65.7836892 34.966857-65.7836892 3.392306-12.5963217 15.6568-20.79309703 28.443188-19.35276159"/></g></g><g transform="matrix(.9998477 -.01745241 .01745241 .9998477 .000001 1516.824111)"><path d="m0 0h480.000003v480.000003h-480.000003z" fill="#fff"/><g fill="#00b5ad" transform="translate(36.333615 38.451973)"><path d="m279.995326.00000213h122.497955v122.49795487h-122.497955z"/><path d="m139.997664.00000173h122.497954v122.49795327h-122.497954z"/><path d="m.00000169 0h122.49795431v122.497954h-122.49795431z"/><path d="m139.997664 139.997664h122.497954v122.497954h-122.497954z"/><path d="m.00000173 139.997664h122.49795327v122.497954h-122.49795327z"/><path d="m279.995325 279.995327h122.497955v122.497955h-122.497955z"/><path d="m139.997664 279.995326h122.497953v122.497955h-122.497953z"/><path d="m0 279.995325h122.497954v122.497955h-122.497954z"/><path d="m279.995326 139.997665h122.497955v122.497954h-122.497955z"/></g></g><g transform="matrix(.80901699 -.58778525 .58778525 .80901699 488.788897 569.409305)"><path d="m0 0 476 .00000001v479.99999999h-475.99999999z" fill="#fff"/><g fill="#00b5ad" transform="translate(38.000076 38.991274)"><path d="m277.565218.00000213h121.434782v122.34782587h-121.434782z"/><path d="m138.782609.00000173h121.434783v122.34782527h-121.434783z"/><path d="m.00000168 0h121.43478232v122.347826h-121.43478232z"/><path d="m138.782609 139.826087h121.434783v122.347826h-121.434783z"/><path d="m.00000171 139.826088h121.43478129v122.347824h-121.43478128z"/><path d="m277.565217 279.652174h121.434782v122.347826h-121.434782z"/><path d="m138.782609 279.652174h121.434782v122.347824h-121.434782z"/><path d="m0 279.652172h121.434782v122.347826h-121.434782z"/><path d="m277.565218 139.826089h121.434782v122.347824h-121.434782z"/></g></g><g transform="matrix(.92718385 .37460659 -.37460659 .92718385 1999.639227 0)"><path d="m0 0 476 .00000001v479.99999999h-475.99999999z" fill="#fff"/><g fill="#00b5ad" transform="translate(38.000076 38.991274)"><path d="m277.565218.00000213h121.434782v122.34782587h-121.434782z"/><path d="m138.782609.00000173h121.434783v122.34782527h-121.434783z"/><path d="m.00000168 0h121.43478232v122.347826h-121.43478232z"/><path d="m138.782609 139.826087h121.434783v122.347826h-121.434783z"/><path d="m.00000171 139.826088h121.43478129v122.347824h-121.43478128z"/><path d="m277.565217 279.652174h121.434782v122.347826h-121.434782z"/><path d="m138.782609 279.652174h121.434782v122.347824h-121.434782z"/><path d="m0 279.652172h121.434782v122.347826h-121.434782z"/><path d="m277.565218 139.826089h121.434782v122.347824h-121.434782z"/></g></g><g transform="matrix(.9781476 -.20791169 .20791169 .9781476 2715.519495 993.932821)"><path d="m0 0h482.000003v480.000003h-482.000003z" fill="#fff"/><g fill="#00b5ad" transform="translate(38.493033 38.486878)"><path d="m281.161973.00000213h123.008364v122.49795487h-123.008364z"/><path d="m140.580988.00000174 123.008362-.00000001v122.49795327h-123.008362z"/><path d="m.0000017 0h123.0083623v122.497954h-123.0083623z"/><path d="m140.580988 139.997664h123.008362v122.497954h-123.008362z"/><path d="m.00000174 139.997664h123.00836126v122.497954h-123.00836126z"/><path d="m281.161972 279.995327h123.008364v122.497955h-123.008364z"/><path d="m140.580987 279.995326h123.008362v122.497955h-123.008362z"/><path d="m0 279.995325h123.008363v122.497955h-123.008363z"/><path d="m281.161974 139.997665h123.008362v122.497954h-123.008362z"/></g></g><path d="m339.085214 1945.29805s-9.61444 90.15109 32.48118 166.42276c23.38645 39.37275 106.27843-63.25158 83.93137-68.92835-16.37051-4.11434-31.96148-19.03536-38.45772-29.21707-16.63036-26.04017-25.2054-69.70954-25.2054-69.70954-1.81895-12.8899-12.47277-22.681-25.46524-23.09765-14.29173-.44267-26.24479 10.36399-27.28419 24.52985z" fill="#5d7e93" transform="matrix(-1 0 0 1 797.423518 0)"/></g></svg>