<svg height="144" viewBox="0 0 336 144" width="336" xmlns="http://www.w3.org/2000/svg"><g fill="none" fill-rule="evenodd"><path d="m167.72 143.784c-92.63 0-167.72-2.19-167.72-4.892 0-2.701 75.09-4.892 167.72-4.892s167.72 2.191 167.72 4.892c0 2.702-75.09 4.892-167.72 4.892z" fill="#c9c9c9"/><path d="m78 93.522c0-14.906 8.059-27.522 27.152-27.522h46.409c18.13 0 23.23 14.141 23.23 27.522v44.767h-96.791z" fill="#cae5e1"/><path d="m105.152 66c-19.093 0-27.152 12.616-27.152 27.522v8.103c0-14.906 8.059-27.522 27.152-27.522h46.409c18.13 0 23.23 14.142 23.23 27.522v-8.103c0-13.381-5.1-27.522-23.23-27.522z" fill="#daf2f0"/><path d="m225.58 136.965806c11.62 0 36.88-3.481 37.41-38.0650001.53-34.584-25.84-39.648-39.79-41.638-13.96-1.988-28.37-1.034-28.37-1.034l-2.83 80.7370001z" fill="#cae5e1"/><path d="m194.83 56.2288059-2.83 80.7370001 2.36-66.4370001s14.41-.954 28.36 1.034c13.1 1.867 37.15 6.448 39.6 35.6310001.39-2.545.62-5.3.67-8.2930001.53-34.584-25.84-39.649-39.79-41.638-13.96-1.988-28.37-1.034-28.37-1.034z" fill="#daf2f0"/><path d="m251.931609 99.121c0-29.326-25.45-31.121-33.69-31.121s-11.29 1.596-12.33 9.585-2.61 32.118-1.57 40.808c1.05 8.691 9.13 7.997 9.13 7.997 8.61 0 38.46 2.058 38.46-27.269z" fill="#e4f4f2"/><path d="m250.05 98.604c0 29.327-29.85 27.269-38.46 27.269 0 0-1.67.133-3.59-.525 2.58 1.772 5.59 1.525 5.59 1.525 8.61 0 38.46 2.058 38.46-27.269 0-16.029-7.6-23.823-15.85-27.604 7.44 4.1 13.85 11.881 13.85 26.604z" fill="#94c4bf"/><path d="m162.875168 3.15455508c.7.324 1 1.153.68 1.85-.32.698-1.15 1.001-1.85.676-.7-.324-1-1.153-.68-1.85.33-.698 1.16-1 1.85-.676zm3.14 2.998c1.09-2.133.19-4.747-1.98-5.758-2.17-1.01-4.75-.011-5.68 2.199l-11.83 27.78100002c-4.67-.646-9.4 1.775-11.5 6.271-1.32 2.841-1.32 5.954-.26 8.657l2.03.943 3.19-6.865 6.36-.722 3.38 5.251-3.19 6.866 2.03.943c2.75-.933 5.13-2.942 6.45-5.782 2.09-4.496.88-9.679-2.62-12.833z" fill="#64847e"/><g fill="#5d7e93"><path d="m307.03 135.12c-1.11 0-2.02-.902-2.02-2.013 0-1.112.91-2.014 2.02-2.014s2.01.902 2.01 2.014c0 1.111-.9 2.013-2.01 2.013zm-23.93-7.12c-2.82 0-5.1 2.286-5.1 5.107 0 2.82 2.28 5.107 5.1 5.107h25.49c2.4 0 4.35-1.946 4.35-4.347 0-3.24-2.63-5.867-5.87-5.867z"/><path d="m287.07 118.406298c2.69 9.139 0 15.052-3.23 17.74-3.22 2.688-6.29.943-6.29.943l-2.55-24.501s9.38-3.321 12.07 5.818z"/><path d="m139.120153 111.920114c-1.11.007-2.02-.888-2.02-2-.01-1.112.89-2.018 2-2.025s2.02.889 2.02 2.001c.01 1.111-.88 2.019-2 2.024zm-.8-7.92c-2.4.014-4.34 1.971-4.32 4.372l.18 30.595 5.11-.03c2.82-.017 5.09-2.317 5.07-5.138l-.14-23.967c-.02-3.241-2.66-5.852-5.9-5.832z"/><path d="m152.534292 128.476985c-9.38-1.644-14.48 1.214-16.79 4.721s-1.66 6.355-1.66 6.355l25.59.262s2.24-9.694-7.14-11.338z"/><path d="m180.02 51.002c2.96 14.499-11.16 22.08-11.16 22.08l3.62 9.173s21.55-8.779 14.93-34.266c-4.35-16.756-25.29-22.989-25.29-22.989l-2.12 4.053s17.06 7.45 20.02 21.949z"/></g><g fill="#64847e"><path d="m230.0325 87.862-5.65-5.646c-.51-.505-.51-1.332 0-1.838.5-.504 1.33-.504 1.84 0l5.64 5.646c.51.506.51 1.333 0 1.838-.5.506-1.33.506-1.83 0z"/><path d="m224.3825 86.024 5.65-5.646c.5-.504 1.33-.504 1.83 0 .51.506.51 1.333 0 1.838l-5.64 5.646c-.51.506-1.34.506-1.84 0-.51-.505-.51-1.332 0-1.838z"/><path d="m230.0325 117.86175-5.65-5.645c-.51-.506-.51-1.332 0-1.838.5-.505 1.33-.505 1.84 0l5.64 5.645c.51.506.51 1.332 0 1.838-.5.505-1.33.505-1.83 0z"/><path d="m224.3825 116.02375 5.65-5.645c.5-.505 1.33-.505 1.83 0 .51.506.51 1.332 0 1.838l-5.64 5.645c-.51.505-1.34.505-1.84 0-.51-.506-.51-1.332 0-1.838z"/></g><g fill="#5d7e93"><path d="m98.031 122.778c0-3.766 3.051-6.818 6.817-6.818s6.818 3.052 6.818 6.818c0 3.765-3.052 6.817-6.818 6.817s-6.817-3.052-6.817-6.817zm19.883-3.526c-.34-1.266-.86-2.459-1.53-3.549l.16-.155c.86-.865.86-2.267 0-3.132l-1.67-1.667c-.86-.866-2.27-.866-3.132 0l-.241.242c-1.072-.607-2.233-1.07-3.461-1.367v-.409c0-1.223-.992-2.215-2.216-2.215h-2.356c-1.224 0-2.216.992-2.216 2.215v.513c-1.177.323-2.289.801-3.313 1.41l-.39-.389c-.865-.866-2.267-.866-3.133 0l-1.667 1.667c-.865.865-.865 2.267 0 3.132l.408.409c-.596 1.021-1.064 2.126-1.378 3.295h-.563c-1.224 0-2.216.992-2.216 2.215v2.357c0 1.223.992 2.216 2.216 2.216h.494c.298 1.202.756 2.34 1.351 3.39l-.312.313c-.865.864-.865 2.267 0 3.133l1.667 1.667c.866.864 2.268.864 3.133 0l.225-.225c1.069.657 2.238 1.168 3.478 1.509v.249c0 1.223.992 2.216 2.216 2.216h2.356c1.224 0 2.216-.993 2.216-2.216v-.145c1.292-.312 2.511-.809 3.628-1.464l.074.076c.862.864 2.272.864 3.132 0l1.67-1.667c.86-.866.86-2.269 0-3.133.61-1.178 1.12-2.404 1.44-3.703 1.32 0 2.31-.993 2.31-2.216v-2.357c0-1.223-.99-2.215-2.22-2.215z"/><path d="m52 137.538h17.682v-6.538h-17.682z"/><path d="m57 132.336h6.003v-18.336h-6.003z"/></g><g fill="#618c91"><path d="m57 117.592v-1.592l6.003 1.907v1.592z"/><path d="m57 120.592v-1.592l6.003 1.906v1.593z"/><path d="m57 124.592v-1.592l6.003 1.906v1.592z"/></g><g fill="#5d7e93"><path d="m100.016093 95.527c-.0989995-.781.452-1.495 1.232-1.597.537-.073 5.246-.873 5.219-6.236-.01-2.118-2.046-4.394-4.404-7.029-4.1549995-4.643-9.3249995-10.422-7.7849995-19.75 1.297-7.85 7.8269995-13.915 14.9299995-13.915l.234.002c6.714.126 11.414 5.607 12.564 14.662.1.783-.46 1.5-1.24 1.599-.78.101-1.5-.456-1.6-1.239-.97-7.631-4.53-12.064-9.778-12.163l-.157-.001c-4.95 0-10.9489995 4.361-12.1309995 11.521-1.317 7.977 3.1519995 12.971 7.0939995 17.377 2.746 3.069 5.118 5.72 5.134 8.923.03 6.412-5.032 8.747-7.714 9.086l-.181.011c-.711 0-1.326-.528-1.417-1.251z"/><path d="m123.252767 61.5555706c-.78-.092-1.34-.802-1.25-1.586.01-.131 1.44-13.187-5.17-16.973-10.828-6.2-16.9400003 3.145-17.1950003 3.546-.422.666-1.304.866-1.971.444-.666-.421-.867-1.3-.448-1.968.076-.122 7.7970003-12.084 21.0340003-4.504 8.25 4.724 6.66 19.173 6.59 19.786-.08.727-.7 1.264-1.42 1.264z"/><path d="m78.8503925 57.5313925c-1.646 1.978-4.585 2.246-6.563.6s-2.247-4.584-.6-6.563c1.647-1.977 4.585-2.246 6.563-.599 1.978 1.646 2.246 4.585.6 6.562zm-11.72 14.077c-1.646 1.978-4.584 2.246-6.562.599-1.978-1.646-2.246-4.584-.6-6.562 1.647-1.978 4.585-2.246 6.563-.6 1.977 1.647 2.246 4.585.599 6.563zm-3.127-14.52c-3.461-.134-6.943 1.281-9.33 4.148-4.081 4.903-3.415 12.185 1.487 16.267 4.902 4.081 12.185 3.415 16.266-1.487 1.362-1.637 2.194-3.54 2.517-5.5l8.298 6.908c1.418 1.181 3.525.988 4.706-.43 1.18-1.419.987-3.525-.431-4.706l-8.28-6.893c1.852-.675 3.556-1.831 4.909-3.455 4.081-4.903 3.415-12.185-1.486-16.267-4.903-4.081-12.186-3.415-16.267 1.487-2.387 2.867-3.147 6.549-2.389 9.928z"/><path d="m148.735245 15.8016613c-.37 1.13.17 2.359 1.25 2.85l5.38 2.721c.99.499 1.43 1.669 1.02 2.696-.43 1.094-1.67 1.628-2.77 1.195l-5.55-2.199c-1.13-.377-2.36.154-2.85 1.232-.54 1.174-.03 2.562 1.15 3.094 1.94.879 4.91 2.205 7.55 3.332 4.4 1.876 7.93.003 9.46-3.747 1.53-3.751.57-8.221-4.29-10.291-2.82-1.204-5.6-2.077-7.44-2.597-1.2-.338-2.45.33-2.84 1.512z"/><path d="m104 66.016h43.948v-6.016h-43.948z"/></g><path d="m282.93 73.8444728c1.33-1.093 3.3-1.024 4.56.214 1.34 1.324 1.35 3.484.03 4.825-1.33 1.34-3.49 1.353-4.83.029-.93-.915-1.22-2.231-.87-3.399-1.64-.878-4.07-1.982-7.02-2.718-7.38-1.835-14.34-.616-20.7 3.622l-1.1-1.656c8.55-5.702 16.88-5.257 22.35-3.879 3.23.813 5.84 2.017 7.58 2.962z" fill="#cae5e1"/></g></svg>