<svg height="209" viewBox="0 0 159 209" width="159" xmlns="http://www.w3.org/2000/svg"><g fill="none" fill-rule="evenodd"><path d="m158.929 202.19c0 3.418-35.388 6.188-79.039 6.188-43.652 0-79.039-2.77-79.039-6.188 0-3.417 35.387-6.187 79.039-6.187 43.651 0 79.039 2.77 79.039 6.187" fill="#c9c9c9"/><path d="m46.876 200.5h23.626s-.253-8.686-9.075-9.941c-3.211-.457-5.935-.47-8.108-.306l2.964-32.062-10.48-3.503 2.179 36.494c-.375.116-.573.194-.573.194z" fill="#728589"/><path d="m101.362 200.5h23.625s-.253-8.686-9.076-9.941c-3.211-.457-5.933-.47-8.108-.306l2.965-32.062-10.481-3.503 2.179 36.494c-.374.116-.572.194-.572.194z" fill="#728589"/><path d="m30.734 110.149c0 10.383.273 26.671.417 40.159.047 4.371 3.602 7.883 7.971 7.883h75.999c4.403 0 7.972-3.569 7.972-7.972v-51.785s1.978-15.146-17.251-15.146c-24.055 0-46.739 1.201-59.845 3.471s-15.263 13.891-15.263 23.39" fill="#cae5e1"/><path d="m43.094 150.308c-.144-13.488-.417-29.776-.417-40.159 0-9.499 2.157-21.12 15.264-23.39 11.351-1.966 26.348-3.128 45.788-3.405-.837-.041-1.706-.066-2.616-.066-24.055 0-42.01 1.201-55.116 3.471s-15.263 13.891-15.263 23.39c0 10.383.273 26.671.417 40.159.047 4.371 3.602 7.883 7.971 7.883h11.945c-4.37 0-7.926-3.512-7.973-7.883" fill="#daf2f0"/><path d="m44.564 80.252h61.051c13.029 0 17.478-6.492 17.478-24.844 0-18.351-10.447-42.99-43.163-42.99-32.717 0-45 19.69-47.678 37.857s-.547 29.977 12.312 29.977" fill="#cae5e1"/><path d="m42.981 51.277c2.594-17.56 15.841-32.306 47.537-32.306 5.97 0 11.089.267 15.491.763-6.436-4.471-14.971-7.316-26.079-7.316-32.717 0-45 19.69-47.678 37.857s-.547 29.977 12.312 29.977h10.344c-12.457 0-14.521-11.416-11.927-28.975" fill="#daf2f0"/><path d="m117.924 55.408c0-5.947-1.098-12.555-3.695-18.77-2.062-4.932-6.889-8.141-12.234-8.141h-29.564c-16.493 0-28.907 17.487-24.852 31.539 4.056 14.053 21.066 11.993 35.397 11.993h24.134c5.473 0 10.066-4.169 10.543-9.622.184-2.112.271-4.439.271-6.999" fill="#e4f4f2"/><path d="m114.229 36.638c-1.517-3.628-4.532-6.318-8.149-7.49 2.569 1.416 4.656 3.669 5.834 6.49 2.598 6.215 3.696 12.823 3.696 18.77 0 2.559-.087 4.887-.272 6.999-.476 5.453-5.069 9.622-10.543 9.622h-24.134c-8.734 0-18.458.758-25.643-1.826 7.307 3.766 18.245 2.826 27.958 2.826h24.134c5.473 0 10.066-4.169 10.543-9.622.184-2.112.271-4.44.271-6.999 0-5.947-1.098-12.555-3.695-18.77" fill="#aecec8"/><path d="m77.102 49.304c0 3.02-2.447 5.468-5.468 5.468-3.019 0-5.467-2.448-5.467-5.468s2.448-5.467 5.467-5.467c3.021 0 5.468 2.447 5.468 5.467" fill="#6e868e"/><path d="m110.922 49.304c0 1.838-1.49 3.329-3.329 3.329-1.838 0-3.329-1.491-3.329-3.329s1.491-3.329 3.329-3.329c1.839 0 3.329 1.491 3.329 3.329" fill="#6e868e"/><g fill="#728589"><path d="m26.13 149.718c-.828-6.246-4.471-9.005-7.868-9.472l-.083-.003c-.126-.039-.227-.096-.357-.131-3.677-.983-7.865.301-9.965 2.324-2.742 2.642-2.836 6.385-2.836 6.385-.088.381-.114.788-.06 1.202l.626 4.864c.211 1.63 1.544 2.768 2.964 2.526.708-.12 1.309-.562 1.707-1.175l.022.542c.064 1.648 1.291 2.935 2.724 2.859.596-.03 1.136-.293 1.561-.707l-.003.035c-.16 1.533.8 2.936 2.134 3.121l.332.046c1.334.182 2.556-.92 2.716-2.453l.294-2.821v-8.196s2.255.634 2.631 4.621c.377 3.986 4.288 2.677 3.461-3.567"/><path d="m41.152 96.159c-.733-2.387-3.513-3.486-5.658-2.207-10.119 6.036-17.025 15.201-20.179 24.488-4.902 14.437-3.661 28.315-3.661 28.315l5.916.67c1.605-24.517 12.093-35.584 19.584-40.408 3.612-2.326 5.258-6.75 3.998-10.858"/><path d="m75.648 93.785-7.702-4.071c-1.191-.629-1.65-2.118-1.021-3.308s2.117-1.649 3.308-1.02l7.702 4.071c1.19.629 1.649 2.118 1.02 3.308s-2.117 1.649-3.307 1.02"/></g><path d="m71.895 69.021c-9.741-.62-17.136-9.019-16.517-18.761s9.019-17.137 18.761-16.517c9.741.62 17.137 9.019 16.517 18.761-.62 9.741-9.019 17.136-18.761 16.517zm2.507-39.41c-12.024-.765-22.391 8.363-23.156 20.386-.764 12.024 8.363 22.39 20.386 23.155 12.024.765 22.391-8.362 23.155-20.386.765-12.023-8.362-22.39-20.385-23.155z" fill="#2d769e"/><path d="m68.579 121.163c-1.319-.084-2.321-1.222-2.237-2.541l2.973-46.742 4.778.303-2.973 46.743c-.083 1.319-1.221 2.321-2.541 2.237" fill="#2d769e"/><path d="m77.935 89.457c-1.846-.976-3.273.949-3.997 2.284-.168-.168-.355-.322-.575-.439l-7.703-4.071c-1.19-.629-2.678-.17-3.307 1.02-.543 1.026-.274 2.271.574 2.999-.929-.053-1.852.421-2.312 1.293-.629 1.19-.17 2.679 1.02 3.308l.829.438c-1.19-.629-2.679-.17-3.308 1.02-.629 1.191-.169 2.679 1.02 3.308l7.703 4.072s7.23 3.865 11.096-3.45c3.867-7.316 1.678-10.346-1.04-11.782" fill="#728589"/><path d="m105.422 83.468c11.668 1.019 15.7 6.183 17.055 10.163 3.091.762 6.275 2.515 7.38 6.412 1.444 5.102-.189 12.606-16.178 11.346-15.989-1.259-35.189-14.787-35.189-14.787l-1.85 5.476s9.993 8.081 25.061 14.107c13.681 5.472 37.164 4.61 37.164-14.184s-28.374-18.533-33.443-18.533" fill="#728589"/><path d="m37.763 6.168c-3.353-1.492-6.439-2.226-8.587-2.587-.413-1.855-2.169-3.136-4.099-2.915-2.063.237-3.545 2.101-3.308 4.165s2.102 3.545 4.166 3.308c1.427-.163 2.575-1.106 3.069-2.355 2.018.353 4.881 1.051 7.942 2.423 7.643 3.424 12.853 9.219 15.484 17.222l2.085-.685c-3.539-10.768-11.063-16.045-16.752-18.576" fill="#cae5e1"/></g></svg>