<svg height="95" viewBox="0 0 176 95" width="176" xmlns="http://www.w3.org/2000/svg"><g fill="none" fill-rule="evenodd"><path d="m175.547 63.086c0 12.197-39.297 22.085-87.773 22.085s-87.774-9.888-87.774-22.085 39.298-22.086 87.774-22.086 87.773 9.889 87.773 22.086" fill="#cae5e1"/><path d="m141.988 50.545c0 4.72-26.637 8.545-59.495 8.545-32.857 0-59.493-3.825-59.493-8.545 0-4.719 26.636-8.545 59.493-8.545 32.858 0 59.495 3.826 59.495 8.545" fill="#85b5af"/><path d="m39.439069 16.5730993c.325.176.714.111.969-.13 1.53.626 5.061 2.627 5.377 7.547.345-.086.691-.158 1.039-.213-.588-5.021-4.528-7.218-6.153-7.917.007-.305-.149-.604-.436-.759-.406-.22-.914-.069-1.134.337-.22.407-.069.915.338 1.135" fill="#afcec9"/><path d="m60.469 62.902-5.485-15.842 4.716-.147 2.14-5.629-8.583-8.296-2.263-7.988h-.848l-1.743 4.98h-5.14l-1.842-4.431-.979.013-6.442 34.432s11.752 3.866 26.469 2.908" fill="#cae5e1"/><path d="m4.1320286 28.0494693c-2.57841318-2.6021899-4.1320286-6.1422148-4.1320286-10.4574693 0-9.716 7.876-17.592 17.592-17.592s17.592 7.876 17.592 17.592-7.876 15.502-17.592 15.502c-4.5298234 0-8.65969704-1.2576678-11.77793228-3.5849163l-1.85906772 9.9359163s8.817 2.899 20.74 3.053c-12.901.167-22.695-3.053-22.695-3.053z" fill="#accece" fill-opacity=".25" transform="translate(32 21)"/><path d="m120.161654 39.003c1.08.051 1.914.326 2.7.65.779.33 1.483.744 2.144 1.215 1.315.943 2.454 2.145 3.275 3.609.824 1.453 1.267 3.191 1.19 4.884-.031.846-.192 1.669-.429 2.445-.111.397-.26.753-.415 1.14-.171.405-.388.803-.645 1.182-.511.759-1.208 1.432-2.006 1.906-.796.478-1.671.761-2.525.888-1.72.248-3.351-.063-4.82-.649-1.465-.602-2.807-1.5-3.873-2.749-.528-.624-.983-1.341-1.299-2.141-.316-.797-.482-1.681-.456-2.555.024-.806.697-1.439 1.502-1.415.784.024 1.404.659 1.416 1.434v.018c.014.935.441 1.848 1.159 2.619.712.77 1.688 1.376 2.721 1.744 1.033.367 2.148.496 3.088.307.948-.189 1.64-.658 2.078-1.383.111-.182.209-.381.289-.599.079-.241.184-.509.239-.763.132-.513.209-1.024.204-1.522-.005-.996-.289-1.946-.825-2.809-.529-.863-1.31-1.63-2.203-2.211-.444-.289-.918-.538-1.383-.71-.233-.086-.461-.154-.673-.2-.208-.042-.402-.063-.531-.06-1.18.026-2.159-.911-2.185-2.092-.025-1.182.911-2.16 2.092-2.186l.141.002z" fill="#6d8c8c"/><path d="m80.3956087 43.2784469c-.129-.003-.323.018-.531.06-.212.046-.44.114-.673.2-.465.172-.939.421-1.383.71-.893.581-1.674 1.348-2.203 2.211-.536.863-.82 1.813-.825 2.809-.005.498.072 1.009.204 1.522.055.254.16.522.239.763.08.218.178.417.289.599.438.725 1.13 1.194 2.078 1.383.939.189 2.055.06 3.087-.307 1.034-.368 2.01-.974 2.722-1.744.718-.771 1.145-1.684 1.159-2.619v-.015c.012-.805.674-1.45 1.481-1.437.782.011 1.412.64 1.437 1.415.026.874-.14 1.758-.456 2.555-.316.8-.771 1.517-1.3 2.141-1.065 1.249-2.407 2.147-3.872 2.749-1.469.586-3.1.897-4.82.649-.854-.127-1.729-.41-2.525-.888-.798-.474-1.495-1.147-2.006-1.906-.257-.379-.474-.777-.645-1.182-.155-.387-.304-.743-.415-1.14-.237-.776-.398-1.599-.429-2.445-.077-1.693.366-3.431 1.19-4.884.821-1.464 1.96-2.666 3.274-3.609.662-.471 1.366-.885 2.145-1.215.786-.324 1.62-.599 2.7-.65l.024-.001c1.18-.056 2.181.856 2.237 2.037.056 1.18-.856 2.182-2.036 2.237z" fill="#6d8c8c"/><path d="m117.732 68.991h-40.732v-27.119c0-2.691 2.182-4.872 4.872-4.872h35.86c2.55 0 4.618 2.068 4.618 4.618v22.755c0 2.55-2.068 4.618-4.618 4.618" fill="#cae5e1"/><path d="m112.664 41.0057893c-.639.061-1.108.634-1.108 1.275v7.779c0 1.761-1.428 3.19-3.189 3.19h-14.722c-1.761 0-3.188-1.429-3.188-3.19v-7.779c0-.641-.47-1.214-1.109-1.275-.732-.07-1.348.504-1.348 1.223v7.831c0 3.118 2.527 5.646 5.645 5.646h4.864c.726 0 1.313.588 1.313 1.312v10.642h2.914v-10.642c0-.724.588-1.312 1.312-1.312h4.319c3.118 0 5.646-2.528 5.646-5.646v-7.831c0-.719-.616-1.293-1.349-1.223" fill="#85b5af"/><path d="m45.684 35.259c0 .695-.377 1.259-.842 1.259s-.842-.564-.842-1.259.377-1.259.842-1.259.842.564.842 1.259" fill="#639296"/><path d="m51.685 35.259c0 .695-.377 1.259-.842 1.259-.466 0-.843-.564-.843-1.259s.377-1.259.843-1.259c.465 0 .842.564.842 1.259" fill="#639296"/><g fill="#6d8c8c"><path d="m87.3534302 43v2.413l2.532-.25c.442-.043.844.265.915.704.064.395-.157.78-.53.924l-2.232.855.139.269 2.113-.453c.56-.12 1.104.264 1.179.831.066.503-.261.974-.756 1.087l-2.334.53.059.272 1.824-.209c.569-.065 1.067.38 1.067.952 0 .426-.28.801-.689.92-.792.231-2.131.597-3.287.797-1.773.306-3.845-2.15-3.249-5.753.595-3.602 3.249-3.889 3.249-3.889"/><path d="m114.124669 43v2.413l-2.531-.25c-.444-.043-.844.265-.916.704-.065.395.157.78.53.924l2.231.855-.138.269-2.113-.453c-.56-.12-1.104.264-1.179.831-.067.503.261.974.755 1.087l2.334.53-.059.272-1.823-.209c-.569-.065-1.068.38-1.068.952 0 .426.281.801.69.92.792.231 2.131.597 3.287.797 1.773.306 3.845-2.15 3.25-5.753-.596-3.602-3.25-3.889-3.25-3.889"/><path d="m128.638654 47.8206605c-1.083 0-2.131-.132-3.141-.373.129.456.199.926.201 1.408.005.498-.072 1.009-.204 1.522-.055.254-.16.522-.239.763-.08.218-.178.417-.289.599-.438.725-1.13 1.194-2.078 1.383-.94.189-2.055.06-3.088-.307-1.033-.368-2.009-.974-2.721-1.744-.718-.771-1.145-1.684-1.159-2.619v-.018c-.012-.775-.632-1.41-1.416-1.434-.805-.024-1.478.609-1.502 1.415-.026.874.14 1.758.456 2.555.316.8.771 1.517 1.299 2.141 1.066 1.249 2.408 2.147 3.873 2.749 1.469.586 3.1.897 4.82.649.854-.127 1.729-.41 2.525-.888.798-.474 1.495-1.147 2.006-1.906.257-.379.474-.777.645-1.182.155-.387.304-.743.415-1.14.237-.776.398-1.599.429-2.445.018-.384.005-.771-.03-1.156-.268.016-.535.028-.802.028"/></g><path d="m79.73 42.691c0-2.691 2.18-4.872 4.872-4.872h35.752c-.745-.516-1.648-.819-2.622-.819h-35.86c-2.69 0-4.872 2.181-4.872 4.872v27.119h2.73z" fill="#daf2f0"/><path d="m86.0392819 46.713c-.807-.013-1.469.632-1.481 1.437v.015c-.014.935-.441 1.848-1.159 2.619-.712.77-1.688 1.376-2.722 1.744-1.032.367-2.148.496-3.087.307-.948-.189-1.64-.658-2.078-1.383-.111-.182-.209-.381-.289-.599-.079-.241-.184-.509-.239-.763-.132-.513-.209-1.024-.204-1.522.002-.443.063-.875.173-1.296-1.28-.253-2.5-.687-3.651-1.272-.228.868-.334 1.77-.294 2.661.031.846.192 1.669.429 2.445.111.397.26.753.415 1.14.171.405.388.803.645 1.182.511.759 1.208 1.432 2.006 1.906.796.478 1.671.761 2.525.888 1.72.248 3.351-.063 4.82-.649 1.465-.602 2.807-1.5 3.872-2.749.529-.624.984-1.341 1.3-2.141.316-.797.482-1.681.456-2.555-.025-.775-.655-1.404-1.437-1.415" fill="#6d8c8c"/><path d="m58.6447964 41h1.706c.509 0 .817.564.542.993l-.825 1.283c-.249.387-.813.396-1.073.016l-.881-1.283c-.293-.427.014-1.009.531-1.009" fill="#639296"/><g transform="translate(55 40)"><path d="m20 23.0007153c0 .551502-4.0294894.9992847-9.0004484.9992847-4.97006219 0-8.9995516-.4477827-8.9995516-.9992847 0-.5529326 4.02948941-1.0007153 8.9995516-1.0007153 4.970959 0 9.0004484.4477827 9.0004484 1.0007153" fill="#c9c9c9"/><g fill="#d43f0c" transform="translate(5 3)"><path d="m10.8003192 1.66714767c0 .92063491-.7455508 1.66618566-1.6661857 1.66618566-.92063492 0-1.66714767-.74555075-1.66714767-1.66618566 0-.92063492.74651275-1.66714767 1.66714767-1.66714767.9206349 0 1.6661857.74651275 1.6661857 1.66714767"/><path d="m14.7343939 19.1990186c-.4991162.5875122-1.6388456.490833-2.5459771-.2175282-.9071316-.7074317-1.2376143-1.7578887-.7394673-2.3463305.4991162-.5884418 1.6398147-.4917626 2.5459771.2156691.9081007.7083612 1.2385834 1.7597478.7394673 2.3481896"/><path d="m.67011713 19.7144658c-.51566505-.516525-.31636988-1.5522559.44685012-2.3145323.76232633-.7631701 1.79901862-.9624523 2.31378996-.446821.51566504.5147377.31547621 1.5513622-.44685013 2.3136387-.76322.7622765-1.79901862.9624522-2.31378995.4477145"/></g><path d="m18.698004 15.3438427c1.0782376 2.7929726-.8221796 6.0234522-4.244979 7.2140009-3.4237299 1.1914324-7.07279132-.1078301-8.15102893-2.9016863-1.07823762-2.7929726.82217913-6.0225681 4.24497853-7.2140009 3.4227989-1.1914324 7.0718604.1078301 8.1510294 2.9016863" fill="#ffe570"/><path d="m19 9.50047786c0 2.48443974-2.237913 4.49952214-5.0004904 4.49952214-2.7606157 0-4.9995096-2.0150824-4.9995096-4.49952214 0-2.48635157 2.2388939-4.50047786 4.9995096-4.50047786 2.7625774 0 5.0004904 2.01412629 5.0004904 4.50047786" fill="#ffe570"/><path d="m14 9c0 .552571-.4478527 1-1 1s-1-.447429-1-1 .4478527-1 1-1 1 .447429 1 1" fill="#a0843d"/><path d="m8 15.5895204-1.15310569-.3585024.05045431-.0928492c.28896421-.767728-.30822863-1.6652729-1.33565769-2.0065805-1.02742907-.341308-2.0952215.0042984-2.38510318.7711664l-.01742948.0739356c-.14769305-.0962884-.30547663-.1856988-.48069011-.2570556-1.07880043-.4393156-2.23374065-.1908572-2.57958065.5553777-.34675748.7462348.24768379 1.7073988 1.32556675 2.1467144.40088084.164206.81185264.231264 1.18979959.2140696-.4219798.3636604-.64397769.8339257-.53481348 1.2930149.18713895.7943788 1.26869138 1.2457304 2.41721013 1.0075888 1.05953643-.219228 1.79341433-.9482684 1.75488548-1.6841864h.87881896z" fill="#ffe570"/><path d="m16.1512947 9.55672715c-.5492276 1.11911915.3715892 2.08950005 3.1775432 2.38249595 1.922296.2016025 2.8666771-.0833293 2.6373795-1.0805906-.2302044-.99815706-5.0980271-2.76330095-5.8149227-1.30190535" fill="#d43f0c"/><path d="m23.3510084 8.79581534c-.1691156 4.11329266-3.7787964 6.53482836-8.5856169 6.32405986-4.80682065-.2107685-8.19887695-1.0204527-8.36921592-6.73220031-.12750267-4.11574598 4.14782482-7.69729014 8.95464642-7.48584936 4.8068196.21009626 8.169302 3.78069714 8.0001864 7.89398981" fill="#accece" fill-opacity=".3" transform="matrix(.9961947 -.08715574 .08715574 .9961947 -.641753 1.326955)"/></g><path d="m130.501 43c7.552 1.66 12.036 3.728 12.036 5.972 0 5.468-26.637 9.901-59.495 9.901-32.857 0-59.493-4.433-59.493-9.901 0-.712.455-1.406 1.313-2.076-15.383 3.979-24.862 9.41-24.862 15.399 0 12.197 39.298 22.085 87.774 22.085s87.773-9.888 87.773-22.085c0-8.295-18.174-15.519-45.046-19.295" fill="#cae5e1"/><path d="m3.874 68.905c5.492-3.6 11.426-6.441 17.808-8.516 4.325-2.272 8.773-4.094 13.343-5.467-7.213-1.639-11.476-3.66-11.476-5.846 0-.712.455-1.406 1.313-2.076-15.383 3.979-24.862 9.41-24.862 15.399 0 2.264 1.358 4.449 3.874 6.506" fill="#daf2f0"/><path d="m130.089 43c7.552 1.66 12.036 3.728 12.036 5.972 0 4.703-19.705 8.641-46.125 9.65 4.683 1.852 9.265 4.075 13.745 6.673l20.12 15.544c.225.228.448.458.672.687 26.626-3.792 44.598-10.983 44.598-19.231 0-8.295-18.174-15.519-45.046-19.295" fill="#cae5e1"/><path d="m142.036 48.972c0 1.091-1.065 2.142-3.026 3.125l.224.12c6.474 1.645 12.698 4.199 18.674 7.665 4.134 3.195 8.269 6.389 12.403 9.584 3.067-2.249 4.735-4.661 4.735-7.171 0-8.295-18.174-15.519-45.046-19.295 7.552 1.66 12.036 3.728 12.036 5.972" fill="#daf2f0"/><path d="m87.62 84.745c-46.751 0-84.96-9.198-87.62-20.793.698 17.138 39.686 30.956 87.688 30.956 48.439 0 87.705-14.069 87.705-31.423 0-.162-.01-.323-.017-.485-.724 12.04-39.733 21.745-87.756 21.745" fill="#64847e"/><path d="m63.184 91.533-11.176-8.635c-29.247-3.272-50.07-10.448-52.008-18.898.599 14.722 29.453 26.993 68.004 30.161-1.619-.83-3.226-1.704-4.82-2.628" fill="#000" fill-opacity=".1"/><path d="m43.0435623 44.3295623.078.443v-.002c.397 2.261 2.245 3.983 4.527 4.22h.001l1.538.16c1.558.162 2.953-.97 3.115-2.529.161-1.558-.971-2.952-2.529-3.114l-1.538-.16h.001l-.056.535.529-.093c-.042-.237-.236-.417-.473-.442l-.056.535.529-.093-.001-.002-.078-.443c-.272-1.543-1.743-2.573-3.286-2.301-1.543.271-2.573 1.743-2.301 3.286" fill="#639296"/><path d="m46.9272187 22.2905c.054.25-.332.547-.863.662-.531.116-1.005.007-1.059-.243-.055-.25.331-.547.862-.662.531-.116 1.005-.007 1.06.243" fill="#afcec9"/><path d="m23.202 50.002c-.133.27-.202.543-.202.819 0 5.469 26.636 9.902 59.493 9.902 32.858 0 59.495-4.433 59.495-9.902 0-.276-.07-.55-.203-.821-2.504 5.085-28.093 9.082-59.292 9.082-31.195 0-56.782-3.996-59.291-9.08" fill="#daf2f0"/><path d="m84.0933739 35.723h27.9155881c5.957177 0 7.991038-2.9669273 7.991038-11.3534481 0-8.3865209-4.776677-19.6465519-19.735746-19.6465519-14.9590688 0-20.5755546 8.9984029-21.799984 17.3003812s-.2500266 13.6996188 5.6291039 13.6996188" fill="#cae5e1"/><path d="m83.3406562 22.481125c1.1795384-8.0245295 7.2022484-14.76317254 21.6146458-14.76317254 2.714612 0 5.04255.12190933 7.044698.3489129-2.927003-2.04303214-6.808139-3.34386536-11.859055-3.34386536-14.8762191 0-20.4615983 8.9984029-21.6792463 17.3003812s-.2486419 13.6996188 5.5979275 13.6996188h4.704211c-5.6639221 0-6.6031842-5.2168784-5.423181-13.241875" fill="#daf2f0"/><path d="m118 25.0571291c0-2.7258753-.509359-5.7543654-1.714937-8.6029731-.956589-2.260242-3.196536-3.731156-5.676459-3.731156h-13.7185458c-7.6531898 0-13.4131198 8.0146075-11.530768 14.4552433 1.8814032 6.4401673 9.7745703 5.4962528 16.4237448 5.4962528h11.198783c2.539681 0 4.670547-1.9107829 4.892028-4.4099313.085842-.9678052.126154-2.0349205.126154-3.2074357" fill="#e4f4f2"/><path d="m118 25.0571291c0-2.7258753-.509359-5.7543654-1.714937-8.6029731-.956589-2.260242-3.196536-3.731156-5.676459-3.731156h-13.7185458c-7.6531898 0-13.4131198 8.0146075-11.530768 14.4552433 1.8814032 6.4401673 9.7745703 5.4962528 16.4237448 5.4962528h11.198783c2.539681 0 4.670547-1.9107829 4.892028-4.4099313.085842-.9678052.126154-2.0349205.126154-3.2074357" fill="#e4f4f2"/><path d="m97 21.2232302c0 .8279356-.6718342 1.4997698-1.4997698 1.4997698-.828396 0-1.5002302-.6718342-1.5002302-1.4997698 0-.828396.6718342-1.5002302 1.5002302-1.5002302.8279356 0 1.4997698.6718342 1.4997698 1.5002302" fill="#639296"/><path d="m109 21.2232302c0 .8279356-.671937 1.4997698-1.5 1.4997698s-1.5-.6718342-1.5-1.4997698c0-.828396.671937-1.5002302 1.5-1.5002302s1.5.6718342 1.5 1.5002302" fill="#639296"/><path d="m78.9895493 2.93654718c-1.715356-.59429316-3.2690283-.83071244-4.3447201-.92249874-.2771721-.8849498-1.1954226-1.43891261-2.1400704-1.25626713-1.0101698.19516179-1.6682179 1.15891801-1.4692951 2.15234254.1984515.99342452 1.1784529 1.64010077 2.1886227 1.44493898.6985869-.13489806 1.2279479-.63786848 1.4226283-1.26368421 1.0111126.09317701 2.4525962.32032494 4.0194671.86779781 3.9119922 1.36566899 6.7148245 3.97833377 8.3311905 7.76382357l1.0026277-.4139655c-2.1744813-5.09321291-6.1001435-7.36422865-9.0104507-8.37248732" fill="#afcec9"/><path d="m116.292109 16.5163087c-.95266-2.2978926-3.183404-3.7933087-5.653139-3.7933087h-13.6621861c-1.7881849 0-3.4700988.4529111-4.9767839 1.2239552 1.28328-.5310156 2.6747202-.8329563 4.1370077-.8329563h13.6621853c2.469736 0 4.70048 1.4954161 5.652667 3.7933088 1.200625 2.896059 1.707891 5.974997 1.707891 8.7462793 0 1.1920466-.039674 2.2769377-.125163 3.2603881-.142639 1.641624-1.080657 3.0294083-2.40739 3.8090249 1.760791-.62436 3.076188-2.2297893 3.247166-4.1995476.085489-.9839266.125636-2.0688177.125636-3.2608644 0-2.7712822-.507266-5.8502202-1.707891-8.7462793" fill="#b8d3ce"/></g></svg>