<svg height="108" viewBox="0 0 165 108" width="165" xmlns="http://www.w3.org/2000/svg" xmlns:xlink="http://www.w3.org/1999/xlink"><mask id="a" fill="#fff"><path d="m8.162 4.697c0 2.236-1.813 4.05-4.05 4.05-2.236 0-4.048-1.814-4.048-4.05 0-2.237 1.812-4.049 4.048-4.049 2.237 0 4.05 1.812 4.05 4.049" fill="#fff" fill-rule="evenodd"/></mask><g fill="none" fill-rule="evenodd" transform="translate(.309447)"><path d="m91.407 23.763c-.726 1.158-2.252 1.509-3.411.783-1.158-.725-1.508-2.252-.783-3.41.726-1.158 2.252-1.509 3.41-.784 1.159.726 1.509 2.253.784 3.411" fill="#fff"/><path d="m91.407 23.763c-.726 1.158-2.252 1.509-3.411.783-1.158-.725-1.508-2.252-.783-3.41.726-1.158 2.252-1.509 3.41-.784 1.159.726 1.509 2.253.784 3.411" fill="#c1dbf1"/><path d="m89.469 22.25c-.532.256-1.141.093-1.359-.362-.218-.456.036-1.032.568-1.287.531-.255 1.14-.093 1.358.362.219.456-.035 1.033-.567 1.287" fill="#fff"/><path d="m.03539515 95.1052034s-.72179424.9771705 4.3535761 2.051278c5.95846845 1.259068 16.21104245.3164384 17.62611765 2.6418144 1.5470511 2.5404202-5.6391194 1.8184062-5.5079581 4.7833442.1107946 2.521479 7.872934 2.428998 16.6224489 2.428998h82.1558263c7.086781 0 5.803682-2.198355 4.800828-3.197809-1.456623-1.452943-.816296-2.793349 5.559282-2.978309 6.189019-.179389 10.721822-.334266 14.099428-.334266 9.007764 0 7.240753-3.0407049 14.259102-3.0407049 4.536876 0 9.995954-1.1688162 9.995954-2.5237071-23.03713-2.8000335-48.739849-4.7187194-76.7081535-4.909251-32.1630211-.218387-61.4470119 1.8874878-87.25645135 5.0786124" fill="#f1f1f1"/><path d="m106.497 96.176c-17.112-.168-55.304-.551-55.304-.551l-.01-.007-.114.001c-2.282-.055-4.536-.178-6.612.37-2.199.581-1.693 2.013.157 2.752 1.085.432 2.413.587 3.685.676 2.676.187 5.401.208 8.088.304.311.011 3.245-.123 2.133.739-.225.178-.578.196-.754.445-.372.527.179 1.105.923 1.407 1.367.555 3.665.542 5.21.587 4.044.12 18.113.182 23.712-.256 1.01-.078 2.289-.274 2.509-.973.049-.155.051-.315-.038-.465-.103-.175-.875-.497-.907-.542-1.298-1.901 13.58-1.107 16.641-1.032 4.844.119 9.985.037 10.013257-1.342.033743-1.54-3.309257-2.059-9.332257-2.113" fill="#99abaf"/><path d="m107.44 96.19c-.53 1.404-13.488 2.527-29.406 2.527-16.254 0-29.431-1.171-29.431-2.617 0-.18.205-.355.596-.525-1.636-.027-3.236.016-4.742.414-2.199.581-1.693 2.013.157 2.752 1.085.432 2.413.587 3.686.676 2.675.187 5.4.208 8.087.304.311.011 3.245-.123 2.133.739-.225.178-.578.196-.754.445-.372.527.179 1.105.923 1.407 1.367.555 3.665.542 5.21.587 4.044.12 18.113.182 23.712-.256 1.01-.078 2.289-.274 2.509-.973.049-.155.051-.315-.038-.465-.103-.175-.875-.497-.907-.542-1.298-1.901 13.58-1.107 16.641-1.032 4.844.119 9.985.037 10.013254-1.342.031746-1.458-2.964254-2-8.389254-2.099" fill="#c9c9c9"/><path d="m84.879 19.697c0 2.236-1.813 4.05-4.05 4.05-2.236 0-4.048-1.814-4.048-4.05 0-2.237 1.812-4.049 4.048-4.049 2.237 0 4.05 1.812 4.05 4.049" fill="#dff8f8"/><path d="m8.162 4.697c0 2.236-1.813 4.05-4.05 4.05-2.236 0-4.048-1.814-4.048-4.05 0-2.237 1.812-4.049 4.048-4.049 2.237 0 4.05 1.812 4.05 4.049" fill="#dff8f8" mask="url(#a)" transform="translate(76.717 15)"/><path d="m62.534 41.265c0 2.898-2.348 5.246-5.246 5.246s-5.247-2.348-5.247-5.246 2.349-5.247 5.247-5.247 5.246 2.349 5.246 5.247" fill="#dff8f8"/><path d="m62.534 41.265c0 2.898-2.348 5.246-5.246 5.246s-5.247-2.348-5.247-5.246 2.349-5.247 5.247-5.247 5.246 2.349 5.246 5.247" fill="#dff8f8"/><path d="m113.804 22.323c-.741 0-1.36.497-1.559 1.174-1.69.151-7.89 1.224-8.74 8.842l.96.108c.772-6.915 6.228-7.861 7.794-7.989.213.653.82 1.128 1.545 1.128.9 0 1.631-.73 1.631-1.631 0-.902-.731-1.632-1.631-1.632" fill="#cae5e1"/><path d="m66.234 61.24c-.956-3.771 2.154-15.836 4.112-22.296 1.957-6.461 5.193-7.286 13.319-7.596 8.125-.31 13.737-.295 20.501-.116s13.139 3.557 11.414 12.186c-1.724 8.63-1.482 16.503-4.461 19.85-2.978 3.346-16.29 4.047-27.553 3.53-11.263-.515-15.869.211-17.332-5.558" fill="#cae5e1"/><path d="m104.166 31.232c-6.764-.179-12.376-.194-20.501.116-4.859.185-7.968.556-10.102 2.204 1.438-.206 3.107-.31 5.062-.385 8.126-.31 13.737-.294 20.501-.116s13.139 3.557 11.414 12.187c-1.724 8.629-1.482 16.502-4.461 19.848-.21.237-.476.457-.784.667 2.759-.578 4.849-1.389 5.824-2.485 2.979-3.347 2.737-11.22 4.461-19.85 1.725-8.629-4.65-12.007-11.414-12.186" fill="#daf2f0"/><path d="m69.193 52.435s.784-4.224 2.565-9.66c1.781-5.438 3.649-8.069 11.107-8.137 7.459-.067 10.957-.035 16.44 0s8.531 1.81 7.172 8.303c-1.36 6.493-1.525 6.634-2.492 10.405-.968 3.773-1.229 5.79-7.37 6.026-6.14.236-17.226-.21-21.657-.607-4.431-.395-6.713-3.02-5.765-6.33" fill="#eff"/><path d="m54.324 55.1457487c.234832-1.54791 1.485252-2.795244 3.1060771-3.1082033 1.6982954-.3287198 3.4571146.4356663 4.2935523 1.8811328.7613884-1.9498037 2.5093133-3.3907672 4.5852767-3.714984 2.6799901-.4176542 5.4991848 1.0942317 6.6237154 3.714984.5374506-1.3756698 1.9307066-2.3044158 3.4897975-2.3303081 1.6062994-.0258923 3.0697628.9129854 3.6229496 2.3303081 1.5530385-2.9235798 5.2595108-4.2362075 8.3789031-3.0811852 2.9039279 1.0762196 4.6240119 4.0414523 3.9691453 7.0078107.165835-.1024435 2.6703063-1.6008204 5.3841897-.4840737 2.0432807.842063 3.3542243 2.8166333 3.2937003 4.9837073.341354 2.9292085.685129 5.8595428 1.027693 8.7898772l-49-9.7298808z" fill="#c1dbf1"/><path d="m38.324 58.1457487c.234832-1.54791 1.485252-2.795244 3.1060771-3.1082033 1.6982954-.3287198 3.4571146.4356663 4.2935523 1.8811328.7613884-1.9498037 2.5093133-3.3907672 4.5852767-3.714984 2.6799901-.4176542 5.4991848 1.0942317 6.6237154 3.714984.5374506-1.3756698 1.9307066-2.3044158 3.4897975-2.3303081 1.6062994-.0258923 3.0697628.9129854 3.6229496 2.3303081 1.5530385-2.9235798 5.2595108-4.2362075 8.3789031-3.0811852 2.9039279 1.0762196 4.6240119 4.0414523 3.9691453 7.0078107.165835-.1024435 2.6703063-1.6008204 5.3841897-.4840737 2.0432807.842063 3.3542243 2.8166333 3.2937006 4.9837073.3413538 2.9292085.6851285 5.8595428 1.0276927 8.7898772l-49-9.7298808z" fill="#c1dbf1"/><g fill="#fff"><path d="m79.688 58.611c1.283-2.598 4.344-3.764 6.922-2.737.777.31 1.451.798 1.989 1.404-.592-1.046-1.515-1.893-2.665-2.352-2.55-1.015-5.569.116-6.877 2.655.267.295.488.639.631 1.03"/><path d="m73.812 62.611c.443-1.222 1.595-2.048 2.882-2.07.831-.015 1.614.306 2.197.856-.524-1.106-1.644-1.825-2.873-1.804-1.227.022-2.323.778-2.808 1.906.237.339.442.709.602 1.112"/><path d="m88.812 62.611c.443-1.222 1.595-2.048 2.882-2.07.831-.015 1.614.306 2.197.856-.524-1.106-1.644-1.825-2.873-1.804-1.227.022-2.323.778-2.808 1.906.237.339.442.709.602 1.112"/><path d="m58.439 60.701c.194-1.374 1.226-2.483 2.565-2.762 1.403-.292 2.857.388 3.548 1.672.629-1.733 2.072-3.013 3.787-3.3 1.628-.273 3.318.384 4.468 1.675-1.076-1.903-3.155-2.956-5.145-2.623-1.713.288-3.157 1.568-3.786 3.301-.691-1.285-2.144-1.964-3.548-1.672-1.338.279-2.371 1.386-2.565 2.761l-1.013 5.561.818.174z"/></g><path d="m36.434 57.597c-.001-.147-.159-14.825.001-20.521.208-7.423 1.771-12.329 4.922-15.441 5.005-4.941 11.91-1.554 12.202-1.408l-.866 1.727c-.243-.121-5.97-2.903-9.979 1.055-2.774 2.74-4.156 7.227-4.349 14.12-.159 5.66-.001 20.299 0 20.447z" fill="#ffe570"/><path d="m36.973 37.614c.208-7.423 1.771-12.329 4.922-15.441 4.17-4.116 9.655-2.454 11.54-1.699l.124-.247c-.292-.146-7.197-3.533-12.202 1.408-3.151 3.112-4.714 8.018-4.922 15.441-.16 5.696-.002 20.374-.001 20.521l.533-.006c-.027-2.705-.137-14.902.006-19.977" fill="#fdf7ab"/><path d="m51.241 90.177s-1.5 4.439-2.45 6.786c-.951 2.349 1.943 2.669 3.449.786 1.507-1.884 3.875-5.005 3.875-5.005z" fill="#8ed3d1"/><path d="m107.222 90.177s1.5 4.439 2.45 6.786c.951 2.349-1.942 2.669-3.449.786-1.507-1.884-3.875-5.005-3.875-5.005z" fill="#8ed3d1"/><path d="m34.499 63.032s.402 12.623 9.11 23.853c8.707 11.231 21.674 10.235 26.289 10.219 4.613-.015 14.157-.34 19.877-.34 14.406 0 20.625-5.749 23.408-12.341 2.782-6.591 5.479-20.308 5.479-20.308s5.547-1.484 4.479-7.027c-.893-4.627-9.736-1.342-13.593.815-3.856 2.156-19.876 6.636-34.821 5.995-14.945-.64-30.583-5.284-35.034-7.801-4.452-2.516-7.574-2.866-8.913 0-1.927 4.121 3.719 6.935 3.719 6.935" fill="#dbf7fb"/><path d="m34.499 63.032s.402 12.623 9.11 23.853c8.707 11.231 21.674 10.235 26.289 10.219 4.613-.015 14.157-.34 19.877-.34 14.406 0 20.625-5.749 23.408-12.341 2.782-6.591 5.479-20.308 5.479-20.308s5.547-1.484 4.479-7.027c-.893-4.627-9.736-1.342-13.593.815-3.856 2.156-19.876 6.636-34.821 5.995-14.945-.64-30.583-5.284-35.034-7.801-4.452-2.516-7.574-2.866-8.913 0-1.927 4.121 3.719 6.935 3.719 6.935" fill="#bcedef"/><path d="m109.548 57.903c-3.856 2.156-19.876 6.636-34.821 5.995-14.945-.64-30.583-5.284-35.034-7.801-3.372-1.906-5.98-2.565-7.629-1.529 4.567 4.234 11.374 8.848 21.495 13.462 27.921 12.73 53.802 6.816 63.402 3.788 1.026-4.263 1.701-7.703 1.701-7.703s5.547-1.484 4.479-7.027c-.893-4.627-9.736-1.342-13.593.815" fill="#9cdddd"/><path d="m52.743 19.669 11.679-2.212-9.175 14.911-3.851-10.307c-.39-1.043.254-2.185 1.347-2.392" fill="#ffe570"/><path d="m48.744 35.851c0 1.182-.958 2.141-2.14 2.141-1.183 0-2.142-.959-2.142-2.141 0-1.183.959-2.142 2.142-2.142 1.182 0 2.14.959 2.14 2.142" fill="#fff"/><path d="m47.919 47.462c0 1.741-1.41 3.151-3.15 3.151-1.739 0-3.15-1.41-3.15-3.151 0-1.739 1.411-3.15 3.15-3.15 1.74 0 3.15 1.411 3.15 3.15" fill="#fff"/><path d="m48.744 35.851c0 1.182-.958 2.141-2.14 2.141-1.183 0-2.142-.959-2.142-2.141 0-1.183.959-2.142 2.142-2.142 1.182 0 2.14.959 2.14 2.142" fill="#c1dbf1"/><path d="m47.919 47.462c0 1.741-1.41 3.151-3.15 3.151-1.739 0-3.15-1.41-3.15-3.151 0-1.739 1.411-3.15 3.15-3.15 1.74 0 3.15 1.411 3.15 3.15" fill="#dff8f8"/><path d="m44.449 47.042c-.343.542-.997.744-1.46.451-.464-.293-.563-.971-.22-1.512.343-.542.996-.743 1.46-.45s.562.97.22 1.511" fill="#fff"/><path d="m55.442 39.638c-.342.542-.996.743-1.459.45-.464-.294-.563-.97-.22-1.511.342-.542.996-.744 1.46-.451.463.293.561.97.219 1.512" fill="#fff"/><path d="m46.629 35.632c-.273.431-.794.592-1.163.358s-.448-.773-.175-1.204c.273-.432.793-.592 1.163-.359.37.235.448.774.175 1.205" fill="#fff"/><path d="m123.141 57.088c-.893-4.627-9.736-1.342-13.593.815-3.856 2.156-19.876 6.636-34.821 5.995-14.945-.64-30.583-5.284-35.034-7.801-4.452-2.516-7.574-2.866-8.913 0-1.927 4.121 3.719 6.935 3.719 6.935s13.958 8.757 41.216 8.757c26.603 0 42.947-7.674 42.947-7.674s5.547-1.484 4.479-7.027" fill="#bcedef"/><path d="m67.373 64.072c17.612 2.147 36.971-1.657 41.732-3.849 3.61-1.661 10.669-3.819 14.142-2.345-.021-.253-.053-.515-.106-.79-.893-4.627-9.736-1.342-13.593.815-3.856 2.156-19.876 6.636-34.821 5.995-14.945-.64-30.583-5.284-35.034-7.801-3.257-1.841-5.797-2.514-7.453-1.626 7.966 3.518 21.677 7.96 35.133 9.601" fill="#dff8f8"/><path d="m79.627 19.102c-.343.542-.996.743-1.46.45s-.562-.969-.219-1.511c.342-.542.996-.744 1.459-.451.464.294.563.971.22 1.512" fill="#fff"/><path d="m109.717 8.49895049c0 4.69341891-3.806001 8.50104951-8.502099 8.50104951-4.6939988 0-8.497901-3.8076306-8.497901-8.50104951 0-4.69551797 3.8039022-8.49895049 8.497901-8.49895049 4.696098 0 8.502099 3.80343252 8.502099 8.49895049" fill="#dff8f8"/><path d="m52.743 19.669c-.57.108-1.012.472-1.255.942l9.35 1.487 1.337-.99 2.247-3.651z" fill="#fdf7ab"/><path d="m64.533 27.789c-2.724 4.322-6.509 6.833-8.454 5.606-1.945-1.226-1.312-5.724 1.412-10.046 2.725-4.322 6.51-6.833 8.456-5.606 1.944 1.225 1.312 5.723-1.414 10.046" fill="#ffd761"/><path d="m58.059 29.73c-.48.125-.939.69-1.025 1.263-.085.572.235.935.714.81.48-.125.938-.69 1.024-1.262.086-.573-.234-.936-.713-.811" fill="#fcbf4f"/><path d="m60.684 27.207c.538-.14 1.052-.775 1.148-1.417.097-.642-.261-1.049-.8-.91-.538.141-1.052.775-1.148 1.417-.097.643.262 1.05.8.91" fill="#fcbf4f"/><path d="m63.606 22.437c.478-.124.935-.688 1.021-1.259s-.233-.933-.712-.808c-.477.124-.935.688-1.02 1.258-.086.572.232.934.711.809" fill="#fcbf4f"/><path d="m40.102 37.103c0 1.492-1.21 2.701-2.702 2.701-1.493 0-2.701-1.209-2.701-2.701s1.208-2.702 2.701-2.702c1.492 0 2.702 1.21 2.702 2.702" fill="#f4dc4f"/><path d="m40.102 37.103c0 1.492-1.21 2.701-2.702 2.701-1.493 0-2.701-1.209-2.701-2.701s1.208-2.702 2.701-2.702c1.492 0 2.702 1.21 2.702 2.702" fill="#ffe570"/><path d="m37.975 36.5c0 .712-.578 1.29-1.291 1.29-.712 0-1.29-.578-1.29-1.29 0-.713.578-1.292 1.29-1.292.713 0 1.291.579 1.291 1.292" fill="#fdf7ab"/><path d="m100.268 84.306s4.977.656 5.095-4.913c0 0 6.276-4.504 8.171-8.472l-5.271-1.199-6.337 7.948z" fill="#9cdddd"/><path d="m109.086 54.882.176.127.123.095.219.181c.137.119.269.237.394.358.252.24.487.487.708.743.442.514.841 1.058 1.184 1.64.689 1.159 1.167 2.458 1.385 3.782.224 1.324.179 2.658-.041 3.905-.111.616-.264 1.244-.472 1.847-.196.605-.45 1.166-.713 1.715-1.093 2.166-2.54 3.94-4.086 5.538-.776.798-1.586 1.547-2.422 2.26-.845.719-1.675 1.374-2.63 2.042-.727.509-1.731.332-2.241-.397-.482-.69-.348-1.628.287-2.158l.052-.042c.718-.595 1.485-1.301 2.183-2 .706-.707 1.381-1.44 2.007-2.199 1.253-1.512 2.337-3.142 3.001-4.79.155-.411.303-.821.395-1.225.103-.397.163-.799.202-1.221.072-.824.022-1.618-.173-2.348-.19-.733-.513-1.409-.951-2.016-.218-.303-.47-.587-.735-.845-.134-.128-.273-.25-.411-.36l-.203-.152-.091-.061-.035-.021.013.013c-1.218-.793-1.561-2.424-.767-3.642s2.424-1.563 3.642-.769" fill="#5d7e93"/><path d="m100.457 78.111c.718-.648 1.483-1.411 2.174-2.165.7-.763 1.367-1.551 1.984-2.363.829-1.089 1.572-2.229 2.16-3.387-.476.725-1.007 1.436-1.576 2.123-.626.759-1.301 1.492-2.007 2.199-.698.699-1.465 1.405-2.183 2l-.052.042c-.47.393-.665 1.01-.538 1.584z" fill="#5d7e93"/><path d="m113.275 61.808c-.218-1.324-.696-2.623-1.385-3.782-.343-.582-.742-1.126-1.184-1.64-.221-.256-.456-.503-.708-.743-.125-.121-.257-.239-.394-.358l-.219-.181-.123-.095-.175-.127c-.973-.633-2.203-.531-3.065.152.622-.111 1.283-.019 1.868.329l.187.123.131.093.235.177c.148.119.29.235.424.355.271.238.524.483.765.739.48.513.915 1.059 1.296 1.647.764 1.17 1.313 2.494 1.596 3.855.29 1.362.3 2.745.125 4.046-.087.642-.219 1.298-.409 1.932-.177.634-.416 1.226-.664 1.806l-.028.058c.173-.299.342-.604.501-.919.263-.549.517-1.11.713-1.715.208-.603.361-1.231.472-1.847.22-1.247.265-2.581.041-3.905" fill="#5d7e93"/><path d="m103.791 78.07-1.973-2.556c-1.383-.89-3.764-1.145-5.002-1.084-1.24.062-3.237.739-2.963 1.794.272 1.055 1.109 1.109 2.637.855 1.528-.255 2.39.768 1.691 2.273-.698 1.505-3.874.455-3.808 1.958.067 1.503 1.662 1.407 1.662 1.407s1.291-.078 2.207-.546c0 0-.564.641-2.172.887.186.95 1.143 1.181 1.708 1.233.213-.017 1.336-.122 2.162-.543 0 0-.442.497-1.642.785.704 1.254 3.369 1.041 4.967-.99 1.689-2.148.526-5.473.526-5.473" fill="#5d7e93"/><path d="m82.2137619 44.8759867c.04 1.062-.25 1.937-1.17 1.968-.9.03-1.31-.814-1.35-1.875-.04-1.062.29-1.935 1.21-1.968.92-.034 1.28.815 1.31 1.875" fill="#64847e" fill-rule="nonzero"/><path d="m94.2137619 44.8759867c.04 1.062-.25 1.937-1.17 1.968-.9.03-1.31-.814-1.35-1.875-.04-1.062.29-1.935 1.21-1.968.92-.034 1.28.815 1.31 1.875" fill="#64847e" fill-rule="nonzero"/><path d="m102.386087 13.9160713 2.949522-5.72652788c.88493-1.71810195.188102-3.7002779-1.657037-4.71306427-1.405242-.77132863-3.043661-.59543739-4.0859821.44962822-.0986244.15077714-.2073151.46226059.1724893.85676502.4171268.43202809.7375408.26807043.8943538.1298929.654224-.6258573 1.607518-.73943686 2.428199-.28897025 1.118351.61385619 1.532618 1.83172753.984945 2.89504093l-.234823.45591089c-.10983.21323705-.457149.20079981-.748304.11742543l-2.528771-.61995434c-1.8627008-.52142838-2.8524532-.21235777-3.5297411 1.10260409-.7871184 1.52819896-.0497264 3.41429826 1.7151777 4.40013136.0238297.0134903.0493475.0219712.0762477.0243037.1018083.008453.355697-.0133554.5500266-.3906485.1939599-.3765753.0833244-.6311625.0255224-.7250539-.01611-.0258803-.0381893-.0453671-.0637376-.0598508-1.0645418-.6022793-1.5061524-1.6735324-1.049265-2.56058416.4221262-.81956263.9864234-.83261647 2.0172973-.55641496 0 0 1.833326.44682419 2.567689.59895289.124464.02595397.187956.16855528.126332.28300318l-.192498.35987977-1.032767 2.01638688c-.012573.024411-.020278.0514943-.0227.0787141-.055687.6684357.102004 1.3218364.453464 1.8969454.07875.116441.153112.0361527.18436-.0245157" fill="#3682e0" fill-rule="nonzero" opacity=".651832"/><path d="m98.3254993 6.9518192c-.657056.97174761-1.9079526 1.33211895-2.796798.80680152-.8888454-.52531744-1.0765756-1.73731261-.4195197-2.70906021.6551404-.97174761 1.9079526-1.33391185 2.7948823-.80859441.8888454.52711032 1.0784913 1.74089838.4214354 2.7108531" fill="#fff"/><path d="m127.417 38.305c-.725 1.158-2.252 1.509-3.41.783-1.158-.725-1.51-2.253-.784-3.411s2.253-1.509 3.411-.783 1.509 2.253.783 3.411" fill="#fff"/><path d="m127.417 38.305c-.725 1.158-2.252 1.509-3.41.783-1.158-.725-1.51-2.253-.784-3.411s2.253-1.509 3.411-.783 1.509 2.253.783 3.411" fill="#c1dbf1"/><path d="m125.48 36.792c-.532.255-1.141.093-1.36-.362-.218-.456.037-1.032.568-1.287.532-.256 1.14-.093 1.359.362s-.036 1.032-.567 1.287" fill="#fff"/></g></svg>