<svg height="219" viewBox="0 0 266 219" width="266" xmlns="http://www.w3.org/2000/svg" xmlns:xlink="http://www.w3.org/1999/xlink"><linearGradient id="a" x1="50%" x2="50%" y1="0%" y2="100%"><stop offset="0" stop-color="#eee"/><stop offset="1" stop-color="#d8d8d8"/></linearGradient><g fill="none" fill-rule="evenodd"><g fill-rule="nonzero" transform="translate(108 36)"><g fill="#7a99a5" transform="matrix(-.06975647 .99756405 -.99756405 -.06975647 57.187569 59.809335)"><path d="m48.2602303 4.79648943c-.546 1.469-2.008 2.427-3.613 2.355-4.656-.211-14.1979996.797-17.8009996 11.86599997-5.295 16.266 17.8749996 25.974 37.8989996 24.476l1.436 6.0170004s-25.097 2.067-39.5119996-10.5990004c-14.415-12.665-6.435-32.30599997 6.869-36.95099997 4.7139996-1.646 8.5669996-2.021 11.3339996-1.953 2.52.062 4.245 2.485 3.388 4.789" transform="matrix(-1 0 0 1 85.18123 0)"/><path d="m15.2565587 35s-6.978 1.369-11.256 2.452c-6.005 1.52-4.88 14.3800004.913 14.1060004 7.702-.364 16.087-4.07 16.087-4.07l-1.047-3.8630004-13.169 2.445v-4.374l8.973-3.198z" transform="matrix(-1 0 0 1 21.000558 0)"/></g><path d="m153.002979 113.150382c-1.646 1.978-4.585 2.246-6.562.6-1.979-1.647-2.247-4.585-.601-6.563 1.646-1.977 4.585-2.246 6.563-.599 1.978 1.646 2.247 4.585.6 6.562zm-11.72 14.076c-1.646 1.979-4.584 2.248-6.562.601s-2.246-4.585-.6-6.562c1.647-1.979 4.585-2.248 6.563-.601 1.977 1.646 2.246 4.585.599 6.562zm-.738-24.447c-2.387 2.867-3.147 6.549-2.389 9.928-3.461-.134-6.943 1.281-9.33 4.149-4.081 4.902-3.415 12.185 1.487 16.266s12.184 3.415 16.266-1.487c1.363-1.637 2.194-3.54 2.517-5.5l8.298 6.908c1.418 1.181 3.525.988 4.706-.43 1.18-1.418.987-3.525-.431-4.706l-8.28-6.892c1.852-.676 3.556-1.832 4.909-3.456 4.081-4.903 3.415-12.185-1.487-16.266-4.902-4.0810002-12.185-3.4160002-16.266 1.486z" fill="#5d7e93" transform="matrix(-.74314483 -.66913061 -.66913061 .74314483 330.333751 126.803247)"/><path d="m54.1399546 71.4529217c-1.288 6.122 15.8500001 25.3230001 23.2300001 30.7470003 7.3790011 5.423 33.9520023 11.424 42.5780023 12.1 8.627.674 3.109-20.5590002 3.109-20.5590002s-65.4430024-38.8010013-68.9170024-22.2880001" fill="#94c4bf" transform="matrix(-.74314483 -.66913061 -.66913061 .74314483 216.67773 83.174788)"/><path d="m118.094788 162.568345c3.69-18.071 9.396-27.525002 11.506-32.203002 2.83-6.273001 1.616-11.310001-3.98-15.373001-5.597-4.064-10.948-8.527-22.272001-16.4389997-7.3880001-5.163-21.2530012-7.5560001-29.9970012-8.5970001-5.0050001-.596-9.9260001 1.787-12.4760001 6.1350001-10.0680001 17.1749997-13.7940001 40.0030017-17.0270001 60.7900027-.318 2.045-.502 3.93-.582 5.687z" fill="#cae5e1" transform="matrix(-.74314483 -.66913061 -.66913061 .74314483 236.404559 90.747208)"/><path d="m95.5010441 177.46659c.103-1.113.233-2.259.422-3.477 3.233-20.787001 6.9589999-43.615003 17.0269999-60.789003 2.537-4.328 7.422-6.706 12.403-6.141-4.729-1.06-9.433-1.758-13.19-2.205-5.005-.596-9.926 1.787-12.4759999 6.135-10.068 17.175-13.7940001 40.003002-17.0270001 60.789003-.318 2.046-.502 3.931-.582 5.688z" fill="#daf2f0" transform="matrix(-.74314483 -.66913061 -.66913061 .74314483 275.215816 105.645453)"/><path d="m117.390267 25.60645c-.69-.62-1.587-.861-2.437-.741-1.191-1.721-3.181-4.089-6.22-6.2420001-5.031-3.564-14.0030001-7.171-28.1740021-4.102-.525.114-.859.631-.746 1.158.046.208.154.386.302.517.224.202.539.296.856.228 10.620002-2.3 19.8010021-1.011 26.5480021 3.7270001 2.73 1.917 4.558 4.045 5.677 5.62l-.067.067c-1.113 1.241-1.008 3.1490001.232 4.2620001 1.241 1.112 3.149 1.009 4.262-.233 1.112-1.241 1.008-3.1490001-.233-4.2610001" fill="#6d8c8c" transform="matrix(.40673664 -.91354546 .91354546 .40673664 38.582954 103.646752)"/><path d="m116.701935 106.064567c-4.88 3.145-9.07 6.995-16.8990003-1.382-7.828-8.3770005-18.0260001-22.8480005-33.6830012-27.4600006-15.6550011-4.613-29.9200012-6.445-21.3230011-15.1940007 8.597001-8.7490001 17.3130011-18.5390004 23.1970011-23.5330006 5.8850011-4.9940001 17.2620011-9.2780002 34.9540015-3.994 17.693 5.284 33.904001 23.2710005 35.207001 34.8890009 1.773 15.7930005-16.572001 33.531001-21.453001 36.674001" fill="#cae5e1" transform="matrix(-.74314483 -.66913061 -.66913061 .74314483 204.750707 78.596433)"/><path d="m82.6990579 79.0988147c8.5960001-8.75 17.3130001-18.5400009 23.1970001-23.5340009 5.885-4.9940002 17.262001-9.2780002 34.955001-3.9940002 2.468.7370001 4.905 1.7300001 7.279 2.9090001-5.214-4.0870001-11.165-7.4430001-17.294-9.2730002-17.692001-5.2840001-29.069001-1-34.954001 3.9940001-5.8840001 4.9940001-14.6000001 14.7840005-23.1970002 23.5330011-5.869 5.974-1.081 8.7230001 7.5300001 11.3340001.171-1.733.954-3.412 2.484-4.9690001" fill="#daf2f0" transform="matrix(-.74314483 -.66913061 -.66913061 .74314483 232.638829 89.30168)"/><path d="m73.7472164 36.0761755c-12.8300001-1.162-25.4350011 15.7640003-22.2910011 24.2480005 3.146 8.4840002 7.083001 4.8930001 21.5410011 20.3810002 14.4590001 15.4880011 17.9540001 17.0140011 24.7930001 9.805001 6.8390005-7.209001 14.4330005-12.568001 11.7900005-22.4030011-2.642-9.8350001-18.5430005-30.4650006-35.8330006-32.0310006" fill="#e4f4f2" transform="matrix(-.74314483 -.66913061 -.66913061 .74314483 184.119989 70.677042)"/><path d="m87.2190122 59.5235138c-2.504-9.3200003-16.9160001-28.3230007-33.1320002-31.6210008 15.0660001 4.7240001 28.0140002 22.1190005 30.3750002 30.9070008 2.643 9.8360002-4.9500001 15.1940008-11.7900001 22.4030009-2.621 2.762-4.752 4.237-7.196 4.139 3.75 1.698 6.402.318 9.953-3.425 6.8390001-7.2090001 14.4330011-12.5680007 11.7900001-22.4030009" fill="#94c4bf" transform="matrix(-.74314483 -.66913061 -.66913061 .74314483 161.758783 62.093379)"/><path d="m87.5540701 71.4948968c0 1.969-1.597 3.565-3.565 3.565s-3.564-1.596-3.564-3.565c0-1.9679998 1.596-3.5639998 3.564-3.5639998s3.565 1.596 3.565 3.5639998" fill="#5d7e93" transform="matrix(-.74314483 -.66913061 -.66913061 .74314483 194.245743 74.563955)"/><path d="m67.2145182 72.0099951c0 1.969-1.595 3.565-3.564 3.565s-3.565-1.596-3.565-3.565c0-1.968 1.596-3.5639999 3.565-3.5639999s3.564 1.5959999 3.564 3.5639999" fill="#5d7e93" transform="matrix(-.74314483 -.66913061 -.66913061 .74314483 159.135626 61.086443)"/><g fill="#7a99a5" transform="translate(89 118)"><path d="m39.224689 11.7254623c-4.656-.211-16.270223.650609-19.873223 11.719609-3.172071 9.744458 8.894168 23.238828 1.895223 20.040391-17.45673604-7.977525-6.435-32.306 6.869-36.95099998 4.714-1.646 8.567-2.021 11.334-1.953 2.52.062 4.245 2.485 3.388 4.789-.546 1.46899998-2.008 2.42699998-3.613 2.35499998z" transform="matrix(-.61566148 -.78801075 -.78801075 .61566148 63.796678 31.115719)"/><path d="m18.6277865 36.0812873s-6.9779999 1.3689999-11.25599978 2.4519999c-6.00499988 1.52-4.87999989 14.3799998.913 14.1059998 7.70199988-.364 16.08699978-4.07 16.08699978-4.07l-1.047-3.8629999-13.1689999 2.445v-4.374l8.9729999-3.1979999z" transform="matrix(-.80901699 .58778525 .58778525 .80901699 -.981799 .319006)"/></g></g><path d="m34.1476089 18.9571846 193.0000001 188.0000004" stroke="#7a99a5" stroke-linecap="square" stroke-width="6" transform="matrix(.99862953 .05233596 -.05233596 .99862953 6.09077 -6.682764)"/><g fill-rule="nonzero"><path d="m-.85297747 32.1934154h69.99999997l-33.2124327 81.6338666c-.8325165 2.046267-3.1662321 3.030207-5.2124998 2.197691-1.0516629-.427865-1.8719518-1.28249-2.2563568-2.350805z" fill="#3682e0" transform="matrix(.67815967 .7349146 -.7349146 .67815967 65.562571 -1.196192)"/><path d="m57.1977779 74.6939032v-19.4741443c0-5.8427316-4.6453792-10.0837783-11.0458945-10.0837783-4.8745721 0-9.0603593 2.8505597-10.4234544 7.1379966-.056695.5432544.0832336 1.5272163 1.6598398 2.020418 1.7298037.5383712 2.3679249-.3625765 2.5995305-.9571044.8974712-2.6112835 3.3172663-4.2996448 6.1640841-4.2996448 3.8793927 0 6.6960536 2.625933 6.6960536 6.2419319v1.5504116c0 .725153-.9565795 1.1976012-1.8600819 1.4002534l-7.7020898 2.0362885c-5.7635998 1.3282265-8.0096907 3.5879207-8.0096907 8.059698 0 5.1969301 4.6212535 9.1242325 10.7672437 9.169535.0832335.0010875.1640538-.0135616.2400496-.0465235.2870944-.1257418.94331-.5530204.94331-1.8360778 0-1.2806153-.6538029-1.7945706-.9408973-1.9593782-.0796144-.0451696-.1664665-.0647021-.2557313-.0659231-3.717751-.047611-6.4041337-2.2450443-6.4041337-5.2616324 0-2.7870782 1.5078486-3.6428565 4.6803613-4.4107375 0 0 5.5802457-1.4832676 7.7780857-2.1486016.3727399-.1123134.7430672.1733531.7358295.5664495l-.0193003 1.2342252.0156817 6.8486678c0 .0830142.0168881.1660285.048251.2417174.7804625 1.8531694 2.1170191 3.3559697 3.8685359 4.3692306.3751527.194107.4644175-.1269629.4644175-.3332776" fill="#fff" transform="matrix(.74314483 -.66913061 .66913061 .74314483 -29.152133 46.687841)"/><circle cx="33.469344" cy="8.728425" fill="url(#a)" r="7.5" stroke="#979797" stroke-width="2" transform="matrix(.99862953 .05233596 -.05233596 .99862953 .502679 -1.739688)"/></g></g></svg>