<svg height="200" viewBox="0 0 536 200" width="536" xmlns="http://www.w3.org/2000/svg"><g fill="none"><g fill="#a31d6a" transform="translate(2)"><path d="m23.2965064 149.616984c-.1085111-4.72467.5759438-27.458532 23.1796483-37.082922 22.5536226-9.600938 40.4830012-3.010187 48.4377023 1.185983-6.0682767-8.524675-13.9728957-24.8352974-6.8028136-45.9384325 10.3335986-30.423491 41.3761316-27.9954076 47.4360606-27.2064271.250411-2.4883876 1.310481-9.0272103 5.80952-16.2277045 5.166799-8.2583312 16.042954-18.93218234 38.546494-22.89383614 25.107808-4.41979853 41.618195 2.0746335 51.04197 8.30020912 8.330316 5.49522422 12.687456 11.62448052 14.123142 13.91604182 4.749449-3.3485606 28.488347-18.33835303 54.372427-3.9867806 4.916389 2.7287671 8.897913 5.8662629 12.111512 9.1938845 4.574162-2.7480308 9.924595-4.3310172 15.642298-4.3310172 7.069918 0 13.580586 2.4222204 18.755732 6.4760057 2.186917-2.9540704 5.317046-5.8738009 9.791044-8.3211481 14.874372-8.1385602 28.747104-2.5344534 31.860539-1.0737506 2.34551-2.3116626 12.695803-11.22664 27.611911-5.7808318 13.997937 5.1057593 16.084689 17.6574176 16.376835 22.0412011 2.871371-1.3702464 31.526658-7.3102144 48.028698 14.5190843 16.560469 21.9021663 9.665838 43.7993073 6.05993 49.121157 7.470574 2.24717 12.53721 6.260753 15.066354 11.94359 4.282016 9.634441 0 21.05707-1.644361 24.798446 34.489847 3.714573 34.898851 34.477276 34.898851 34.79136 0 .518449-.425698.938904-.934865.938904h-532.13026982c-.51751465 0-.93486518-.420455-.93486518-.938904 0-18.037669 19.006143-22.637543 23.2965064-23.444112" fill-opacity=".645529"/><path d="m23.3018883 149.617822c-.1085362-4.463352.5009363-24.986896 19.6200062-35.360901 7.3971598-4.551296 21.022628-11.461157 37.536829-12.99054 0 0-6.8878746-22.4608177 15.286907-47.2626131 13.4000465-15.7980368 34.8985645-14.0709902 39.8327875-13.4285825.250468-2.4883876 1.310783-9.0272103 5.810861-16.2277045 5.167993-8.2583312 16.04666-18.93218234 38.5554-22.89383614 25.113608-4.41979853 41.627809 2.0746335 51.05376 8.30020912 8.332241 5.49522422 12.690387 11.62448052 14.126405 13.91604182 4.750546-3.3485606 28.494928-18.33835303 54.384987-3.9867806 11.655119 6.4634424 18.033708 15.2159333 21.490169 23.367057 0 0-15.888031-9.6955823-48.290262 4.4801027-29.805712 13.0433055-28.478231 34.6975543-28.478231 34.6975543s-28.595115-12.3514817-56.021379 4.9432729c-27.417915 17.294755-16.75632 42.294214-16.75632 42.294214s-13.550328-18.812411-44.090746-15.327329c-22.241573 2.537804-30.4485801 15.324816-35.1156369 21.351053 0 0-33.571083-6.376336-44.6167291 14.768677 0 0-28.2361111-2.22707-30.9161205 23.742283h-15.77949435c-.51763421 0-.93508115-.421292-.93508115-.938904 0-18.037669 19.0105337-22.637543 23.3018883-23.443274" fill-opacity=".598971"/><path d="m493 172c-.092534-3.700668-.723446-7.691316-2.153513-11.93783-7.856958-23.368193-31.453067-21.502934-36.062931-20.896533-.185067-1.911315-.992635-6.933954-4.416384-12.464913-3.928479-6.342905-12.197632-14.540835-29.299554-17.583928-19.087191-3.395335-31.638134 1.593189-38.805295 6.374462-6.325944 4.22178-9.640335 8.929705-10.733916 10.689206-3.608817-2.572301-21.6529-14.085394-41.328943-3.061856-8.858004 4.964643-13.703409 11.687081-16.336415 17.947257-29.888405 2.774434-27.903135 24.096557-27.802189 30.934135z"/></g><path d="m.11553757 171.986546s-2.35810904 2.298896 14.23227523 4.825048c19.4669427 2.964193 52.9738327.745165 57.6064299 6.218219 5.0507016 5.976143-18.4300438 4.275849-18.0035773 11.254055.3595699 5.93168 25.7301474 5.715129 54.3201286 5.715129h268.515035c23.154624 0 18.965217-5.170871 15.687278-7.524934-4.758028-3.41788-2.667506-6.572276 18.170819-7.007848 20.227893-.422397 35.037153-.786334 46.083472-.786334 29.434553 0 23.656349-7.15441 46.593559-7.15441 14.834345 0 32.679043-2.750113 32.679043-5.937445-75.292248-6.589566-159.297792-11.103374-250.712147-11.551297-105.111457-.51544-200.8239254 4.440527-285.17231543 11.949817" fill="#efefef"/><path d="m37.4721264 77c-11.8894915 0-21.527682-.9288003-21.527682-2.0746695 0-1.1458693 9.6381905-2.0748632 21.527682-2.0748632 11.8894914 0 21.5278736.9289939 21.5278736 2.0748632 0 1.1458692-9.6383822 2.0746695-21.5278736 2.0746695" fill="#cececc" transform="matrix(-1 0 0 1 211.944444 101)"/><path d="m40.3275037 27.929204c1.7180013-2.8187309 4.0041424-6.5679633 4.1361345-6.7857769.3194591-.5228679 2.5499339.2607627 4.9822228 1.7503703 2.4340105 1.4905662 4.147612 3.1228264 3.8279616 3.6456942-.1878496.3092724-2.2532387 3.6972715-3.9159563 6.4232016 8.7189378 7.6685357 10.939848 20.7335194 4.6847624 30.9930021-6.9982584 11.4795076-21.9556392 15.0989334-33.4085347 8.0840306-11.45289546-7.0145196-15.06393098-22.007039-8.06529-33.4865465 5.8912465-9.6641382 17.4237198-13.7567721 27.7586997-10.6239754" fill="#3682e0" transform="matrix(-1 0 0 1 203.611112 101)"/><g fill="#2a6dbc"><path d="m20.7316908 34.8130841c-.7800202-.5117134-1.4661614-1.0273021-2.0094686-1.5008453l6.209444-10.256164 2.1238893 1.3111567z" transform="matrix(-1 0 0 1 182.777778 101)"/><path d="m13.2056745 21.8296845c-.3249106.5062294 1.415654 2.0849975 3.887656 3.526546 2.4718077 1.4406213 4.7382144 2.1988528 5.0621534 1.6920672.3247162-.5056732-1.4160427-2.0842559-3.8886277-3.5258043-2.4708361-1.4406214-4.7366598-2.198482-5.0611817-1.6928089" transform="matrix(-1 0 0 1 172.361112 101)"/><path d="m15.2573884 22.3958844c-.1109243.1803702 1.0402536 1.0866772 2.5709704 2.0241761 1.5305236.9374988 2.8594895 1.5508737 2.9700273 1.3710848.1091851-.1807578-1.0416063-1.0866772-2.5725163-2.0243698-1.5289776-.9374988-2.8587166-1.5510676-2.9684814-1.3708911" transform="matrix(-1 0 0 1 173.055556 101)"/></g><path d="m5.86620632 24.4392523 1.5052584-2.3134267c1.51668916-2.3298033.61044583-4.0209201-.2661175-5.6570718-.5550966-1.0366185-1.12944514-2.1071195-1.11259972-3.3897631.05534923-4.21555671 12.5722508-7.37628188 12.7294747-7.38004661v-.69348907c-.0473276.00169413-13.60583748 2.97533797-13.67301859 8.06224148-.01905139 1.4987391.63591451 2.7209587 1.21347166 3.7989892.86473139 1.6133752 1.54737188 2.8877363.30462132 4.7977722l-1.50646166 2.3134268z" fill="#000" transform="matrix(-1 0 0 1 160.77102 101)"/><g fill="#ffdf00" transform="matrix(-1 0 0 1 146.722222 101)"><path d="m4.21838396 2.76635514.64272715-.13189355-.74679375-2.63446159-.64209514.13153466z"/><path d="m5.60814743 10.3738318.64185257-.1320816-.74598236-2.63427356-.64290653.13190209z"/><path d="m6.74405041 3.45794393 2.28372736-2.30660127-.49405041-.45975387-2.28372736 2.30681294z"/><path d="m2.59619639 4.8411215.18158139-.52793173-2.59674063-.85524584-.18103715.52793172z"/><path d="m9.5406527 6.91588785.18156952-.52799956-2.59693382-.85517801-.18084396.52782184z"/></g><path d="m24.30239 70.4222818c13.1001106 0 23.7189632-10.5362707 23.7189632-23.5328988 0-2.2718715-.3310636-4.4655072-.9361041-6.5435886 1.8349778 3.2275617 2.8869731 6.9525747 2.8869731 10.9227143 0 12.3014086-10.0506605 22.2735474-22.4485498 22.2735474-6.495069 0-12.3409939-2.7393925-16.4403391-7.1130246 3.7772552 2.5211655 8.3254645 3.9932503 13.2190567 3.9932503" fill="#103b5f" fill-opacity=".280303" transform="matrix(-1 0 0 1 198.055556 101)"/><path d="m1.82579439 12.183028.33196262.1659813c0 .1991776.04426168.3762243.13278505.5311402.15491588.2655701.45921495.5256075.91289719.7801122.45368225.2545047.97375701.4813458 1.5602243.6805233.58646729.1991776 1.20059813.3596262 1.84239252.4813458.6417944.1217197 1.21719627.1825795 1.72620561.1825795.3762243 0 .86310281-.0276636 1.46063552-.0829907.5975327-.0553271 1.184-.171514 1.7594019-.3485607.5754018-.1770468 1.0733458-.420486 1.4938317-.7303178.420486-.3098318.630729-.7192523.630729-1.2282617 0-.5090093-.1936448-.8852336-.5809346-1.1286729-.3872897-.2434392-.896299-.4204859-1.527028-.5311401-.630729-.1106543-1.3499813-.1825795-2.15775701-.2157757-.8077757-.0331963-1.63214954-.0829907-2.4731215-.1493832s-1.66534579-.1770468-2.47312149-.3319626c-.8077757-.1549159-1.52702804-.41495331-2.15775701-.78011219-.63072898-.36515888-1.13973832-.8631028-1.52702804-1.49383178-.38728972-.63072897-.58093458-1.4551028-.58093458-2.47312149 0-.68605608.1604486-1.36104673.48134579-2.02497196.3208972-.66392524.81330842-1.25039253 1.47723365-1.75940187.66392523-.50900935 1.5048972-.92396262 2.52291589-1.24485982 1.01801869-.32089719 2.21308411-.48134579 3.58519626-.48134579 1.17293458 0 2.19095324.08852336 3.05405604.26557009s1.6100187.36515888 2.2407477.56433645 1.1618692.38728972 1.5934206.56433645.7911775.26557009 1.0788785.26557009c.3098317 0 .5311401-.06639252.6639252-.19917757l.3983551.2655701-2.290542 4.14953271-.3319626-.13278505c-.0442617-.30983177-.1327851-.56433645-.2655701-.76351402-.1770468-.26557009-.4702804-.52560747-.879701-.78011215-.4094205-.25450467-.8907663-.48134579-1.4440373-.68052336-.5532711-.19917757-1.1508038-.35962617-1.7925982-.4813458-.64179437-.12171962-1.28358876-.18257944-1.92538316-.18257944-.4868785 0-.99035514.03872898-1.5104299.11618692-.52007477.07745794-.99035514.19364486-1.41084112.34856075-.42048599.15491589-.76904673.35962617-1.04568225.61413084-.27663551.25450467-.41495327.56986916-.41495327.94609346 0 .53114018.19364486.92949532.58093458 1.19506542.38728972.26557009.89629907.46474766 1.52702804.59753271.63072897.13278504 1.34998131.22130841 2.15775701.26557009s1.63214953.09958879 2.47312147.16598131c.840972.06639252 1.6653458.18257944 2.4731215.34856075s1.5270281.4315514 2.157757.79671028c.630729.36515888 1.1397383.85757009 1.5270281 1.47723364.3872897.61966353.5809345 1.42743923.5809345 2.42332713 0 1.1508037-.304299 2.0913645-.9128972 2.8216822-.6085981.7303178-1.3665794 1.3057196-2.2739439 1.7262056s-1.8866542.7026542-2.9378691.8465047c-1.051215.1438505-2.03050471.2157757-2.93786919.2157757-1.26145795 0-2.31820561-.0719252-3.170243-.2157757-.85203738-.1438505-1.56022429-.3208972-2.12456074-.5311402s-1.01248598-.3983551-1.3444486-.5643364-.61966355-.248972-.8631028-.248972c-.15491589 0-.29876636.0885234-.43155141.2655701l-.46474766-.2655701z" fill="#fff" transform="matrix(.87461971 -.48480962 .48480962 .87461971 158.968077 148.483842)"/><g transform="matrix(-1 0 0 1 451 18)"><g fill="#b5e5e0" transform="translate(65.823205 17.761246)"><path d="m74.490048 67.217552.779234 3.4745122s-13.99301 8.9748229-27.489892-3.3304718l3.994841-6.5325999s9.750105 13.8971254 22.715817 6.3885595"/><path d="m73.511626 68.6302556s-2.729624-6.9056275.475839-7.3968421c2.638329-.404421 1.305793 4.7727221 5.535788 4.2187207 4.229994-.5549247 1.889526-5.0303328 3.453527-6.8696174 1.564001-1.8411314 3.459982.8485454 2.98322 4.1042271 0 0 1.3768 1.9233082-.020287 5.3248768 0 0-.362413 4.6286818-5.450948 5.3368803-5.087613.7063518-6.977139-4.7182454-6.977139-4.7182454"/><path d="m78.122476 74.1702697s-2.729623-6.9056275.47584-7.3968421c2.638329-.4044211 1.305793 4.7727221 5.535787 4.2187207 4.229995-.5549247 1.889527-5.0303328 3.453528-6.8696175 1.564-1.8411313 3.459982.8485455 2.98322 4.1042271 0 0 1.3768 1.9233083-.020288 5.3248769 0 0-.362413 4.6286818-5.450947 5.3368802-5.087613.7063518-6.97714-4.7182453-6.97714-4.7182453"/><path d="m18.0753675 26.7302058s-14.33236828 26.5043507-17.03432678 32.6999331c-2.7038029 6.1974291-.0636297 9.5371343 7.0214034 12.6663189 7.08503318 3.1291847 16.32794448 7.2020184 21.42385688 9.5722211 5.095912 2.3702025 9.551838 2.2464755 13.947823-5.0820396 4.395985-7.3285154 8.686843-14.1741261 11.173014-19.7012135 2.487093-5.5270874 4.012362-8.3460312-3.022874-12.5536719-7.035236-4.2085641-33.5088965-17.6015481-33.5088965-17.6015481"/><path d="m27.8402273 27.0496799c5.9341649 3.0968679 22.9057837 12.4807284 25.9351127 14.4012666 3.028407 1.9214616 7.570095 2.4265262 11.710639-4.1439305 4.141466-6.5723034 13.127092-22.4444437-2.522135-33.12559093-18.203639-12.42532825-36.1573694 6.36270623-39.2770712 10.88428103-3.1206237 4.5197282-3.4950248 7.9923937 4.1534545 11.9839738"/></g><path d="m135.406386 33.6690339c-3.5356-3.2824584-9.562904-8.1899875-15.336612-9.6368545-8.916463-2.2353957-15.903746 5.6351176-18.814115 10.9793845-2.9122132 5.344267-2.5239796 7.7735631 5.045193 11.9507338 6.193295 3.4181886 16.165642 11.3459488 22.07952 9.2019633.438953-.5318413.875139-1.1329328 1.306715-1.8171246 2.680748-4.2547308 7.475111-12.5675219 5.719299-20.6781025" fill="#e9f4f2"/><path d="m120.389767 37.6920074c0 1.1421663-.924936 2.0682719-2.066583 2.0682719-1.139802 0-2.065661-.9261056-2.065661-2.0682719 0-1.1421662.925859-2.0682719 2.065661-2.0682719 1.141647 0 2.066583.9261057 2.066583 2.0682719" fill="#32495b"/><path d="m130.817667 43.3428218c0 .9639624-.781078 1.7460278-1.743823 1.7460278-.962746 0-1.743824-.7820654-1.743824-1.7460278 0-.9639625.781078-1.7451045 1.743824-1.7451045.962745 0 1.743823.781142 1.743823 1.7451045" fill="#32495b"/><path d="m46.2537431 45.5182006-5.3273769-.00554 2.4953924 4.0746804-5.0996009 3.3738686-1.3786444-1.6370742s-1.4948378 2.2353957-.7026936 4.1226938c.791222 1.8882215 3.1658101 2.0858153 3.1658101 2.0858153s-1.2532292 1.5290439.2637406 3.0756312c1.5169699 1.5475106 7.3616843-.3203975 9.8487771-4.1420839 2.4861707-3.8216864.3421252-8.9111126-3.2654044-10.9479912" fill="#e1f9f8"/><path d="m45.6257452 46.5828067s12.7388583-15.2885922 38.2728273-2.0913553v4.4329346l-3.4599824 1.1809463s-17.5387538-9.7873582-30.5985274-1.4884171c-1.2338636.783912-2.8670269.3942643-3.5761758-.8836323z" fill="#e1f9f8"/><path d="m111.588575 137.748355 8.841768 6.110636 5.398384.551231c1.662673.170817 2.976765 1.487494 3.147366 3.151345l.116194 1.139396h-10.75066l-7.817236-6.234362c-.721137-.575239-.895427-1.601988-.40391-2.38313z" fill="#394c59"/><path d="m111.588575 137.748355s15.41223-25.111037-14.6154741-37.633315l3.0413171-4.5843621s32.628224 10.7762511 14.240151 44.0606551z" fill="#b5e5e0"/><path d="m71.2205774 88.3046528s-18.4157377 35.1532362-47.0528092 10.741164l2.834751-3.3470918s20.5339625 22.939352 39.853427-12.2000345z" fill="#e1f9f8"/><path d="m27.2063188 95.844612-3.3290342 4.1513172c-2.2288852 2.7783168-3.7218787 6.0764718-4.3397327 9.5869948-.2895614 1.64723-1.6958708 2.864187-3.3668431 2.914047l-1.1425688.03324.2425307-3.349862c.3476582-4.781955 2.3045032-9.3044534 5.5514643-12.8288257l1.7613449-1.9113048c.6252314-.6786518 1.6608284-.778372 2.4031754-.230834z" fill="#394c59"/><path d="m72.1621131 79.9937083c2.411475-5.5307807 13.5291582-26.2605901 17.0490816-32.7996534-3.1943974-1.6306108-5.3126222-2.7026035-5.3126222-2.7026035s-14.3323683 26.5043507-17.0343268 32.6999331c-2.6309514 6.032152-.1991888 9.3561605 6.4653348 12.4151716-2.5230575-2.4579196-2.9970529-5.4209038-1.1674674-9.6128478" fill="#e1f9f8"/><path d="m116.900275 17.7885835c-13.534691-.6537217-24.961301 11.5167659-27.3902972 15.0383682-2.7489892 3.9814235-3.3640767 7.1512349 1.7576563 10.5786569 1.9005928-4.4200079 9.3222179-19.2441622 25.6326409-25.6170251" fill="#e1f9f8"/><path d="m108.183001 6.88583578c-.995944-1.76264781-2.122836-3.10240788-2.955555-3.96849675.426042-.95842244.06824-2.10335868-.859463-2.63889338-.991333-.57339146-2.259317-.23268059-2.831984.75990527-.571746.99350919-.232387 2.26309575.759868 2.83556387.686095.39703434 1.503137.35548424 2.132057-.03601009.778312.81992208 1.817598 2.06919526 2.723169 3.68318603 2.263005 4.03036027 2.669682 8.31186777 1.208965 12.72633567l1.148102.3813376c1.965144-5.9388951.363335-10.75132063-1.325159-13.74292822" fill="#32495b"/><path d="m112.266371 59.2398922-3.710813 7.220485c-.268352.522608-.060863 1.1698663.461085 1.438557.521026.2686907 1.16839.0609402 1.436741-.4607445l3.687758-7.1743182z" fill="#74a5a1"/><path d="m137.731412 156.404188c0 1.985904-30.833101 3.595812-68.8657062 3.595812-38.0366431 0-68.8657058-1.609908-68.8657058-3.595812s30.8290627-3.595811 68.8657058-3.595811c38.0326052 0 68.8657062 1.609907 68.8657062 3.595811" fill="#cececc"/></g><path d="m364.143697 86.757391.004424-8.8884699c.001325-2.6667638-2.141829-4.6014125-5.096045-4.5999434-2.249903.0011218-4.182539 1.303148-4.812661 3.260351-.026292.2479675.03807.6970393.765655.9217862.798285.2453281 1.09302-.1660328 1.200055-.4374429.414829-1.1920591 1.53209-1.9632241 2.846065-1.9638783 1.790569-.0008915 3.090028 1.1970006 3.089207 2.8474299l-.000352.7076452c-.000165.3309774-.44179.546834-.858856.6395369l-3.555432.9311812c-2.660543.6075591-3.69776 1.6394542-3.698776 3.6804813-.001179 2.3720046 2.130911 4.1634582 4.967638 4.182719.038417.0004814.075724-.0062236.110808-.0212854.132539-.0574577.435519-.2526289.43581-.8382472.000291-.5845038-.301361-.8189352-.433835-.8940913-.036737-.0205982-.076819-.0294934-.11802-.0300301-1.715951-.0208765-2.955377-1.0232209-2.954692-2.4000645.000633-1.2720899.696789-1.6630342 2.161265-2.0142427 0 0 2.57595-.6782814 3.590534-.982461.172067-.0513482.342931.0789518.339501.2583721l-.009189.5633347.005683 3.1258938c-.000019.0378896.007757.0757754.022216.1103147.359809.8456517.976367 1.531259 1.784566 1.9933333.173111.0885087.214385-.0580556.214431-.1522226" fill="#3682e0" fill-opacity=".9" transform="matrix(.89879405 -.43837115 .43837115 .89879405 .985463 165.576275)"/><path d="m274.847149 117.885705 8.665278-29.5308285c-.003715-3.908035 3.346572-7.0842823 7.468335-7.0803795l6.4927.0061664.002717 2.8583286-6.492699-.0061592c-2.459568-.0023332-4.458621 1.8929472-4.456404 4.2249035l-8.665278 29.5308287z" fill="#32495b" transform="matrix(.93358043 -.35836795 .35836795 .93358043 -16.680093 109.165332)"/><path d="m286.910495 82.3979524 4.093586.0038835c.155314.0001471.281098-.1148135.280963-.2567872l-.003045-3.2028528c-.000135-.1419042-.126138-.2571037-.281452-.257251l-4.093585-.0038836c-.155238-.000147-.281022.1148136-.280887.2567179l.003045 3.2028527c.000135.1419737.126137.2571732.281375.2573205" fill="#bcbbb7" transform="matrix(.93358043 -.35836795 .35836795 .93358043 -9.671169 108.90194)"/><g transform="matrix(.75470958 .65605903 -.65605903 .75470958 283.075948 117.784422)"><path d="m2.23867928.01874009-2.05134523.78520575c-.15398633.05894228-.22779823.23922368-.16487139.40268906l.88755022 2.30559384 2.60895742-.99864632-.88755022-2.30559384c-.06292684-.16346538-.23875447-.24819076-.3927408-.18924849" fill="#bcbbb7"/><path d="m.65513299 3.14276436 1.35956626 8.74705624c.0518507.333414.42135161.5209412.76639961.3888651l5.86127505-2.2435555c.34497594-.13204853.4937318-.51795195.3085327-.80032341l-4.85920504-7.40747846z" fill="#32495b"/></g><path d="m304.321562 71.4903387-.000832-.8754021c-.000171-.1793778-.171516-.3149812-.356879-.2824823l-13.427814 2.3525126c-.644485.1128981-1.111668.6472536-1.111076 1.2708156l.003553 3.7366296 14.539279 2.850641c.187142.0367051.36228-.0990883.362108-.2807629l-.000832-.8748094c-.000119-.1255867-.086145-.2366586-.212217-.2741949l-10.503412-3.1237697-.001356-1.4270944 10.489683-2.7960012c.130054-.0347.219917-.1474574.219795-.2760819" fill="#32495b" transform="matrix(.93358043 -.35836795 .35836795 .93358043 -7.316214 111.401939)"/><path d="m307.509327 129.785147-9.114314-.008649c-1.85457-.001759-3.359473-1.606769-3.361353-3.584022l-.038404-40.3947792c-.005503-5.7919516 15.824639-5.7769346 15.830145.015017l.038404 40.3947792c.001876 1.977253-1.499978 3.57941-3.354478 3.577654" fill="#d13e3e" transform="matrix(.93358043 -.35836795 .35836795 .93358043 -17.731516 115.575682)"/><path d="m292.217897 84.2557251 3.724739.0035334-.00265-2.787668-3.724739-.0035334z" fill="#d13e3e" transform="matrix(.93358043 -.35836795 .35836795 .93358043 -10.163081 110.892236)"/><path d="m308.08581 122.351008-10.289168-.009761c-.501515-.000476-.908485-.387956-.908939-.865411l-.023974-25.2183591c-.000453-.477455.40578-.8641638.907296-.8636889l10.289168.0097615c.501516.0004758.908485.387956.908939.865411l.023974 25.2183585c.000454.477455-.40578.864164-.907296.863689" fill="#f1f0ed" transform="matrix(.93358043 -.35836795 .35836795 .93358043 -18.896002 115.791094)"/><path d="m303.788024 100.051639-7.307473-.006932c-.296328-.000281-.536793-.2085578-.537037-.465151-.000243-.2565932.239825-.464353.536154-.4640719l7.307473.0069321c.296329.0002811.536793.2084968.537037.46509s-.239825.4644138-.536154.4641328" fill="#3b3c39" transform="matrix(.93358043 -.35836795 .35836795 .93358043 -15.752795 114.172649)"/><path d="m304.719548 101.909407-7.307473-.006932c-.296329-.000282-.536793-.208497-.537037-.46509-.000244-.256594.239825-.464414.536154-.464133l7.307473.006932c.296328.000281.536793.208558.537037.465151.000243.256593-.239825.464353-.536154.464072" fill="#3b3c39" transform="matrix(.93358043 -.35836795 .35836795 .93358043 -16.356688 114.629869)"/><path d="m295.941143 80.0792147c.001217 1.2830248-1.040022 2.322068-2.325756 2.3208505-1.285672-.0012218-2.328951-1.0422425-2.330173-2.3252673-.001217-1.2829627 1.040084-2.3220679 2.325756-2.3208504 1.285734.0012218 2.328951 1.0423045 2.330173 2.3252672" fill="#3b3c39" transform="matrix(.93358043 -.35836795 .35836795 .93358043 -9.19537 110.540234)"/><path d="m295.009619 80.0791748c.001218 1.2829799-1.040107 2.3221082-2.325796 2.3208906-1.285689-.0012217-2.32891-1.0423275-2.330132-2.3253073-.001218-1.2829798 1.040027-2.3220278 2.325715-2.3208103 1.285689.0012218 2.328991 1.0422473 2.330213 2.325227" fill="#f1f0ed" transform="matrix(.93358043 -.35836795 .35836795 .93358043 -9.257242 110.206405)"/><path d="m308.67699 113.048903s-.200104.527842-.701181.989514c0 0 .481809-1.709092-1.091841-3.954995-1.299602-1.854744-1.213025-3.534756-1.213025-3.534756s-3.402844 1.97904-3.633357 5.74159c0 0-.562187-.654826-1.436856-.882763 0 0 .352457 1.468967.153137 2.822094-.176549 1.198022.603229 3.048673 2.966026 3.459443-1.010541-.307171-1.354065-1.067411-1.444682-1.680143-.114807-.776182.177165-1.332655.177165-1.332655.240052.557419.591392.7723.591392.7723.133867-2.186332 2.261142-4.142858 2.261142-4.142858s-.050266.976176.704893 2.053963c.91446 1.305118 1.246821 1.828838 1.187266 2.816537-.024467.406155-.266572 1.211158-1.389402 1.523283 2.530745-.36382 2.942448-2.009003 3.119414-2.769043.19979-.858147-.183009-1.683427-.250091-1.881511" fill="#d13e3e" transform="matrix(.93358043 -.35836795 .35836795 .93358043 -19.937483 116.675091)"/><path d="m307.25927 117.693823c-.929469.050398-1.052751-.488718-1.066567-.70681-.026755-.421763.117548-.645071.514704-1.20146.327979-.459468.305262-.87621.305262-.87621s.845008.481553 1.027825 1.764914c0 0 .167613.968141-.781224 1.019566" fill="#d13e3e" transform="matrix(.93358043 -.35836795 .35836795 .93358043 -21.280522 117.787048)"/><path d="m291.749321 78.6830829c-.676893-.0006412-1.242478.6838942-1.395219 1.6055287l.529343.2520945c.078721-.5958689.436422-1.0454371.866648-1.0450289.430226.0004081.788783.4506557.868637 1.0466751l.528927-.2510907c-.154555-.9219259-.721381-1.6075356-1.398336-1.6081787" fill="#d13e3e" transform="matrix(.93358043 -.35836795 .35836795 .93358043 -9.152678 109.842007)"/></g></svg>