<svg height="82" viewBox="0 0 171 82" width="171" xmlns="http://www.w3.org/2000/svg"><g fill="none" fill-rule="evenodd"><path d="m48.7027194 24.43h76.4572806c-3.445432 14.7062734-.32571 24.692811 9.359165 29.9596128 7.317278 3.9792613 17.30613 8.1335374 26.738365 16.3372848 2.034612 1.7696177 4.65921 5.2909237 7.873792 10.5639179l-149.343486.0991111z" fill="#c1d9f7"/><path d="m170.6 81.4046938c0-7.747-7.13-10.126-8.74-10.472.04-2.03-.21-11.794-8.69-15.928-8.46-4.124-15.18-1.293-18.16.509 2.27-3.661 5.24-10.667 2.55-19.731-3.88-13.068-15.52-12.025-17.79-11.686-.09-1.069-.49-3.877-2.18-6.969-1.94-3.548-6.02-8.13200001-14.45-9.83400001-9.42-1.898-15.61.891-19.14 3.56500001-3.13 2.36-4.76 4.993-5.3 5.978-1.78-1.439-10.68-7.87700001-20.39-1.713-4.37 2.776-6.76 6.535-8.05 10.036 0 0 5.95-4.164 18.1 1.925 11.17 5.602 10.67 14.903 10.67 14.903s10.73-5.305 21.01 2.123 6.28 18.166 6.28 18.166 5.08-8.08 16.53-6.583c8.34 1.09 11.41 6.582 13.16 9.17 0 0 12.59-2.738 16.73 6.344 0 0 10.59-.957 11.59 10.197h5.92c.19 0 .35.223.35 0" fill="#307fe2"/><path d="m128.02 45.0786938-16.44 36.326h-24.88l-.88-2.199h-26.14l15.15-31.579z" fill="#526870"/><path d="m124.16 47.2266938-47.84 2.382-13.19 27.793 47.64-.473z" fill="#ffe600"/><path d="m101.42 48.8916938s-4.98 4.905-4.38 14.34c.59 9.435 8.68 13.8 8.68 13.8l-28.11.226s10.84-4.283 10.14-14.066c-.71-9.783-6.26-15.141-6.26-15.141z" fill="#ffa403"/><path d="m87.55 61.3486938c.08.596.15 1.21.2 1.843.23 3.218-.79 5.841-2.26 7.912 2.73-1.012 3.24-3.532 3.24-3.532.05 1.433 1.34 2.069 1.34 2.069-.05-1.388 1.59-2.601 1.59-2.601 1.6 1.492 1.27 4.434 1.27 4.434 1.98-1.926 1.73-4.434 1.73-4.434 1.12 3.129 4.6 4.678 5.66 5.089-1.63-2.193-3.05-5.144-3.28-8.897-.05-.65-.06-1.276-.05-1.883z" fill="#f48c03"/><path d="m91.25 64.7696938s-.44 1.784-2.26 1.796c-1.83.011-2.04-1.721-2.04-1.721s-5.03 2.412-5.92-1.773c-.89-4.184 3.72-4.213 4.38-2.588 0 0-.85-1.783 1.16-2.424 2.02-.641 2.23 1.025 2.23 1.025s.05-2.546 2.72-2.586c2.67-.039 3.02 2.295 3.02 2.295s1.12-2.218 3.37-1.973c2.26.246 2.39 2.378 2.39 2.378s3.64-1.385 5 2.094c1.36 3.478-4 6.169-6.32 3.96 0 0-.56 1.717-2.16 1.785s-2.64-1.737-2.64-1.737-.32 1.383-1.76 1.267c-1.45-.116-1.17-1.798-1.17-1.798" fill="#ffbe06"/><g fill="#f48c03" transform="translate(68 30)"><path d="m31.65 32.9756938s-.63 2.039-2.41 2.12c-1.79.08-2.95-2.062-2.95-2.062s-.35 1.641-1.97 1.504c-1.61-.138-1.3-2.134-1.3-2.134s-.48 2.118-2.52 2.131c-2.04.014-2.27-2.042-2.27-2.042s-3.27 1.664-5.26.245c.01.109.03.22.06.334.89 4.185 5.92 1.773 5.92 1.773s.21 1.732 2.04 1.721c1.82-.012 2.26-1.796 2.26-1.796s-.28 1.682 1.17 1.798c1.44.116 1.76-1.267 1.76-1.267s1.04 1.805 2.64 1.737 2.16-1.785 2.16-1.785c2.03 1.93 6.38.118 6.53-2.691-1.65 1.486-4.34 1.956-5.86.414"/><path d="m13.49 18.0506938s2.92 2.817 4.79 8.092c-.46-2.478 1.1-3.709 1.1-3.709.06 1.624 1.76 3.101 1.76 3.101-.25-1.323 1.14-2.696 1.14-2.696.1 2.154 2.96 2.696 2.96 2.696 1.08-2.079 2.98-1.92 2.98-1.92 1.27 1.269 1.43 2.645 1.43 2.645v-.002c1.23-4.864 3.77-7.366 3.77-7.366z"/><path d="m17.06 20.6566938s-4.04 4.405-9.43.097c0 0-5.53 1.397-6.99-3.539-1.95-6.612 4.64-6.65 4.64-6.65s.09-6.528 6.1-7.334c6.01-.807 8.28 2.074 8.28 2.074s1.6-5.237 7.04-4.669c5.45.568 5.91 3.485 5.91 3.485s3.93-2.915 8.99.228c4.33 2.684 2.21 5.773 2.21 5.773s4.46 1.06 3.87 5.187c-.59 4.126-4.32 3.751-4.32 3.751s-2.53 3.884-7.53 1.525c0 0-3.08 3.769-7.23-.451 0 0-.97 3.132-3.92 2.656-2.96-.476-2.7-3.542-2.7-3.542s-.87 3.21-4.92 1.409"/></g><path d="m115.14 42.4316938c-1.09-1.777-3.33-2.31-3.33-2.31s1.26-1.841-.15-3.914l-.02-.005.01-.011c-.42-.608-1.07-1.236-2.05-1.843-5.06-3.143-8.99-.228-8.99-.228s-.46-2.917-5.91-3.485c-5.44-.568-7.04 4.669-7.04 4.669s-2.27-2.881-8.28-2.074c-6.01.806-6.1 7.334-6.1 7.334s-3.2.019-4.48 2.267c1.74 3.967 6.81 2.83 6.81 2.83 5.43 4.036 9.42.006 9.42.006 4.06 1.706 4.91-1.251 4.91-1.251s-.23 2.83 2.72 3.3c2.96.47 3.89-2.415 3.89-2.415 4.18 3.942 7.23.49 7.23.49 5.01 2.232 7.5-1.333 7.5-1.333s2.73.28 3.86-2.027" fill="#ffbe06"/><path d="m68.47 72.2356938c-1.08-.265-2.19-.586-3.36-.981-10.65-3.624-14.13-13.894-15.23-19.074-.34-1.638-1.99-2.649-3.61-2.203-1.36.376-2.25 1.673-2.11 3.076.47 4.684 2.73 14.912 13.4 20.469 3.5 1.819 7.03 2.832 10.38 3.326z" fill="#728589"/><path d="m26.39 38.6046938-1.88 4.637 23.56 6.961 1.42-4.07z" fill="#95d5d6"/><path d="m7.48 81.4046938h35.82c.57-1.069.93-2.457 1.03-4.276.45-8.602 4.12-17.464 4.91-20.627s1.01-5.987-2.74-7.017c-3.75-1.028-17.51-6.572-23.84-8.401-8.24-2.382-12.34-.891-15.21 6.689-2.88 7.579-3.32 20.783-.82 30.788.27 1.07.56 2.008.85 2.844" fill="#b5eeea"/><path d="m24.77 39.0566938c-6.67-2.189-13.02-7.121.13-19.986 13.15-12.86600001 25.93-9.14900001 37.32-2.504 11.4 6.644 9.03 19.353 4.43 24.77-4.6 5.416-8.22 8.742-17.54 5.766-9.32-2.975-24.34-8.046-24.34-8.046" fill="#b5eeea"/><path d="m31.71 20.4346938c5.95-5.828 11.84-8.581 17.58-9.298-7.8-1.72400001-16.02-.253-24.39 7.934-13.15 12.865-6.8 17.797-.13 19.986 0 0 .24.082.69.231-3.57-3.349-3.83-8.999 6.25-18.853" fill="#fff"/><path d="m34.5 22.1726938c-4.7 6.622-6.7 14.362 10.92 20.756 14.89 5.404 19.99-2.178 21.24-6.723 1.24-4.545 1-11.198-8.75-17.124-9.76-5.928-17.69-4.982-23.41 3.091" fill="#eff"/><path d="m47.4 31.8216938c-.55.797-1.63 1-2.43.455-.8-.546-1-1.634-.46-2.431.55-.797 1.64-1 2.43-.455.8.546 1 1.634.46 2.431" fill="#728589"/><path d="m58.57 37.1536938c-.54.797-1.63 1-2.43.455-.8-.546-1-1.634-.45-2.431.54-.797 1.63-1 2.43-.455.79.546 1 1.634.45 2.431" fill="#728589"/><path d="m40.44 57.2736938c-.53-.131-.85-.67-.72-1.198l2.14-8.635c.14-.528.68-.852 1.2-.721.53.132.86.671.72 1.199l-2.15 8.634c-.13.528-.67.852-1.19.721" fill="#95d5d6"/><path d="m62.51 2.99869379c1.78-.81 3.43-1.214 4.57-1.415.22-.992 1.15-1.683 2.18-1.572 1.1.119 1.9 1.108 1.78 2.211s-1.11 1.901-2.21 1.783c-.76-.083-1.38-.582-1.65-1.246-1.07.196-2.6.58-4.23 1.324-4.07 1.858-6.83 4.972-8.2 9.25600001l-1.12-.358c1.85-5.76300001 5.85-8.61000001 8.88-9.98300001" fill="#bad8d3"/><path d="m7.48 81.4046938h7.46c-.12-.431-.25-.885-.37-1.365-2.5-10.005-2.06-23.209.81-30.788 2-5.264 4.59-7.589 8.74-7.722-.52-.165-1.01-.316-1.46-.446-8.24-2.382-12.34-.891-15.21 6.689-2.88 7.579-3.32 20.783-.82 30.788.27 1.07.56 2.008.85 2.844" fill="#fff"/><path d="m82.01 75.6486938c-.65-.167-1.44-.701-1.89-2.205l-.44-1.889-1.09-.523.77.849.2 3.916c.02.375-.35.64-.71.51-.56-.212-1.26-.676-1.27-1.692l.11-1.492-.67-.319.34.692-.94 2.764c-.16.467-.75.621-1.11.28-.28-.271-.55-.677-.61-1.271-.15-1.431.07-1.784.07-1.784l-1.57-.286s-.57 3.436-3.65 3.821c-3.09.385-3.51-2.356-3.51-2.356l3.93-4.499s3.3-3.442 5.52-3.192c2.21.251 5.89 3.52 5.89 3.52l1.43 4.294c.17.503-.29.993-.8.862" fill="#728589"/><path d="m47.96 8.00969379c-.3-.805-1.06-1.34-1.92-1.34h-1.14l-.17-.406c-.28-.651-1-.992-1.67-.793l-4.08 1.199-5.4 3.278-.18-.031c-5-.344-10.07-.333-15.2.52300001-2.55.44-5.13 1.1-7.65 2.216-1.25.56-2.49 1.239-3.66 2.081-1.17.836-2.28 1.86-3.21 3.019-1.86 2.317-3.04 5.186-3.4 8.117-.37 2.937.05 5.924 1.08 8.627 1.03 2.712 2.66 5.137 4.63 7.157.98 1.011 2.04 1.934 3.17 2.752 1.13.814 2.31 1.535 3.52 2.178l.08.042c1.62.803 3.59.139 4.39-1.482.8-1.622.14-3.588-1.48-4.391l-.04-.019c-.96-.473-1.87-.998-2.74-1.585-.87-.589-1.67-1.25-2.41-1.964-1.47-1.426-2.66-3.102-3.42-4.935-.76-1.827-1.09-3.806-.91-5.718s.87-3.746 2.02-5.269c1.13-1.508 2.76-2.711 4.68-3.636 1.92-.924 4.08-1.565 6.31-2.016 4.48-.89 9.24-1.063 13.96-.874h.02c.49.019.94-.108 1.33-.341.72.031 1.56.022 2.53-.08 2.54-.263 4.12-2.451 4.76-3.549l.05.289c.23 2.296 2.16 1.778 2.16 1.778l-.4-2.84200001.25-.026.36 1.05600001c.59 2.23 2.42 1.41 2.42 1.41l-.83-2.66500001.19-.018 1.09 1.74800001c.53.83 1.44 1.334 2.42 1.334h.24z" fill="#728589"/><path d="m100.15 81.4046938h-60.98l-2.17-3.684h67.16z" fill="#526870"/></g></svg>