<svg height="207" viewBox="0 0 138 207" width="138" xmlns="http://www.w3.org/2000/svg"><g fill="none" fill-rule="evenodd" transform="translate(0 -16)"><path d="m130.738 218c0 2.761-28.594 5-63.869 5-35.273 0-63.869-2.239-63.869-5s28.596-5 63.869-5c35.275 0 63.869 2.239 63.869 5" fill="#c9c9c9"/><path d="m90.1256724 167.393791s-1.1149969-12.40835 3.2973412-25.309244c4.6219957-13.516576 18.1639664-26.748992 38.5769864-28.084547l-12.017189 14.747939s-22.252288 4.603403-24.5299313 39.252061z" fill="#cae5e1" transform="matrix(-1 0 0 1 222 0)"/><path d="m42.8739806 167.386721s1.1180756-12.553045-3.3064457-25.60438c-4.6252016-13.674196-15.3185911-28.412047-32.5675349-29.782341l1.69144767 11.278576s26.90070733 5.423683 28.84061633 44.721424z" fill="#daf2f0" transform="matrix(-1 0 0 1 50 0)"/><path d="m81.953239 219h21.046761s-.226512-7.777007-8.0883741-8.896137c-2.8502788-.407819-5.2758473-.417303-7.2106392-.27504l2.6332046-28.699052-9.3341913-3.129771 1.9442299 32.663428-.5190905.170715z" fill="#728589" transform="matrix(-1 0 0 1 184 0)"/><path d="m26.9622642 219h21.0377358s-.2264151-7.777007-8.0849057-8.896137c-2.8584905-.407819-5.2830188-.417303-7.2169811-.27504l2.6320755-28.699052-9.3301887-3.129771 1.9433962 32.663428-.5.170715z" fill="#728589" transform="matrix(-1 0 0 1 74 0)"/><path d="m29 136.233167c0 9.368246.2379261 25.485453.3711647 37.654614.0380682 3.948046 3.2357951 7.112219 7.1568175 7.112219h68.2657598c3.95909 0 7.166334-3.22153 7.166334-7.188695v-48.141313s1.855824-13.669992-19.7383497-13.669992c-21.613208 0-37.7445983 1.080216-49.5076653 3.125935-11.782101 2.055279-13.714061 12.541979-13.714061 21.107232" fill="#daf2f0" transform="matrix(-1 0 0 1 141 0)"/><path d="m57.1708521 173.887781c-.1341269-12.169161-.3736392-28.286368-.3736392-37.654614 0-8.565253 1.9448396-19.051953 13.7959066-21.107232 10.2702859-1.768495 23.8362607-2.820033 41.4068805-3.068578l-2.356801-.057357c-21.7572939 0-37.9962256 1.080216-49.837712 3.125935-11.8606474 2.055279-13.805487 12.541979-13.805487 21.107232 0 9.368246.2395123 25.485453.3736391 37.654614.038322 3.948046 3.2573669 7.112219 7.204529 7.112219h10.8067934c-3.9567426 0-7.166207-3.164173-7.2141094-7.112219" fill="#cae5e1" transform="matrix(-1 0 0 1 158 0)"/><path d="m12.0385628 99h55.1645711c11.7758456 0 15.7968661-5.8399188 15.7968661-22.3403092 0-16.5003905-9.4398242-38.6596908-39.0038984-38.6596908-29.5640742 0-40.66017588 17.7102921-43.08236201 34.0392004-2.41261227 16.3384351-.48826677 26.9607996 11.12482321 26.9607996" fill="#daf2f0" transform="matrix(-.98768834 -.15643447 -.15643447 .98768834 120.63003722 13.15577701)"/><path d="m26.5135208 72.9442449c2.3259139-15.7858816 14.1928213-29.0471654 42.6069443-29.0471654 5.3448551 0 9.9302281.2381696 13.8795349.6859285-5.7720638-4.020303-13.4238456-6.583008-23.3730608-6.583008-29.316008 0-40.3190046 17.7102921-42.7208666 34.0392004-2.3923685 16.3384351-.4841698 26.9607996 11.0314771 26.9607996h9.2656813c-11.154893 0-13.0061305-10.2698735-10.6897102-26.0557551" fill="#cae5e1" transform="matrix(-.98768834 -.15643447 -.15643447 .98768834 136.43305066 15.65872853)"/><path d="m69 77.0549443c0-5.3129228-.9916415-11.2224839-3.32772-16.7816383-1.8497927-4.4037595-6.1977592-7.273306-11.0034064-7.273306h-26.6026898c-14.8460172 0-26.02105386 15.6262433-22.3691434 28.1935311 3.65191046 12.5578174 18.9556083 10.7110795 31.8564826 10.7110795h21.7112275c4.9296023 0 9.0582635-3.721887 9.4873391-8.599169.1716303-1.8846197.2479104-3.9681188.2479104-6.2504973" fill="#cae5e1" transform="matrix(-.98768834 -.15643447 -.15643447 .98768834 111.74084216 11.74786678)"/><path d="m40.14 64.005c0 1.73-1.41 3.14-3.15 3.14-1.73 0-3.13-1.41-3.13-3.14 0-1.74 1.4-3.15 3.13-3.15 1.74 0 3.15 1.41 3.15 3.15" fill="#6e868e" transform="matrix(-.98768834 -.15643447 -.15643447 .98768834 111.74084216 11.74786678)"/><path d="m22.14 64.005c0 1.73-1.4 3.14-3.14 3.14s-3.14-1.41-3.14-3.14c0-1.74 1.4-3.15 3.14-3.15s3.14 1.41 3.14 3.15" fill="#6e868e" transform="matrix(-.98768834 -.15643447 -.15643447 .98768834 76.18406192 6.11622586)"/><path d="m62.2320795 16.1028039c-2.0010129-3.5930784-4.2634929-6.32118497-5.9381705-8.08514102.8534294-1.95230948.1365922-4.28462315-1.7270418-5.37713284-1.9920281-1.16894485-4.5380368-.47628665-5.687038 1.54566328-1.1464074 2.02326795-.4631537 4.60838013 1.5288742 5.77732495 1.3785967.80785123 3.0199421.72439623 4.2823499-.07160686 1.5631317 1.66909489 3.6504909 4.21672009 5.4711372 7.50422389 4.5470743 8.2108565 5.3669249 16.9307555 2.4399824 25.9200401l2.3055892.7780273c3.9405677-12.0936671.7190328-21.8971263-2.6756826-27.9913988" fill="#afcec9" transform="matrix(-.81915204473 -.5735764443 -.5735764443 .81915204473 152.21418787225 46.05385686184)"/><path d="m137.897885 170.882429c-.737756-5.577679-3.991445-8.039812-7.027592-8.456481l-.066209-.009469-.331044-.113637c-3.272607-.880686-7.018133.265153-8.890897 2.073874-2.449725 2.357965-2.534851 5.710254-2.534851 5.710254l-.047292 1.070081.558046 4.346612c.189168 1.458341 1.380926 2.481073 2.638893 2.263269l1.532261-1.051141.018917.482956c.047292 1.47728 1.153925 2.623119 2.421351 2.556831l1.399843-.634473v.028409c-.151334 1.373113.70938 2.632589 1.901139 2.793575l.29321.037879c1.191759.170455 2.279475-.823868 2.430809-2.187511l.255377-2.518952v-7.329581s2.014639.568185 2.355142 4.128808c.340502 3.560624 3.830652 2.395845 3.092897-3.191303" fill="#cae5e1" transform="matrix(-1 0 0 1 257 0)"/><path d="m.10432984 170.882429c.7376688-5.577679 3.98152009-8.039812 7.01731094-8.456481l.07565834-.009469.32154794-.113637c3.27222314-.880686 7.01731094.265153 8.88985484 2.073874 2.4494387 2.357965 2.5345543 5.710254 2.5345543 5.710254l.0567438 1.070081-.5674375 4.346612c-.1796886 1.458341-1.3713074 2.481073-2.6385846 2.263269l-1.5226241-1.051141-.0189146.482956c-.066201 1.47728-1.1537896 2.623119-2.4399814 2.556831l-1.3996793-.634473.0094573.028409c.1418594 1.373113-.7187542 2.632589-1.91037304 2.793575l-.29317607.037879c-1.19161883.170455-2.27920746-.823868-2.42106684-2.187511l-.26480419-2.518952v-7.329581s-2.01440327.568185-2.34540851 4.128808c-.33100523 3.560624-3.83020341 2.395845-3.08307731-3.191303" fill="#daf2f0" transform="matrix(-1 0 0 1 19 0)"/></g></svg>