<svg height="219" viewBox="0 0 266 219" width="266" xmlns="http://www.w3.org/2000/svg" xmlns:xlink="http://www.w3.org/1999/xlink"><linearGradient id="a" x1="50%" x2="50%" y1="0%" y2="100%"><stop offset="0" stop-color="#eee"/><stop offset="1" stop-color="#d8d8d8"/></linearGradient><g fill="none" fill-rule="evenodd"><g fill-rule="nonzero"><g fill="#7a99a5" transform="matrix(-.06975647 .99756405 -.99756405 -.06975647 165.187569 95.809335)"><path d="m48.2602303 4.79648943c-.546 1.469-2.008 2.427-3.613 2.355-4.656-.211-14.1979994.797-17.8009994 11.86599997-5.295 16.266 17.8749994 25.974 37.8989994 24.476l1.436 6.0170004s-25.097 2.067-39.5119994-10.5990004c-14.415-12.665-6.435-32.30599997 6.869-36.95099997 4.7139994-1.646 8.5669994-2.021 11.3339994-1.953 2.52.062 4.245 2.485 3.388 4.789" transform="matrix(-1 0 0 1 85.18123 0)"/><path d="m15.2565587 35s-6.978 1.369-11.256 2.452c-6.005 1.52-4.88 14.3800004.913 14.1060004 7.702-.364 16.087-4.07 16.087-4.07l-1.047-3.8630004-13.169 2.445v-4.374l8.973-3.198z" transform="matrix(-1 0 0 1 21.000558 0)"/></g><path d="m261.002976 149.150383c-1.646 1.978-4.585 2.246-6.562.6-1.979-1.647-2.247-4.585-.601-6.563 1.646-1.977 4.585-2.246 6.563-.599 1.978 1.646 2.247 4.585.6 6.562zm-11.72 14.076c-1.646 1.979-4.584 2.248-6.562.601s-2.246-4.585-.6-6.562c1.647-1.979 4.585-2.248 6.563-.601 1.977 1.646 2.246 4.585.599 6.562zm-.738-24.447c-2.387 2.867-3.147 6.549-2.389 9.928-3.461-.134-6.943 1.281-9.33 4.149-4.081 4.902-3.415 12.185 1.487 16.266s12.184 3.415 16.266-1.487c1.363-1.637 2.194-3.54 2.517-5.5l8.298 6.908c1.418 1.181 3.525.988 4.706-.43 1.18-1.418.987-3.525-.431-4.706l-8.28-6.892c1.852-.676 3.556-1.832 4.909-3.456 4.081-4.903 3.415-12.185-1.487-16.266-4.902-4.081001-12.185-3.416001-16.266 1.486z" fill="#5d7e93" transform="matrix(-.74314483 -.66913061 -.66913061 .74314483 542.682089 208.316137)"/><path d="m162.139953 107.452921c-1.288 6.122001 15.85 25.323001 23.230001 30.747002 7.379001 5.423 33.952002 11.424 42.578002 12.1 8.627001.674 3.109001-20.559001 3.109001-20.559001s-65.443004-38.8010019-68.917004-22.288001" fill="#94c4bf" transform="matrix(-.74314483 -.66913061 -.66913061 .74314483 429.026071 164.687679)"/><path d="m226.094786 198.568344c3.69-18.071 9.396-27.525001 11.506-32.203001 2.83-6.273001 1.616-11.310001-3.98-15.373001-5.597-4.064-10.948-8.527-22.272002-16.439-7.388-5.163-21.253001-7.556-29.997002-8.597-5.005-.596-9.926 1.787-12.476 6.135-10.068 17.175-13.794 40.003001-17.027 60.790002-.318 2.045-.502 3.93-.582 5.687z" fill="#cae5e1" transform="matrix(-.74314483 -.66913061 -.66913061 .74314483 448.752898 172.260098)"/><path d="m203.501042 213.46659c.103-1.113.233-2.259.422-3.477 3.233-20.787001 6.958999-43.615003 17.027-60.789003 2.537-4.328 7.422-6.706 12.403-6.141-4.729-1.06-9.433-1.758-13.19-2.205-5.005-.596-9.926001 1.787-12.476 6.135-10.068 17.175-13.794 40.003002-17.027 60.789003-.318 2.046-.502 3.931-.582 5.688z" fill="#daf2f0" transform="matrix(-.74314483 -.66913061 -.66913061 .74314483 487.564154 187.158344)"/><path d="m225.390266 61.6064478c-.69-.62-1.587-.861-2.437-.741-1.191-1.7210001-3.181-4.0890001-6.22-6.2420002-5.031-3.564-14.003-7.171-28.174002-4.102-.525.114-.859.631-.746 1.158.046.208.154.386.302.517.224.202.539.296.856.228 10.620002-2.3 19.801002-1.011 26.548002 3.7270001 2.73 1.917 4.558 4.0450001 5.677 5.6200001l-.067.067c-1.113 1.241-1.008 3.1490001.232 4.2620001 1.241 1.112 3.149 1.009 4.262-.233 1.112-1.241 1.008-3.1490001-.233-4.2610001" fill="#6d8c8c" transform="matrix(.40673664 -.91354546 .91354546 .40673664 69.767761 223.66714)"/><path d="m224.701932 142.064567c-4.880001 3.145-9.070001 6.995-16.899001-1.382-7.828001-8.377-18.026001-22.848-33.683002-27.46-15.655001-4.613001-29.920001-6.445001-21.323001-15.1940017 8.597001-8.7490003 17.313001-18.5390006 23.197001-23.533001 5.885001-4.9940001 17.262001-9.2780002 34.954002-3.994 17.693001 5.284 33.904002 23.2710007 35.207002 34.8890017 1.773 15.793001-16.572001 33.531001-21.453001 36.674001" fill="#cae5e1" transform="matrix(-.74314483 -.66913061 -.66913061 .74314483 417.099043 160.109322)"/><path d="m190.699056 115.098815c8.596-8.75 17.313-18.5400012 23.197001-23.5340013 5.885-4.9940004 17.262001-9.2780004 34.955001-3.9940004 2.468.7370001 4.905 1.7300001 7.279 2.9090001-5.214-4.0870001-11.165-7.4430001-17.294-9.2730001-17.692001-5.2840002-29.069002-1-34.954002 3.994-5.884 4.9940001-14.6 14.7840007-23.197001 23.5330017-5.869 5.974-1.081 8.723 7.530001 11.334.171-1.733.954-3.412 2.484-4.969" fill="#daf2f0" transform="matrix(-.74314483 -.66913061 -.66913061 .74314483 444.987169 170.81457)"/><path d="m181.747215 72.0761745c-12.83-1.162-25.435001 15.7640005-22.291001 24.2480008 3.146 8.4840007 7.083001 4.8930007 21.541001 20.3809997 14.459 15.488002 17.954 17.014002 24.793 9.805001s14.433001-12.568001 11.790001-22.403c-2.642001-9.8350008-18.543001-30.4650014-35.833001-32.0310015" fill="#fff6f6" transform="matrix(-.74314483 -.66913061 -.66913061 .74314483 396.468329 152.189933)"/><path d="m200.999998 99.9990176c0 3.8667414-.223734 7.0009814-.49993 7.0009814s-.50007-3.13424-.50007-7.0009814c0-3.8647777.223874-6.9990182.50007-6.9990182s.49993 3.1342405.49993 6.9990182" fill="#9f3a38" transform="matrix(-.74314483 -.66913061 -.66913061 .74314483 416.413594 159.846202)"/><path d="m201.000003 99.999018c0 3.866742-.223734 7.000982-.49993 7.000982s-.50007-3.13424-.50007-7.000982c0-3.8647777.223874-6.9990182.50007-6.9990182s.49993 3.1342405.49993 6.9990182" fill="#9f3a38" transform="matrix(.74314483 -.66913061 .66913061 .74314483 -15.413597 159.846206)"/><path d="m180.999999 99.9990177c0 3.8667413-.223734 7.0009823-.49993 7.0009823s-.50007-3.134241-.50007-7.0009823c0-3.8647777.223874-6.9990182.50007-6.9990182s.49993 3.1342405.49993 6.9990182" fill="#9f3a38" transform="matrix(-.74314483 -.66913061 -.66913061 .74314483 381.5507 146.463591)"/><path d="m181.000002 99.9990167c0 3.8667413-.223734 7.0009823-.49993 7.0009823s-.50007-3.134241-.50007-7.0009823c0-3.8647777.223874-6.9990182.50007-6.9990182s.49993 3.1342405.49993 6.9990182" fill="#9f3a38" transform="matrix(.74314483 -.66913061 .66913061 .74314483 -20.5507 146.463593)"/><g fill="#7a99a5" transform="translate(197 154)"><path d="m39.2246887 11.7254624c-4.656-.211-16.270223.650609-19.873223 11.719609-3.172071 9.744458 8.894168 23.238828 1.895223 20.040391-17.45673596-7.977525-6.435-32.306 6.869-36.95100002 4.714-1.646 8.567-2.021 11.334-1.953 2.52.062 4.245 2.485 3.388 4.789-.546 1.46900002-2.008 2.42700002-3.613 2.35500002z" transform="matrix(-.61566148 -.78801075 -.78801075 .61566148 63.796678 31.115719)"/><path d="m18.6277865 36.0812873s-6.9779999 1.3689999-11.25599968 2.4519999c-6.00499982 1.5199998-4.87999985 14.3799996.91299998 14.1059996 7.7019998-.364 16.0869995-4.07 16.0869995-4.07l-1.047-3.8629999-13.1689997 2.445v-4.374l8.9729999-3.1979997z" transform="matrix(-.80901699 .58778525 .58778525 .80901699 -.981799 .319006)"/></g></g><path d="m34.147607 18.9571846 193 188.0000004" stroke="#7a99a5" stroke-linecap="square" stroke-width="6" transform="matrix(.99862953 .05233596 -.05233596 .99862953 6.09077 -6.682764)"/><path d="m195.219011 95.5235144c-2.504-9.3200004-16.916-28.323001-33.132-31.6210012 15.066 4.7240002 28.014 22.1190008 30.375 30.9070012 2.643 9.8360006-4.95 15.1940006-11.79 22.4030006-2.621 2.762-4.752 4.237-7.196 4.139 3.75 1.698 6.402.318 9.953-3.425 6.839-7.209 14.433001-12.568 11.79-22.4030006" fill="#94c4bf" fill-rule="nonzero" transform="matrix(-.74314483 -.66913061 -.66913061 .74314483 374.107124 143.60627)"/><path d="m-.85297721 32.193416h70.00000001l-33.2124324 81.633866c-.8325165 2.046267-3.1662321 3.030207-5.2124998 2.197691-1.0516629-.427865-1.8719518-1.28249-2.2563568-2.350805z" fill="#3682e0" fill-rule="nonzero" transform="matrix(.67815967 .7349146 -.7349146 .67815967 65.562571 -1.196192)"/><path d="m57.1978433 74.6938785v-19.4741445c0-5.8427316-4.6453792-10.0837783-11.0458946-10.0837783-4.8745722 0-9.0603594 2.8505597-10.4234545 7.1379966-.056695.5432544.0832336 1.5272163 1.6598398 2.020418 1.7298037.5383712 2.3679249-.3625765 2.5995305-.9571044.8974712-2.6112835 3.3172663-4.2996448 6.1640842-4.2996448 3.8793928 0 6.6960537 2.625933 6.6960537 6.2419319v1.5504116c0 .725153-.9565795 1.1976012-1.860082 1.4002534l-7.7020899 2.0362885c-5.7635998 1.3282265-8.0096907 3.5879209-8.0096907 8.0596982 0 5.1969301 4.6212535 9.1242325 10.7672438 9.1697301.0832335.0008924.1640538-.0137567.2400496-.0467186.2870944-.1257418.9433101-.5530204.9433101-1.8360778 0-1.2806153-.653803-1.7945706-.9408974-1.9593782-.0796144-.0451696-.1664665-.0647021-.2557313-.0659231-3.7177511-.0476111-6.4041338-2.2450443-6.4041338-5.2616324 0-2.7870782 1.5078486-3.6428565 4.6803613-4.4107375 0 0 5.5802459-1.4832676 7.7780859-2.1486017.3727399-.1123135.7430672.1733531.7358295.5664496l-.0193003 1.2342252.0156817 6.8486678c0 .0830142.0168881.1660285.048251.2417174.7804625 1.8531694 2.1170191 3.3559697 3.8685359 4.3692306.3751527.194107.4644175-.1269629.4644175-.3332776" fill="#fff" fill-rule="nonzero" transform="matrix(.74314483 -.66913061 .66913061 .74314483 -29.152165 46.687904)"/><circle cx="33.469344" cy="8.728425" fill="url(#a)" fill-rule="nonzero" r="7.5" stroke="#979797" stroke-width="2" transform="matrix(.99862953 .05233596 -.05233596 .99862953 .502679 -1.739688)"/></g></svg>