<svg height="119" viewBox="0 0 170 119" width="170" xmlns="http://www.w3.org/2000/svg"><g fill="none"><path d="m159.972624 32.8661186c-1.646 1.978-4.585 2.246-6.562.6-1.979-1.647-2.247-4.585-.601-6.563 1.646-1.977 4.585-2.246 6.563-.599 1.978 1.646 2.247 4.585.6 6.562zm-11.72 14.076c-1.646 1.979-4.584 2.248-6.562.601s-2.246-4.585-.6-6.562c1.647-1.979 4.585-2.248 6.563-.601 1.977 1.646 2.246 4.585.599 6.562zm-.738-24.447c-2.387 2.867-3.147 6.549-2.389 9.928-3.461-.134-6.943 1.281-9.33 4.149-4.081 4.902-3.415 12.185 1.487 16.266s12.184 3.415 16.266-1.487c1.363-1.637 2.194-3.54 2.517-5.5l8.298 6.908c1.418 1.181 3.525.988 4.706-.43 1.18-1.418.987-3.525-.431-4.706l-8.28-6.892c1.852-.676 3.556-1.832 4.909-3.456 4.081-4.903 3.415-12.185-1.487-16.266s-12.185-3.416-16.266 1.486z" fill="#5d7e93" transform="matrix(-1 0 0 1 302.964624 0)"/><path d="m57.6125557 34.7971186c-1.288 6.122 15.85 25.323 23.23 30.747 7.379 5.423 33.9520003 11.424 42.5780003 12.1 8.627.674 3.109-20.559 3.109-20.559s-65.4430003-38.801-68.9170003-22.288" fill="#94c4bf" transform="matrix(-1 0 0 1 185.811556 0)"/><path d="m145.821841 118.340119c3.69-18.071 9.396-27.5250004 11.506-32.2030004 2.83-6.273 1.616-11.31-3.98-15.373-5.597-4.064-10.948-8.527-22.272-16.439-7.388-5.163-21.253-7.556-29.997-8.597-5.0050003-.596-9.9260003 1.787-12.4760003 6.135-10.068 17.175-13.794 40.003-17.027 60.7900004-.318 2.045-.502 3.93-.582 5.687z" fill="#cae5e1" transform="matrix(-1 0 0 1 229.79284 0)"/><path d="m128.947 118.340119c.103-1.113.233-2.259.422-3.477 3.233-20.7870004 6.959-43.6150004 17.027-60.7890004 2.537-4.328 7.422-6.706 12.403-6.141-4.729-1.06-9.433-1.758-13.19-2.205-5.005-.596-9.926 1.787-12.476 6.135-10.068 17.175-13.794 40.003-17.027 60.7890004-.318 2.046-.502 3.931-.582 5.688z" fill="#daf2f0" transform="matrix(-1 0 0 1 274.323 0)"/><path d="m37.8435755 37.9801186c-.69-.62-1.587-.861-2.437-.741-1.191-1.721-3.181-4.089-6.22-6.242-5.031-3.564-14.003-7.171-28.17400003-4.102-.525.114-.859.631-.746 1.158.046.208.154.386.302.517.224.202.539.296.856.228 10.62000003-2.3 19.80100003-1.011 26.54800003 3.727 2.73 1.917 4.558 4.045 5.677 5.62l-.067.067c-1.113 1.241-1.008 3.149.232 4.262 1.241 1.112 3.149 1.009 4.262-.233 1.112-1.241 1.008-3.149-.233-4.261" fill="#6d8c8c" transform="matrix(-1 0 0 1 39.091576 0)"/><path d="m106.632222 73.9871186c-4.88 3.145-9.07 6.995-16.899-1.382-7.828-8.377-18.026-22.848-33.683-27.46-15.655-4.613-29.92-6.445-21.323-15.194s17.313-18.539 23.197-23.53300005c5.885-4.994 17.262-9.278 34.954-3.994 17.693 5.284 33.904 23.27100005 35.207 34.88900005 1.773 15.793-16.572 33.531-21.453 36.674" fill="#cae5e1" transform="matrix(-1 0 0 1 160.342222 0)"/><path d="m62.7739326 36.3161186c8.596-8.75 17.313-18.54 23.197-23.534 5.885-4.99400005 17.2620004-9.27800005 34.9550004-3.99400005 2.468.737 4.905 1.73000005 7.279 2.90900005-5.214-4.08700005-11.165-7.44300005-17.294-9.27300005-17.6920004-5.284-29.0690004-1-34.9540004 3.994-5.884 4.99400005-14.6 14.78400005-23.197 23.53300005-5.869 5.974-1.081 8.723 7.53 11.334.171-1.733.954-3.412 2.484-4.969" fill="#daf2f0" transform="matrix(-1 0 0 1 178.374932 0)"/><path d="m62.4411442 11.9181186c-12.83-1.162-25.435 15.764-22.291 24.248 3.146 8.484 7.083 4.893 21.541 20.381 14.459 15.488 17.954 17.014 24.793 9.805s14.4329998-12.568 11.79-22.403c-2.642-9.835-18.543-30.465-35.833-32.031" fill="#e4f4f2" transform="matrix(-1 0 0 1 138.475144 0)"/><path d="m72.7947081 43.9491186c-2.504-9.32-16.916-28.323-33.132-31.621 15.066 4.724 28.014 22.119 30.375 30.907 2.643 9.836-4.95 15.194-11.79 22.403-2.621 2.762-4.752 4.237-7.196 4.139 3.75 1.698 6.402.318 9.953-3.425 6.839-7.209 14.433-12.568 11.79-22.403" fill="#94c4bf" transform="matrix(-1 0 0 1 112.995708 0)"/><path d="m146.15223 58.4551186c-.546 1.469-2.008 2.427-3.613 2.355-4.656-.211-14.198.797-17.801 11.866-5.295 16.266 17.875 25.974 37.899 24.476l1.436 6.0170004s-25.097 2.067-39.512-10.5990004c-14.415-12.665-6.435-32.306 6.869-36.951 4.714-1.646 8.567-2.021 11.334-1.953 2.52.062 4.245 2.485 3.388 4.789" fill="#7a99a5" transform="matrix(-1 0 0 1 280.96523 0)"/><path d="m119.064144 112.548119c-.756.144-1.486-.352-1.629-1.107-.144-.756.352-1.486 1.108-1.629.755-.144 1.484.352 1.628 1.107.145.756-.352 1.485-1.107 1.629zm-8.972-30.4360004 4.678 29.8310004c.357 2.371 2.612 3.968 4.966 3.52 2.354-.447 3.864-2.763 3.326-5.098l-6.611-29.4640004c4.167-2.201 6.601-6.932 5.674-11.802-.586-3.077-2.401-5.607-4.838-7.185l-2.197.419 1.416 7.438-4.746 4.299-5.81-2.29-1.416-7.438-2.197.419c-1.686 2.362-2.4449997 5.382-1.859 8.459.927 4.871 4.929 8.377 9.614 8.892z" fill="#5d7e93" transform="matrix(-1 0 0 1 223.453144 0)"/><path d="m113.427559 88.2891186s-6.978 1.369-11.256 2.452c-6.0050003 1.52-4.8800003 14.3800004.913 14.1060004 7.702-.364 16.087-4.07 16.087-4.07l-1.047-3.8630004-13.169 2.445v-4.374l8.973-3.198z" fill="#7a99a5" transform="matrix(-1 0 0 1 217.342558 0)"/><g fill="#5d7e93" transform="matrix(-1 0 0 1 95 87)"><path d="m8.74 21.336119c-4.781-8.3500004 3.785-16.9150004 12.133-12.1350004.958.549 1.765 1.356 2.314 2.314 4.783 8.3490004-3.784 16.9180004-12.135 12.1350004-.958-.549-1.765-1.356-2.312-2.314zm22.233-8.4360004h-1.94c-.341-1.266-.859-2.459-1.529-3.548l1.415-1.414c.169-.169.169-.444 0-.614l-4.187-4.187c-.17-.169-.446-.169-.615.001l-1.501 1.502c-1.071-.607-2.233-1.071-3.46-1.367v-2.191c0-.239-.195-.433-.435-.433h-5.919c-.24 0-.435.194-.435.433v2.295c-1.175.323-2.288.8-3.313 1.41l-1.648-1.65c-.17-.169-.445-.169-.615 0l-4.185 4.186c-.17.17-.17.446 0 .615l1.668 1.668c-.598 1.02-1.065 2.126-1.379 3.294h-2.345c-.24 0-.434.1950004-.434.4340004v5.92c0 .239.194.434.434.434h2.275c.298 1.202.757 2.339 1.352 3.391l-1.571 1.571c-.17.17-.17.445 0 .615l4.185 4.185c.17.169.445.169.615 0l1.483-1.483c1.07.657 2.239 1.168 3.478 1.509v2.03c0 .239.195.434.435.434h5.919c.24 0 .435-.195.435-.434v-1.926c1.292-.312 2.51-.81 3.628-1.464l1.333 1.335c.17.17.445.17.614 0l4.187-4.186c.169-.17.169-.446-.001-.615l-1.314-1.315c.667-1.121 1.177-2.347 1.499-3.647h1.871c.24 0 .435-.195.435-.434v-5.92c0-.239-.195-.4340004-.435-.4340004z"/><path d="m37.647 31.404119h17.682v-6.538h-17.682z"/><path d="m49.49 25.900119h-6.003v-16.4390004c0-1.6 1.296-2.896 2.897-2.896h.209c1.6 0 2.897 1.296 2.897 2.896z"/></g><g fill="#91b0c1" transform="matrix(-1 0 0 1 52 96)"><path d="m6.49 3.6931186-6.003-1.906v-1.593l6.003 1.908z"/><path d="m6.474 9.176119-6.003-1.906v-1.592l6.003 1.906z"/><path d="m6.49 14.463119-6.003-1.906v-1.592l6.003 1.906z"/></g><g fill="#5d7e93"><path d="m78.129 44.564c0 1.969-1.597 3.565-3.565 3.565s-3.564-1.596-3.564-3.565c0-1.968 1.596-3.564 3.564-3.564s3.565 1.596 3.565 3.564" transform="matrix(-1 0 0 1 149.129 0)"/><path d="m66 55.564c0 1.969-1.595 3.565-3.564 3.565s-3.565-1.596-3.565-3.565c0-1.968 1.596-3.564 3.565-3.564s3.564 1.596 3.564 3.564" transform="matrix(-1 0 0 1 124.871 0)"/></g></g></svg>