<svg height="109" viewBox="0 0 203 109" width="203" xmlns="http://www.w3.org/2000/svg" xmlns:xlink="http://www.w3.org/1999/xlink"><mask id="a" fill="#fff"><path d="m78.708 24.22c-.032-1.371-.27-2.85-.808-4.424-2.952-8.66-11.817-7.968-13.549-7.744-.071-.708-.372-2.569-1.66-4.619-1.474-2.35-4.582-5.389-11.008-6.516-7.171-1.258-11.886.59-14.578 2.362-2.378 1.564-3.623 3.309-4.035 3.961-1.356-.953-8.135-5.219-15.527-1.135-3.33 1.84-5.15 4.332-6.138 6.651-11.232 1.029-10.485 8.93-10.448 11.464z" fill="#fff" fill-rule="evenodd"/></mask><g fill="none" fill-rule="evenodd"><path d="m8.821 89.4605944c-.042-1.783.219-10.362 8.779-13.994 8.54-3.623 15.328-1.137 18.34.447-2.298-3.216-5.292-9.372-2.577-17.336 3.914-11.48 15.668-10.563 17.964-10.266.093-.939.494-3.406 2.199-6.124 1.956-3.116 6.076-7.144 14.596-8.639 9.506-1.668 15.757.783 19.328 3.132 3.151 2.074 4.802 4.387 5.347 5.252 1.799-1.264 10.787-6.92 20.586-1.505 1.864 1.03 3.37 2.214 4.587 3.47 1.733-1.037 3.758-1.634 5.924-1.634 2.678 0 5.142.914 7.101 2.443.83-1.115 2.015-2.216 3.708-3.14 5.632-3.071 10.886-.956 12.065-.405.89-.873 4.806-4.236 10.455-2.182 5.299 1.927 6.089 6.663 6.201 8.318 1.086-.517 11.939-2.759 18.188 5.479 6.269 8.265 3.66 16.528 2.292 18.536 2.83.848 4.749 2.363 5.706 4.508 1.622 3.635.001 7.945-.624 9.358 13.062 1.401 13.215 13.01 13.215 13.128 0 .196-.158.354-.355.354h-201.493c-.195 0-.353-.158-.353-.354 0-6.806 7.198-8.542 8.821-8.846" fill="#00ccd3"/><path d="m8.821 89.4605944c-.039-1.684.191-9.429 7.429-13.344 2.799-1.718 7.959-4.325 14.211-4.902 0 0-2.608-8.476 5.786-17.836 5.072-5.961 13.211-5.309 15.08-5.067.093-.939.494-3.406 2.199-6.124 1.956-3.116 6.076-7.144 14.596-8.639 9.506-1.668 15.757.783 19.328 3.132 3.151 2.074 4.802 4.387 5.347 5.252 1.799-1.264 10.787-6.92 20.586-1.505 4.414 2.44 6.828 5.742 8.137 8.818 0 0-6.015-3.659-18.279 1.691-11.285 4.922-10.782 13.093-10.782 13.093s-10.827-4.66-21.206 1.866c-10.381 6.526-6.347 15.96-6.347 15.96s-5.129-7.099-16.691-5.784c-8.419.958-11.525 5.783-13.293 8.057 0 0-12.709-2.406-16.89 5.573 0 0-10.691-.84-11.704 8.959h-5.975c-.195 0-.353-.158-.353-.354 0-6.806 7.199-8.542 8.821-8.846" fill="#00f3e8"/><path d="m78.708 24.22c-.032-1.371-.27-2.85-.808-4.424-2.952-8.66-11.817-7.968-13.549-7.744-.071-.708-.372-2.569-1.66-4.619-1.474-2.35-4.582-5.389-11.008-6.516-7.171-1.258-11.886.59-14.578 2.362-2.378 1.564-3.623 3.309-4.035 3.961-1.356-.953-8.135-5.219-15.527-1.135-3.33 1.84-5.15 4.332-6.138 6.651-11.232 1.029-10.485 8.93-10.448 11.464z" mask="url(#a)" transform="translate(108 74)"/><path d="m.04375457 97.6021143s-.892.882 5.379 1.852c7.35900003 1.1369997 20.02400003.286 21.77300003 2.3859997 1.91 2.294-6.966 1.642-6.803 4.321.136 2.276 9.725 2.193 20.533 2.193h101.4890004c8.753 0 7.169-1.985 5.93-2.888-1.8-1.312-1.009-2.523 6.868-2.69 7.645-.163 13.244-.302 17.417-.302 11.128 0 8.943-2.7459997 17.613-2.7459997 5.606 0 12.35-1.056 12.35-2.279-28.459-2.53-60.209-4.263-94.76-4.435-39.7310004-.198-75.9050004 1.705-107.78900043 4.588" fill="#f0f0f0"/><path d="m118.160363 43.4800967.061.125.093.173c.064.117.135.238.208.356.145.239.304.476.471.704.333.459.699.893 1.092 1.285.788.785 1.684 1.403 2.653 1.771.483.185.985.313 1.502.381.518.058 1.05.057 1.592.008.271-.049.544-.065.818-.138l.411-.092.411-.124c.276-.07.548-.192.823-.289.274-.101.518-.22.767-.344.978-.508 1.801-1.204 2.408-2.092.611-.886 1.009-1.961 1.211-3.121.204-1.161.217-2.401.1-3.642-.059-.622-.152-1.245-.275-1.863-.061-.309-.13-.617-.207-.921-.073-.296-.166-.624-.245-.868l-.015-.047c-.225-.701.161-1.453.863-1.678.678-.218 1.403.138 1.655.796.148.391.252.709.361 1.063.106.347.202.693.289 1.043.176.698.319 1.406.423 2.125.208 1.436.278 2.922.092 4.435-.184 1.506-.642 3.058-1.496 4.448-.846 1.393-2.091 2.557-3.472 3.359-.343.197-.701.387-1.051.542-.353.151-.694.32-1.065.443l-.549.198-.568.162c-.375.119-.776.179-1.167.263-.798.123-1.619.174-2.448.126-.828-.058-1.655-.217-2.447-.47-1.592-.504-3.011-1.389-4.196-2.443-.594-.529-1.134-1.102-1.63-1.708-.248-.303-.484-.616-.709-.941-.114-.163-.223-.328-.332-.501l-.162-.264c-.058-.101-.1-.169-.18-.32-.56-1.068-.149-2.387.918-2.948 1.068-.56 2.387-.149 2.948.918l.04.08z" fill="#2f7274"/><path d="m132.095 99.111c0 1.719-14.795 3.112-33.047 3.112s-33.048-1.393-33.048-3.112c0-1.718 14.796-3.111 33.048-3.111s33.047 1.393 33.047 3.111" fill="#ddd"/><path d="m82.54 99.038h11.881s-.127-4.367-4.565-4.999c-1.614-.23-2.983-.236-4.077-.154l1.491-16.123-5.27-1.762 1.096 18.353c-.189.058-.288.097-.288.097z" fill="#2f7274"/><path d="m109.54 99.038h11.881s-.128-4.367-4.564-4.999c-1.614-.23-2.984-.236-4.077-.154l1.491-16.123-5.271-1.762 1.096 18.353c-.188.058-.288.097-.288.097z" fill="#2f7274"/><path d="m74 54.074c0 5.441.138 12.628.21 19.696.023 2.289 1.811 4.13 4.009 4.13h38.217c2.214 0 4.009-1.871 4.009-4.177v-25.787s.995-7.936-8.675-7.936c-12.096 0-23.504.629-30.094 1.818-6.591 1.19-7.676 7.279-7.676 12.256" fill="#cae5e1"/><path d="m80.216 73.77c-.073-7.068-.21-14.255-.21-19.696 0-4.977 1.085-11.066 7.675-12.256 5.709-1.03 13.251-1.639 23.027-1.784-.421-.021-.858-.034-1.316-.034-12.096 0-21.126.629-27.716 1.818-6.591 1.19-7.676 7.279-7.676 12.256 0 5.441.138 12.628.21 19.696.023 2.289 1.811 4.13 4.009 4.13h6.005c-2.197 0-3.985-1.841-4.008-4.13" fill="#daf2f0"/><path d="m80.7017608 39.112h30.7020002c6.552 0 8.788-3.265 8.788-12.494 0-9.228-5.253-21.618-21.7050002-21.618-16.453 0-22.63 9.901-23.976 19.037-1.347 9.136-.275 15.075 6.191 15.075" fill="#cae5e1"/><path d="m79.9057608 24.541c1.305-8.831 7.966-16.246 23.9050002-16.246 3.002 0 5.576.134 7.79.383-3.236-2.248-7.528-3.678-13.1140002-3.678-16.452 0-22.63 9.901-23.976 19.037-1.347 9.136-.275 15.075 6.191 15.075h5.202c-6.264 0-7.303-5.741-5.998-14.571" fill="#daf2f0"/><path d="m117.764645 27.532c0-2.99-.553-6.313-1.859-9.439-1.037-2.48-3.464-4.093-6.152-4.093h-14.8670002c-8.294 0-14.538 8.793-12.497 15.86 2.039 7.066 10.593 6.03 17.7990002 6.03h12.137c2.753 0 5.062-2.096 5.302-4.839.093-1.061.137-2.231.137-3.519" fill="#eff"/><path d="m100.11738 31.9475865c-3.0920004 0-4.9500004-1.993-4.9730004-2.02-.206-.227-.19-.577.038-.783.226-.206.576-.19.782.036.112.12 2.655 2.805 6.8230004 1.098.284-.116.609.019.724.303.116.283-.019.607-.303.724-1.13.463-2.166.642-3.091.642" fill="#6e868e"/><path d="m115.776 17.766c-.763-1.824-2.279-3.177-4.098-3.766 1.292.712 2.341 1.845 2.934 3.264 1.307 3.125 1.858 6.448 1.858 9.438 0 1.288-.043 2.458-.136 3.52-.24 2.742-2.549 4.838-5.302 4.838h-12.137c-4.391 0-9.282.382-12.895-.917 3.675 1.893 9.176 1.42 14.059 1.42h12.137c2.753 0 5.062-2.096 5.302-4.839.093-1.061.137-2.231.137-3.519 0-2.99-.553-6.313-1.859-9.439" fill="#aecec8"/><path d="m112.348 23.675c0 .924-.75 1.674-1.674 1.674s-1.674-.75-1.674-1.674c0-.925.75-1.675 1.674-1.675s1.674.75 1.674 1.675" fill="#6e868e"/><path d="m94.348 23.675c0 .924-.75 1.673-1.675 1.673-.923 0-1.673-.749-1.673-1.673 0-.925.75-1.675 1.673-1.675.925 0 1.675.75 1.675 1.675" fill="#6e868e"/><path d="m77.0554857 2.77862471c-1.686-.75-3.237-1.119-4.318-1.3-.207-.93299999-1.09-1.578-2.061-1.466-1.038.11900001-1.783 1.057-1.664 2.094.119 1.038 1.057 1.783 2.095 1.664.718-.082 1.295-.556 1.544-1.184 1.014.177 2.454.528 3.993 1.218 3.844 1.722 6.464 4.636 7.787 8.66099999l1.049-.345c-1.78-5.41499999-5.564-8.06799999-8.425-9.34199999" fill="#cae5e1"/><path d="m110.569212 28.733s-2.35-.303-3.726-1.075c-1.377-.772-.653-1.658-.653-1.658l4.701.5z" fill="#728589"/><path d="m116.832659 18-18.1329999 2.745c-1.001.152-1.759 1.032-1.696 2.044l.002.033c.022.283.089.535.18.754.271.654.904 1.087 1.608 1.162 6.1679999.656 12.3359999 1.312 18.5049999 1.967z" fill="#0dacbc"/><path d="m107.97726 26.1825813s-2.606-1.325-2.935-3.48c-.328-2.155 1.348-1.506 1.763-.388.414 1.118 1.862 2.135 1.862 2.135s-.828-2.362-.395-3.744c.433-1.381 1.967-.559 1.827.953-.141 1.512.433 2.558.976 2.763 0 0-.222-1.75 0-3.03.223-1.281 1.301-1.622 1.884-1.116.582.505-.32 1.434 0 2.616s1.185 2.876.971 4.287c-.214 1.41-1.81 1.67-3.284 1.352-1.473-.317-2.086-2.039-2.086-2.039z" fill="#2f7274"/><path d="m130.69934 15-12.259 1.784c-1.871.272-3.447 1.577-4.005 3.384-.268.866-.453 1.884-.434 3.03.018 1.079.213 2.037.48 2.855.572 1.752 2.11 3.014 3.932 3.296 3.64.564 7.281 1.129 10.92 1.693z" fill="#00cddd"/><path d="m132.727 11.525c-1.539.075-2.958.902-3.732 2.235-.966 1.661-1.995 4.346-1.995 8.243 0 4.22.831 6.818 1.699 8.381.746 1.341 2.138 2.196 3.668 2.308l11.144.814v-22.506z" fill="#2ce1e5"/><path d="m148.196 22.253c0 6.215-2.505 11.253-5.597 11.253s-5.599-5.038-5.599-11.253 2.507-11.253 5.599-11.253 5.597 5.038 5.597 11.253" fill="#0dacbc"/><path d="m146.163 22.82c0 5.423-1.827 9.82-4.081 9.82s-4.082-4.397-4.082-9.82c0-5.424 1.828-9.82 4.082-9.82s4.081 4.396 4.081 9.82" fill="#e4f4f2"/><path d="m143.575 16.548c.304 0 .599.087.88.251.252.147.546-.103.451-.378-.518-1.491-1.25-2.421-2.063-2.421-1.57 0-2.843 3.468-2.843 7.747 0 .792.044 1.556.125 2.276.043-4.144 1.571-7.475 3.45-7.475" fill="#fff"/><path d="m143.729491 27.6945792c-.123.887-.603 1.553-1.072 1.488-.47-.065-.751-.837-.629-1.723.123-.886.588-1.52 1.057-1.455.47.065.766.804.644 1.69" fill="#fff"/><g fill="#2f7274"><path d="m131.510689 33.1824874 5.812.519s-.311 1.876-1.667 2.746c-1.467.941-4.512.64-5.546-.745-.905-1.211-1.623-3.97-.631-5.813.993-1.842 2.381-.51 1.956 1.163-.34 1.337.076 2.13.076 2.13"/><path d="m80.1577985 48.0664172.091.061.131.083.279.17c.192.114.391.225.592.335.402.218.817.427 1.239.623.844.393 1.715.736 2.598 1.024 1.768.577 3.592.931 5.404.996 1.814.068 3.614-.158 5.324-.707 1.709-.552 3.331-1.401 4.8029995-2.536 3.002-2.255 5.314-5.363 6.709-8.928.709-1.777 1.187-3.664 1.478-5.585.143-.961.235-1.934.276-2.906.021-.486.028-.972.02-1.455-.003-.241-.011-.482-.023-.718-.01-.229-.03-.493-.047-.666l-.006-.068c-.084-.899.576-1.697 1.476-1.782.872-.083 1.649.54 1.773 1.397.049.341.076.591.101.879.026.279.047.555.062.831.032.551.046 1.1.045 1.648 0 1.096-.058 2.191-.174 3.281-.239 2.181-.692 4.354-1.429 6.455-.73 2.101-1.73 4.136-3.014 5.995-1.265 1.872-2.834 3.543-4.572 4.988-1.743 1.466-3.7829995 2.673-5.9799995 3.486-2.201.815-4.553 1.214-6.876 1.228-2.328.019-4.621-.329-6.816-.941-1.098-.306-2.174-.675-3.226-1.111-.528-.217-1.048-.45-1.566-.703-.26-.126-.517-.257-.777-.396l-.394-.215-.202-.117-.238-.144c-1.243-.812-1.593-2.477-.781-3.721.811-1.243 2.477-1.593 3.72-.781"/></g></g></svg>