<svg height="219" viewBox="0 0 266 219" width="266" xmlns="http://www.w3.org/2000/svg" xmlns:xlink="http://www.w3.org/1999/xlink"><linearGradient id="a" x1="50%" x2="50%" y1="0%" y2="100%"><stop offset="0" stop-color="#eee"/><stop offset="1" stop-color="#d8d8d8"/></linearGradient><g fill="none" fill-rule="evenodd" transform="translate(-21)"><g fill-rule="nonzero" transform="translate(129 36)"><g fill="#7a99a5" transform="matrix(-.06975647 .99756405 -.99756405 -.06975647 57.187569 59.809335)"><path d="m48.2602295 4.79648943c-.546 1.469-2.008 2.427-3.613 2.355-4.656-.211-14.1979993.797-17.8009993 11.86599997-5.295 16.266 17.8749993 25.974 37.8989993 24.476l1.436 6.0170004s-25.097 2.067-39.5119993-10.5990004c-14.415-12.665-6.435-32.30599997 6.869-36.95099997 4.7139993-1.646 8.5669993-2.021 11.3339993-1.953 2.52.062 4.245 2.485 3.388 4.789" transform="matrix(-1 0 0 1 85.18123 0)"/><path d="m15.256558 35s-6.978 1.369-11.256 2.452c-6.005 1.52-4.88 14.3800004.913 14.1060004 7.702-.364 16.087-4.07 16.087-4.07l-1.047-3.8630004-13.169 2.445v-4.374l8.973-3.198z" transform="matrix(-1 0 0 1 21.000558 0)"/></g><path d="m153.002973 113.150383c-1.646 1.978-4.585 2.246-6.562.6-1.979-1.647-2.247-4.585-.601-6.563 1.646-1.977 4.585-2.246 6.563-.599 1.978 1.646 2.247 4.585.6 6.562zm-11.72 14.076c-1.646 1.979-4.584 2.248-6.562.601s-2.246-4.585-.6-6.562c1.647-1.979 4.585-2.248 6.563-.601 1.977 1.646 2.246 4.585.599 6.562zm-.738-24.447c-2.387 2.867-3.147 6.549-2.389 9.928-3.461-.134-6.943 1.281-9.33 4.149-4.081 4.902-3.415 12.185 1.487 16.266s12.184 3.415 16.266-1.487c1.363-1.637 2.194-3.54 2.517-5.5l8.298 6.908c1.418 1.181 3.525.988 4.706-.43 1.18-1.418.987-3.525-.431-4.706l-8.28-6.892c1.852-.676 3.556-1.832 4.909-3.456 4.081-4.903 3.415-12.185-1.487-16.266-4.902-4.0810011-12.185-3.4160011-16.266 1.486z" fill="#5d7e93" transform="matrix(-.74314483 -.66913061 -.66913061 .74314483 330.333743 126.803243)"/><path d="m54.1399514 71.452921c-1.288 6.122001 15.8500001 25.3230011 23.2300011 30.747002 7.3790011 5.423 33.9520025 11.424 42.5780025 12.1 8.627001.674 3.109001-20.5590009 3.109001-20.5590009s-65.4430046-38.8010021-68.9170046-22.2880011" fill="#94c4bf" transform="matrix(-.74314483 -.66913061 -.66913061 .74314483 216.677726 83.174786)"/><path d="m118.094785 162.568344c3.69-18.071 9.396-27.525001 11.506-32.203001 2.83-6.273001 1.616-11.310001-3.98-15.373001-5.597-4.064-10.948-8.527-22.272002-16.4390001-7.3879999-5.163-21.253001-7.5560001-29.9970021-8.5970001-5.005-.596-9.926 1.7870001-12.476 6.1350001-10.0680001 17.1750001-13.7940001 40.0030011-17.0270001 60.7900021-.318 2.045-.502 3.93-.582 5.687z" fill="#cae5e1" transform="matrix(-.74314483 -.66913061 -.66913061 .74314483 236.404553 90.747206)"/><path d="m95.5010396 177.46659c.103-1.113.233-2.259.422-3.477 3.233-20.787001 6.9589994-43.615003 17.0270004-60.789003 2.537-4.328 7.422-6.706 12.403-6.141-4.729-1.06-9.433-1.758-13.19-2.205-5.005-.596-9.926001 1.787-12.4760004 6.135-10.0680001 17.175-13.7940001 40.003002-17.0270001 60.789003-.318 2.046-.502 3.931-.582 5.688z" fill="#daf2f0" transform="matrix(-.74314483 -.66913061 -.66913061 .74314483 275.215809 105.645451)"/><path d="m117.390266 25.6064463c-.69-.62-1.587-.861-2.437-.741-1.191-1.7210001-3.181-4.0890001-6.22-6.2420002-5.031-3.564-14.0030003-7.171-28.1740023-4.102-.525.114-.859.631-.746 1.158.046.208.154.386.302.517.224.202.539.296.856.228 10.620002-2.3 19.8010023-1.011 26.5480023 3.7270001 2.73 1.917 4.558 4.0450001 5.677 5.6200001l-.067.067c-1.113 1.241-1.008 3.1490001.232 4.2620001 1.241 1.112 3.149 1.009 4.262-.233 1.112-1.241 1.008-3.1490001-.233-4.2610001" fill="#6d8c8c" transform="matrix(.40673664 -.91354546 .91354546 .40673664 38.582956 103.64675)"/><path d="m116.70193 106.064567c-4.880001 3.145-9.070001 6.995-16.8990008-1.382-7.8280011-8.377-18.0260011-22.8480001-33.6830022-27.4600001-15.6550011-4.613001-29.9200012-6.445001-21.3230012-15.1940018 8.5970011-8.7490003 17.3130011-18.5390007 23.1970012-23.5330011 5.885001-4.9940001 17.2620011-9.2780003 34.954002-3.994 17.693001 5.284 33.904002 23.2710008 35.207002 34.8890019 1.773 15.7930011-16.572001 33.5310011-21.453001 36.6740011" fill="#cae5e1" transform="matrix(-.74314483 -.66913061 -.66913061 .74314483 204.750698 78.596429)"/><path d="m82.6990543 79.0988144c8.596-8.75 17.3129997-18.5400013 23.1970007-23.5340014 5.885-4.9940004 17.262002-9.2780005 34.955002-3.9940004 2.468.7370001 4.905 1.7300001 7.279 2.9090001-5.214-4.0870001-11.165-7.4430001-17.294-9.2730002-17.692002-5.2840002-29.069003-1-34.9540026 3.9940001-5.8840001 4.9940001-14.6000001 14.7840007-23.1970012 23.5330018-5.869 5.974-1.081 8.7230001 7.5300011 11.3340001.171-1.733.954-3.4120001 2.484-4.9690001" fill="#daf2f0" transform="matrix(-.74314483 -.66913061 -.66913061 .74314483 232.638824 89.301678)"/><path d="m73.7472137 36.0761746c-12.83-1.162-25.4350011 15.7640006-22.2910011 24.2480009 3.146 8.4840008 7.083001 4.8930007 21.5410011 20.3809998 14.4590001 15.4880021 17.9540001 17.0140021 24.7930002 9.8050011 6.8390001-7.2090011 14.4330011-12.5680011 11.7900011-22.4030001-2.642001-9.8350009-18.5430012-30.4650016-35.8330013-32.0310017" fill="#fff6f6" transform="matrix(-.74314483 -.66913061 -.66913061 .74314483 184.119984 70.67704)"/><g fill="#9f3a38"><path d="m85.9999966 71.9990168c0 3.8667415-.223734 7.0009818-.49993 7.0009818s-.50007-3.1342403-.50007-7.0009818c0-3.8647777.223874-6.9990182.50007-6.9990182s.49993 3.1342405.49993 6.9990182" transform="matrix(-.74314483 -.66913061 -.66913061 .74314483 197.21628 75.704237)"/><path d="m86.0000046 71.9990177c0 3.866742-.223734 7.0009818-.49993 7.0009818s-.50007-3.1342398-.50007-7.0009818c0-3.8647777.223874-6.9990182.50007-6.9990182s.49993 3.1342405.49993 6.9990182" transform="matrix(.74314483 -.66913061 .66913061 .74314483 -26.216285 75.704243)"/><path d="m65.9999981 71.9990173c0 3.8667414-.223734 7.0009818-.49993 7.0009818s-.50007-3.1342404-.50007-7.0009818c0-3.8647777.223874-6.9990182.50007-6.9990182s.49993 3.1342405.49993 6.9990182" transform="matrix(-.74314483 -.66913061 -.66913061 .74314483 162.353386 62.321626)"/><path d="m66.0000035 71.9990166c0 3.8667413-.223734 7.0009817-.49993 7.0009817s-.50007-3.1342404-.50007-7.0009817c0-3.8647777.223874-6.9990183.50007-6.9990183s.49993 3.1342406.49993 6.9990183" transform="matrix(.74314483 -.66913061 .66913061 .74314483 -31.353388 62.321629)"/></g><g fill="#7a99a5" transform="translate(89 118)"><path d="m39.2246882 11.7254625c-4.656-.211-16.270223.650609-19.873223 11.719609-3.172071 9.744458 8.894168 23.238828 1.895223 20.040391-17.45673594-7.977525-6.435-32.306 6.869-36.95100002 4.714-1.646 8.567-2.021 11.334-1.953 2.52.062 4.245 2.485 3.388 4.789-.546 1.46900002-2.008 2.42700002-3.613 2.35500002z" transform="matrix(-.61566148 -.78801075 -.78801075 .61566148 63.796679 31.115719)"/><path d="m18.6277858 36.0812875s-6.9779999 1.3689999-11.25599963 2.4519999c-6.00499979 1.5199998-4.87999982 14.3799995.91299998 14.1059995 7.70199975-.364 16.08699945-4.07 16.08699945-4.07l-1.047-3.8629999-13.1689997 2.445v-4.3739999l8.9729999-3.1979997z" transform="matrix(-.80901699 .58778525 .58778525 .80901699 -.981799 .319006)"/></g></g><path d="m55.147606 18.957185 192.999999 187.999999" stroke="#7a99a5" stroke-linecap="square" stroke-width="6" transform="matrix(.99862953 .05233596 -.05233596 .99862953 6.11955 -7.781819)"/><g fill-rule="nonzero"><path d="m216.21901 95.5235139c-2.504-9.3200004-16.916-28.3230011-33.132-31.6210013 15.066 4.7240002 28.014 22.1190009 30.375 30.9070013 2.643 9.8360011-4.95 15.1940011-11.79 22.4030011-2.621 2.762-4.752 4.237-7.196 4.139 3.75 1.698 6.402.318 9.953-3.425 6.839-7.209 14.433001-12.568 11.79-22.4030011" fill="#94c4bf" transform="matrix(-.74314483 -.66913061 -.66913061 .74314483 410.713163 157.658012)"/><path d="m20.1470227 32.1934158h70l-33.2124323 81.6338662c-.8325165 2.046267-3.1662321 3.030207-5.2124998 2.197691-1.0516629-.427865-1.8719518-1.28249-2.2563568-2.350805z" fill="#3682e0" transform="matrix(.67815967 .7349146 -.7349146 .67815967 72.321218 -16.629398)"/><path d="m78.1978567 74.6938737v-19.4741446c0-5.8427316-4.6453792-10.0837783-11.0458946-10.0837783-4.8745723 0-9.0603595 2.8505597-10.4234546 7.1379966-.056695.5432544.0832336 1.5272163 1.6598398 2.020418 1.7298037.5383712 2.3679249-.3625765 2.5995305-.9571044.8974712-2.6112835 3.3172663-4.2996448 6.1640843-4.2996448 3.8793928 0 6.6960537 2.625933 6.6960537 6.2419319v1.5504116c0 .725153-.9565795 1.1976013-1.860082 1.4002535l-7.70209 2.0362885c-5.7635998 1.3282265-8.0096907 3.5879209-8.0096907 8.0596982 0 5.1969301 4.6212535 9.1242326 10.7672439 9.1697685.0832335.0008541.1640538-.013795.2400496-.0467569.2870944-.1257418.9433101-.5530204.9433101-1.8360778 0-1.2806154-.653803-1.7945707-.9408974-1.9593783-.0796144-.0451696-.1664665-.0647021-.2557313-.0659231-3.7177512-.0476111-6.4041339-2.2450443-6.4041339-5.2616324 0-2.7870782 1.5078486-3.6428565 4.6803613-4.4107375 0 0 5.580246-1.4832676 7.778086-2.1486017.3727399-.1123135.7430672.1733531.7358295.5664496l-.0193003 1.2342252.0156817 6.8486678c0 .0830142.0168881.1660285.048251.2417174.7804625 1.8531694 2.1170191 3.3559697 3.8685359 4.3692307.3751527.194107.4644175-.1269629.4644175-.3332777" fill="#fff" transform="matrix(.74314483 -.66913061 .66913061 .74314483 -23.758213 60.73966)"/><circle cx="54.469344" cy="8.728425" fill="url(#a)" r="7.5" stroke="#979797" stroke-width="2" transform="matrix(.99862953 .05233596 -.05233596 .99862953 .531459 -2.838743)"/></g></g></svg>