<?xml version="1.0" encoding="UTF-8"?>
<svg width="205px" height="98px" viewBox="0 0 205 98" version="1.1" xmlns="http://www.w3.org/2000/svg" xmlns:xlink="http://www.w3.org/1999/xlink">
    <!-- Generator: Sketch 64 (93537) - https://sketch.com -->
    <title>Slice 1</title>
    <desc>Created with Sketch.</desc>
    <g id="Page-1" stroke="none" stroke-width="1" fill="none" fill-rule="evenodd">
        <path d="M0.0452693075,86.1763619 C0.0452693075,86.1763619 -0.864730693,87.0663619 5.47526931,88.0463619 C12.9152693,89.1963619 25.7252693,88.3363619 27.4852693,90.4563619 C29.4152693,92.7763619 20.4452693,92.1163619 20.6052693,94.8263619 C20.7452693,97.1263619 30.4452693,97.0463619 41.3652693,97.0463619 C52.2952693,97.0463619 135.105269,97.0463619 143.955269,97.0463619 C152.805269,97.0463619 151.205269,95.0363619 149.955269,94.1263619 C148.135269,92.7963619 148.935269,91.5763619 156.895269,91.4063619 C164.625269,91.2463619 170.285269,91.0963619 174.495269,91.0963619 C185.745269,91.0963619 183.545269,88.3263619 192.305269,88.3263619 C197.975269,88.3263619 204.785269,87.2563619 204.785269,86.0163619 C176.025269,83.4663619 143.925269,81.7163619 109.005269,81.5363619 C68.8352693,81.3363619 32.2752693,83.2663619 0.0452693075,86.1763619" id="Fill-944" fill="#EFEFEF"></path>
        <path d="M160.335269,88.0263619 C160.335269,89.5963619 135.935269,90.8663619 105.845269,90.8663619 C75.7452693,90.8663619 51.3552693,89.5963619 51.3552693,88.0263619 C51.3552693,86.4563619 75.7452693,85.1863619 105.845269,85.1863619 C135.935269,85.1863619 160.335269,86.4563619 160.335269,88.0263619" id="Fill-945" fill="#CECECC"></path>
        <path d="M138.875269,15.1363619 C138.875269,15.1363619 141.945269,26.5063619 132.105269,32.2263619 L134.955269,35.8463619 C134.955269,35.8463619 144.725269,29.8563619 142.135269,15.7063619 L141.745269,13.5163619 L138.875269,15.1363619" id="Fill-948" fill="#728589"></path>
        <path d="M140.365269,16.0163619 C140.365269,16.0163619 137.595269,16.8063619 133.955269,15.1663619 C130.315269,13.5263619 131.625269,9.97636189 134.345269,11.9163619 C137.055269,13.8563619 138.025269,10.9863619 136.875269,9.32636189 C135.725269,7.65636189 132.955269,4.79636189 134.385269,3.57636189 C135.815269,2.35636189 138.645269,6.27636189 139.225269,8.15636189 C139.225269,8.15636189 138.845269,6.13636189 137.975269,4.99636189 C137.975269,4.99636189 140.075269,3.98636189 140.985269,6.16636189 C141.905269,8.33636189 141.905269,9.60636189 141.905269,9.60636189 C141.905269,9.60636189 142.125269,8.15636189 141.925269,7.13636189 C141.925269,7.13636189 144.095269,7.34636189 144.295269,10.3363619 C144.505269,13.3163619 143.335269,15.1263619 140.365269,16.0163619" id="Fill-949" fill="#728589"></path>
        <path d="M78.4452693,38.4163619 C78.4452693,38.4163619 80.3052693,36.2263619 80.3352693,32.2263619 C80.3652693,28.2363619 76.5752693,27.9563619 77.2152693,31.2363619 C77.8552693,34.5063619 74.8352693,34.1963619 73.8052693,32.4563619 C72.7752693,30.7163619 71.3252693,27.0063619 69.6152693,27.8063619 C67.9052693,28.5963619 70.3052693,32.7963619 71.7652693,34.1063619 C71.7652693,34.1063619 70.0852693,32.9263619 69.4152693,31.6563619 C69.4152693,31.6563619 67.6252693,33.1463619 69.2252693,34.8863619 C70.8152693,36.6163619 71.9652693,37.1463619 71.9652693,37.1463619 C71.9652693,37.1463619 70.5552693,36.7363619 69.7152693,36.1363619 C69.7152693,36.1363619 69.0052693,38.1963619 71.6352693,39.6263619 C74.2652693,41.0563619 76.3852693,40.7463619 78.4452693,38.4163619" id="Fill-950" fill="#728589"></path>
        <path d="M78.0852693,35.6763619 C78.0852693,35.6763619 84.9252693,48.2163619 99.4852693,48.2063619 L100.835269,53.8363619 C100.835269,53.8363619 86.1652693,55.1163619 75.9452693,37.9063619 L78.0852693,35.6763619" id="Fill-951" fill="#728589"></path>
        <path d="M104.135269,0.0263618873 C104.755269,-0.0936381127 105.365269,0.206361887 105.685269,0.716361887 C113.455269,-2.10363811 114.475269,6.14636189 114.475269,6.14636189 L113.405269,6.46636189 C112.175269,-0.403638113 107.545269,0.716361887 105.895269,1.35636189 C105.975269,2.13636189 105.455269,2.85636189 104.675269,2.99636189 C103.855269,3.14636189 103.065269,2.59636189 102.915269,1.77636189 C102.765269,0.956361887 103.315269,0.176361887 104.135269,0.0263618873" id="Fill-952" fill="#CAE5E1"></path>
        <path d="M102.665269,62.7263619 C98.1652693,73.6263619 103.505269,83.8563619 103.505269,83.8563619 C99.4952693,83.7863619 97.8652693,85.2363619 96.6352693,86.5263619 C95.9352693,87.2563619 96.4652693,88.4763619 97.4752693,88.4763619 L108.055269,88.4763619 C102.895269,74.7963619 108.225269,66.2963619 108.225269,66.2963619 L102.665269,62.7263619" id="Fill-953" fill="#728589"></path>
        <path d="M140.565269,58.6963619 C145.025269,69.8363619 143.575269,83.4063619 143.575269,83.4063619 C147.535269,83.3463619 149.815269,84.7563619 151.055269,86.0363619 C151.775269,86.7763619 151.235269,88.0263619 150.195269,88.0263619 L139.675269,88.0263619 C141.975269,72.1663619 133.715269,62.2763619 133.715269,62.2763619 L140.565269,58.6963619" id="Fill-954" fill="#728589"></path>
        <path d="M97.0452693,46.5763619 C97.0452693,46.5763619 93.3952693,47.8763619 90.8152693,43.4063619 C88.2352693,38.9363619 83.9252693,31.8763619 84.5752693,27.1063619 C85.2252693,22.3463619 88.3552693,18.1663619 94.1652693,14.6963619 C99.9852693,11.2363619 114.655269,4.02636189 120.475269,4.86636189 C126.785269,5.78636189 130.875269,15.1763619 132.815269,19.4063619 C134.755269,23.6263619 135.795269,28.0163619 132.225269,30.4963619 C128.645269,32.9663619 105.585269,42.8163619 97.0452693,46.5763619" id="Fill-955" fill="#BCE1DD"></path>
        <path d="M97.0452693,46.5763619 C97.0452693,46.5763619 93.3952693,47.8763619 90.8152693,43.4063619 C88.2352693,38.9363619 83.9252693,31.8763619 84.5752693,27.1063619 C85.2252693,22.3463619 88.3552693,18.1663619 94.1652693,14.6963619 C99.9852693,11.2363619 114.655269,4.02636189 120.475269,4.86636189 C126.785269,5.78636189 130.875269,15.1763619 132.815269,19.4063619 C134.755269,23.6263619 135.795269,28.0163619 132.225269,30.4963619 C128.645269,32.9663619 105.585269,42.8163619 97.0452693,46.5763619" id="Fill-956" fill="#CAE5E1"></path>
        <path d="M132.815269,19.4063619 C130.875269,15.1763619 126.785269,5.78636189 120.475269,4.86636189 C116.645269,4.31636189 108.975269,7.24636189 102.525269,10.3063619 C107.725269,8.01636189 113.315269,6.15636189 116.365269,6.75636189 C122.175269,7.89636189 126.285269,17.2863619 128.225269,21.5063619 C130.165269,25.7363619 131.285269,30.0863619 128.115269,32.3763619 C127.135269,33.0863619 124.485269,34.4163619 121.055269,36.0063619 C126.415269,33.5763619 130.825269,31.4663619 132.225269,30.4963619 C135.795269,28.0163619 134.755269,23.6263619 132.815269,19.4063619" id="Fill-957" fill="#DAF2F0"></path>
        <path d="M103.975269,43.3963619 C103.975269,43.3963619 100.855269,44.4563619 98.3352693,39.9563619 C95.8252693,35.4563619 91.6452693,28.3363619 91.9452693,23.7263619 C92.2452693,19.1263619 94.7352693,15.2363619 99.6252693,12.1963619 C101.155269,11.2463619 103.415269,9.98636189 105.965269,8.74636189 C101.315269,10.7663619 96.8152693,13.1163619 94.1652693,14.6963619 C88.3552693,18.1663619 85.2252693,22.3463619 84.5752693,27.1063619 C83.9252693,31.8763619 88.2352693,38.9363619 90.8152693,43.4063619 C93.3952693,47.8763619 97.0452693,46.5763619 97.0452693,46.5763619 C102.955269,43.9763619 115.805269,38.4663619 124.355269,34.4963619 C117.325269,37.6763619 108.375269,41.4763619 103.975269,43.3963619" id="Fill-958" fill="#CAE5E1"></path>
        <path d="M90.0552693,34.9963619 C92.7152693,40.6363619 95.2752693,46.2063619 100.065269,44.0163619 C104.855269,41.8163619 123.275269,33.2063619 128.215269,29.6363619 C133.165269,26.0863619 129.335269,19.9963619 127.315269,15.6063619 C125.305269,11.2263619 122.445269,7.13636189 114.225269,9.46636189 C106.845269,11.5563619 98.7352693,14.8963619 92.9452693,19.2263619 C89.0652693,22.1263619 86.8952693,28.2763619 90.0552693,34.9963619" id="Fill-959" fill="#EAF3F2"></path>
        <path d="M94.7852693,34.2863619 C92.2352693,29.3363619 92.1552693,23.6663619 93.8752693,18.5563619 C93.5552693,18.7763619 93.2452693,18.9963619 92.9452693,19.2263619 C89.0652693,22.1263619 86.8952693,28.2763619 90.0552693,34.9963619 C92.7052693,40.6363619 95.2752693,46.2063619 100.065269,44.0163619 C100.635269,43.7463619 101.405269,43.3963619 102.315269,42.9763619 C99.2252693,40.7963619 96.6052693,37.8363619 94.7852693,34.2863619" id="Fill-960" fill="#EAF3F2"></path>
        <path d="M127.315269,15.6063619 C125.625269,11.9163619 123.325269,8.43636189 117.725269,8.81636189 C122.725269,8.81636189 124.895269,12.1263619 126.495269,15.6363619 C128.515269,20.0163619 132.345269,26.1063619 127.395269,29.6663619 C122.455269,33.2263619 104.035269,41.8463619 99.2452693,44.0363619 C98.7152693,44.2863619 98.2152693,44.4263619 97.7352693,44.4863619 C98.4552693,44.5363619 99.2252693,44.3963619 100.065269,44.0163619 C104.855269,41.8163619 123.275269,33.2063619 128.215269,29.6363619 C133.165269,26.0863619 129.335269,19.9963619 127.315269,15.6063619" id="Fill-961" fill="#CAE5E1"></path>
        <path d="M135.525269,66.4063619 L110.745269,72.7963619 C105.445269,74.1663619 100.035269,70.9663619 98.6652693,65.6663619 L95.9952693,52.0163619 C94.9352693,49.6863619 95.9552693,46.9363619 98.2752693,45.8763619 L129.935269,31.3463619 C132.265269,30.2863619 135.015269,31.3063619 136.085269,33.6363619 L141.695269,55.9463619 C142.885269,60.5363619 140.115269,65.2163619 135.525269,66.4063619" id="Fill-962" fill="#D7F8F8"></path>
        <path d="M132.735269,35.1663619 C131.675269,32.8363619 128.925269,31.8163619 126.595269,32.8863619 L101.615269,44.3363619 C99.2952693,45.4063619 98.2752693,48.1563619 99.3452693,50.4863619 L102.225269,64.7463619 C103.595269,70.0463619 109.005269,73.2463619 114.305269,71.8763619 L123.135269,69.5963619 L131.975269,67.3163619 C136.565269,66.1363619 139.325269,61.4563619 138.135269,56.8663619 L132.735269,35.1663619" id="Fill-963" fill="#CAE5E1"></path>
        <path d="M123.135269,69.5963619 L114.305269,71.8763619 C109.005269,73.2463619 103.595269,70.0463619 102.225269,64.7463619 L99.3452693,50.4863619 C98.2752693,48.1563619 99.2952693,45.4063619 101.615269,44.3363619 L110.965269,40.0563619 L98.2752693,45.8763619 C95.9552693,46.9363619 94.9352693,49.6863619 95.9952693,52.0163619 L98.6652693,65.6663619 C100.035269,70.9663619 105.445269,74.1663619 110.745269,72.7963619 L131.625269,67.4063619 L123.135269,69.5963619" id="Fill-964" fill="#CAE5E1"></path>
        <path d="M141.695269,55.9463619 L136.085269,33.6363619 C135.015269,31.3063619 132.265269,30.2863619 129.935269,31.3463619 L126.595269,32.8863619 C128.925269,31.8163619 131.675269,32.8363619 132.735269,35.1663619 L138.135269,56.8663619 C139.325269,61.4563619 136.565269,66.1363619 131.975269,67.3163619 L135.525269,66.4063619 C140.115269,65.2163619 142.885269,60.5363619 141.695269,55.9463619" id="Fill-965" fill="#DAF2F0"></path>
        <path d="M99.3852693,26.0163619 C99.8152693,26.9463619 99.8652693,27.8463619 99.0652693,28.2063619 C98.2652693,28.5663619 97.5952693,27.9663619 97.1652693,27.0363619 C96.7352693,26.0963619 96.7052693,25.1963619 97.5152693,24.8263619 C98.3152693,24.4563619 98.9552693,25.0863619 99.3852693,26.0163619" id="Fill-967" fill="#6E868E"></path>
        <path d="M114.965269,18.8663619 C115.395269,19.8063619 115.455269,20.6963619 114.645269,21.0563619 C113.855269,21.4263619 113.175269,20.8163619 112.745269,19.8863619 C112.325269,18.9563619 112.285269,18.0563619 113.095269,17.6763619 C113.905269,17.3063619 114.535269,17.9363619 114.965269,18.8663619" id="Fill-968" fill="#6E868E"></path>
        <path d="M109.385269,30.8263619 C107.825269,31.4763619 105.965269,31.0363619 104.785269,29.6963619 C104.485269,29.3663619 104.515269,28.8463619 104.855269,28.5563619 C105.195269,28.2563619 105.705269,28.2863619 105.995269,28.6263619 C106.785269,29.5063619 108.105269,29.7463619 109.055269,29.1763619 C109.865269,28.6963619 110.305269,27.6963619 110.145269,26.6963619 C110.075269,26.2563619 110.375269,25.8363619 110.825269,25.7663619 C111.265269,25.6963619 111.685269,25.9963619 111.755269,26.4463619 C112.015269,28.0963619 111.265269,29.7563619 109.885269,30.5763619 C109.725269,30.6763619 109.555269,30.7563619 109.385269,30.8263619" id="Fill-969" fill="#6E868E"></path>
    </g>
</svg>