<svg height="108" viewBox="0 0 213 108" width="213" xmlns="http://www.w3.org/2000/svg"><g fill="none" fill-rule="evenodd"><path d="m204.62 30.3287287s-4.26 19.038-.64 31.174c0 0 10.44 17.115 7.99 29.551 0 0-44.84 15.0120003-97.16 7.993 0 0-10.3-17.825-3.07-34.39 0 0-4.09-18.615-.66-23.758 0 0 35.61-18.249 93.54-10.57" fill="#7fecef"/><g fill="#728589"><path d="m141 89.1297287s.23 10.253-11.94 10.162c-12.37-.093-11.74-11.171-11.74-11.171l-12.06 5.308s5.81 15.5180003 24.31 14.1330003c16.01-1.2 18.65-15.2140003 18.65-15.2140003z"/><path d="m140.32 79.5887287s-6.1 14.313 5.79 14.013c12.79-.323 13.01-20.878 13.01-20.878z"/><path d="m59.42 76.0427287s-15.57 4.222-30.75 2.172l-8.08 8.914s21.3 7.356 46.9 1.104z"/><path d="m55.03 34.0127287s-24.6 5.855-34.77 28.969l6.26 4.835s7.83-17.308 30.88-19.229z"/></g><path d="m116.28 16.2167287s-4.45-6.141-16.61-5.748c-12.16.392-20.97 1.75-28.48 1.94-7.52.19-18.37 8.895-17.32 24.547 0 0 3.86 36.446 5.46 47.315 1.61 10.869 10.15 14.653 24.94 12.404 14.78-2.25 15.94-1.973 24.92-3.159 8.98-1.187 27.06-4.356 26.97-20.341-.1-15.985-19.88-56.958-19.88-56.958" fill="#cae5e1"/><path d="m63.46 34.5477287c11.52-.292 25.04-1.999 43.69-2.573 7.56-.233 13.16.835 17.16 2.188-4.26-10.133-8.03-17.946-8.03-17.946s-4.45-6.141-16.61-5.748c-12.16.392-20.97 1.75-28.48 1.94-7.49.189-18.3 8.843-17.33 24.402 3.28-1.418 6.61-2.188 9.6-2.263" fill="#daf2f0"/><path d="m136.16 73.1747287c-.1-15.985-22.93-59.561-22.93-59.561s-6.58 5.165 1.18 35.29c4.45 17.269 9.22 34.623 12.99 39.243 4.99-2.984 8.8-7.621 8.76-14.972" fill="#a3c1bb"/><path d="m182.15 42.7677287c-2.97-20.847-15.13-43.95900001-40.69-42.72000001-25.56 1.24-31.21 7.313-27.22 20.56000001 3.98 13.247 9.43 33.216 12.25 42.527s8.82 22.84 28.22 19.027 31.09-13.846 27.44-39.394" fill="#f1f9f9"/><path d="m182.15 42.7677287c-2.97-20.847-15.13-43.95900001-40.69-42.72000001-25.56 1.24-31.21 7.313-27.22 20.56000001 3.98 13.247 9.43 33.216 12.25 42.527s8.82 22.84 28.22 19.027 31.09-13.846 27.44-39.394" fill="#cae5e1"/><path d="m182.78 53.1717287c.12-3.145-.08-6.602-.63-10.404-2.97-20.847-15.13-43.95900001-40.69-42.72000001-25.56 1.24-31.21 7.313-27.22 20.56000001.94 3.116 1.95 6.605 3 10.238 39.07-14.32 60.28 5.262 65.54 22.326" fill="#daf2f0"/><path d="m147.77 18.7647287c-13.5 2.71-22.54 11.607-13.9 38.196 8.64 26.587 23.33 22.118 31.1 18.056s12.72-15.034 9.5-31.262c-3.23-16.229-12.59-27.824-26.7-24.99" fill="#e4f4f2"/><path d="m174.47 43.7547287c-1.99-10.017-6.32-18.263-12.66-22.446 5.53 4.433 9.35 12.152 11.18 21.369 3.23 16.229-1.73 27.2-9.5 31.262-4.8 2.506-12.22 5.156-19.24.586 7.44 6.027 15.58 3.174 20.72.491 7.77-4.062 12.73-15.034 9.5-31.262" fill="#b8d3ce"/><path d="m148.98 30.8877287v.004zm-.27 10.124c-1.97-1.757-3.09-3.686-3.34-5.755-.42-3.419 1.73-5.868 1.82-5.971.44-.494 1.2-.536 1.7-.094.49.441.53 1.197.09 1.691-.02.034-1.52 1.792-1.22 4.107.25 1.938 1.66 3.794 4.2 5.511.56.376.7 1.118.33 1.668-.38.549-1.12.693-1.67.322-.71-.478-1.35-.971-1.91-1.479z" fill="#429999"/><path d="m158.47 61.5407287c-1.32-1.185-2.2-2.529-2.61-4.019-.93-3.319.84-6.06.91-6.176.37-.554 1.11-.708 1.67-.344.55.367.7 1.104.34 1.658-.02.041-1.24 2.001-.6 4.243.53 1.881 2.21 3.504 4.98 4.827.59.285.85 1.002.56 1.601-.28.599-1 .852-1.6.566-1.46-.696-2.68-1.483-3.65-2.356" fill="#429999"/><g fill="#728589"><path d="m22.64 58.3057287 6.51 5.29c1.1 1.747 1.23 3.938.33 5.795-2.96 6.101-10.33 18.819-18.77 14.821-8.87-4.208 2.36-18.515 6.98-23.823 1.1-1.275 2.69-2.026 4.38-2.069z"/><path d="m28.67 78.2147287-9.52-4.457s-15.59 8.037-18.37 22.505c0 0 7.1 3.7740003 13.17-1.072 6.07-4.847 14.72-16.976 14.72-16.976"/><path d="m113.07 13.5087287s-1.8-6.85200001-13.49-6.48600001c-11.68.365-36.17.35-39.82 5.75400001 0 0-.62 4.341 4.67 6.531 0 0 2.85-2.038 12.18-3.054 9.34-1.015 22.59-1.058 28.06-.712 5.47.345 8.4-2.033 8.4-2.033"/><path d="m67.91 17.8807287-1.04 5.514c-.42 1.124-1.54 1.832-2.73 1.734-1.23-.101-2.23-1.028-2.43-2.247l.05-3.506-1.87.047-1.34 5.882.84 1.091c1.44 1.875 1.18 4.548-.61 6.099l-3-3.318c-1.76-1.954-2.6-4.571-2.3-7.187.46-4.076 1.62-8.146 5.91-10.202l5.7-1.92500001z"/></g><path d="m119.71 68.4727287-15.05 2.4c-1.07.17-2.08-.563-2.25-1.628-.17-1.064.57-2.074 1.63-2.244l15.06-2.399c1.06-.17 2.07.563 2.24 1.627.17 1.065-.56 2.075-1.63 2.244" fill="#a3c1bb"/></g></svg>