<svg height="98" viewBox="0 0 183 98" width="183" xmlns="http://www.w3.org/2000/svg"><linearGradient id="a" x1=".002317%" x2="100.005158%" y1="50.001463%" y2="50.001463%"><stop offset="0" stop-color="#ffdf14"/><stop offset="1" stop-color="#ed9900"/></linearGradient><mask id="b" fill="#fff"><path d="m.76359405 29.640667h154.33999995s.49-6.499-5.39-9.156c-5.89-2.657-11.12 1.498-11.12 1.498s-.31-3.797-4.66-4.842-6.44 2.174-6.44 2.174 2.3-10.38500001-7.33-15.90600001c-10.4-5.965-20.34 2.589-20.34 2.589s-10.4-9.161-24.93-4.839c-13.18 3.917-15.47 15.48000001-15.47 15.48000001s-1.12-4.458-6.15-5.849c-5.83-1.61100001-9.66 1.31-9.66 1.31s-3.1-11.43600001-17.4-9.09700001c-15.56 2.548-13.77 14.24400001-13.77 14.24400001s-5.55999995-2.324-9.90999995 1.693c-4.36 4.016-1.77 10.701-1.77 10.701" fill="#fff" fill-rule="evenodd"/></mask><g fill="none" fill-rule="evenodd" transform="translate(0 -.006558)"><path d="m143.28 3.12726501c1.89 1.424 3.3 3.514 3.83 6.017 1.15 5.48299999-2.36 10.86199999-7.84 12.01599999-2.5.527-4.98.079-7.05-1.083 2.21 5.338 7.97 8.517 13.83 7.285 6.62-1.393 10.86-7.89 9.47-14.51-1.24-5.85999999-6.47-9.84999999-12.24-9.72499999" fill="#ffdf00"/><path d="m141.56 53.209265s3.23-7.875-1.5-15.254c-4.33-6.76-14.73-7.323-14.73-7.323s2.51-7.78-2.03-12.082-11.29-2.295-11.29-2.295.02-7.06899999-6.98-10.99799999c-7-3.934-15.15-.53-15.15-.53s-9.78-9.326-21.29-1.78c-4.44 2.918-6.09 6.451-6.43 9.68899999-2.92.179-11.07 1.373-14.66 9.006-2.88 6.132-2.21 11.506-1.21 14.843-9.22 1.007-26.28 15.242-24.33 35.431-11.01 9.76 6.14 9.984 6.14 9.984l126.8.073c5.05-22.904-13.34-28.764-13.34-28.764" fill="#00ccd3"/><path d="m.76359405 29.640667h154.33999995s.49-6.499-5.39-9.156c-5.89-2.657-11.12 1.498-11.12 1.498s-.31-3.797-4.66-4.842-6.44 2.174-6.44 2.174 2.3-10.38500001-7.33-15.90600001c-10.4-5.965-20.34 2.589-20.34 2.589s-10.4-9.161-24.93-4.839c-13.18 3.917-15.47 15.48000001-15.47 15.48000001s-1.12-4.458-6.15-5.849c-5.83-1.61100001-9.66 1.31-9.66 1.31s-3.1-11.43600001-17.4-9.09700001c-15.56 2.548-13.77 14.24400001-13.77 14.24400001s-5.55999995-2.324-9.90999995 1.693c-4.36 4.016-1.77 10.701-1.77 10.701" fill="url(#a)" mask="url(#b)" transform="translate(13.536406 54.187598)"/><path d="m182.42 84.256265s.73.968-4.41 2.032c-6.05 1.248-43.53.307-44.97 2.612-1.57 2.516 10.01 1.807 9.87 4.744-.11 2.498-7.98 2.406-16.85 2.406-8.88 0-69.47 0-76.66 0s-5.89-2.177-4.87-3.168c1.48-1.439.83-2.767-5.64-2.95-6.27-.178-10.87-.331-14.29-.331-9.14 0-7.35-3.013-14.46-3.013-4.61 0-10.14-1.157-10.14-2.499 29.37-2.446 61.32-3.905 95.53-3.738 30.93.151 59.97 1.613 86.89 3.905" fill="#aeccc6"/><path d="m95.53 80.351265c-21.89-.107-42.85.454-62.8 1.511 6.01 3.186 28.63 5.555 55.62 5.555 27.48 0 50.43-2.456 55.93-5.73-15.67-.781-31.93-1.254-48.75-1.336" fill="#719991"/><path d="m33.12 31.861265c1.47 2.975.25 6.582-2.73 8.055-2.97 1.473-6.58.254-8.05-2.721-1.47-2.976-.26-6.583 2.72-8.055 2.98-1.473 6.58-.255 8.06 2.721" fill="#ffe340"/><path d="m28.23 37.256265c-6.31 3.122-9.17 3.242-9.81 1.955-.63-1.286 1.2-3.49 7.51-6.612 6.92-3.43 9.17-3.242 9.8-1.956.64 1.286-1.47 3.626-7.5 6.613zm-2.93-5.922c-9.74 4.818-12.56 8.22-11.58 10.205s5.4 1.801 15.14-3.018c9.31-4.609 12.56-8.221 11.58-10.206-.99-1.984-4.45-2.274-15.14 3.019z" fill="#fcd51a"/><path d="m23.2 38.478265c1.01-1.092 2.34-1.953 3.57-2.671 1.19-.688 2.44-.859 3.7-1.316 1.07-.383 2.06-.949 3.08-1.441-.1-.403-.24-.802-.43-1.189-1.48-2.976-5.08-4.194-8.06-2.721-2.98 1.472-4.19 5.079-2.72 8.054.23.476.53.902.86 1.284" fill="#ffe340"/><path d="m149.08 40.904265-.93-.547.55-.927c.15-.248.06-.571-.18-.717-.25-.147-.57-.064-.72.185l-.55.926-.92-.547c-.25-.147-.57-.064-.72.184s-.06.571.18.717l.93.548-.55.926c-.14.248-.06.571.19.717.25.147.57.064.71-.184l.55-.927.93.547c.25.147.57.064.72-.184.14-.248.06-.571-.19-.717" fill="#ffe340"/><path d="m157.43 26.554265-.93-.548.55-.927c.14-.247.06-.57-.19-.717-.25-.146-.57-.063-.71.185l-.55.927-.93-.548c-.25-.146-.57-.063-.72.185-.14.247-.06.57.19.717l.93.547-.55.927c-.15.248-.07.57.18.717.25.146.57.063.72-.185l.55-.927.92.548c.25.146.57.063.72-.185.15-.247.06-.57-.18-.716" fill="#fff317"/><g fill="#ffe340"><path d="m50.55 10.395265-.93-.54699999.55-.927c.14-.248.06-.57-.19-.717-.24-.146-.57-.063-.71.185l-.55.926-.93-.547c-.25-.146-.57-.063-.71.184-.15.248-.07.571.18.717l.93.54799999-.55.927c-.15.247-.06.57.18.716.25.146.57.064.72-.184l.55-.927.93.547c.24.147.57.064.71-.184.15-.248.07-.57-.18-.717"/><path d="m118.78 10.395265-.93-.54699999.55-.927c.15-.248.06-.57-.18-.717-.25-.146-.57-.063-.72.185l-.55.926-.93-.547c-.24-.146-.57-.063-.71.184-.15.248-.07.571.18.717l.93.54799999-.55.927c-.14.247-.06.57.19.716.24.146.57.064.71-.184l.55-.927.93.547c.24.147.57.064.71-.184.15-.248.07-.57-.18-.717"/><path d="m23.36 51.558265-.93-.548.55-.926c.14-.248.06-.571-.19-.717-.24-.146-.57-.063-.71.184l-.55.927-.93-.547c-.24-.147-.57-.064-.71.184-.15.248-.07.571.18.717l.93.547-.55.927c-.15.248-.06.571.18.717.25.146.57.063.72-.185l.55-.926.92.547c.25.147.58.064.72-.185.15-.247.07-.57-.18-.716"/></g><g transform="matrix(.9612617 -.27563736 .27563736 .9612617 60.335609 38.702321)"><path d="m39.545038 13c-16.9609329 0-31.31411568 4.2555346-38.01825035 8.4346224-2.49161541 3.9128245-1.75257694 10.644297.90796154 14.5997652 8.13470201 4.3975071 22.08669251 11.1076577 44.45844271 11.8892865 28.5427214.9979678 50.1068081-7.9957038 50.1068081-14.9684776 0-6.2691518-28.8911252-19.9551965-57.454962-19.9551965" fill="#e4efeb"/><path d="m78.9828875 28.9483463c-.5816866 6.3477896-15.1450054 10.2515633-32.5321486 8.7185318-17.3871431-1.5325117-31.0144752-7.9208358-30.4327885-14.2686254.5763986-6.3477896 14.4469815-8.4519403 31.8341246-6.9194285 17.3871431 1.5330315 31.7124992 6.1217325 31.1308125 12.4695221" fill="#85aaa7"/><path d="m13 16.9981783s-4.3268567-2.4543842-10.20270746-3.9510207c-1.09978577-.2799034-2.07565202.7341238-1.7245467 1.7750457l2.09630527 6.1777967z" fill="#cbd3d1"/><path d="m4.91182293 37-3.52880735 3.7418414c-.69343376.7289302-.41606026 2.042477.59583938 2.2103518 1.14031329.1884911 4.19655838-.2233422 6.03544198-.4888986 2.59395596-.3745277 4.93622106-.8943506 6.98570306-1.458842-3.3593013-1.3346539-6.7237392-2.6697987-10.08817707-4.0044526" fill="#cbd3d1"/><path d="m49.3153393 34.5249376.0875778.0048153.1313668.0005351c.0875778-.0010701.1751557-.0010701.2682071-.0090956.186103-.0069554.3722059-.0337071.5637824-.0551084.3722059-.0583185.7498853-.1380384 1.1220911-.2520003.7334645-.229529 1.4450345-.5516187 2.0745002-1.0080015l.1258932-.0791849.1094723-.0920256.2298918-.1840512.2298919-.1840512c.071157-.0620638.1368404-.1369684.2079974-.2049175l.4214684-.4173255.3722058-.4644083.1861029-.2327392c.0602098-.082395.1094723-.1685353.1642085-.2530705l.3284169-.508281c.2025238-.3504463.3667322-.7244342.5583087-1.0871863l.0492626-.0882804c.1915765-.3707776.6568338-.5173765 1.0345133-.3274399.355785.1781658.5090462.590676.3667322.9459377-.1696821.4307012-.3229433.8721032-.5199934 1.2979891l-.3229434.6297335c-.0547361.1048664-.1094723.2113379-.169682.3145992l-.1970502.3001533-.3995739.5997716-.4597837.5617842c-.0821042.0914906-.1532612.1904716-.2408391.2766119l-.525467.5147014-.1368404.1284078-.142314.1161021c-.7444117.6500647-1.6256637 1.1567406-2.5507047 1.541429-.4652573.1920768-.9524091.343491-1.4450345.4654784-.2517863.0535033-.498099.1102168-.7553589.1455289-.1258931.0224714-.2627335.0363822-.3941003.0502931-.0656834.0074904-.1313668.0139108-.2079974.0176561-.071157.0042802-.1368404.0096306-.2463127.0101656l-.8046214.0005364c-.7882006.0010687-1.42314-.6211743-1.4286136-1.3894811 0-.7683069.6349394-1.3916199 1.42314-1.392155.3393641-.000535.6458866.115032.8921993.3065737" fill="#647c84"/><path d="m46.0461273 38.6692485c2.374171.2114297 4.6955826.3166213 6.9378552.3307515v-10.773498s.5539733-4.226502-4.8538607-4.226502c-6.7690253 0-13.1476313.3349382-16.8355103.9687042-3.6878789.6332426-4.2946115 3.8758635-4.2946115 6.5265857 0 .9263136.0105519 1.9489219.0211037 3.0338079 5.1756928 1.9944525 11.7706122 3.4948712 19.0250236 4.1401507" fill="#cae5e1"/><path d="m30.7698615 23h17.2830303c3.6837909 0 4.9471082-1.8186292 4.9471082-6.9582792 0-5.1401753-2.9565872-12.0417208-12.2191449-12.0417208-9.2572496 0-12.7340263 5.51524786-13.4930783 10.6034173-.759052 5.0886947-.1539336 8.3965827 3.4820847 8.3965827" fill="#cae5e1"/><path d="m31.298171 14.8839338c.7268231-4.91849378 4.4504747-9.04849461 13.3514241-9.04849461 1.6748532 0 3.1126989.07511958 4.3504049.21380187-1.8117909-1.25234316-4.2082003-2.04924106-7.3261661-2.04924106-9.1853584 0-12.6351347 5.51524786-13.3882919 10.6034173-.7531573 5.0881694-.1527382 8.3965827 3.4550431 8.3965827h2.9072923c-3.4971778 0-4.0765295-3.1975725-3.3497064-8.1160662" fill="#daf2f0"/><path d="m52 15.4006723c0-1.6359978-.3111668-3.4530282-1.0389806-5.1622642-.5801414-1.35593892-1.9355627-2.2384081-3.4386564-2.2384081h-8.3171184c-4.6358574 0-8.127254 4.8084513-6.9880672 8.6730578 1.1444608 3.8646064 5.9227166 3.2977837 9.9573365 3.2977837h6.7823806c1.5400118 0 2.832145-1.1465395 2.9692693-2.6458603.0474661-.5807483.0738362-1.2208092.0738362-1.9243089" fill="#eff"/><path d="m50.9427549 10.0906874c-.4347048-1.01261944-1.2987477-1.76396841-2.3345259-2.0906874.7352415.39478545 1.3363148 1.02413838 1.6744186 1.81161493.7406082 1.73517107 1.0572451 3.57977207 1.0572451 5.24006997 0 .7146978-.0268337 1.3644707-.0805009 1.9540309-.1341682 1.5220707-1.4490161 2.6860071-3.0161002 2.6860071h-6.9069768c-2.5008944 0-5.2808586.2120532-7.3363148-.5094512 2.0876565 1.051365 5.2218247.7885237 8.0017889.7885237h6.90161c1.5670841 0 2.881932-1.1639364 3.0214669-2.6860071.0483006-.5895602.0751342-1.2393331.0751342-1.9535073 0-1.6608216-.3166369-3.5054225-1.0572451-5.2405936" fill="#aecec8"/><path d="m49 14c0 .5521127-.4450704 1-.9971831 1s-1.0028169-.4478873-1.0028169-1c0-.5526761.4507042-1 1.0028169-1s.9971831.4473239.9971831 1" fill="#6e868e"/><path d="m42 14c0 .5521127-.4507042 1-1.0028169 1s-.9971831-.4478873-.9971831-1 .4450704-1 .9971831-1 1.0028169.4478873 1.0028169 1" fill="#6e868e"/><path d="m30.4694245 35c-.0161871-1.5599409-.0323741-3.0242986-.0323741-4.3093033 0-2.7198281.6205036-6.0469861 4.3920863-6.6972748 3.2643885-.5627601 7.5809352-.8951537 13.1708633-.9746274-.2428058-.0118137-.4910072-.0187945-.75-.0187945-6.9226619 0-12.0863309.3436703-15.8579137.9934219-3.7715827.6502887-4.3920863 3.9774467-4.3920863 6.6972748 0 .9504632.0107914 1.9997315.0215827 3.1129011 1.0899281.4215331 2.2446044.8210498 3.4478418 1.1964022" fill="#daf2f0"/><path d="m29.4005952 1.56036304c-.9219411-.42104093-1.7666246-.62811892-2.3589332-.73033389-.1133112-.52378551-.5974591-.88550998-1.1279615-.82301585-.5665561.06673101-.9734463.59369419-.9064897 1.17626654.0669567.58310197.5768571 1.00096523 1.1434131.93423421.3914387-.04607617.7056198-.31247062.8446835-.6651917.5511045.09956691 1.3391324.29658229 2.1786654.68425771 2.1014078.96707011 3.5332494 2.6030392 4.2543207 4.86341994l.5717065-.19383771c-.9734462-3.04049808-3.0388005-4.53082409-4.5994048-5.24579925" fill="#cae5e1"/><path d="m31.0406847 28.2314153-.0053821-.0048653.0053821.021083.0107641.0545995.0322925.1243355c.0269104.0870349.0538207.1767727.0861132.2675917.0645849.1810974.1399339.3638166.2206651.5443734.1722264.3594918.3713631.7092531.6081744 1.038472.4682405.6595189 1.0602688 1.2292999 1.7437923 1.699072 1.3616649.9368412 3.1108393 1.4260745 4.8923061 1.5590594.8126933.0573025 1.6738253-.0497342 2.5349573-.2724569.8611319-.2194793 1.7168819-.5503199 2.5564855-.947653.8396037-.3946302 1.652297-.8633211 2.4488441-1.371475.3982736-.2546175.785783-.5222092 1.1732924-.7995315.3767452-.2740788.7642546-.572484 1.0979432-.8525093l.0215283-.0167582c.3982736-.3313813.9849197-.2778629 1.3186084.1205514.3175424.3854401.2744858.9535994-.0861132 1.2903865-.3982736.3703037-.7750188.6860078-1.1786744 1.0092802-.3982736.3194882-.8019292.6276241-1.2163489.9244076-.8288396.5914047-1.6899716 1.1460493-2.6049243 1.6342014-.9149527.4897738-1.8729621.9200829-2.8955563 1.2390306-1.0225942.3189476-2.1205375.5265339-3.2723015.5059915-1.0710329-.0259483-2.1259196-.1464997-3.1915705-.4167943-.5328254-.1275791-1.0548866-.3059735-1.5769479-.5092351-.5112971-.2151545-1.0172122-.4600415-1.506981-.7557438-.9687735-.5914046-1.8568158-1.3536355-2.5726318-2.262366-.3659811-.4535544-.6835235-.941166-.9580093-1.4574287-.139934-.2594828-.2637217-.5249122-.3821273-.8022345-.0538208-.139472-.1076415-.2805658-.1614623-.4281467l-.075349-.2286692-.0322925-.123795-.0215283-.0686548-.0215283-.0940625c-.1722264-.8335887.3659811-1.6482567 1.1948206-1.8196235.8288396-.1713668 1.6415329.3659789 1.8137593 1.1995676" fill="#647c84"/><path d="m57.1007512 38-1.8796989-5.7907955-2.9077379-.0843547c-.7458323-.0218697-1.3807976-.5722583-1.5319798-1.3298887l-.7659899-3.6496435c-.0907093-.4488504.2318128-.8721861.6752806-.8862453l.1209458-.0041656c.3426796-.0114556.6450441.2296323.7206352.5738204l.6752805 2.9685572c.0957488.4446848.4787437.7591925.9222115.7581511l2.5801765-.0078106 1.9351324-.3858448c.5240983-.105183.8617386-.6420331.7357534-1.1804454l-1.1439454-3.0732196c-.110867-.4634302.2318127-.908115.6903988-.908115.3326008.0005207.6148076.2317151.6954381.5613234l1.3304035 3.8037731c.2066157.8701034-.2872462 1.7537451-1.1187484 2.0021229l-2.030881.6040215 2.1367086 5.9480493z" fill="#566f72"/><g fill="#647c84"><path d="m49.0122785 29.9813237c.0402183.3427705.1860095.6635283.4122373.915103l.5328921.5974899c.4072099.4565033 1.0255658.6221233 1.578567.42296l1.151248-.4145742c.2413096-.0864788.372019-.3632109.2865551-.6221232v-.0131029c-.0754092-.2327066-.2966097-.3773621-.5228375-.3396259l-1.0406477.1724335 1.0909206-.528831c.2161732-.1032504.3217461-.3632109.2463369-.6037793l-.0050273-.0104822c-.0804365-.2515747-.3267734-.3962302-.5680831-.3296677l-1.2166026.3391017-.070382-.1284079 1.0356205-.4858537c.231255-.1079674.3318007-.3930854.2362823-.6420396-.0854638-.2096456-.2915825-.3354329-.4977011-.3055584l-1.6439217.2321825-.301637.193398c-.5027284.3207578-.779229.9282059-.7038198 1.5513774"/><path d="m57.2243598 29.7937216c.5359949.2381361 1.6312887.3300483 2.1556315-.0558784l.4253003-.4444163c.2272152-.1676352.2621714-.4720943.0699124-.6846412l-.0058261-.0109668c-.1689549-.1916578-.4660825-.2464917-.6991237-.1300348l-.559299.3002812.6525155-.7708089c.192259-.1744242.2039111-.455383.0291302-.6522631l-.0058261-.0088778c-.186433-.2068024-.5126907-.2522363-.745732-.1039235l-.8622525.6397296.2330412-.3995046.7399059-.6256294c.2097372-.1838244.2097372-.4877612.0058261-.6851635-.1689549-.1655463-.4427784-.2094135-.6583415-.1060123 0 0-1.0079034.5937735-1.4506818.979178-1.2817268 1.1113017-.005826 2.4513394.6758196 2.7589318"/></g></g><path d="m18.1292839 79.5456076s21.76 12.12 47.85 3.581c0 0-28.41 3.541-47.85-3.581" fill="#fff317" transform="matrix(-.78801075 .61566148 -.61566148 -.78801075 126.206952 122.262584)"/><path d="m20.6066416 72.5729982s21.76 12.12 47.85 3.581c0 0-28.41 3.541-47.85-3.581" fill="#fff317" transform="matrix(-.82903757 .5591929 -.5591929 -.82903757 123.885491 113.898308)"/><path d="m0 22.9936835s14.39 3.12 23.51-.889c4.73-2.077 8.62-7.225 7.14-13.259-3.47-14.229-25.63-9.827-24.56 2.841 0 0 4.3-10.97 14.68-6.953 4.44 1.713 6.79 11.902-3.64 16.013-9.36 3.688-17.13 2.247-17.13 2.247" fill="#fff" transform="matrix(-.99254615 -.12186934 .12186934 -.99254615 69.066189 84.489075)"/><path d="m4 5.48050268v-3.61081194c0-1.08333413-.8476311-1.86969074-2.01551753-1.86969074-.88945138 0-1.65322181.52853848-1.90194244 1.32349658-.01034502.10072789.01518737.28316987.30286689.37461721.31563308.09982247.43206956-.06722738.47433005-.17746217.16375943-.48417294.60529357-.79722164 1.1247455-.79722164.70786332 0 1.22181258.48688919 1.22181258 1.15735214v.28747061c0 .13445476-.17454465.22205407-.33940461.25962897l-1.40538161.37755982c-1.05167006.24627404-1.46150883.66525679-1.46150883 1.49439446 0 .96359243.84322897 1.69177586 1.96467287 1.70016402.01518736.00021332.02993451-.00250294.04380124-.00861452.05238541-.02331454.17212348-.10253873.17212348-.34043763 0-.2374462-.11929786-.33274157-.17168327-.36329947-.01452704-.00837513-.03037473-.01199681-.04666263-.01222316-.67836901-.00882784-1.16854674-.4162665-1.16854674-.97558924 0-.51676803.27513344-.67544275.85401419-.81781993 0 0 1.01821384-.27502109 1.41924834-.39838446.06801299-.02082465.13558576.03214238.13426512.10502863l-.00352171.22884471.00286139 1.26985049c0 .01539213.00308149.03078425.00880427.04481825.14240907.3436066.38628735.62224938.70588235.81012387.0684532.03599041.0847411-.0235409.0847411-.06179486" fill="#3682e0" fill-opacity=".9" transform="matrix(.96592583 -.25881905 .25881905 .96592583 102.291691 53.626419)"/></g></svg>
