<svg height="169" viewBox="0 0 158 169" width="158" xmlns="http://www.w3.org/2000/svg" xmlns:xlink="http://www.w3.org/1999/xlink"><linearGradient id="a" x1="27.848338%" x2="77.5532%" y1="5.360508%" y2="81.250922%"><stop offset="0" stop-color="#00dbd6"/><stop offset="1" stop-color="#00b5ad"/></linearGradient><g fill="none" fill-rule="evenodd"><path d="m158 160.972c0 4.1-32.899 7.424-73.481 7.424s-73.48-3.324-73.48-7.424c0-4.099 32.898-7.424 73.48-7.424s73.481 3.325 73.481 7.424" fill="#c9c9c9" transform="matrix(-1 0 0 1 169.039 0)"/><path d="m66.547928.754c-.927 0-1.756.419-2.309 1.078-2.036-.489-5.099-.922-8.798-.497-6.125.704-15.213 4.008-23.717 15.752-.315.436-.218 1.044.218 1.36.173.125.372.184.57.184.302 0 .599-.139.789-.402 6.373-8.802 14.07-13.97 22.256-14.947 3.313-.393 6.094-.03 7.978.396l-.005.095c0 1.666 1.351 3.017 3.018 3.017 1.666 0 3.018-1.351 3.018-3.017 0-1.667-1.352-3.019-3.018-3.019" fill="#6d8c8c" transform="matrix(-1 0 0 1 101.104928 0)"/><path d="m43.8572677 55.449c-.785 6.207 17.862 23.946 25.66 28.75 7.797 4.802 34.7710003 8.616 43.4240003 8.586 8.652-.031 1.421-20.744 1.421-20.744s-68.3900003-33.334-70.5050003-16.592" fill="#94c4bf" transform="matrix(-1 0 0 1 161.026268 0)"/><path d="m98.4431804 88.433c-4.607 3.532-8.47 7.711-16.956 0-8.485-7.71-19.83-21.301-35.81-24.621-15.98-3.319-30.346-3.981-22.491-13.403 7.853-9.421 15.742-19.89 21.2-25.348 5.457-5.457 16.447-10.655 34.512-6.831 18.064 3.823 35.6879996 20.429 37.9349996 31.9 3.055 15.597-13.783 34.771-18.3899996 38.303" fill="#cae5e1" transform="matrix(-1 0 0 1 138.17418 0)"/><path d="m53.9964377 55.935c7.854-9.422 15.743-19.89 21.2-25.348 5.458-5.457 16.448-10.655 34.5130003-6.831 2.519.534 5.03 1.324 7.492 2.305-5.532-3.646-11.735-6.507-17.9920003-7.831-18.065-3.824-29.055 1.374-34.512 6.832-5.458 5.457-13.347 15.925-21.2 25.347-5.364 6.432-.367 8.781 8.428 10.681.03-1.741.673-3.478 2.071-5.155" fill="#daf2f0" transform="matrix(-1 0 0 1 158.485438 0)"/><path d="m48.823454 28.391c-12.882-.111-24.065 17.786-20.239 25.985 3.827 8.2 7.459 4.299 23.133 18.557 15.672 14.257 19.281 15.492 25.509 7.749s13.359-13.702 9.923-23.289c-3.435-9.587-20.967-28.851-38.326-29.002" fill="#e4f4f2" transform="matrix(-1 0 0 1 115.867454 0)"/><path d="m59.813778 57.393c-3.016-8.417-16.899-24.29-31.991-28.142 14.182 4.771 26.832 19.468 29.694 27.456 3.437 9.587-3.694 15.546-9.923 23.29-2.758 3.43-5.005 5.093-8.012 4.648 4.261 1.822 6.893.284 10.309-3.963 6.228-7.743 13.359-13.702 9.923-23.289" fill="#94c4bf" transform="matrix(-1 0 0 1 88.531778 0)"/><path d="m39.304 88.052-32.639 24.011 8.953 9.519 24.037-30.368z" fill="#daf2f0" transform="matrix(-1 0 0 1 46.32 0)"/><path d="m76.4623597 73.386c2.55-4.348 7.47-6.731 12.475-6.136 8.744 1.04 22.6090003 3.435 29.9990003 8.598 11.323 7.912 16.674 12.375 22.27 16.439 5.596 4.062 6.81 9.1 3.98 15.373-2.829 6.271-12.124 21.118-14.355 53.825h-49.7520003c-12.197 0-25.33-3.612-21.644-27.31 3.233-20.786 6.959-43.614 17.027-60.789" fill="#cae5e1" transform="matrix(-1 0 0 1 205.46136 0)"/><path d="m71.208 92.287-47.112 27.801 37.283 27.255 49.988-24.648-11.219-.615z" fill="url(#a)" transform="matrix(-1 0 0 1 135.463 0)"/><path d="m95.0097678 121.812s-8.302 1.37-13.39 2.452c-7.143 1.52-5.805 14.38 1.086 14.107 9.161-.365 19.1360002-4.07 19.1360002-4.07l-1.247-3.864-15.6660002 2.445v-4.374l10.676-3.198z" fill="#6d8c8c" transform="matrix(-1 0 0 1 178.702766 0)"/><path d="m79.067 163.677h-35.771c-2.6 0-4.709-2.108-4.709-4.71 0-3.51 2.846-6.356 6.358-6.356h34.122c3.055 0 5.533 2.476 5.533 5.533 0 3.056-2.478 5.533-5.533 5.533" fill="#6d8c8c" transform="matrix(-1 0 0 1 123.187 0)"/><path d="m51.910704 139.652s-8.032-7.19-14.489.862c-6.457 8.051-6.199 15.084-4.074 19.106 2.126 4.022 5.915 3.535 5.915 3.535z" fill="#8faaa5" transform="matrix(-1 0 0 1 83.910704 0)"/><path d="m31.255736 162.974c5.168 2.687 11.211-6.637 14.55-14.099 4.049-9.053-4.467-14.137-9.84-3.801s-8.845 15.752-4.71 17.9" fill="#819b96" transform="matrix(-1 0 0 1 76.295736 0)"/><path d="m113.352 163.677h-39.267c-2.6 0-4.709-2.108-4.709-4.71 0-3.51 2.846-6.356 6.357-6.356h37.619c3.055 0 5.533 2.476 5.533 5.533 0 3.056-2.478 5.533-5.533 5.533" fill="#6d8c8c" transform="matrix(-1 0 0 1 188.261 0)"/><path d="m82.683672 138.391s-9.001-5.934-14.207 2.979c-5.206 8.912-3.918 15.831-1.225 19.497 2.692 3.667 6.369 2.629 6.369 2.629z" fill="#8faaa5" transform="matrix(-1 0 0 1 147.585672 0)"/><path d="m63.86919 163.374c5.506 1.9 10.116-8.209 12.323-16.081 2.678-9.55-6.493-13.329-10.291-2.317-3.798 11.013-6.437 16.879-2.032 18.398" fill="#819b96" transform="matrix(-1 0 0 1 138.24919 0)"/><path d="m13.187 120.735 23.785-34.144 1.878 1.455-23.969 34.649-.665.064.017.255-12.098 1.232-2.008-4.431z" fill="url(#a)" transform="matrix(-1 0 0 1 38.977 0)"/><path d="m4.51 94.972 4.306-2.642s25.889 21.312 26.957 27.107c0 0 5.5-9.223 10.399-14.22 4.898-4.997 12.896-17.165 12.896-17.165l2.506 2.136-21.505 31.49-12.134-.921z" fill="#8faaa5" transform="matrix(-1 0 0 1 66.084 0)"/><path d="m59 60.017c0 1.667 1.352 3.018 3.019 3.018 1.666 0 3.018-1.351 3.018-3.018 0-1.666-1.352-3.017-3.018-3.017-1.667 0-3.019 1.351-3.019 3.017" fill="#6d8c8c" transform="matrix(-1 0 0 1 124.037 0)"/><path d="m45 71.017c0 1.667 1.352 3.018 3.019 3.018 1.666 0 3.018-1.351 3.018-3.018 0-1.666-1.352-3.017-3.018-3.017-1.667 0-3.019 1.351-3.019 3.017" fill="#6d8c8c" transform="matrix(-1 0 0 1 96.037 0)"/><path d="m117.227518 136.386c3.234-20.787 6.959-43.615 17.028-60.789 2.537-4.328 7.421-6.706 12.402-6.141-4.729-1.06-9.432-1.758-13.19-2.206-5.005-.595-9.925 1.788-12.475 6.136-10.068 17.175-13.794 40.003-17.027 60.789-3.686 23.698 9.447 27.31 21.644 27.31h.489c-6.726-3.047-11.221-9.985-8.871-25.099" fill="#daf2f0" transform="matrix(-1 0 0 1 249.991516 0)"/><path d="m133.937872 81.051c-.651 1.797-2.389 2.97-4.298 2.881-5.538-.258-16.889.975-21.175 14.521-6.299 19.906 21.263 31.785 45.082 29.953l1.707 7.362s-29.852 2.53-47-12.969c-17.1460006-15.5-7.653-39.535 8.171-45.218 5.608-2.015 10.191-2.474 13.482-2.391 2.997.075 5.05 3.042 4.031 5.861" fill="#6d8c8c" transform="matrix(-1 0 0 1 254.385872 0)"/><path d="m66.8632541 112.328936c-3.7745704-1.851922-8.737643-1.218705-11.1988669 1.505895-1.6164175 2.07503-.9873953 4.760373 1.2538943 6.699574.3030056.196325.9123573.448638 1.6509073-.066173.8377769-.565708.5171906-1.122912.2414757-1.409945-1.2904653-1.209716-1.5545966-2.774931-.5539359-3.986778 1.4861144-1.651397 4.366592-2.018086 6.6218945-.871953l.9302774.491421c.4275424.229846.2757512.786795-.003634 1.235635l-1.9594266 3.924085c-1.2806231 2.874472-.8574428 4.546834 1.2052615 5.964216 2.1668758 1.647227 5.3039266.924835 7.844774-1.677101.0370889-.035044.0670556-.074091.0878693-.116889.0784344-.162067.2043349-.576839-.3087384-.983518-.5271456-.405906-1.02918-.290497-1.2229024-.220523-.053359.019574-.0989634.050354-.1378129.087966-1.5497472 1.567498-3.4854028 2.014548-4.8082346 1.058405-1.2963305-.883397-1.1774559-1.796513-.3753467-3.390392 0 0 1.5249012-2.845562 2.1438934-3.992034.108588-.194269.4350574-.261366.6456337-.133689l.653451.399418 3.4293873 2.164089c.0388422.026313.0858091.045436.1363343.056076 1.2337443.255153 2.5804723.162531 3.9424625-.261898.2854876-.098172.1930744-.237937.1023428-.303331" fill="#fff" transform="matrix(.9998477 -.01745241 .01745241 .9998477 -2.066503 1.170276)"/></g></svg>