<svg height="228" viewBox="0 0 562 228" width="562" xmlns="http://www.w3.org/2000/svg"><g fill="none" fill-rule="evenodd"><path d="m464.784651 17.5882374c5.340809 4.011812 9.307494 9.8964046 10.789924 16.9452802 3.251418 15.4380303-6.633705 30.5872462-22.073992 33.8364077-7.048875 1.48243-14.032316.2211235-19.853731-3.0483453 6.229816 15.0296287 22.448548 23.9851303 38.951581 20.5125889 18.644321-3.9215575 30.580477-22.2161424 26.654407-40.8604633-3.470285-16.5007769-18.199818-27.7374607-34.468189-27.3854682" fill="#ffe600" transform="matrix(-1 0 0 1 933.646852 0)"/><g transform="matrix(-1 0 0 1 562 18)"><path d="m25.4744477 156.49606c-.1147378-4.940892.6060507-28.719487 24.3567679-38.786445 23.6948192-10.043444 42.5382904-3.147945 50.8935534 1.240366-6.384127-8.917708-14.6805499-25.980099-7.1490454-48.0539248 10.8559574-31.8204047 43.4532504-29.280886 49.8373774-28.4549545.23536-2.6012432 1.353317-9.440896 6.089928-16.9742137 5.413268-8.6355393 16.857625-19.80177961 40.481836-23.94613307 26.389686-4.62345248 43.71803 2.16917223 53.63255 8.68256747 8.737722 5.7462489 13.327233 12.1567701 14.827649 14.5552045 5.00139-3.5035953 29.949499-19.18159625 57.133523-4.1708068 5.177909 2.8569586 9.355541 6.1371702 12.709414 9.6143122 4.82487-2.8716549 10.444078-4.5293962 16.445746-4.5293962 7.443245 0 14.268671 2.5365794 19.711359 6.7749891 2.294756-3.0891599 5.589789-6.1430487 10.267559-8.7031422 15.621988-8.5120906 30.214278-2.6512106 33.479891-1.1227965 2.471275-2.4190092 13.327233-11.7423348 29.008061-6.0460533 14.709969 5.3406314 16.887045 18.4702959 17.210664 23.0525988 3.000834-1.4314186 33.126852-7.6450095 50.455197 15.1871449 17.387184 22.9085751 10.149879 45.8112721 6.354706 51.3811651 7.855124 2.351406 13.180133 6.545727 15.827928 12.491846 4.501251 10.078714 0 22.023858-1.735777 25.938949 36.245366 3.885699 36.686665 36.064693 36.686665 36.390951 0 .543763-.441299.981712-1.000278.981712h-559.01709602c-.54132689 0-.98262598-.437949-.98262598-.981712 0-18.867096 19.9731969-23.678661 24.4744477-24.522228" fill="#2eccd3"/><path d="m25.4640174 156.49606c-.1088074-4.667541.532274-26.132941 20.6028255-36.98762 7.7635541-4.758658 22.0702549-11.986293 39.4117996-13.585249 0 0-7.2371615-23.4934873 16.0564415-49.4353764 14.056738-16.5245073 36.612215-14.719803 41.817325-14.0467129.235259-2.6012432 1.35274-9.440896 6.087332-16.9742137 5.410962-8.6355393 16.850441-19.80177961 40.464585-23.94613307 26.378439-4.62345248 43.699398 2.16917223 53.609693 8.68256747 8.733998 5.7462489 13.321553 12.1567701 14.82133 14.5552045 4.999258-3.5035953 29.936735-19.18159625 57.109174-4.1708068 12.233479 6.7632321 18.938367 15.9160808 22.555477 24.4399284 0 0-16.673997-10.1404393-50.69836 4.6881161-31.289476 13.6440346-29.87792 36.293955-29.87792 36.293955s-30.024957-12.9209771-58.814804 5.1701545c-28.789846 18.0881919-17.615033 44.2358299-17.615033 44.2358299s-14.233182-19.675392-46.28725-16.030712c-23.349477 2.657089-31.965846 16.030712-36.8474744 22.33248 0 0-35.253593-6.669176-46.8489315 15.448739 0 0-29.6485422-2.327892-32.4569491 24.833789h-16.57107079c-.54109619 0-.98220721-.437949-.98220721-.981712 0-18.867096 19.9646849-23.678661 24.4640174-24.522228" fill="#45e5e2"/><path d="m519 181c-.088352-3.815598-.765718-7.929243-2.238254-12.311426-8.216748-24.097579-32.837541-22.17355-37.638007-21.547946-.206155-1.971244-1.030775-7.150188-4.594311-12.854403-4.123099-6.542289-12.752157-14.996804-30.599287-18.133679-19.90868-3.502796-33.014246 1.640736-40.465276 6.571798-6.626409 4.355625-10.072142 9.209962-11.22072 11.024805-3.769691-2.652917-22.588695-14.524649-43.115839-3.157532-9.247523 5.119924-14.313045 12.051741-17.051961 18.508452-31.188302 2.862436-29.126752 24.850076-29.00895 31.899931z" fill="#45e5e2"/><path d="m.1212985 179.888252s-2.47385002 2.47062 14.9225222 5.187709c20.4114688 3.183299 55.5454339.798794 60.3960626 6.684334 5.3006869 6.423019-19.3230925 4.59381-18.8759758 12.094756.3824025 6.375507 26.9917335 6.143886 56.9662065 6.143886h281.536487c24.267851 0 19.88493-5.558895 16.443307-8.088906-5.000648-3.676235-2.794479-7.06443 19.031879-7.53361 21.208631-.454333 36.740055-.846306 48.329793-.846306 30.85694 0 24.797331-7.690994 48.859273-7.690994 15.56084 0 34.269147-2.954648 34.269147-6.381446-78.951409-7.082247-167.021646-11.934402-262.887011-12.41843-110.190751-.552326-210.5567 4.774949-298.9916905 12.849007" fill="#f2f2f2"/></g><g transform="matrix(-1 0 0 1 391 0)"><path d="m70.325668.5476991c1.9795887 1.1122982 2.6972151 3.56619296 1.6554336 5.54539988 7.4677996 6.49075282 24.3055164 25.68946222 5.2517204 54.90690102l-3.9020935-2.1924142c18.3606342-28.1614595 3.7532676-45.1818344-3.1029186-50.95854409-1.2395365.65370148-2.7787636.68789509-4.0916937-.04827334-2.0285177-1.14246904-2.7379893-3.69089909-1.5800012-5.69223129 1.1539106-2.0033436 3.7389965-2.70129563 5.769553-1.56083798" fill="#c7efeb"/><path d="m212 210.498968c0 4.695493-47.457165 8.501032-105.998995 8.501032-58.5438402 0-106.001005-3.805539-106.001005-8.501032 0-4.693429 47.4571648-8.498968 106.001005-8.498968 58.54183 0 105.998995 3.805539 105.998995 8.498968" fill="#cececc"/><path d="m162 213h-67.6607455s-8.5460019-2.368986-7.1942866-11.423867c1.3517153-9.052912 10.0091779-8.141915 20.2129051-6.559967 10.205755 1.57998 51.010532 5.745382 51.010532 5.745382z" fill="#64847e"/><path d="m145.777878 142-107.1160611-25.631824s-11.4265165-3.349305-4.3497074-23.5294719c7.0768092-20.1801668 16.2521613-46.5007266 25.9255409-53.9724082 9.6733796-7.4716817 35.2936778-2.2991335 47.2322786.4658506 11.94061 2.766992 37.689431 8.9375047 49.16816 12.8952269 9.763748 3.3673771 15.119551 11.4575156 10.914432 25.9390443-4.205119 14.4815286-21.774643 63.8335823-21.774643 63.8335823" fill="#abe1dd"/><path d="m60.1469127 121.488742s-11.63755-3.405491-4.4304781-23.9147415c7.2070719-20.5092501 9.2754332-42.6288799 20.5206384-52.5019935 6.7704626-5.9435462 20.9351153-6.794919 30.814156-5.8672439-12.1868328-2.7930651-37.2144061-7.6964907-46.7594506-.3373364-9.6919222 7.4715997-18.8848623 33.791871-25.9752368 53.9718165-7.0903745 20.1799458 4.3580451 23.5292138 4.3580451 23.5292138l107.3213893 25.631543.004024-.008032z" fill="#c7efeb"/><path d="m76.7111588 62.4494504c-2.9158551 9.8395987-9.1165842 31.6297346-10.4071425 39.2311326-1.2905582 7.601398 1.4075151 14.126117 10.4071425 16.689543 6.4003624 1.820053 39.0252722 7.373134 57.3612822 10.43147 7.174697 1.197882 14.115481-3.135097 16.206588-10.116344 3.958384-13.21508 9.894952-33.0336601 11.260121-37.596923 2.093124-6.989327 3.839411-15.6108436-9.011726-19.8044398-12.851138-4.1935962-42.358542-10.6597336-53.8888737-12.7848123-11.528315-2.1270986-18.5437091 2.5492864-21.9273915 13.9503735" fill="#eff"/><path d="m154.913302 62c8.267067 4.5618013 6.715242 11.9704258 4.891448 18.1216696-1.353847 4.5719252-7.241183 24.4369194-11.16674 37.6829494-2.073766 6.997596-8.956989 11.340723-16.072187 10.140035-.509942-.08504-1.033883-.17413-1.565823-.263219.023997.192353.055994.382681.079991.573009 1.115874.190328 2.199752.372557 3.233635.546687 7.115197 1.200687 13.998421-3.142439 16.072187-10.140036 3.925557-13.246029 9.812893-33.1110236 11.16674-37.6849735 1.939781-6.550123 3.579596-14.5317567-6.639251-18.9761215" fill="#84bfb8"/><path d="m40.6370147 116.299207 111.3629853 24.741217-16.873608 64.492778c-1.150611 4.398887-5.123246 7.466798-9.66715 7.466798h-92.0165733c-10.6098435 0-18.7610133-9.399643-17.2652192-19.910115l9.4511583-66.397347c1.0234381-7.177982 7.9351779-11.96465 15.0084069-10.393331" fill="#abe1dd"/><path d="m132.166998 191.124294c-1.093439-.030564-2.220676-.087617-3.347913-.124294-1.347912 1.330555-2.654075 2.705937-4.003976 4.026304-1.882703 1.846068-3.743538 3.712512-5.467196 5.709363-.570577.906734-1.089464 1.835881-1.568589 2.795592-1.087475 3.103269-1.944334 6.28193-2.779324 9.468741h9.902584c4.47515 0 8.387674-3.095119 9.520875-7.533018l3.576541-14.006484c-1.93837-.171158-3.884692-.281189-5.833002-.336204" fill="#80ada8"/><path d="m46.3477725 195.893201 9.8606113-69.172465c.3476886-2.43171 1.3503256-4.592782 2.7916162-6.353954l-18.3284464-4.067662c-7.0831451-1.571321-14.0045745 3.217371-15.0294474 10.39334l-9.4644079 66.397407c-1.4978911 10.510482 6.6647059 19.910133 17.2894235 19.910133h19.9779459c-5.0920212-3.827318-8.0756748-10.237824-7.0972952-17.106799" fill="#c7efeb"/><path d="m113 213h-67.658747s-8.5480319-2.368986-7.1963161-11.423867c1.3517158-9.052912 10.009182-8.141915 20.2129139-6.559967 10.2057584 1.57998 51.0105532 5.745382 51.0105532 5.745382z" fill="#64847e"/><path d="m211 103-37.204855 19.919528-27.795145 74.080472 29.967085-8.100944z" fill="#bfbba9"/><path d="m215 107-41.779203 16.74981-28.220797 73.25019 37.337207-9.870136z" fill="#ada999"/><path d="m116.556422 98 57.443578 25.54767-26.742896 73.45233-54.257104-21.651767z" fill="#bfbba9"/><path d="m109.148246 103-28.148246 77.575128 57.874861 18.424872 29.125139-75.769044z" fill="#3682e0"/><path d="m180.404201 124.60359-30.404201 75.39641 36.64599-10.223174 32.35401-75.776826z" fill="#396394"/><path d="m168.284265 124 11.715735.53308-30.822551 75.46692-10.177449-.501015z" fill="#4677af"/><g fill="#64847e"><path d="m98.6167296 134.060111-2.8852578 7.7908 7.5814752 2.168327c1.851886.5311 2.987572 2.350018 2.617195 4.198886-.364238 1.836888-2.150642 2.801254-4.059824 2.633538l-9.1141405-.285516.5156631.668866 7.4832544 1.176008c2.044235.529104 3.112395 2.385958 2.512834 4.364605-.4952 1.63523-2.083115 2.439867-3.8285939 2.336042l-8.8276613-.207648.7653095.590999 5.4165089.894484c1.6063315.389341 2.4391684 1.697125 2.081069 3.274453-.3089886 1.365686-1.544943 2.338039-2.9773406 2.336045-2.3736873-.005993-6.0181158-.109817-8.8890497-.608971-4.655292-.80863-10.2498274-6.854387-7.0801363-16.711687 3.1717373-9.859296 8.2281006-15.320044 18.688695-14.619231"/><path d="m210.828571 148.708477.006056.00613s.553182-6.566728-2.067365-12.714607l-3.131331 7.003965-14.937924 1.79594c-1.199234.145065-2.101687 1.172776-2.101687 2.394588 0 1.264718.969077 2.314904 2.218783 2.40276l7.076284.498532-.678354.433151-8.263404 1.471078c-1.560618.251309-2.949629 1.182991-2.949629 2.784832 0 1.789811 1.429389 3.244543 3.197955 3.254759l6.71288.040863-.403782.592518-4.877689 1.530329c-1.380936.451539-2.422694 1.473121-2.283389 2.936026.149399 1.554848 1.405162 2.756228 2.945591 2.821609 4.635421.202273 13.942602-.181841 17.334373-6.066152 2.024968-3.512199 2.737643-7.802842 2.202632-11.186321"/><path d="m46.8605435 134.771681c-.066888.096266-.287821.503394-.4337584.784171l-.4824041.970688c-.3161977.661833-.6141532 1.343721-.8918396 2.029621-.5553729 1.375809-1.0276425 2.779697-1.3945129 4.173557-.7357676 2.791731-1.0418308 5.565411-.7600905 8.02422.2776864 2.470842 1.1208802 4.568652 2.6106577 6.385683 1.4938313 1.811015 3.7011343 3.357297 6.3644917 4.514502 2.6106577 1.15921 5.209154 1.72277 7.9110226 1.678648 2.6836265-.05415 5.4361678-.736038 8.101552-1.99352 2.6653843-1.245449 5.2415846-2.994292 7.6090133-5.072046 1.1877682-1.036871 2.3289175-2.147948 3.4092596-3.321197.5371307-.587627 1.0641268-1.185282 1.5668-1.79497.4844311-.583616 1.0296694-1.28556 1.37019-1.760876l.1195875-.164456c1.4188358-1.973465 4.1875923-2.434742 6.1840969-1.028849 1.9113744 1.345727 2.4099938 3.932891 1.1958758 5.884295-.618207.986732-1.1168264 1.690682-1.7005759 2.496914-.5675343.776149-1.1573646 1.528232-1.7613832 2.270287-1.2100642 1.480099-2.5032316 2.896019-3.8835561 4.253779-2.7565951 2.707498-5.8922221 5.168312-9.4980918 7.121722-3.5856005 1.95742-7.7346816 3.335235-12.0945611 3.684202-4.3436642.367016-8.8454273-.387072-12.7553332-1.86316-3.8693677-1.419932-7.8319732-3.630052-11.0547572-7.035482-3.2410262-3.377353-5.3753605-7.923943-6.1273434-12.3502-.7925211-4.452329-.4905118-8.754242.2959286-12.761338.397274-2.01157.926297-3.960969 1.5627462-5.86825.3182246-.954644.662799-1.89926 1.0438577-2.839864l.5979379-1.415921c.2290406-.507405.3932202-.886455.7418484-1.560321l.2412021-.465288c1.7451679-3.381364 5.9307333-4.721074 9.3481005-2.994292 3.4173672 1.728787 4.7713419 5.870256 3.0261739 9.251619-.1337759.256711-.3040362.533477-.462135.766122"/><path d="m182 168.077658s-14.368508-6.697824-21.337822 13.302197c-3.443089 9.8832-5.407961 17.718658-6.515103 23.12039-.898285 4.388019 2.431251 8.499755 6.904427 8.499755h1.539049l4.799641-8.607424z"/></g><path d="m161.241286 213h4.223776c2.43254 0 4.662034-1.364319 5.771756-3.548444 5.08019-9.997584 18.356636-37.897301 10.146308-41.21296-8.194245-3.309587-19.404036 28.707377-23.221718 40.502462-.681513 2.10518.88054 4.258942 3.079878 4.258942" fill="#819b96"/><path d="m102.057638 81.2288133c-1.01731 2.4218124-2.2168242 4.2392209-3.6766308 3.6641979-1.4619758-.575023-1.8198779-3.0031313-.8003992-5.4249436 1.0173095-2.4218124 3.028068-3.9202301 4.487875-3.3452071 1.459807.5729244 1.006464 2.6841404-.010845 5.1059528" fill="#64847e"/><path d="m136.139879 93.2210154c1.131015-2.1287334 2.387469-3.6976746 3.730291-3.088377 1.340766.6112016 1.513503 2.8313295.382488 4.9600629-1.131014 2.1306374-3.131881 3.3606568-4.474703 2.7513593-1.340766-.6112016-.76909-2.4924079.361924-4.6230452" fill="#64847e"/><path d="m101.539389 110c-.275867 0-.557818-.077616-.805287-.238819-3.2962012-2.143396-5.2759503-4.280822-5.3591159-4.370379-.5395628-.589086-.4908804-1.492617.1075068-2.021998.5963589-.529381 1.5172667-.483607 2.0588579.103488.0243412.025872 1.8397873 1.974234 4.8053542 3.902694.671411.435844.855998 1.325443.409743 1.984184-.279924.413952-.744434.64083-1.217059.64083" fill="#305660"/><path d="m138.314546 168.80879v-25.441389c0-7.633054-5.545799-13.173637-13.186935-13.173637-5.819417 0-10.81654 3.724024-12.443846 9.325213-.067684.709717.099367 1.995184 1.981569 2.639512 2.065093.703338 2.826903-.473677 3.103401-1.250379 1.071429-3.41143 3.960256-5.617137 7.358876-5.617137 4.631341 0 7.993958 3.430568 7.993958 8.154577v2.025487c0 .947353-1.141994 1.564569-2.220624 1.829317l-9.194995 2.660246c-6.880766 1.73522-9.56222 4.687327-9.56222 10.529341 0 6.789367 5.516997 11.920069 12.854273 11.979756.099366.000918.195852-.01822.286578-.061282.342743-.164272 1.126153-.722477 1.126153-2.398687 0-1.67302-.78053-2.344461-1.123272-2.559768-.095046-.059011-.198733-.084528-.3053-.086123-4.438368-.0622-7.645456-2.932969-7.645456-6.873896 0-3.641092 1.800117-4.759096 5.587562-5.762271 0 0 6.661872-1.937768 9.285722-2.806973.444989-.146728.887097.226471.878457.74002l-.023042 1.612415.018722 8.947229c0 .108451.020161.216903.057603.315784.931741 2.421015 2.527364 4.384302 4.61838 5.708045.447869.253585.554436-.165867.554436-.4354" fill="#fff" transform="matrix(-.94551858 -.32556815 -.32556815 .94551858 292.904406 49.015388)"/><path d="m134 168.077658s-14.371523-6.697824-21.338305 13.302197c-3.442839 9.8832-5.407569 17.718658-6.514631 23.12039-.89822 4.388019 2.431075 8.499755 6.903927 8.499755h1.540965l4.799294-8.607424z" fill="#64847e"/><path d="m113.240953 213h4.221503c2.43641 0 4.665766-1.364319 5.773407-3.548444 5.079875-9.997584 18.357506-37.897301 10.147688-41.21296-8.195745-3.309587-19.40484 28.707377-23.222284 40.502462-.681471 2.10518.882495 4.258942 3.079686 4.258942" fill="#819b96"/></g></g></svg>
