<svg height="216" viewBox="0 0 207 216" width="207" xmlns="http://www.w3.org/2000/svg"><g fill="none"><path d="m206.165771 208.866957c0 3.675687-46.123407 6.656442-103.01994 6.656442-56.8978649 0-103.02127168-2.980755-103.02127168-6.656442s46.12340678-6.656442 103.02127168-6.656442c56.896533 0 103.01994 2.980755 103.01994 6.656442" fill="#c9c9c9"/><path d="m70.7905254 98.3899939s-6.3092712 5.4236691-6.3092712 18.7032701h47.7572708v-11.382516z" fill="#86b2ac"/><path d="m124.710712 113.836933h-57.8824408c-15.6441187 0-34.4162627-4.254798-36.7632797 28.080865-2.1620762 29.798227-1.5646779 31.483638-2.3470169 45.098723-.779678 13.588461 13.2971017 22.12335 35.9809407 22.12335h64.1398217c17.208797 0 26.594204-.850693 26.594204-24.676761v-44.246699c0-9.360288-3.128026-26.379478-29.722229-26.379478" fill="#cae5e1"/><path d="m72.3033136 113.822288c-15.6441187 0-43.0206611-3.913987-45.367678 25.826994-2.1620763 27.408565-1.5633475 28.958184-2.3456864 41.480282-.779678 12.498135 7.8220593 28.175387 30.5045677 28.175387 19.7141441 0 2.4720848-42.389552 17.2087967-95.482663" fill="#daf2f0"/><path d="m172.032907 209.304951h-48.038009c-3.492584 0-6.323906-2.832982-6.323906-6.327614 0-4.718085 3.82255-8.542877 8.537872-8.542877h45.824043c4.103288 0 7.43089 3.329552 7.43089 7.435246 0 4.107024-3.327602 7.435245-7.43089 7.435245" fill="#8ab2ad"/><path d="m181.377068 172.658577s-13.645695-4.833908-17.55739 8.470987c-3.910364 13.304896 0 21.914338 4.692703 25.826994 4.694034 3.913988 9.151238 1.37389 9.151238 1.37389z" fill="#8ab2ad"/><path d="m177.083517 208.306485c7.790127.698926 10.540288-13.975865 10.876907-24.955.408466-13.322203-12.764899-15.289847-14.163263.29954-1.398364 15.590717-2.945746 24.094987 3.286356 24.65546" fill="#819b96"/><path d="m124.710712 113.822288h-48.2854832l2.1354661 1.015773s54.4896441 29.619835 75.8722461 25.792381v-2.546755c0-8.60811-3.128026-24.261399-29.722229-24.261399" fill="#94c4bf"/><path d="m154.432941 33.9915828c-29.997644-16.6038282-71.9605512-23.4786012-95.4267291 10.9578344-23.466178 34.4364356-21.1191611 47.7413313 0 55.5679758 21.119161 7.826644 52.4060681 20.348742 67.2678471 25.826994 14.86178 5.478251 38.327958 10.957834 52.407399-18.00035 14.07811-28.9581842 12.514762-54.0023806-24.248517-74.3524542" fill="#f1f9f9"/><path d="m154.432941 33.9915828c-29.997644-16.6038282-71.9605512-23.4786012-95.4267291 10.9578344-23.466178 34.4364356-21.1191611 47.7413313 0 55.5679758 21.119161 7.826644 52.4060681 20.348742 67.2678471 25.826994 14.86178 5.478251 38.327958 10.957834 52.407399-18.00035 14.07811-28.9581842 12.514762-54.0023806-24.248517-74.3524542" fill="#cae5e1"/><path d="m168.568263 43.3891472c-3.978221-3.2350306-8.662941-6.3688834-14.135322-9.3975644-29.997644-16.6038282-71.9605512-23.4786012-95.4267291 10.9578344-23.466178 34.4364356-21.1191611 47.7413313 0 55.5679758 4.9667881 1.841171 9.0554406 3.384135 14.8019067 5.591411 20.2849322-71.6912089 67.4301694-72.6377549 94.7601444-62.7196568" fill="#daf2f0"/><path d="m124.319542 209.304951h-37.0879234c-3.4925847 0-6.3239067-2.832982-6.3239067-6.327614 0-4.718085 3.8225508-8.542877 8.5378728-8.542877h34.8739573c4.103289 0 7.43089 3.329552 7.43089 7.435246 0 4.107024-3.327601 7.435245-7.43089 7.435245" fill="#85b5af"/><path d="m133.665034 172.658577s-13.648356-4.833908-17.55872 8.470987c-3.911695 13.304896 0 21.914338 4.692703 25.826994 4.694034 3.913988 9.151237 1.37389 9.151237 1.37389z" fill="#85b5af"/><path d="m129.371483 208.306485c7.790127.698926 10.537627-13.975865 10.875576-24.955.409797-13.322203-12.763567-15.289847-14.163262.29954-1.398365 15.590717-2.945746 24.094987 3.287686 24.65546" fill="#6d8c8c"/><path d="m47.3629322 128.957706s-7.7981102 23.502564 4.3733814 36.641049c23.4023135 1.889098 19.5904067 36.469312 19.5904067 36.469312s-21.2455593 8.530896-29.050322-4.164269c-7.8060932-12.693835 1.802839-23.412037 1.802839-23.412037s-11.9612712-18.431687-4.859017-44.94962z" fill="#daf2f0"/><path d="m52.271178 189.725693c-3.7387288-5.591411-2.0197119-9.605245-1.9332288-9.872834.1663135-.512546.6373135-.865338 1.1775-.879982 6.994483-.179724 7.1847457 2.730473 8.3675677 7.093105.5375255 1.983619 3.1306865 2.863601 3.8943984 3.103233.6958559-5.876307-.3925-10.345442-3.2437797-13.299571-4.9122373-5.092178-13.5938051-4.132319-13.6802881-4.123-.5681272.063902-1.1043221-.248951-1.323856-.773478-8.4726779-20.236914-2.6224322-34.871767 1.8334407-42.01546 1.4116695-2.261859.0359237-5.221313-2.6051356-5.574105l-.0665254-.009319-.0851526-.01065c-3.8651271-.496571-7.5147118 1.927705-8.7600678 5.620699-2.8991779 8.590804-6.6485508 26.596479 4.0287797 44.692681l1.5087966 2.249878c-1.5859661 2.248546-5.0878644 7.973085-4.482483 13.975865.3672203 3.675687 2.2352542 6.916043 5.5508813 9.633202 1.1641949.336816 6.6791526 1.811883 11.924017 1.416491 0 0 3.0615.394061 6.3891017-.306196 2.4561186-.51654 2.6117881-3.956589.232839-4.751369-3.9383051-1.315312-6.8601017-3.377478-8.7268051-6.16919" fill="#6d8c8c"/><path d="m89.5121102 55.124454c-9.723356 20.2049632-7.0397204 40.6961534 35.9809408 55.566644 43.01933 14.870491 51.623729-8.609442 53.970746-22.6971348 2.347017-14.086362-7.039721-31.3052454-31.288238-43.044546-24.247186-11.7393006-48.495703-10.9578344-58.6634488 10.1750368" fill="#e4f4f2"/><path d="m114.932805 62.8113129h.007983zm10.662695 12.5846687c-4.288229 0-7.743559-1.1236074-10.300797-3.3575092-4.223034-3.6903313-4.272262-9.0035031-4.272262-9.2271595 0-1.0810062.875474-1.9569939 1.954517-1.9569939 1.077711 0 1.950525.8706626 1.955847 1.9463436.001331.0718895.091805 3.8354417 2.968364 6.3196257 2.410882 2.0794724 6.144289 2.793043 11.088458 2.1154172 1.076381-.1424478 2.054305.6044049 2.201992 1.6747608.146356 1.0716871-.602721 2.0568404-1.67378 2.2032822-1.375746.1877116-2.684966.2822331-3.922339.2822331z" fill="#429999"/><path d="m159.728364 89.7020061c-2.891195 0-5.412508-.6802883-7.534669-2.0368711-4.725966-3.0220246-5.561526-8.2699632-5.594788-8.4909571-.159661-1.0690245.574779-2.0648282 1.643178-2.2259141 1.07239-.1557607 2.058296.572454 2.223279 1.6348221.013305.0772147.661263 3.7821902 3.873111 5.808411 2.691618 1.7013865 6.486228 1.8504908 11.28005.4473129 1.032475-.2995399 2.120831.2915522 2.424187 1.3286258.303356 1.0384049-.291381 2.1247362-1.327848 2.4282699-2.523974.7375338-4.855025 1.1063006-6.9865 1.1063006" fill="#429999"/><path d="m148.175559 44.9494172c-24.247186-11.7393006-48.495703-10.9578344-58.6634488 10.1750368-.9499831 1.9729693-1.7788899 3.9499325-2.4667627 5.9229018.4576949-1.1276012.9592966-2.2565337 1.502144-3.3841349 9.8657204-20.5031718 33.3917715-21.2620062 56.9178225-9.8715031 23.52605 11.3891718 32.633381 28.0955092 30.356881 41.7638466-1.443602 8.6653558-5.330017 20.9864296-18.612483 25.1759936 16.177652-3.280294 20.660135-17.1709568 22.252754-26.7362635 2.347017-14.0876933-7.03839-31.3065767-31.286907-43.0458773" fill="#9eccc3"/><path d="m120.512958 158.114252c-1.013848 0-1.845416-.832056-1.845416-1.847829v-23.703589c0-1.017104.831568-1.847828 1.845416-1.847828 1.016508 0 1.846745.830724 1.846745 1.847828v23.703589c0 1.015773-.830237 1.847829-1.846745 1.847829" fill="#94c4bf"/><path d="m137.57939 5.70303681c4.326813-1.52432515 8.245161-2.13139264 10.958068-2.36569939.698517-2.27117791 3.013601-3.69299386 5.395211-3.22438036 2.549255.5018957 4.208399 2.97409815 3.706797 5.52218404-.500271 2.54941718-2.972356 4.20953375-5.52028 3.70763804-1.761593-.34613497-3.097423-1.63615337-3.588381-3.24168712-2.547924.23830062-6.185534.82140491-10.134483 2.22591411-9.86439 3.50395097-16.933381 10.20698777-21.008729 19.92006747l-2.530627-1.0623681c5.483026-13.0679264 15.38467-18.89497544 22.722424-21.48166869" fill="#89ccc9"/></g></svg>