<svg viewBox="0 0 291 149" xmlns="http://www.w3.org/2000/svg"><g fill="none" fill-rule="evenodd"><path d="m205.771 143.851c0 2.762-28.596 5-63.87 5s-63.869-2.238-63.869-5c0-2.761 28.595-5 63.869-5s63.87 2.239 63.87 5" fill="#c9c9c9"/><path d="m165.533 135.119-.937-4.038c-.064-.486-.174-.955-.327-1.406l-.001-.008h-.002c-.99-2.901-3.737-4.995-6.968-4.995h-31.346c-3.337 0-6.158 2.23-7.061 5.277h-.002l-1.331 5.755c-.126.555-.194 1.131-.194 1.723 0 4.278 3.48 7.757 7.757 7.757h33.007c4.277 0 7.758-3.479 7.758-7.757 0-.803-.124-1.579-.353-2.308" fill="#cae5e1"/><path d="m158.128 143.965h-33.007c-3.595 0-6.536-2.942-6.536-6.538 0-3.595 2.941-6.537 6.536-6.537h33.007c3.596 0 6.537 2.942 6.537 6.537 0 3.596-2.941 6.538-6.537 6.538" fill="#bad8d3"/><path d="m158.128 143.965h-33.007c-3.595 0-6.537-2.943-6.537-6.538 0-3.594 2.942-6.537 6.537-6.537h33.007c3.596 0 6.537 2.943 6.537 6.537 0 3.595-2.941 6.538-6.537 6.538zm0-14.294h-33.007c-4.277 0-7.757 3.479-7.757 7.756 0 4.278 3.48 7.757 7.757 7.757h33.007c4.277 0 7.757-3.479 7.757-7.757 0-4.277-3.48-7.756-7.757-7.756z" fill="#bad8d3"/><path d="m136.87 115.648v11.321c0 1.203 2.326 2.177 5.196 2.177 2.868 0 5.194-.974 5.194-2.177v-11.321z" fill="#8aa1a8"/><path d="m157.942 104.315c-4.486-.956-9.96-1.519-15.876-1.519-5.38 0-10.395.465-14.633 1.268l-12.827-.104-.042 7.106c0 4.569 12.312 8.271 27.502 8.271 15.188 0 27.501-3.702 27.501-8.271v-6.655z" fill="#bad8d3"/><path d="m169.567 104.411c0 4.567-12.313 8.27-27.501 8.27-15.19 0-27.502-3.703-27.502-8.27 0-4.568 12.312-8.272 27.502-8.272 15.188 0 27.501 3.704 27.501 8.272" fill="#daf2f0"/><path d="m124.828 94.109v6.645c0 2.631 7.717 4.764 17.238 4.764 9.519 0 17.237-2.133 17.237-4.764v-6.645z" fill="#bad8d3"/><path d="m159.303 94.109c0 2.631-7.718 4.765-17.237 4.765-9.521 0-17.238-2.134-17.238-4.765 0-2.632 7.717-4.765 17.238-4.765 9.519 0 17.237 2.133 17.237 4.765" fill="#daf2f0"/><path d="m129.388 76.169v15.556c0 1.653 5.676 2.992 12.678 2.992 7.001 0 12.676-1.339 12.676-2.992v-15.556z" fill="#8aa1a8"/><g fill="#32495b"><path d="m30.15 31.582s.167-3.786 1.606-5.757c1.438-1.97 3.528-1.109 3.528-1.109l-.099 8.085-5.035 7.532-4.173.358s-9.917-.921-16.663-3.416c-6.747-2.495-9.314-8.883-9.314-8.883l.018-.012c.96-.727 2.324-.57 3.08.367 1.526 1.893 4.319 4.639 7.648 4.6 0 0-3.704-3.972-5.156-9.322-.135-.497.121-1.019.601-1.209l.022-.009c1.081-.425 2.301.069 2.795 1.12.87 1.854 2.381 4.603 4.246 6.088 0 0-.532-5.026.664-10.176.114-.495.623-.788 1.105-.629.995.329 1.705 1.21 1.814 2.252l.195 7.676 6.493 3.838z"/><path d="m226.457 63.489c-20.125 0-29.87-15.912-30.283-16.602l4.71-2.824c.357.59 8.941 14.433 26.561 13.919 17.308-.516 29.284-15.021 29.404-15.168l4.262 3.462c-.55.678-13.707 16.605-33.502 17.196-.387.011-.772.017-1.152.017"/><path d="m53.709 60.69c-20.564 0-30.323-22.068-30.734-23.021l5.043-2.175-2.522 1.088 2.52-1.091c.087.199 8.768 19.707 25.729 19.707.221 0 .442-.004.665-.01 17.309-.516 29.284-15.021 29.404-15.168l4.262 3.462c-.55.678-13.707 16.605-33.503 17.195-.289.008-.579.013-.864.013"/></g><path d="m82.008 50.757c0-19.182 15.752-50.757 60.313-50.757 44.562 0 54.589 35.198 54.589 53.692s-20.779 28.255-55.62 28.255c-34.842 0-59.282-9.896-59.282-31.19" fill="#cae5e1"/><path d="m89.809 55.205c0-19.183 15.752-50.757 60.313-50.757 10.286 0 18.729 1.878 25.637 4.991-8.038-5.691-18.899-9.439-33.438-9.439-44.561 0-60.313 31.575-60.313 50.757 0 11.22 6.788 19.275 18.307 24.385-6.718-4.941-10.506-11.555-10.506-19.937" fill="#daf2f0"/><path d="m125.884 33.143c0 1.969-1.597 3.565-3.565 3.565s-3.564-1.596-3.564-3.565c0-1.968 1.596-3.564 3.564-3.564s3.565 1.596 3.565 3.564" fill="#5d7e93"/><path d="m158.03 33.143c0 1.969-1.595 3.565-3.564 3.565s-3.565-1.596-3.565-3.565c0-1.968 1.596-3.564 3.565-3.564s3.564 1.596 3.564 3.564" fill="#5d7e93"/><path d="m86.71 32.266s-8.927 3.484-11.866 12.199c0 0 3.547 8.514 12.355 10.563 0 0 6.347-11.461-.489-22.762" fill="#bad8d3"/><path d="m192.128 32.266s8.927 3.484 11.866 12.199c0 0-3.547 8.514-12.355 10.563 0 0-6.347-11.461.489-22.762" fill="#bad8d3"/><path d="m255.903 45.923s-5.899-8.872-6.016-11.211c-.116-2.34 3.468-1.724 5.267 1.239 1.801 2.963 2.736 6.902 8.693 7.894 5.958.994 10.719-3.505 10.719-3.505s.354-7.155 1.022-8.611c.667-1.457 2.984-1.636 2.984-1.636s.879 4.606.233 8.524l3.769-5.596c.721-1.069 1.952-1.678 3.24-1.6.644.039 1.081.672.881 1.286-.53 1.637-1.713 4.651-3.872 7.256l5.535-3.045c.578-.319 1.304-.132 1.657.426.336.534.224 1.233-.264 1.631-1.936 1.581-6.827 5.41-10.859 7.207-6.757 3.011-11.861 4.268-22.341 4.18z" fill="#32495b"/><g fill="#8aa1a8"><path d="m131.21 137.492c0 3.2-2.594 5.794-5.794 5.794-3.199 0-5.793-2.594-5.793-5.794 0-3.199 2.594-5.793 5.793-5.793 3.2 0 5.794 2.594 5.794 5.793"/><path d="m163.791 137.492c0 3.2-2.594 5.794-5.794 5.794-3.199 0-5.793-2.594-5.793-5.794 0-3.199 2.594-5.793 5.793-5.793 3.2 0 5.794 2.594 5.794 5.793"/><path d="m141.006 139.495c0 2.094-1.697 3.791-3.791 3.791s-3.791-1.697-3.791-3.791 1.697-3.79 3.791-3.79 3.791 1.696 3.791 3.79"/><path d="m150.209 139.495c0 2.094-1.697 3.791-3.791 3.791s-3.79-1.697-3.79-3.791 1.696-3.79 3.79-3.79 3.791 1.696 3.791 3.79"/></g></g></svg>