<svg height="261" viewBox="0 0 785 261" width="785" xmlns="http://www.w3.org/2000/svg" xmlns:xlink="http://www.w3.org/1999/xlink"><linearGradient id="a" x1="0%" x2="100.000214%" y1="50%" y2="50%"><stop offset="0" stop-color="#ff9400"/><stop offset="1" stop-color="#ffc500"/></linearGradient><mask id="b" fill="#fff"><path d="m13.2747777 16c.1921899-2.1779683.2982257-3.0773885-.3181077-4.6301991-.4307705-1.066129-1.2326666-1.253004-1.7495914-1.253004-.2783441 0-.470534.0544492-.470534.0544492s-.5102975-.85707084-2.15385316-.85707084c-.36449822 0-.78864161.04234939-1.27243015.14721453-1.10674914.23796319-2.49846962.55255861-3.89019009.75018901l-2.86296784-1.93731615c-.36449822-.24334089-.55668819-.64330729-.55668819-1.05066801-.00662724-.24468532.06627241-.4927317.20544446-.71187295l2.28639792-3.46928829c1.29893911-1.97428787 3.4329105-3.0424334 5.61327258-3.0424334 1.2790574 0 2.58462377.37240568 3.73113627 1.15015545l3.6913729 2.49861356c1.6037922 1.08495083 2.4719607 2.87034702 2.4719607 4.68935382 0 1.07285102-.3048531 2.15780187-.9344409 3.11704897l-2.3261614 3.5318041c-.3512437.5384421-.881423.8846315-1.46462 1.0130241z" fill="#fff" fill-rule="evenodd"/></mask><g fill="none" fill-rule="nonzero"><g transform="translate(0 -1.522934)"><path d="m473.790676 199.566412h258.898613s.815108-10.906306-9.057712-15.365228c-9.871094-4.458922-18.64041 2.51365-18.64041 2.51365s-.518077-6.371369-7.817782-8.124878c-7.297978-1.753509-10.81054 3.646953-10.81054 3.646953s3.864854-17.426249-12.281878-26.689613c-17.447107-10.009684-34.129186 4.344901-34.129186 4.344901s-17.441925-15.372138-41.820901-8.121423c-22.099437 6.573498-25.940115 25.976116-25.940115 25.976116s-1.884073-7.480486-10.320093-9.814466c-9.774386-2.703686-16.198541 2.199228-16.198541 2.199228s-5.211854-19.191851-29.18673-15.265028c-26.1059 4.275797-23.099326 23.901274-23.099326 23.901274s-9.321932-3.900909-16.631999 2.840166c-7.306612 6.739348-2.9634 17.958348-2.9634 17.958348" fill="#ff8806"/><path d="m784.93334 200.505613s1.357495 1.80603-8.179465 3.791098c-11.192861 2.330978-38.394499.575357-41.056016 4.87576-2.903003 4.698459 18.537476 3.373921 18.290816 8.858064-.208713 4.661956-14.789273 4.491609-31.227549 4.491609-16.434825 0-170.932191 0-184.244952 0-13.311036 0-10.901353-4.064002-9.017765-5.913488 2.735688-2.687317 1.533434-5.166046-10.444256-5.508479-11.625811-.333741-20.141631-.618813-26.48753-.618813-16.921246 0-13.600818-5.623202-26.785936-5.623202-8.52272 0-18.780687-2.16063-18.780687-4.667171 54.411899-4.566353 113.60349-7.288435 176.962434-6.97729 57.297653.283333 111.105838 3.012368 160.970906 7.291912" fill="#efefef"/><path d="m503.120755 204.220227s46.735361 1.040167 107.037494 1.657602c60.305586.619189 83.007789-3.362565 83.007789-3.362565s-48.818972-2.364495-95.518082-2.892472c-46.69911-.526223-85.384865 2.757408-94.527201 4.597435" fill="#c9c9c9"/><path d="m.13816832 227.946507s-2.82 2.792 17.01999998 5.86c23.28 3.6 63.35.905 68.89 7.552 6.04 7.258-22.04 5.193-21.53 13.668.43 7.204 30.77 6.941 64.9599997 6.941h321.11c27.69 0 22.68-6.28 18.76-9.139-5.69-4.151-3.19-7.982 21.73-8.511 24.19-.513 41.9-.955 55.11-.955 35.2 0 28.29-8.689 55.72-8.689 17.74 0 39.08-3.34 39.08-7.211-90.04-8.003-190.5-13.485-299.82-14.029-125.7-.626-240.16 5.393-341.02999968 14.513" fill="#efefef"/><path d="m753.060062 37.5285279c3.769757 2.7896024 6.582116 6.8838922 7.639244 11.7872452 2.293767 10.7411442-4.707211 21.2785535-15.637513 23.5392284-4.986451 1.0323879-9.933011.1547602-14.061793-2.1215866 4.408023 10.4570906 15.896808 16.6847211 27.58505 14.2712449 13.204124-2.7288736 21.661146-15.4564341 18.888679-28.4249504-2.47328-11.4796836-12.904937-19.2960552-24.413667-19.0511815" fill="#ffdf00"/><path d="m460.998 237.164934c0 2.761-34.667 5-77.429 5-42.764 0-77.431-2.239-77.431-5s34.667-5 77.431-5c42.762 0 77.429 2.239 77.429 5" fill="#c9c9c9"/><path d="m189.999 237.164934c0 2.761-28.594 5-63.869 5-35.2729998 0-63.8689998-2.239-63.8689998-5s28.596-5 63.8689998-5c35.275 0 63.869 2.239 63.869 5" fill="#c9c9c9"/><path d="m319.685 54.9549333-79.417 85.7150007 5.711 19.819 64.756 14.075z" fill="#3682e0" fill-opacity=".183594"/><path d="m378.569 237.182934h6v-191.0180007h-6z" fill="#ced8d7"/><path d="m294.779 174.563934h166.219v-119.6090007h-166.219z" fill="#3682e0"/><path d="m87.3250002 236.979934h23.1149998s-.247-8.497-8.879-9.726c-3.1419998-.447-5.8059998-.461-7.9329998-.3l2.901-31.369-10.254-3.426 2.131 35.705c-.367.113-.56.189-.56.189z" fill="#bad8d3"/><path d="m91.1160002 234.347934-.136-6.295s.192-.076.559-.189l-2.068-34.638-3.196-1.067 2.131 35.705c-.367.113-.56.189-.56.189l-.521 8.927h23.1149998s-.004-.134-.028-.371z" fill="#a7c6c0"/><path d="m96.7690002 226.868934-.008.085c.305-.023.624-.041.951-.056-.321-.014-.636-.024-.943-.029" fill="#fff"/><path d="m153.549 236.979934h23.115s-.248-8.497-8.88-9.726c-3.14-.447-5.805-.461-7.932-.3l2.901-31.369-10.255-3.426 2.132 35.705c-.366.113-.559.189-.559.189z" fill="#bad8d3"/><path d="m157.34 234.347934-.137-6.295s.194-.076.56-.189l-2.068-34.638-3.197-1.067 2.132 35.705c-.366.113-.559.189-.559.189l-.522 8.927h23.115s-.004-.134-.028-.371z" fill="#a7c6c0"/><path d="m162.992 226.868934-.007.085c.305-.023.625-.041.952-.056-.322-.014-.637-.024-.945-.029" fill="#fff"/><path d="m78.9210002 138.042934c0 10.159.269 36.633.409 49.831.045 4.275 3.524 7.711 7.799 7.711h74.3559998c4.307 0 7.799-3.491 7.799-7.799v-61.204001s2.031-14.818-21.504-14.818c-23.536 0-41.102 1.174-53.9249998 3.395-12.823 2.221-14.934 13.591-14.934 22.884001" fill="#cae5e1"/><path d="m91.0150002 187.873934c-.141-13.198-.408-39.672-.408-49.831 0-9.293001 2.111-20.663001 14.9329998-22.884001 11.107-1.924 25.78-3.061 44.799-3.331-.819-.041-1.669-.064-2.559-.064-23.536 0-41.102 1.174-53.9249998 3.395-12.823 2.221-14.934 13.591-14.934 22.884001 0 10.159.269 36.633.409 49.831.045 4.275 3.524 7.711 7.799 7.711h11.686c-4.276 0-7.754-3.436-7.8-7.711" fill="#daf2f0"/><path d="m196.771 147.387934s-7.614-15.778-30.805-18.826001l-18.186-16.798s36.313-2.471 55.974 33.000001z" fill="#cae5e1"/><path d="m194.913 155.631934s-2.799-9.937 6.349-11.567c12.091-2.155 15.311 7.596 15.311 7.596z" fill="#cae5e1"/><path d="m186.087 166.015934 42.869-7.858-1.883-10.275-42.87 7.858c-2.838.52-4.715 3.242-4.196 6.08.521 2.837 3.242 4.715 6.08 4.195" fill="#6e868e"/><path d="m92.4520002 109.177933h59.7329998c12.747 0 17.099-6.352 17.099-24.3069997 0-17.955-10.221-42.062-42.23-42.062-32.0089998 0-44.0269998 19.265-46.6469998 37.039s-.535 29.3299997 12.045 29.3299997" fill="#cae5e1"/><path d="m90.9050002 80.8279333c2.538-17.18 15.4969998-31.607 46.5079998-31.607 5.841 0 10.85.261 15.158.747-6.298-4.374-14.649-7.159-25.517-7.159-32.0089998 0-44.0269998 19.265-46.6469998 37.039s-.535 29.3299997 12.045 29.3299997h10.1219998c-12.1869998 0-14.2079998-11.1689997-11.6689998-28.3499997" fill="#daf2f0"/><path d="m164.228 84.8709333c0-5.819-1.074-12.284-3.616-18.365-2.017-4.825-6.74-7.965-11.969-7.965h-28.926c-16.137 0-28.2819998 17.109-24.3129998 30.858 3.967 13.7479997 20.6099998 11.7329997 34.6299998 11.7329997h23.613c5.355 0 9.848-4.0789997 10.315-9.4139997.181-2.066.266-4.344.266-6.847" fill="#e4f4f2"/><path d="m164.228 84.8709333c0-5.819-1.074-12.284-3.616-18.365-2.017-4.825-6.74-7.965-11.969-7.965h-28.926c-16.137 0-28.2819998 17.109-24.3129998 30.858 3.967 13.7479997 20.6099998 11.7329997 34.6299998 11.7329997h23.613c5.355 0 9.848-4.0789997 10.315-9.4139997.181-2.066.266-4.344.266-6.847" fill="#e4f4f2"/><path d="m32.7760002 38.8449336c.333-1.074 1.474-1.674 2.548-1.341 1.075.333 1.675 1.474 1.341 2.548-.333 1.074-1.473 1.675-2.548 1.341-1.074-.333-1.674-1.474-1.341-2.548zm45.443 9.323-41.714-14.449c-3.304-1.167-6.915.646-7.954 3.992-1.038 3.346.913 6.885 4.297 7.793l42.566 11.703c-.021 6.891 4.413 13.281 11.337 15.429 4.374 1.357 8.885.752 12.595-1.31l.9689998-3.123-10.5729998-3.281-2.29-9.078 6.946-5.925 10.5719998 3.281.969-3.123c-1.89-3.8-5.267-6.853-9.6399998-8.209-6.924-2.149-14.197.608-18.08 6.3z" fill="#64847e" transform="matrix(-.99939083 -.0348995 .0348995 -.99939083 132.307661 109.036165)"/><path d="m125.281 78.8989333c0 1.798-1.459 3.257-3.257 3.257-1.799 0-3.258-1.459-3.258-3.257 0-1.799 1.459-3.258 3.258-3.258 1.798 0 3.257 1.459 3.257 3.258" fill="#639296"/><path d="m157.377 78.8989333c0 1.798-1.459 3.257-3.257 3.257s-3.257-1.459-3.257-3.257c0-1.799 1.459-3.258 3.257-3.258s3.257 1.459 3.257 3.258" fill="#639296"/><g fill="#6e868e" transform="translate(223.311573 138.145798)"><path d="m13.6274272 13.2381363c1.202 6.554-.797 12.412-4.463 13.085-3.667.672-7.613-4.097-8.81499999-10.651-1.20200001-6.55399999.79699999-12.41199999 4.46299999-13.08399999 3.667-.673 7.614 4.096 8.815 10.64999999"/><path d="m4.8124272 2.58813631c-3.666.672-5.665 6.53-4.46299999 13.08399999 1.20199999 6.554 5.14799999 11.323 8.81499999 10.651l13.769-2.524-4.351-23.73599999z"/><path d="m27.3964272 10.7141363c1.202 6.554-.797 12.412-4.463 13.084-3.667.673-7.613-4.096-8.814-10.65-1.202-6.55399999.797-12.41199999 4.463-13.08499999 3.667-.672 7.613 4.097 8.814 10.65099999"/></g><path d="m249.631 149.056934c1.006 5.491-.668 10.397-3.739 10.96s-6.377-3.431-7.383-8.92c-1.007-5.491.667-10.397 3.738-10.961 3.072-.563 6.377 3.431 7.384 8.921" fill="#fff"/><g fill="#cae5e1" transform="translate(36.675206 64.11415)"><path d="m173.992794 92.3297836c-1.397 1.188-3.513 1.018-4.702-.38l-3.521-4.139c-1.19-1.398-1.019-3.514.378-4.702 1.398-1.189 3.514-1.019 4.703.378l3.521 4.141c1.19 1.397 1.019 3.513-.379 4.702"/><path d="m183.238794 99.0457836-.365.22c-1.473.8840004-3.4.402-4.284-1.071l-2.238-3.73c-.884-1.472-.402-3.4 1.07-4.284l.366-.219c1.473-.884 3.401-.402 4.284 1.07l2.239 3.73c.883 1.473.401 3.401-1.072 4.284"/><path d="m177.477794 100.006784c-1.398 1.189-3.514 1.018-4.703-.3790004l-3.544-4.166c-1.189-1.397-1.018-3.513.379-4.702 1.398-1.189 3.514-1.018 4.703.379l3.543 4.166c1.189 1.397 1.019 3.513-.378 4.7020004"/><path d="m171.461794 101.538784c-1.269 1.324-3.392 1.37-4.716.101l-3.949-3.7840004c-1.325-1.269-1.37-3.392-.102-4.716 1.27-1.325 3.392-1.37 4.717-.101l3.949 3.783c1.325 1.269 1.37 3.3920004.101 4.7170004"/><path d="m55.9957942 22.2527836-.133.02c-21.81 1.77-37.32 17.854-42.285 32.476-4.79599995 14.123-3.58299995 27.701-3.58299995 27.701l5.78899995.656c2.107-42.509 29.043-41.63 29.043-41.63l.245-.4 6.822.975s14-6 14-7 26-15 26-15-21.794.404-35.898 2.202" transform="matrix(.66913061 .74314483 .74314483 -.66913061 -21.496871 48.282763)"/></g><path d="m94.8040002 58.5379336c-.225-3.302-1.682-7.219-7.022-8.461-4.133-.961-8.839.295-11.201 2.275-3.08 2.584-3.187 6.246-3.187 6.246-.1.373-.127.772-.067 1.176l.704 4.758c.236 1.596 1.736 2.709 3.332 2.473.794-.118 1.47-.549 1.918-1.15l.024.53c.072 1.612 1.451 2.871 3.062 2.799.67-.03 1.277-.288 1.754-.692l-.004.032c-.179 1.5.901 2.874 2.4 3.054l.373.045c1.499.18 2.873-.9 3.054-2.399l.331-2.76c.48.345 1.067.551 1.7.551 1.613 0 2.933-1.32 2.933-2.934v-4.78c0-.264-.038-.519-.104-.763" fill="#daf2f0" transform="matrix(-.99939083 -.0348995 .0348995 -.99939083 166.03391 124.288023)"/><g fill="#467ab6" transform="translate(294.779 54.954934)"><path d="m0 119.609h15.956c-7.457-10.465-12.777-21.765-15.956-33.227z"/><path d="m22.146 2.223c.904-.77 1.827-1.506 2.76-2.223h-24.906v36.377c4-13.162 11.38-24.996 22.146-34.154"/><path d="m120.149 0c9.211 5.74 17.839 13.094 25.411 21.995 9.614 11.301 16.498 23.881 20.659 36.769v-58.764z"/></g><path d="m460.998 174.563934v-3.106c-.375 1.046-.774 2.081-1.194 3.106z" fill="#5fe6ed"/><path d="m81.5830002 37.1829333c-3.639-1.282-6.935-1.792-9.217-1.99-.588-1.909-2.536-3.104-4.54-2.71-2.143.421-3.539 2.5-3.117 4.643.421 2.143 2.5 3.538 4.643 3.117 1.482-.291 2.605-1.376 3.018-2.726 2.145.201 5.203.691 8.527 1.872 8.299 2.946 14.245 8.582 17.674 16.748l2.1269998-.893c-4.6129998-10.987-12.9409998-15.886-19.1149998-18.061" fill="#89ccc9"/><path d="m134.903 112.323933c-.014.092-.029.185-.029.281v15.071c0 1.116.912 2.028 2.029 2.028 1.116 0 2.028-.912 2.028-2.028v-15.071c0-.152-.021-.3-.053-.444z" fill="#bad8d3"/><path d="m160.612 66.5059333c-2.017-4.825-6.74-7.965-11.969-7.965h-28.926c-3.786 0-7.347.951-10.537 2.57 2.717-1.115 5.663-1.749 8.759-1.749h28.926c5.229 0 9.952 3.14 11.968 7.965 2.542 6.081 3.616 12.546 3.616 18.365 0 2.503-.084 4.781-.265 6.846-.302 3.447-2.288 6.361-5.097 7.9979997 3.728-1.3109997 6.513-4.6819997 6.875-8.8179997.181-2.066.266-4.344.266-6.847 0-5.819-1.074-12.284-3.616-18.365" fill="#b8d3ce"/><path d="m398.99476 141.146174v-37.306044c0-11.1927486-8.899016-19.3171967-21.160294-19.3171967-9.338074 0-17.356663 5.460733-19.967904 13.6740495-.108609 1.0406964.159448 2.9256432 3.179706 3.8704552 3.313734 1.031342 4.536164-.694577 4.979844-1.833497 1.719259-5.0023584 6.354789-8.2367025 11.808354-8.2367025 7.431638 0 12.827432 5.0304225 12.827432 11.9574855v2.970077c0 1.389154-1.832491 2.294209-3.563304 2.682424l-14.754666 3.900858c-11.041158 2.544444-15.343928 6.873274-15.343928 15.439725 0 9.955607 8.852799 17.479024 20.626491 17.566675.159448.001217.314273-.026846.459856-.08999.549978-.24088 1.807071-1.059405 1.807071-3.51732 0-2.453237-1.252471-3.437806-1.802449-3.753523-.152515-.08653-.318895-.123948-.489897-.126287-7.121986-.091207-12.26821-4.300765-12.26821-10.079555 0-5.339123 2.888541-6.978512 8.96603-8.449519 0 0 10.689912-2.841452 14.900249-4.116013.714047-.215155 1.423472.332087 1.409607 1.085131l-.036973 2.364368.030041 13.119792c0 .159028.032352.318056.092433.463051 1.495109 3.550062 4.055511 6.428932 7.41084 8.370006.718669.371845.889671-.243219.889671-.63845" fill="#fff"/><g transform="matrix(-1 0 0 1 465.894434 0)"><g fill="#d43f0c" transform="translate(12 8.522934)"><path d="m25 4.0011544c0 2.2095238-1.7893218 3.9988456-3.9988456 3.9988456s-4.0011544-1.7893218-4.0011544-3.9988456 1.7916306-4.0011544 4.0011544-4.0011544 3.9988456 1.7916306 3.9988456 4.0011544"/><path d="m34.4417793 46.0776447c-1.1978789 1.4100293-3.9332293 1.1779992-6.110345-.5220678-2.1771157-1.697836-2.9702743-4.2189327-1.7747214-5.6311931 1.1978788-1.4122604 3.9355552-1.1802302 6.1103449.5176057 2.1794417 1.700067 2.9726003 4.2233948 1.7747215 5.6356552"/><path d="m.6875151 47.3147178c-1.2375961-1.2396599-.7592877-3.725414 1.0724403-5.5548775 1.8295832-1.8316082 4.3176447-2.3098853 5.5530959-1.0723702 1.2375961 1.2353705.7571429 3.7232693-1.0724403 5.5527328-1.831728 1.8294635-4.3176447 2.3098853-5.5530959 1.0745149"/></g><path d="m44.2798558 37.730547c2.571182 6.855478-1.960582 14.784837-10.122642 17.707093-8.164279 2.924425-16.865887-.264674-19.437069-7.122321-2.571182-6.855478 1.960581-14.782667 10.122641-17.707093 8.162059-2.924425 16.863667.264674 19.43707 7.122321" fill="#ffe570"/><path d="m44.9999998 23.024048c0 5.797026-5.1472 10.498885-11.501128 10.498885-6.349416 0-11.498872-4.701859-11.498872-10.498885 0-5.801487 5.149456-10.501115 11.498872-10.501115 6.353928 0 11.501128 4.699628 11.501128 10.501115" fill="#ffe570"/><path d="m32.9999998 21.522933c0 1.657713-1.343558 3-3 3s-3-1.342287-3-3 1.343558-3 3-3 3 1.342287 3 3" fill="#a0843d"/><path d="m19 37.996734-2.7386262-.896256.119829-.232123c.68629-1.91932-.732043-4.163182-3.172187-5.016451-2.440144-.85327-4.97615097.010746-5.66461997 1.927916l-.041395.184839c-.350771-.240721-.725507-.464247-1.141639-.642639-2.562151-1.098289-5.305134-.477143-6.126504 1.388444-.823549 1.865587.588249 4.268497 3.148221 5.366786.952092.410515 1.92815.57816 2.825774.535174-1.002202.909151-1.529447 2.084814-1.270182 3.232537.444455 1.985947 3.013142 3.114326 5.74087397 2.518972 2.516399-.54807 4.259359-2.370671 4.167853-4.210466h2.087195z" fill="#ffe570"/><path d="m38.3782368 22.821963c-1.373069 2.611278.928973 4.8755 7.943858 5.559157 4.80574.470406 7.166693-.194435 6.593449-2.521378-.575511-2.329033-12.745068-6.447702-14.537307-3.037779" fill="#d43f0c"/><path d="m55.5106093 21.1151814c-.4236301 10.1111545-9.1569285 16.076389-20.7741707 15.5757059-11.6172421-.500683-19.8128559-2.4786292-20.2038991-16.517585-.2932824-10.1161119 10.0530692-18.93507455 21.6703111-18.43273903 11.6172424.49903066 19.7313888 9.26346353 19.3077587 19.37461813" fill="#accece" fill-opacity=".3" transform="matrix(.9961947 -.08715574 .08715574 .9961947 -1.541856 3.125895)"/></g><path d="m363.738 249.522934c0 2.761-28.594 5-63.869 5-35.273 0-63.869-2.239-63.869-5s28.596-5 63.869-5c35.275 0 63.869 2.239 63.869 5" fill="#c9c9c9"/><path d="m262.557988 222.857347 5.177655 5.402554-6.66882 16.831595 3.417253 1.974049s6.730952-5.886675 12.198556-16.39964l46.930269-21.802194s16.423525 1.492014 25.929695-1.984484l-.352076-3.449371s-17.086264-.398566-22.968081-3.530753v-4.607509s11.639372-1.99283 21.2491-11.176546l-2.091773-2.535381s-6.896637 3.409723-18.556719 4.636722l-2.526695-11.600153 14.021092-8.956261-.269238-1.709035-1.139084-6.393752-23.27874-2.191071-6.275319-9.300572s-3.458674 5.80112 1.636139 11.662755l-5.633289 6.8424s-5.653999-2.535382-10.417443-.993285c0 0 6.855216 8.538914 9.96181 9.843123l-1.884667 12.142704-34.586739 14.613396s-7.766483-13.626371-25.888278-13.361356l.497055 2.904733s17.29337-1.262474 18.204638 23.488275l-13.669011 16.497718 2.920198 2.79831z" fill="#cae5e1" transform="matrix(.9961947 -.08715574 .08715574 .9961947 -16.00909 26.462648)"/><path d="m270.03937 214.849091c.06194.826243-.557463 1.539161-1.383334 1.592732-.846517.053572-1.548507-.572806-1.610447-1.399049-.041294-.826243.578109-1.53916 1.40398-1.594793.82587-.051511 1.548507.574868 1.589801 1.40111" fill="#bee5e1" transform="matrix(.9961947 -.08715574 .08715574 .9961947 -17.711803 24.223051)"/><path d="m339.608137 164.697757c-.537287 12.711166-11.613663 20.210317-26.347727 19.580887-14.734063-.62943-25.128502-3.115991-25.624459-20.764963-.371968-12.7174 12.750235-23.804096 27.484298-23.172588 14.734064.627353 25.025175 11.645496 24.487888 24.356664" fill="#accece" fill-opacity=".6" transform="matrix(.9961947 -.08715574 .08715574 .9961947 -12.953266 27.95216)"/><g fill="#6a8589" transform="translate(308.734401 155.416959)"><path d="m3.12088412 9.59519527c.0618976.82880613-.57771085 1.54215663-1.40301207 1.59576093-.82530122.0515427-1.54743982-.5731544-1.58870482-1.40196053-.0618976-.82468263.5777108-1.54009484 1.40301201-1.59163754.82530121-.0556661 1.52680726.57315441 1.58870488 1.39783714" transform="matrix(.9961947 -.08715574 .08715574 .9961947 -.838698 .178519)"/><path d="m8.57733055 3.09692574c.0410428.82674632-.5745992 1.54216012-1.39545523 1.59370293-.8208559.0536045-1.53910492-.57315571-1.60066912-1.39990203-.0410428-.8267463.57459921-1.54009842 1.39545512-1.59370292.82085602-.0536045 1.53910503.57315582 1.60066923 1.39990202" transform="matrix(.9961947 -.08715574 .08715574 .9961947 -.251422 .629152)"/><path d="m21.5581485 1.07650801 2.3265307 3.13377089 2.6734696-.4442201-.6530614-3.50731963-4.1224491-.04846041z" transform="matrix(.9961947 -.08715574 .08715574 .9961947 -.10109 2.105217)"/></g><path d="m299.645779 179.502633-.306604 5 26-.645659-.756289-4.308065z" fill="#4d9dc1" transform="matrix(.9961947 -.08715574 .08715574 .9961947 -14.67403 27.914728)"/><path d="m325.130178 171.564835.164853-.146415c-3.977075-.835187-4.347994-3.934655-4.3686-4.087257-.041213-.449557-.432739-.779507-.886084-.740325-.453346.041243-.783051.441308-.741838.894989 0 .043306.391526 3.584083 4.224354 5.101853z" fill="#62868f" transform="matrix(.9961947 -.08715574 .08715574 .9961947 -13.55411 28.735195)"/><path d="m458 248.522934c0 3.3132-16.341799 6-36.499529 6-20.158672 0-36.500471-2.6868-36.500471-6s16.341799-6 36.500471-6c20.15773 0 36.499529 2.6868 36.499529 6" fill="#c9c9c9" transform="matrix(-1 0 0 1 843 0)"/><g transform="matrix(-1 0 0 1 462 150.522934)"><path d="m26.4193777 45.9753086-8.203964 4.2618568c-3.1307081 1.6146241-5.1675543 4.7499988-5.3750109 8.2420929l-1.9614075 33.1561187c-.2074565 3.4357699 2.5271981 6.3270736 5.9785209 6.3270736l19.3688989.0375494z" fill="#93cecc"/><path d="m56.0230067 98h-24.8506565c-5.2663643 0-9.5087133-4.3810164-9.4355693-9.7087779l.4571496-35.3265855c.036572-3.7869803 2.8709-6.9242336 6.5829554-7.2955062 3.9863452-.3898362 8.2104082-.6682906 12.6721891-.8167996 4.3337789-.1299454 8.484698-.1113818 12.3978993.0371272 3.5474815.1299454 6.4915254 2.803108 6.9669611 6.3673247.7314394 5.4391432 1.371449 11.10105 1.8834566 16.9485931.6582956 7.4440151 1.0788733 14.5724486 1.2983051 21.403864.1462879 4.5852163-3.4560516 8.3907602-7.9726904 8.3907602" fill="#bcedef"/><g fill="#f2c403"><path d="m44.5930056 30.9095346s-2.0869624-10.5744037-3.4099474-13.971263c0 0-6.0559174 3.3009028-11.4969263 4.8937803 0 0 2.0683287 8.1371092 2.6273365 11.11176-1.0434811-.1535304-2.2173974.4605911-2.8695732 1.6312601-.8012444 1.4393472-.5403741 3.1665637.6149086 3.8574504 1.1552827.6908866 2.7577716.0767652 3.559016-1.3817733.5217406-.9019909.596275-1.9383208.2981375-2.7443552l-2.0869623-10.0562388s4.2298254-.1727216 8.5341852-3.2817115c0 0 1.6583897 5.2967975 2.1614966 8.252257-.9316796.0191913-1.9006264.6141215-2.4782677 1.6504514-.8198781 1.4393472-.5403742 3.1665637.6149085 3.8574504 1.1552827.6908866 2.7391381.0575739 3.5590161-1.3817733.4472062-.8060344.5590078-1.688834.3726719-2.4372945" transform="matrix(-1 0 0 1 73.660378 0)"/><path d="m27.6873169 13.9733131s-2.0876463-10.57595539-3.411065-13.9733131c0 0-6.0579023 3.30138715-11.5006946 4.8944984 0 0 2.0690067 8.1191091 2.6281977 11.1133905-1.0438232-.172747-2.1994846.4414645-2.8705138 1.6314994-.801507 1.4395584-.5219116 3.1670284.6151101 3.8580164 1.1556614.690988 2.7586755.0575824 3.5601826-1.381976.5219116-.9213173.5964704-1.9386052.2982352-2.7447579l-2.0876463-10.05771437s4.2312117-.17274701 8.5369823-3.28219304c0 0 1.6589333 5.29757473 2.1622052 8.25346791-.931985.0191941-1.9012494.6142115-2.4790801 1.6314994-.801507 1.4587525-.5405512 3.1862225.6151101 3.8772105 1.1556614.6717939 2.7586755.0575824 3.5601826-1.381976.4473528-.8061527.559191-1.6890818.372794-2.4376521" transform="matrix(-1 0 0 1 39.849056 0)"/><path d="m4.79067792 58.0740741h-.1799225c-.64772101-.1153236-1.07953501-.7496031-.97158151-1.4415444 2.08710102-14.1079141 13.71009469-17.7213852 14.19588539-17.87515.6117365-.1729853 1.2774498.2114265 1.43938.8841472.1799225.6535001-.1799225 1.3454414-.8096512 1.5376473-.4498063.1345442-10.6694044 3.3636035-12.52260617 15.8569879-.08996125.615059-.59374425 1.037912-1.15150401 1.037912"/><path d="m1.25709392 49.6049383-.32834207-.0371925c-.65668416-.1859625-1.0622832-.8368311-.88845504-1.4876996 2.51085119-9.2237377 10.08203319-11.6226534 10.41037529-11.7342308.6566842-.1859625 1.371311.1673662 1.5644534.7996385.2124567.6322724-.1545139 1.3017372-.811198 1.5062959-.2703994.0929812-6.58615583 2.1571644-8.73003646 10.0419725-.15451392.5392911-.65668416.911216-1.21679712.911216"/></g><path d="m55.5471698 79.8518519c0 6.6901273-5.3982249 12.0987654-12.0754717 12.0987654-6.6584377 0-12.0754717-5.4086381-12.0754717-12.0987654 0-6.6712819 5.417034-12.0987655 12.0754717-12.0987655 6.6772468 0 12.0754717 5.4274836 12.0754717 12.0987655" fill="#93cecc"/><path d="m45.8867925 56.2499206c0 3.025729-2.4378393 5.4537831-5.4339623 5.4537831s-5.4339623-2.4280541-5.4339623-5.4537831c0-3.0070517 2.4378393-5.4351058 5.4339623-5.4351058s5.4339623 2.4280541 5.4339623 5.4351058" fill="#93cecc"/><g fill="#fff" transform="translate(39.849057 55.654321)"><path d="m.8086253 3.6296296c-.4528301 0-.8086253-.3710288-.8086253-.822716 0-.4516873.3557952-.8065844.8086253-.8065844.6630728 0 1.180593-.5323457 1.180593-1.1937449 0-.4355555.3719677-.8065843.8247979-.8065843s.8086253.3710288.8086253.8065843c0 1.548642-1.2614555 2.8230453-2.8140162 2.8230453"/><path d="m3.6694457 31.4567901c-.6927015 0-1.2543514-.563826-1.2543514-1.2592113 0-.6953854.5616499-1.2592113 1.2543514-1.2592113 3.2388474 0 5.8786017-2.649982 5.8786017-5.9013784 0-.6953854.5616498-1.2592113 1.2543513-1.2592113s1.273073.5638259 1.273073 1.2592113c0 4.6421671-3.763054 8.419801-8.406026 8.419801"/></g></g><g fill="#ffdf00" transform="translate(211 45.522934)"><path d="m498.707792 43 4.513709 7.6400142 8.778499-1.8488116-6.007215 6.5728272 4.513709 7.641646-8.214286-3.5801348-6.007215 6.574459.929293-8.7855268-8.214286-3.5801348 8.795094-1.8488116z"/><path d="m517.487013 90 2.551227 4.3182689 4.96176-1.0449805-3.395382 3.7150763 2.551226 4.3191913-4.642857-2.0235546-3.395382 3.7159986.525252-4.9657325-4.642857-2.0235545 4.97114-1.0449805z"/><path d="m304.753247 51 3.139971 5.3147925 6.106782-1.2861298-4.178932 4.5724015 3.139971 5.3159277-5.714286-2.4905286-4.178932 4.5735367.646465-6.1116708-5.714286-2.4905286 6.118326-1.2861298z"/><path d="m440.441558 32 3.924964 6.6434906 7.633478-1.6076623-5.223665 5.715502 3.924964 6.6449095-7.142857-3.1131607-5.223666 5.7169209.808081-7.6395885-7.142857-3.1131607 7.647908-1.6076623z"/><path d="m278.441558 11 3.924964 6.6434906 7.633478-1.6076623-5.223665 5.715502 3.924964 6.6449095-7.142857-3.1131607-5.223666 5.7169209.808081-7.6395885-7.142857-3.1131607 7.647908-1.6076623z"/><path d="m8.441558 51 3.924964 6.6434906 7.633478-1.6076623-5.223665 5.715502 3.924964 6.6449095-7.142857-3.1131607-5.223666 5.7169209.808081-7.6395885-7.142857-3.1131607 7.647908-1.6076623z"/><path d="m361.441558 1 3.924964 6.6434906 7.633478-1.6076623-5.223665 5.715502 3.924964 6.6449095-7.142857-3.1131607-5.223666 5.7169209.808081-7.6395885-7.142857-3.1131607 7.647908-1.6076623z"/><path d="m476.487013 0 2.551226 4.31826889 4.961761-1.0449805-3.395382 3.7150763 2.551226 4.31919121-4.642857-2.02355449-3.395383 3.71599859.525253-4.96573253-4.642857-2.02355445 4.97114-1.0449805z"/><path d="m549.441558 63 3.924964 6.6434906 7.633478-1.6076623-5.223665 5.715502 3.924964 6.6449095-7.142857-3.1131607-5.223666 5.7169209.808081-7.6395885-7.142857-3.1131607 7.647908-1.6076623z"/><path d="m278.441558 83 3.924964 6.6434906 7.633478-1.6076623-5.223665 5.7155017 3.924964 6.64491-7.142857-3.113161-5.223666 5.716921.808081-7.639588-7.142857-3.1131612 7.647908-1.6076623z"/></g><path d="m783 244.022934c0 7.4547-37.384663 13.5-83.498923 13.5-46.116414 0-83.501077-6.0453-83.501077-13.5s37.384663-13.5 83.501077-13.5c46.11426 0 83.498923 6.0453 83.498923 13.5" fill="#efefef" transform="matrix(-1 0 0 1 1399 0)"/><path d="m780 244.022934c0 4.6937-23.505327 8.5-52.499323 8.5-28.99535 0-52.500677-3.8063-52.500677-8.5s23.505327-8.5 52.500677-8.5c28.993996 0 52.499323 3.8063 52.499323 8.5" fill="#c9c9c9" transform="matrix(-1 0 0 1 1455 0)"/><g transform="matrix(-1 0 0 1 770 166.522934)"><path d="m56.6381279 1.234375-20.9458202 18.494389 6.053754 1.255611 16.1000921-15.10248171z" fill="#394c59"/><path d="m46.7692308 24.0699675c0 4.4311264-3.5820074 8.0237825-8 8.0237825s-8-3.5926561-8-8.0237825c0-4.4311265 3.5820074-8.0230925 8-8.0230925s8 3.591966 8 8.0230925" fill="#b5e5e0"/><path d="m33.7977454 23.8270526c0-3.6147393 1.9867103-6.6711883 4.7176484-7.6745924-.3514728-.0690099-.7121195-.1055852-1.0796465-.1055852-3.6815776 0-6.6665165 3.591966-6.6665165 8.0230925 0 4.4311264 2.9849389 8.0237825 6.6665165 8.0237825.6782909 0 1.3319272-.1228376 1.9488681-.3491902-3.1684158-.6217793-5.58687-3.9287343-5.58687-7.9175072" fill="#e1f9f8"/><g fill="#394c59" transform="translate(22.153846 22.218599)"><path d="m25.584501 7.4064009h-17.9382329c-2.174779 0-3.9539605-1.5290401-3.9539605-3.3980592 0-1.8690192 2.2641075-3.20238369 4.426797-3.39805929 4.0681397-.3688397 8.7226236-.61242411 14.6277061-.61028241 4.3959013.002476 6.7916508 2.1393225 6.7916508 4.0083417 0 1.8690191-1.7785098 3.3980592-3.9539605 3.3980592"/><path d="m27.1316074 40.7345259 6.0991618 9.875h-5.897615l-3.9485389-9.2528122z"/><path d="m4.1456513 40.7345259 2.0081948 9.875h-6.1538461l.2362582-9.2528122z"/></g><path d="m66.4615385 37.0336059s-14.7692308-.3540392-14.7692308 7.6181282c0 6.0941055 8.1260196 10.6800704 14.7692308 10.8951409z" fill="#83b2ab"/><path d="m70.1538462 46.2890625c0 5.1133728-1.9287312 9.2578125-4.3079815 9.2578125-2.378672 0-4.3074032-4.1444397-4.3074032-9.2578125 0-5.112711 1.9287312-9.2578125 4.3074032-9.2578125 2.3792503 0 4.3079815 4.1451015 4.3079815 9.2578125" fill="#394c59"/><path d="m13.5384615 41.1056715v16.4169209c0 3.4849319 2.2504198 6.6649076 8.9450309 6.6649076h22.954012c7.0277568 0 13.6394187-1.0163013 13.6394187-13.00971s0-4.2858537 0-9.8580563c0-5.5722027-.5914349-13.0222244-12.0296638-14.4732365-11.4382289-1.4516708-20.2874972-1.6018436-26.154639 2.5865295-5.8678162 4.1883731-7.3541588 8.308905-7.3541588 11.6726448" fill="#b5e5e0"/><path d="m28.7212874 64.0366634c-6.2583481 0-8.3612741-3.1800831-8.3612741-6.6644741 0-3.4850496 0-7.2618923 0-16.4181341 0-3.3631948 1.3893432-7.4845245 6.874223-11.6730391 2.5397748-1.939798 5.6790348-2.9475708 9.3793272-3.3276263-6.2053967-.2134107-11.2351468.6257413-14.9701098 3.4784629-5.4848797 4.1885146-6.8742229 8.3091856-6.8742229 11.6730391v16.4174754c0 3.4850497 2.1035563 6.6651328 8.361274 6.6651328h21.4560227c1.1605176 0 2.3090581-.0322751 3.4134725-.1508366-6.2142219 0-13.691082 0-19.2787126 0" fill="#e1f9f8"/><path d="m66.2920465 75.3657305-.4517587-1.4580815c-.0309966-.1749461-.0837568-.3445729-.157621-.5071073l-.001319-.0029552v-.000591c-.4774793-1.0473127-1.8004399-1.8032455-3.3581832-1.8032455h-15.1078676c-1.6078655 0-2.9670987.8049886-3.4030294 1.9054944h-.001319l-.6410358 2.0780763c-.0606741.1997696-.0929897.4078137-.0929897.6217681 0 1.5443724 1.6771131 2.8009112 3.7387158 2.8009112h15.9078433c2.0609431 0 3.7380563-1.2565388 3.7380563-2.8009112 0-.2901978-.0593552-.569757-.169492-.8333583" fill="#394c59"/><path d="m63.318883 77.765625h-15.8685352c-1.7288881 0-3.1426555-1.388898-3.1426555-3.0859375 0-1.6976855 1.4137674-3.0859375 3.1426555-3.0859375h15.8685352c1.7282302 0 3.1426555 1.388252 3.1426555 3.0859375 0 1.6970395-1.4144253 3.0859375-3.1426555 3.0859375" fill="#8badb2"/><path d="m63.318883 77.765625h-15.8685352c-1.7288881 0-3.1426555-1.388898-3.1426555-3.0859375 0-1.6976855 1.4137674-3.0859375 3.1426555-3.0859375h15.8685352c1.7282302 0 3.1426555 1.388252 3.1426555 3.0859375 0 1.6970395-1.4144253 3.0859375-3.1426555 3.0859375z" fill="#394c59"/><path d="m62.7234822 71.59375h-15.9078433c-2.0616027 0-3.7387158 1.3842898-3.7387158 3.0859375 0 1.7011033 1.6771131 3.0859375 3.7387158 3.0859375h15.9078433c2.0609431 0 3.7380563-1.3848342 3.7380563-3.0859375 0-1.7016477-1.6771132-3.0859375-3.7380563-3.0859375z" fill="#394c59"/><g fill="#32495b" transform="translate(44.307692 71.59375)"><path d="m20.9230769 2.46875c0 1.3635318-1.1019897 2.46875-2.4615384 2.46875s-2.4615385-1.1052182-2.4615385-2.46875 1.1019898-2.46875 2.4615385-2.46875 2.4615384 1.1052182 2.4615384 2.46875"/><path d="m4.9230769 2.46875c0 1.3635318-1.1019897 2.46875-2.4615384 2.46875s-2.4615385-1.1052182-2.4615385-2.46875 1.1019898-2.46875 2.4615385-2.46875 2.4615384 1.1052182 2.4615384 2.46875"/><path d="m8.6153846 4.3207586c0 1.0223515-.826344 1.8511164-1.8457091 1.8511164-1.0202546 0-1.8465986-.8287649-1.8465986-1.8511164 0-1.0232437.826344-1.8520086 1.8465986-1.8520086 1.0193651 0 1.8457091.8287649 1.8457091 1.8520086"/><path d="m12.3076923 4.3207586c0 1.0223515-.826344 1.8511164-1.8457091 1.8511164s-1.8465986-.8287649-1.8465986-1.8511164c0-1.0232437.8272335-1.8520086 1.8465986-1.8520086s1.8457091.8287649 1.8457091 1.8520086"/><path d="m16 4.3207586c0 1.0223515-.826344 1.8511164-1.8457091 1.8511164s-1.8465986-.8287649-1.8465986-1.8511164c0-1.0232437.8272335-1.8520086 1.8465986-1.8520086s1.8457091.8287649 1.8457091 1.8520086"/></g><path d="m36.753585 75.3657305-.4517588-1.4580815c-.0303371-.1749461-.0837567-.3445729-.1576209-.5071073l-.0006595-.0029552-.0006595-.000591c-.4774793-1.0473127-1.80044-1.8032455-3.3581833-1.8032455h-15.1072081c-1.6078654 0-2.9677581.8049886-3.4030293 1.9054944h-.001319l-.6416953 2.0780763c-.0606742.1997696-.0929898.4078137-.0929898.6217681 0 1.5443724 1.6771132 2.8009112 3.7387158 2.8009112h15.9071838c2.0616027 0 3.7387158-1.2565388 3.7387158-2.8009112 0-.2901978-.0593551-.569757-.1694919-.8333583" fill="#394c59"/><path d="m33.7797636 77.765625h-15.8678774c-1.7288881 0-3.1426554-1.388898-3.1426554-3.0859375 0-1.6976855 1.4137673-3.0859375 3.1426554-3.0859375h15.8678774c1.7288881 0 3.1433133 1.388252 3.1433133 3.0859375 0 1.6970395-1.4144252 3.0859375-3.1433133 3.0859375" fill="#8badb2"/><path d="m33.7804214 77.765625h-15.8685352c-1.7288881 0-3.1426554-1.388898-3.1426554-3.0859375 0-1.6976855 1.4137673-3.0859375 3.1426554-3.0859375h15.8685352c1.7282303 0 3.1426555 1.388252 3.1426555 3.0859375 0 1.6970395-1.4144252 3.0859375-3.1426555 3.0859375z" fill="#394c59"/><path d="m33.1850206 71.59375h-15.9078433c-2.0616026 0-3.7387158 1.3842898-3.7387158 3.0859375 0 1.7011033 1.6771132 3.0859375 3.7387158 3.0859375h15.9078433c2.0609432 0 3.7380563-1.3848342 3.7380563-3.0859375 0-1.7016477-1.6771131-3.0859375-3.7380563-3.0859375z" fill="#394c59"/><g fill="#32495b" transform="translate(16 71.59375)"><path d="m19.6923077 2.46875c0 1.3635318-1.1019898 2.46875-2.4615385 2.46875s-2.4615384-1.1052182-2.4615384-2.46875 1.1019897-2.46875 2.4615384-2.46875 2.4615385 1.1052182 2.4615385 2.46875"/><path d="m4.9230769 2.46875c0 1.3635318-1.1019897 2.46875-2.4615384 2.46875s-2.4615385-1.1052182-2.4615385-2.46875 1.1019898-2.46875 2.4615385-2.46875 2.4615384 1.1052182 2.4615384 2.46875"/><path d="m7.3846154 4.3207586c0 1.0223515-.8265431 1.8511164-1.8461539 1.8511164-1.0196107 0-1.8461538-.8287649-1.8461538-1.8511164 0-1.0232437.8265431-1.8520086 1.8461538-1.8520086 1.0196108 0 1.8461539.8287649 1.8461539 1.8520086"/><path d="m12.3076923 4.3207586c0 1.0223515-.8265431 1.8511164-1.8461538 1.8511164-1.0196108 0-1.8461539-.8287649-1.8461539-1.8511164 0-1.0232437.8265431-1.8520086 1.8461539-1.8520086 1.0196107 0 1.8461538.8287649 1.8461538 1.8520086"/><path d="m14.7692308 4.3207586c0 1.0223515-.8272335 1.8511164-1.8465986 1.8511164s-1.8457091-.8287649-1.8457091-1.8511164c0-1.0232437.826344-1.8520086 1.8457091-1.8520086s1.8465986.8287649 1.8465986 1.8520086"/></g><path d="m27.5478167 35.8176986c-3.495342.3816043-9.1271578 1.4995678-12.7785859 4.7700538l2.772119 3.8497476s5.1225935-3.1979354 10.8243303-3.9925636c1.405482-.1959435 2.4366396-1.1739473 2.4027386-2.3267579l-.0021189-.0702655c-.0402575-1.3693196-1.5396737-2.4130188-3.2184831-2.2302144" fill="#394c59"/><path d="m17.2307692 35.799543s-17.2307692-.4011104-17.2307692 8.6329596c0 6.9077956 9.47949548 12.1047061 17.2307692 12.3487474z" fill="#83b2ab"/><path d="m1.78619144 47.9263696c0-7.5035255 11.03815586-8.7339098 15.44457776-8.9271885v-3.1995378s-17.2307692-.4161891-17.2307692 8.9574936c0 2.1395351.84853151 4.1187904 2.23980435 5.8522381-.29274699-.8599894-.45361291-1.7563449-.45361291-2.6830054" fill="#e1f9f8"/><path d="m20.9230769 46.2887379c0 5.7947696-2.4793415 10.4925121-5.5384615 10.4925121-3.0584766 0-5.53846155-4.6977425-5.53846155-10.4925121 0-5.7947695 2.47998495-10.4918629 5.53846155-10.4918629 3.05912 0 5.5384615 4.6970934 5.5384615 10.4918629" fill="#394c59"/><path d="m19.6923077 46.2887376c0 5.1128676-1.6534219 9.2581374-3.6923077 9.2581374s-3.6923077-4.1452698-3.6923077-9.2581374 1.6534219-9.2574876 3.6923077-9.2574876 3.6923077 4.14462 3.6923077 9.2574876" fill="#fff"/><path d="m68.9230769 45.6715277c0 4.7723675-1.3774745 8.6409723-3.0766414 8.6409723s-3.0772047-3.8686048-3.0772047-8.6409723c0-4.7723676 1.3780378-8.6402777 3.0772047-8.6402777s3.0766414 3.8679101 3.0766414 8.6402777" fill="#fff"/><path d="m13.5384615 43.1098555s3.6721201.1761849 4.5341979 3.7963945c0 0 1.560922-4.5374071-1.5717617-5.9818636-2.1386162-.9858578-2.9624362 2.1854691-2.9624362 2.1854691" fill="#b5e5e0"/><path d="m15.1126005 48.140625c.1002556.4114813.3890717 1.3832926 1.2223225 2.2434674.830595.8580279 1.7408635 1.1292477 2.1266155 1.2194157-.0424925.1345365-.3625139 1.0991917-1.2336096 1.3961738-.3319725.1130679-.7402986.1180773-1.2362654-.0794337-2.0761557-.8272563-.879063-4.7796232-.879063-4.7796232" fill="#b5e5e0"/><path d="m62.4599638 4.9375 6.4631131 14.8273348v4.9226652h-1.7548224l-8.0913314-17.55069737z" fill="#394c59"/><path d="m61.5384615 3.08619516c0 1.70413213-1.377512 3.08567984-3.0771799 3.08567984-1.6991542 0-3.0766662-1.38154771-3.0766662-3.08567984 0-1.70413214 1.377512-3.08619516 3.0766662-3.08619516 1.6996679 0 3.0771799 1.38206302 3.0771799 3.08619516" fill="#b5e5e0"/><path d="m79.9920229 18.3658731-14.7612537-1.0846231v6.7530111c0 1.7243042 1.6447322 3.1219889 3.6738154 3.1219889h7.9785464c1.7092741 0 3.0878614-1.1893878 3.0632049-2.6419199l-.0348091-1.9701932h-3.5969452l-.0891984 1.8309177h-6.8291194v-4.0272794h10.6037362z" fill="#394c59"/><g fill="#b5e5e0" transform="translate(62.769231 41.96875)"><path d="m0 1.90020457s3.6718569.1413252 4.5340028 3.0372954c0 0 1.5614419-3.6301429-1.5717582-4.7852972-2.1391533-.7892657-2.9622446 1.7480018-2.9622446 1.7480018"/><path d="m1.574419 6.17187497c.099731.4125984.3889507 1.3833208 1.2213204 2.2432453.8308354.8582707 1.7414555 1.1294777 2.1273375 1.2196044-.0421939.1347766-.3628672 1.09971103-1.2343621 1.39572353-.3314136.1132785-.7403104.1190665-1.2358964-.0785508-2.0759377-.8276773-.8783994-4.78002243-.8783994-4.78002243"/></g></g><g transform="translate(210.12048 41.1419)"><path d="m30.0118595 7.29106723c2.3271908 4.70589117.4037585 10.38541487-4.2993176 12.71807637-4.7010471 2.3326615-10.3983023.4056803-12.7234641-4.3002108-2.3292197-4.6856071-.4037585-10.38541486 4.2972886-12.71807639s10.3983023-.40568027 12.7254931 4.30021082" fill="#ffe340"/><path d="m22.8019441 15.654397c-9.7885866 4.7615907-14.23051653 4.9379459-15.21894058 2.9784436-.98643127-1.9595023 1.8532951-5.3298464 11.64188178-10.09143707 10.7471188-5.23187124 14.2285237-4.93794589 15.2149549-2.97844356.9904169 1.95950234-2.2777594 5.52579663-11.6378961 10.09143703zm-4.5515334-9.03330576c-15.10535148 7.34813376-19.48949043 12.54081496-17.96500575 15.55844856 1.52448468 3.0372286 8.38167657 2.7628983 23.48702805-4.6048305 14.4477307-7.0150183 19.4894905-12.54081496 17.9669986-15.55844855-1.5244847-3.03722863-6.8970477-3.46831914-23.4890209 4.60483049z" fill="#fcd51a"/><path d="m15.2640099 18c1.5366949-1.7529181 3.5478712-3.13463 5.4282234-4.2894937 1.8042009-1.092996 3.7001739-1.381712 5.6273885-2.1035018 1.6167514-.618677 3.1241573-1.5260699 4.6803782-2.33034998-.1562079-.63929955-.3729463-1.2785991-.665836-1.89727608-2.2396303-4.78443534-7.7225265-6.74357912-12.2466969-4.37198402-4.5241704 2.37159511-6.3771862 8.16653618-4.1356033 12.93034898.3573255.763035.8064231 1.4435796 1.3121461 2.0622566" fill="#ffe340"/></g></g><g><g transform="translate(580 140)"><path d="m36.4133775 62h-3.4503643s-7.7583336-14.874105-6.896126-35l12.9331129 1.750078s-6.0369869 16.625739-2.5866226 33.249922" fill="#99180b"/><path d="m21.9824992 68.1192733s-12.76214384-6.3607441-13.60640629-18.5531823l5.25934859 1.675325s-6.07615537-7.3185253-3.2619472-15.9179642l2.9768304 3.4509691s.5364419-7.8153677 5.8844935-10.6665355l2.4250766 3.71919s2.66109-6.8903222 6.8707864-9.0545697c0 0-.8326465 5.8829095.7286318 8.7995486 0 0 4.2049444-3.7513976 5.7150073-11.4015032 0 0 7.6506336 5.6516481 8.2778905 12.5203226 0 0 3.6875103-1.5808142 5.6748799-5.0338952 0 0 2.7825286 5.3665314.6853362 10.3676908 0 0 3.018014-.6916722 4.9256564-2.9430387 0 0 2.2772383 7.8966788-2.0253851 14.2764307 0 0 2.5803068-.0770871 5.133686-1.684301 0 0-1.4910551 19.4597482-16.9728963 23.4967908z" fill="#ffe340" fill-opacity=".9" transform="matrix(-.98480775 .17364818 -.17364818 -.98480775 73.451571 84.914922)"/><path d="m26.5044471 54.2782009s-8.0076197-3.9910552-8.537353-11.6412126l3.2999834 1.0511844s-3.8124896-4.5920159-2.0467119-9.9877423l1.8678151 2.1653139s.336591-4.9037601 3.6922312-6.6927281l1.5216167 2.3336094s1.6697034-4.3233394 4.3110816-5.6812987c0 0-.5224449 3.6912374.4571807 5.5212854 0 0 2.6383966-2.3538181 3.585887-7.1538844 0 0 4.8003976 3.5461322 5.1939706 7.8558887 0 0 2.313732-.9918834 3.5607089-3.1585224 0 0 1.7459003 3.3672354.4300149 6.5052178 0 0 1.8936558-.4339904 3.090608-1.8466126 0 0 1.4288553 4.9547789-1.2708299 8.9577605 0 0 1.619016-.0483684 3.2211363-1.0568163 0 0-.935564 12.2100381-10.6496604 14.7430843z" fill="url(#a)" transform="matrix(-.9781476 .20791169 -.20791169 -.9781476 74.475014 72.557817)"/><g fill="#99180b"><path d="m17 28.843384s-9.05233793 14.832365-9.05233793 33.156616h-4.526169s-12.7038772-38.48838 10.84669823-62z"/><path d="m49 28.843384s9.0523376 14.832365 9.0523376 33.156616h4.526169s12.703878-38.48838-10.8466978-62z"/></g></g><g transform="translate(537 40)"><g fill="#346368" transform="translate(0 16)"><path d="m17.9288803 113.393055 16.7674129-2.469094-12.8329678 29.403531zm-4.627107-37.2917864 12.7144041-33.0304051 4.4539415 30.5017767zm22.0793817 31.0892834-22.057541-29.1371947 17.4273138-2.5662289zm-10.7378213-65.9213754-12.5037974 32.4820656-4.3806192-29.9957377zm.5460174-3.8587435-21.37111924-25.8471576 17.22606744-2.53646192zm-21.75645149-23.2840621 20.86722319 25.2377174-16.82045457 2.4769279zm9.78151089 66.980454 21.1293115 27.912047-16.6940905 2.459695zm30.6814951 26.505165-6.3696824.940011-4.8689148-33.3453091 5.4071319-.7974423c.5257367-.0767675.8907883-.5687064.8127858-1.0982457-.0764424-.5279726-.566298-.8914434-1.0920347-.8162425l-5.4071318.7974423-4.7409907-32.4648321 5.4991747-.8099758c.5257368-.0767675.8892283-.5671397.8127859-1.096679-.0764424-.5279726-.5678581-.8930101-1.0935948-.8162425l-5.4991747.8084091-5.5615768-38.08609542c-.0764424-.5279726-.566298-.8945767-1.0935948-.8162425-.5257367.0783342-.8907883.5687064-.8127858 1.096679l.8767479 6.0051009-17.97021117 2.6461298-.87830791-6.0035342c-.07644243-.5279726-.566298-.8930101-1.09203471-.8178092-.52729675.0783342-.89078831.570273-.81434588 1.0982457l10.72222077 73.42109312v.0015666l10.035799 68.7147738c.0702022.480972.4820553.827209.9516302.827209l.1419645-.010967c.5257367-.078334.8907883-.570273.8127859-1.098245l-.2854891-1.952089 13.7549571-31.512288 4.8891954 33.47691c.0780025.527973.5678581.896143 1.0935948.816243.5272967-.076768.8907883-.568707.8143459-1.098246l-5.1341232-35.156396 6.3681224-.936877c.5272967-.078334.8923483-.570273.8143459-1.098246-.0780025-.527972-.566298-.891443-1.0935948-.817809z"/><path d="m123.119844 104.248006 13.416242 3.091524-5.925896 25.969433zm-7.197401 28.749299 5.925897-25.969433 7.488787 29.060957zm20.436006-27.68277-13.414683-3.091525 5.929013-25.9850935zm7.200518-28.7665264-5.927455 25.9835274-7.487229-29.075052zm3.69453-11.8602408c-.517327-.1190253-1.036213.205162-1.154638.7266805l-2.108266 9.2479496-14.02083-3.2309094 2.108266-9.2479495c.118425-.5215186-.205684-1.0399049-.723012-1.1589302s-1.034656.205162-1.15308.7251144l-19.176967 84.0662888c-.119983.519952.204126 1.039905.721454 1.15893l.216592.025058c.437858 0 .835204-.303828.938046-.751738l2.592872-11.365347 14.02083 3.232476-1.75611 7.699055c-.119983.521518.204126 1.039905.723012 1.15893l.215034.025058c.439417 0 .833646-.303828.936488-.751739l18.341764-80.399997c.119982-.5199525-.202568-1.0399049-.721455-1.1589302z"/></g><path d="m58 117.937644-1.5964222-17.937644c-22.1229322 23.51162-10.189865 62-10.189865 62h1.4904985c-1.2499002-12.397826-.5159999-30.220575 10.2957887-44.062356" fill="#ef2f1b"/><path d="m75.6656253 0c8.0518479 0 26.8389747 45.6845988 16.1036958 128.266733 0 0-16.1036958 6.14985-32.205836 0 0 0-5.6982068-34.0539724-2.6834307-66.7682346 2.8918828-31.3901842 11.3590791-61.4984984 18.7855709-61.4984984" fill="#ba2c19"/><path d="m72.2226268 128.269443s-3.9024817-34.054692-1.8393472-66.7696453c1.5665107-24.8172163 5.5180417-48.815269 9.6167204-57.78698582-1.7105929-2.45592735-3.310825-3.71281188-4.6228927-3.71281188-7.3175364 0-15.6605089 30.107387-18.5099644 61.4997977-2.9705457 32.7149533 2.6440617 66.7696453 2.6440617 66.7696453 7.1887821 2.785782 14.3729659 3.045288 20.0856718 2.496573-2.3727579-.343924-4.8727374-1.102119-7.3742496-2.496573" fill="#ef2f1b"/><g fill="#ffe000" transform="translate(68 44)"><path d="m15 7c0 3.8658808-3.1356761 7-7.0015569 7-3.8643239 0-6.9984431-3.1341192-6.9984431-7s3.1341192-7 6.9984431-7c3.8658808 0 7.0015569 3.1341192 7.0015569 7"/><path d="m15 33.5007575c0 4.1404909-3.3572366 7.4992425-7.5007575 7.4992425-4.1404908 0-7.4992425-3.3587516-7.4992425-7.4992425 0-4.1435209 3.3587517-7.5007575 7.4992425-7.5007575 4.1435209 0 7.5007575 3.3572366 7.5007575 7.5007575"/><path d="m15 60c0 3.865881-3.1356761 7-7.0015569 7-3.8643239 0-6.9984431-3.134119-6.9984431-7s3.1341192-7 6.9984431-7c3.8658808 0 7.0015569 3.134119 7.0015569 7"/></g></g></g><g transform="translate(505 156)"><path d="m21.5059275 22.4799937-10.8122303-7.2186764c-.5721801-.3814535-.73002289-1.15291-.3485695-1.7244325l2.2689899-3.3942774c2.0453794-3.07201502 6.2019059-3.90134729 9.2732633-1.85136421l3.6632678 2.44459001c2.5320612 1.6882601 3.2094698 5.1081869 1.5258135 7.6376175l-2.3084506 3.4554415c-.7168692 1.0799077-2.176915 1.3706015-3.2620841.6511015" fill="#accece" transform="matrix(.82903757 -.5591929 .5591929 .82903757 -5.139256 13.231236)"/><path d="m31.4484113 5.57814054c-.4077605-.29135145-.9141727-.52022349-1.4140082-.64649771-.5064123-.12758959-1.0391316-.17625778-1.5586974-.11706673-.1249589.00854981-.2564946.04209141-.3814535.06116408l-.1973034.03485694-.1841499.05656033c-.1249589.03946069-.2564945.06971389-.3748767.11640905l-.361723.15455439c-.0657678.02696481-.1249588.0486682-.1841498.07892139l-.1709965.09799406-.3485694.19467277c-.2170338.14468921-.4340677.30647805-.6511015.45840173l-.0263071.02104571c-.151266.10194012-.3485694.06511014-.453798-.08023676-.0986518-.14666224-.0657679-.34791178.0854981-.44985192l.0065768-.00394606c.2367642-.15981581.4735285-.32818145.7168693-.47878977l.3880303-.20453793.1907266-.10128246c.0657678-.03156855.1381125-.05524497.2038802-.08286745l.4077606-.16047349c.1381124-.04735283.2828017-.07892139.4209141-.11903976l.210457-.05656033.2170338-.03354159c.151266-.01841499.2893784-.05129891.4406444-.05656033.5853337-.05064122 1.1772441.01973034 1.7362706.17823081.5656033.16376187 1.091746.40644514 1.5718511.77934871.1052284.07826371.1249588.22361061.0460374.32555073-.0789214.0999671-.2170338.11969744-.3222623.04669516z" fill="#587072" transform="matrix(.82903757 -.5591929 .5591929 .82903757 1.95973 16.802163)"/><path d="m32.1725876 4.26282303c-.3091088.24531399-.75633.19204206-.9996709-.11640903-.2499178-.30976646-.1973035-.7589607.1118052-1.00295932.3091088-.24399863.7629068-.19204206 1.0062478.1177244.243341.30910877.1907267.75764533-.1183821 1.00164395" fill="#587072" transform="matrix(.82903757 -.5591929 .5591929 .82903757 3.353562 18.375942)"/><path d="m9.88031548 23.3534858 18.08682492-.1195137.1046987-15.92937956-18.08682488.11951369z" fill="#a1cac9" mask="url(#b)" transform="matrix(.82903757 -.5591929 .5591929 .82903757 -5.327694 13.231977)"/><path d="m29.2857796 6.26200634c1.8612294 3.04899633 1.0917458 5.64024866-.3222624 7.76060336-.5656033.850378-1.118053 1.6356457-1.6376187 2.344623-1.0391317 1.4107196-2.6241363 2.180861-4.2551784 2.2361058l1.1377834.7589608c2.1045704 1.4048007 4.9457404.9102267 6.4452468-1.130549.4472212-.60901.9207495-1.2837879 1.4074314-2.0144683 1.6968098-2.5412688 2.3084506-5.868463-2.7754021-9.95527566" fill="#acd3ce" transform="matrix(.82903757 -.5591929 .5591929 .82903757 -2.570384 18.015064)"/><path d="m15.1655348 9.0000001c-.1480078 1.8311509-.2158448 3.9255686-.1233399 6.2329428.0863379 2.1316333.2898488 4.065472.5550296 5.7670572 3.2500069-.17643 6.5061807-.3521709 9.7623546-.5279117.2713478-.735355.5488626-1.696761.7153716-2.8504481.1973438-1.3459682.1726758-2.5113714.0925049-3.3824947.2775147-1.6161269.5550296-3.2315645.8325444-4.84700215-3.9468774-.13094417-7.8875878-.26119918-11.8344652-.39214335" fill="#ffd88b" fill-opacity=".5"/><path d="m14.8069699 11.024574c1.4740142.9668605 3.8388457.2490493 5.8383779-.2122225 2.5122329-.5779941 2.4994154 1.8725512 2.3904665 3.3718405h1.2753427s0-1.980535.7498246-1.9817833c1.1279414-.0006242 1.4996492 1.3057923.9292698 2.7975914 0 0 1.3778828-.0106111 1.5765544-2.2982444.1922627-2.286385 1.0125836-5.09599534-.2819854-4.65578644-1.294569.44020891-2.2044084 0-2.2044084 0s-1.0896928-.09159562-3.6596045.44020891c-2.5699117.53180454-3.6465829 1.1428804-5.5307576 0 0 0-3.3966414 1.01788427-1.08308 2.53839583z" fill="#717c76"/><g fill="#625342" transform="translate(17 13)"><path d="m1 .4997739c0 .2758932-.2238806.5002261-.5.5002261s-.5-.2243329-.5-.5002261c0-.2758933.2238806-.4997739.5-.4997739s.5.2238806.5.4997739"/><path d="m4 .4997739c0 .2758932-.2238806.5002261-.5.5002261s-.5-.2243329-.5-.5002261c0-.2758933.2238806-.4997739.5-.4997739s.5.2238806.5.4997739"/><path d="m1.5547208 5.00000002-.1454479-.00474042c-.5878516-.0392776-1.0363158-.2945821-1.3029702-.5024825-.1090858-.08465-.1393875-.2532729-.0666635-.3758461.0787842-.1232504.2302924-.1537244.3393782-.0690744.2181718.1693.5817914.3765233 1.0605572.4076745.55755.0358916.9878332-.1936793 1.1938843-.3331825.1151462-.0765236.260594-.0365688.3333179.091422.0666636.1273136.0303017.2939049-.0848445.3711057-.2363528.1598192-.7090582.41512372-1.3272115.41512372"/></g><path d="m38 48.9997578c0 .5524594-8.0635642 1.0002423-18 1.0002423-9.9432463 0-18-.4477829-18-1.0002423 0-.5519748 8.0567537-.9997577 18-.9997577 9.9364358 0 18 .4477829 18 .9997577" fill="#c9c9c9"/><g fill="#587072" transform="translate(2 11)"><path d="m11.2680818 12.1406585c-.1581615.030819-.2516207.041734-.3666473.0584277-.1150266.0134834-.2228639.0276087-.3307014.0372397-.2156748.0218301-.4313496.0372397-.63983539.0455865-.4313496.0179778-.8555101.0173357-1.27967068-.010273-.8555102-.0468706-1.71102041-.191977-2.53777397-.4423818-.82675356-.2510468-1.62475048-.615739-2.32928829-1.091508-.70453782-.4738429-1.30842738-1.05426836-1.79729035-1.68734299-.25880981-.3133271-.45291717-.64848419-.65421369-.98107316-.17253987-.34221984-.35945807-.67994529-.48886298-1.03051194-.29475561-.69471276-.46010632-1.40547716-.61107871-2.10982091-.25162065-1.41575013-.27318814-2.82058509-.1869182-4.20230588.02156749-.42440401.43134968-.74864611.90583434-.72553188.45291716.02247231.81237523.36019776.81237523.7646977v.00963099c0 1.3008208.10783742 2.59329468.40978221 3.82092022.17253986.60546585.3522689 1.20772148.62545704 1.75732788.12221574.28507622.29475561.53933344.43853884.80386362.17972904.24655239.34507975.49952543.55356543.7197532.78361859.90980404 1.84761447 1.53838428 3.06258275 1.83373347.61107872.14960086 1.25091409.22729052 1.90512777.22921667.32351227.0051366.64702451-.01155714.97053674-.04173406.15816162-.01476747.32351231-.03467142.47448471-.05842779l.2300531-.03852384c.0718917-.01219923.1653507-.0314611.1869182-.03852384.7189162-.21765953 1.4953456.12584448 1.7397771.76790804.2444316.6414215-.136594 1.3387025-.8555102 1.5563621l-.1509724.0365975z"/><path d="m26 22.6487585v14.2335944h-1.250368l-1.0105016-14.5294117z"/><path d="m26 38h-5.6521739s.1917039-2.117208 2.5849111-2.225766c2.3993911-.1078999 2.628199.73622 2.628199.73622z"/><path d="m12.4347826 22.6487585-.8147277 14.2335944h-1.2475519l-.19859-14.5294117z"/><path d="m12.4347826 38h-5.6521739s.18551993-2.117208 2.58491107-2.225766c2.39320703-.1078999 2.62819903.73622 2.62819903.73622z"/></g><path d="m28.2116908 37.0000001h-15.4233816c-.9851387 0-1.7883092-.8429807-1.7883092-1.8832969v-13.2327439c0-1.0403163.8031705-1.8839592 1.7883092-1.8839592h15.4233816c.9851387 0 1.7883092.8436429 1.7883092 1.8839592v13.2327439c0 1.0403162-.8031705 1.8832969-1.7883092 1.8832969" fill="#bce1dd"/><path d="m27.9018404 20.0000001h-3.9018404c1.0380368 0 1.8773006.7562324 1.8773006 1.6886101v13.6227798c0 .9330398-.8392638 1.6886101-1.8773006 1.6886101h3.9018404c1.1558283 0 2.0981596-.8429807 2.0981596-1.8832969v-13.2327439c0-1.0403163-.9423313-1.8839592-2.0981596-1.8839592" fill="#acd3ce"/><path d="m23 20.0000001v3.6721491c0 .1809211.225.3278509.5.3278509s.5-.1469298.5-.3278509v-3.6721491z" fill="#587072"/><path d="m6.50860231 7.34114589c.67413077.0550948.68803036 2.21773981-.16679524 3.33846551-.84787579 1.119331-3.3776036 1.8739204-4.81621254.8054999-1.44555875-1.069118-1.75135003-3.38798114-1.38301053-3.69972004.36833949-.3124363.77142798-.13390127 1.09111886.850831.31274107.98542966.54903433.5418817.45173711-.02092208-.10424703-.63324142-.69498017-2.39418262.17374504-2.68778905.77837779-.26292073.68108056 1.43664905 1.03552044 1.91855415.35443989.48260249.32664069-.0271987.25714267-.63254403-.06254822-.6534661-.12509643-2.07965411.62548214-2.20588395.75057858-.12622985.56293393 1.34180232.58378334 2.22122681.02084941.88081929.10424703 2.03362555.92432362 1.86624896.81312679-.16737659.12509643-1.84462948 1.22316509-1.75396718" fill="#587072"/><path d="m27.1968332 17.1218366-2.1045702 3.151594c-.8352514 1.2476157-2.5189078 1.5843468-3.7684963.7517263l-10.2137432-6.8155197c-.7365996-.4912856-.9339031-1.4870104-.4406444-2.2236101l2.0651097-3.09503381c2.0453793-3.07201509 6.2019059-3.90134735 9.2732632-1.85136425l3.6632679 2.44459002c2.5320611 1.68826004 3.2094696 5.10818694 1.5258133 7.63761754zm1.2298583-7.0509685c-2.4202557-1.84741824-6.6622804-4.41696712-6.6622804-4.41696712-1.9138437-1.27458045-6.8595841-1.20223583-9.1351508 1.81387658l-2.77540224 4.14994974c-.65767825.9944096-.39460695 2.3373885.59848714 3.0009858l13.331138 8.8944405c2.1045705 1.4048008 4.9457403.9102267 6.4452468-1.1305488.4472212-.6090101.9207495-1.2837879 1.4074314-2.0144685 1.7428475-2.612298 2.3479113-6.0539283-3.2094699-10.2972682z" fill="#bce1dd" transform="matrix(.82903757 -.5591929 .5591929 .82903757 -4.539156 14.336181)"/><g fill="#587072" transform="translate(16.2233 20.261457)"><path d="m7.81805782 6.61567535c.4077606.2749096.1315357.8438013-.4274908 1.78099281-.6839854 1.1397565-2.07168651 2.95692164-3.76191961 2.85958514-1.69680991-.0986517-2.96612891-1.60999634-3.01216651-2.06247904-.0460374-.4531403.5524498-.6504437 1.3087798-.0355146.75633.6162445.7629068.1808615.3288391-.136797-.4603748-.3347583-1.5652742-1.43242341-1.1706673-2.20782601.3880302-.774745 1.2232816.664255 1.7494242.8602431.5327194.1973034.2499177-.190069-.1183821-.6353172-.3880302-.4807628-1.1706673-1.575797-.6379479-2.06379441.5261426-.4886549 1.3153565.69450821 1.78888481 1.37849371.4669516.684643 1.3548172 1.80795741 2.058533 1.4620188.80894421-.3932917 1.20355121-1.6685298 1.89411331-1.1996053" transform="matrix(.35836795 -.93358043 .93358043 .35836795 -4.756927 9.198306)"/><path d="m10.5280682 8.62019684v.018415l.0065768.0302533.0131535.0677409.0197304.1420584c.0197303.0953634.0394607.1933574.0591911.2893784.0460374.1940152.0986516.3860573.1578428.5734955.118382.37553426.269648.73396896.4472212 1.04833906.1841499.3163433.3880301.586649.6182175.7852679.2301874.1999343.4669516.3301545.7431764.3959224.2762249.0670831.5853336.0703716.9273263.0078921.3617231-.0677408.6708319-.1756001.94048-.3360736.269648-.1617889.4932587-.3729036.6774086-.6386057.1841499-.2650443.3222623-.5827029.4077605-.9365338.1841499-.70831936.1709964-1.52844416.0328839-2.33738846-.1381124-.81354801-.4011838-1.62512291-.75633-2.40052561-.7102925-1.55014771-1.7691545-2.96547121-3.084511-4.05655942l-.0065768-.0019732c-.3485694-.2913515-.394607-.8128903-.1052285-1.1634328.2828016-.3446235.7892139-.3972377 1.1443602-.1249589.7826371.6076946 1.4863528 1.3068067 2.1045703 2.07300201.6182176.7668527 1.1575138 1.5988157 1.5915815 2.48733911.4406443.8878657.7892139 1.831634.9930941 2.82933191.1052286.4998354.1709963 1.0128244.1841499 1.5396248.0131535.5254849-.0263071 1.0674117-.1446892 1.61262696-.1183821.5432423-.3222624 1.0950343-.6511015 1.600789-.3156855.50707-.7629068.9582372-1.2758958 1.2870763-.5064123.3301546-1.0785923.5379809-1.6244653.6576783-.5590264.1236435-1.1838208.1611312-1.815192.0322263-.6247943-.1223283-1.2298583-.4255179-1.7099635-.8174942-.48010509-.3919762-.84840479-.8569547-1.13778329-1.3317984-.29595521-.4768169-.51298901-.9687602-.69056221-1.4653072-.0920749-.2486025-.1644196-.49917786-.2367642-.75172636-.0328839-.1275895-.0657678-.2545214-.092075-.384084l-.0394607-.1979612-.0197303-.1025978-.0197304-.1223282c-.0854982-.6464976.3682999-1.2403811 1.01940141-1.3252216.6445247-.0854982 1.23643509.3696152 1.32193329 1.0161128" transform="matrix(.35836795 .93358043 .93358043 -.35836795 1.752975 -2.550594)"/></g></g></g></svg>