<svg height="201" viewBox="0 0 332 201" width="332" xmlns="http://www.w3.org/2000/svg"><g fill="none" fill-rule="evenodd"><g transform="translate(139 95)"><path d="m97.371254 106c-53.231949 0-94.371254-.8188-94.371254-8 0-7.1786 20.8431786-15.4698913 70.5479984-28.3646603 19.7351727-5.1198354 3.7420774 17.0066604 35.3637696 17.0066603 36.480134-.0000001 83.829232 4.0296449 83.829232 8.358 0 7.1812-42.152884 11-95.369746 11z" fill="#c9c9c9"/><path d="m162.289711 5.52813945-58.055-.508-35.2679999 58.34400005 33.0799999 29.886 6.385-2.524 53.791-81.01800005z" fill="#d3d3d3" transform="matrix(.9945219 -.10452846 .10452846 .9945219 -4.502597 12.355607)"/><path d="m157.313085 8.14273003-51.814-1.019-33.6249999 54.87199997 30.5639999 27.487z" fill="#eaeaea" transform="matrix(.9945219 -.10452846 .10452846 .9945219 -4.421307 12.242901)"/><path d="m2.72917984 92.1164518c-.147 1.612 1.018 3.048 2.625 3.24l101.00700016 10.4990002c1.909.23 3.717-.914 4.329-2.737l.875-2.609-5.037-.7630002-103.55400016-10.347z" fill="#b2b2b2" transform="matrix(.9945219 -.10452846 .10452846 .9945219 -9.893355 6.507747)"/><path d="m102.086974 91.2756748 60.243-87.722 1.642.896c1.428.959 1.815 2.888.867 4.324l-58.959 86.671-3.067.524z" fill="#b2b2b2" transform="matrix(.9945219 -.10452846 .10452846 .9945219 -4.468914 14.250396)"/><path d="m105.040027 100.179426-33.0799999-29.8860001-44.218-3.974-26.25600004 23.513z" fill="#d3d3d3" transform="matrix(.9945219 -.10452846 .10452846 .9945219 -8.410154 6.023551)"/><path d="m103.586336 79.6938946-25.8059997-22.232 29.3789997-42.084 39.304 2.382z" fill="#eaeaea" transform="matrix(.9945219 -.10452846 .10452846 .9945219 -4.354639 11.98033)"/><path d="m88.4804001 43.132309-.041-1.588 12.8259999-8.896 1.333 8.336 16.822-14.612-.802 12.676 15.27-13.645.09 1.617-17.655 15.761.99-12.883-16.423 14.209-1.1999999-8.728z" fill="#e23a05" transform="matrix(.9945219 -.10452846 .10452846 .9945219 -3.023705 11.814889)"/><path d="m101.743524 35.9787035c-1.112 1.597-2.7570001 2.625-3.6750001 2.297-.918-.329-.798-1.836.268-3.365 1.067-1.529 2.7120001-2.557 3.6760001-2.298.964.261.844 1.768-.269 3.366" fill="#fff" transform="matrix(.9945219 -.10452846 .10452846 .9945219 -3.157902 10.653089)"/><path d="m101.222469 33.6346465c-.619-.176-1.6849997.49-2.3779997 1.486-.694.995-.772 1.971-.174 2.175.598.205 1.6649997-.462 2.3779997-1.485.713-1.024.791-2 .174-2.176z" fill="#e23a05" transform="matrix(.9945219 -.10452846 .10452846 .9945219 -3.160023 10.642295)"/><path d="m97.2778676 39.2940116c-1.228-.461-1.065-2.503.365-4.553 1.428-2.05 3.6600004-3.446 4.9740004-3.11s1.151 2.378-.364 4.554c-1.514 2.175-3.7450004 3.57-4.9750004 3.109z" fill="#e23a05" transform="matrix(.9945219 -.10452846 .10452846 .9945219 -3.161138 10.645061)"/><path d="m119.469344 28.301234c-1.267 1.825-3.091 3.117-4.076 2.887-.985-.231-.793-1.841.427-3.597 1.219-1.756 3.044-3.048 4.076-2.886 1.031.161.84 1.772-.427 3.596" fill="#fff" transform="matrix(.9945219 -.10452846 .10452846 .9945219 -2.277334 12.452151)"/><path d="m119.123107 25.9968348c-.66-.112-1.843.725-2.636 1.866-.793 1.143-.917 2.186-.275 2.326.64.142 1.823-.696 2.635-1.866.813-1.17.937-2.213.276-2.326z" fill="#e23a05" transform="matrix(.9945219 -.10452846 .10452846 .9945219 -2.292162 12.454252)"/><path d="m114.621956 32.4772614c-1.319-.328-1.061-2.512.577-4.868 1.637-2.355 4.111-4.107 5.516-3.905 1.404.202 1.145 2.386-.578 4.867-1.721 2.481-4.196 4.233-5.515 3.906z" fill="#e23a05" transform="matrix(.9945219 -.10452846 .10452846 .9945219 -2.292737 12.4569)"/><path d="m134.430757 24.0618842c-1.426 2.059-3.405 3.577-4.419 3.389-1.013-.186-.717-1.952.663-3.943 1.379-1.991 3.358-3.509 4.418-3.391 1.061.12.764 1.885-.662 3.945" fill="#fff" transform="matrix(.9945219 -.10452846 .10452846 .9945219 -1.76035 13.987598)"/><path d="m134.32656 21.696536c-.68-.084-1.962.9-2.857 2.193-.897 1.293-1.089 2.437-.429 2.551.66.112 1.942-.872 2.857-2.193.916-1.322 1.109-2.467.429-2.551z" fill="#e23a05" transform="matrix(.9945219 -.10452846 .10452846 .9945219 -1.789147 14.001808)"/><path d="m129.246097 29.0280385c-1.359-.269-.957-2.663.896-5.337 1.854-2.673 4.537-4.732 5.98-4.587 1.444.143 1.042 2.538-.897 5.336-1.938 2.799-4.62 4.857-5.979 4.588z" fill="#e23a05" transform="matrix(.9945219 -.10452846 .10452846 .9945219 -1.789419 14.004348)"/><g fill="#066dc1"><path d="m85.4013914 58.8086907-2.353-1.764 5.962-8.548 6.872-4.73z" transform="matrix(.9945219 -.10452846 .10452846 .9945219 -4.870923 9.632639)"/><path d="m97.4804572 66.3173563-2.353-1.764 19.7299998-28.41-.426 5.748z" transform="matrix(.9945219 -.10452846 .10452846 .9945219 -4.779871 11.255345)"/><path d="m102.224299 69.5297848-2.352-1.763 14.537-20.956 2.794 1.114z" transform="matrix(.9945219 -.10452846 .10452846 .9945219 -5.485869 11.663952)"/><path d="m106.610097 70.7910238-2.353-1.764 18.897-27.268 9.824-9.037z" transform="matrix(.9945219 -.10452846 .10452846 .9945219 -4.76023 12.682443)"/><path d="m93.6566401 63.679127-2.353-1.764 8.377-12.046 8.5529999-7.169z" transform="matrix(.9945219 -.10452846 .10452846 .9945219 -5.013287 10.720041)"/><path d="m89.5606969 61.867503-2.352-1.762 11.648-16.73.49 4.428z" transform="matrix(.9945219 -.10452846 .10452846 .9945219 -4.98946 10.03844)"/></g></g><g transform="translate(-18 -9)"><path d="m153.741 195c0 2.762-28.6 5-63.87 5-35.28 0-63.871-2.238-63.871-5 0-2.761 28.591-5 63.871-5 35.27 0 63.87 2.239 63.87 5" fill="#c9c9c9"/><path d="m44 144s.89 24.732 6.61 45.581l5.51-1.902s-2.26-14.982 1.58-38.551z" fill="#6d8c8c"/><path d="m55.3039816 187.006352s6.18-.227 9.54 2.033c3.36 2.261 2.63 6.9 2.63 6.9h-16.11s-2.01-3.296-1.15-7.358z" fill="#6d8c8c"/><path d="m60.9544444 193.397.12-.008c.44-.064.74-.473.68-.913-.32-2.212-.05-4.035.24-5.186-.54-.121-1.07-.216-1.59-.29-.32 1.315-.59 3.303-.24 5.71.06.399.4.687.79.687" fill="#4c6672"/><path d="m56.9593194 193.642.12-.008c.44-.064.74-.473.68-.913-.37-2.508.03-4.517.35-5.612-.61-.06-1.17-.093-1.64-.109-.35 1.306-.68 3.392-.3 5.955.05.399.4.687.79.687" fill="#4c6672"/><path d="m90 144s2.08 27.805 10.9 45.581l5.51-1.902s-4.69-10.454-1.64-38.014z" fill="#6d8c8c"/><path d="m105.303982 187.006352s6.18-.227 9.54 2.033c3.36 2.261 2.63 6.9 2.63 6.9h-16.11s-2.0100004-3.296-1.15-7.358z" fill="#6d8c8c"/><path d="m110.954444 193.397.12-.008c.44-.064.74-.473.68-.913-.32-2.212-.05-4.035.24-5.186-.54-.121-1.08-.216-1.59-.29-.32 1.315-.59 3.303-.24 5.71.06.399.4.687.79.687" fill="#4c6672"/><path d="m106.962551 193.642.12-.008c.44-.064.74-.473.68-.913-.37-2.508.03-4.517.35-5.612-.61-.06-1.17-.093-1.64-.109-.35 1.306-.68 3.392-.31 5.955.06.399.41.687.8.687" fill="#4c6672"/><g fill="#6d8c8c" transform="matrix(-.37460659 -.92718385 .92718385 -.37460659 38.253752 159.967176)"><path d="m13.0227196 62.6640448s17.05 14.846 43.09 12.066c26.04-2.781 29.68-20.805 26.01-35.139-3.66-14.334-10.02-16.532-10.02-16.532l4.59-5.774s22.82 17.115 9.47 48.535c-11.37 26.752-58.1 23.325-75.65 9.982z" transform="matrix(-.91354546 -.40673664 -.40673664 .91354546 117.499729 24.975338)"/><path d="m59.9472656.93744574-4.25 5.43599999s8.91 1.569 7.55 4.99299997c-1.09 2.777-4.96 1.929-4.96 1.929s2.86 1.918.82 4.691c-1.13 1.538-4.84.492-4.84.492s.9 1.375-.33 2.865c-1.22 1.489-7.71 1.113-11.92-1.419s-3.51-6.817-.97-11.24499997c2.54-4.428 6.72-11.168 18.9-7.74199999" transform="matrix(1 0 0 -1 0 22.217352)"/></g><path d="m91.22 65-5.22 8.01 41.63 21.741 4.16-7.114z" fill="#94c4bf"/><path d="m170.949336 14.0579726c-2.3-2.955-4.73-5.09900004-6.49-6.45700004.52-1.869-.44-3.867-2.29-4.595-1.97-.779-4.2.189-4.98 2.161-.78 1.973.19 4.203 2.16 4.98100004 1.36.539 2.85.242 3.9-.64500004 1.64 1.28800004 3.89 3.29200004 5.98 5.99800004 5.24 6.759 7.15 14.481 5.67 22.953l2.21.385c1.99-11.398-2.25-19.767-6.16-24.781" fill="#afcec9" transform="matrix(-.78801075 -.61566148 -.61566148 .78801075 311.87567 107.387405)"/><path d="m88.6416124 65.4549033c-11.72-6.566-21.82-18.159 7.6-37.448 29.4199996-19.288 52.0199996-7.606 70.9499996 9.057 18.92 16.664 9.79 39.633-.83 48.1-10.63 8.4669997-18.64 13.3729997-35.02 4.3559997-16.39-9.0159997-42.6999996-24.0649997-42.6999996-24.0649997" fill="#cae5e1"/><path d="m108.511612 33.0724273c13.32-8.737 25.38-11.733 36.42-10.961-14.01-6.11-29.97-6.38-48.6899996 5.894-29.42 19.289-19.32 30.882-7.6 37.448 0 0 .42.244 1.2.686-5.46-7.596-3.87-18.293 18.6699996-33.067" fill="#daf2f0"/><path d="m112.395725 38.0464753c-11.24 10.693-17.86 24.474 12.84 42.964 25.95 15.6259997 38.32 3.281 42.32-4.786 4.01-8.069 6.02-20.636-10.1-35.351-16.13-14.715-31.35-15.863-45.06-2.827" fill="#e4f4f2"/><path d="m112.395725 38.0464753c-11.24 10.693-17.86 24.474 12.84 42.964 25.95 15.6259997 38.32 3.281 42.32-4.786 4.01-8.069 6.02-20.636-10.1-35.351-16.13-14.715-31.35-15.863-45.06-2.827" fill="#e4f4f2"/><path d="m158.39 40.659c-5.89-5.378-11.67-8.935-17.29-10.659 4.81 1.935 9.72 5.19 14.71 9.75 16.12 14.715 14.12 27.282 10.11 35.35-3.31 6.655-12.31 16.203-29.92 10.582 19.32 7.448 29.03-2.702 32.49-9.672 4.01-8.069 6.02-20.636-10.1-35.351" fill="#94c4bf"/><path d="m139.153444 135-24.47 33.058c-1.23 1.671-.75 4.045 1.04 5.096 1.55.905 3.52.501 4.59-.936l24.76-33.482z" fill="#3682e0"/><path d="m176.488941 120.744198c-7.95 11.74-22.38 16.073-29.83 12.09s-10.36-17.152.47-32.754c10.97-15.7929997 26.77-15.8479997 32.77-10.66 6.01 5.189 4.54 19.583-3.41 31.324zm6.86-37.6159997c-9.36-8.525-30.92-7.577-45.24 11.7139997-13.44 18.085-8.88 34.562 4.23 42.009 11.56 6.563 27.89 1.708 37.82-12.965s12.08-32.665 3.19-40.7579997z" fill="#3682e0" fill-rule="nonzero"/><path d="m83.9960557 67.5890413c11.19 5.763 34.9800003 21.2359997 41.6200003 24.5469997 6.65 3.311 5.21 8.531 2.56 14.173s-12.8 20.916-16.82 36.887c-4.02 15.969-15.5900003 11.778-28.4400003 10.913-12.84-.866-21.61-1.549-27.43-1.997-6.95-.538-14.36-.428-15.37-20.121-1.01-19.692 4.68-44.301 12.87-57.4609997 8.19-13.16 16.42-14.446 31.01-6.941" fill="#cae5e1"/><path d="m54.4660557 137.692041c-1.02-19.693 4.67-44.302 12.86-57.4609997 5.69-9.139 11.4-12.547 19.25-11.267-.92-.5-1.79-.965-2.58-1.375-14.59-7.505-22.82-6.219-31.01 6.941-8.19 13.1599997-13.88 37.7689997-12.87 57.4609997 1.01 19.693 8.42 19.583 15.38 20.121.71.054 1.47.113 2.28.175-1.73-2.907-2.94-7.44-3.31-14.595" fill="#daf2f0"/><path d="m70.0433514 73.070656c3.16.507 5.23 3.575 4.53 6.701-2.21 9.879-4.32 30.504 11.32 45.272 19.4199996 18.328 36.4199996 16.467 36.4199996 16.467l-2.18 7.148s-30.4299996-1.628-49.1699996-25.673c-14.15-18.147-9.95-37.731-7.04-46.247.87-2.551 3.46-4.095 6.12-3.668" fill="#6d8c8c"/><path d="m135.947266 137.937446-4.25 5.436s8.91 1.569 7.55 4.993c-1.09 2.777-4.96 1.929-4.96 1.929s2.86 1.918.82 4.691c-1.13 1.538-4.84.492-4.84.492s.9 1.375-.33 2.865c-1.22 1.489-7.71 1.113-11.92-1.419s-3.51-6.817-.97-11.245 6.72-11.168 18.9-7.742" fill="#6d8c8c"/><path d="m135.682629 63.7272586c-1.31 1.294-3.43 1.276-4.72-.042-1.3-1.317-1.28-3.433.04-4.727 1.31-1.294 3.43-1.275 4.72.042 1.3 1.317 1.28 3.433-.04 4.727" fill="#639296"/><path d="m152.692629 74.7272586c-1.32 1.294-3.44 1.275-4.73-.042-1.3-1.317-1.28-3.433.04-4.727s3.43-1.275 4.73.042c1.29 1.317 1.27 3.434-.04 4.727" fill="#639296"/><path d="m114.086822 108.008417c-.94-.441-1.35-1.572-.91-2.514l7.21-15.407c.44-.941 1.58-1.351 2.52-.91.94.44 1.35 1.571.91 2.513l-7.22 15.407c-.44.941-1.57 1.351-2.51.911" fill="#94c4bf"/></g></g></svg>