<svg height="200" viewBox="0 0 536 200" width="536" xmlns="http://www.w3.org/2000/svg"><g fill="none"><g fill="#a31d6a" transform="translate(2)"><path d="m23.2965064 149.616984c-.1085111-4.72467.5759438-27.458532 23.1796483-37.082922 22.5536226-9.600938 40.4830012-3.010187 48.4377023 1.185983-6.0682767-8.524675-13.9728957-24.8352974-6.8028136-45.9384325 10.3335986-30.423491 41.3761316-27.9954076 47.4360606-27.2064271.250411-2.4883876 1.310481-9.0272103 5.80952-16.2277045 5.166799-8.2583312 16.042954-18.93218234 38.546494-22.89383614 25.107808-4.41979853 41.618195 2.0746335 51.04197 8.30020912 8.330316 5.49522422 12.687456 11.62448052 14.123142 13.91604182 4.749449-3.3485606 28.488347-18.33835303 54.372427-3.9867806 4.916389 2.7287671 8.897913 5.8662629 12.111512 9.1938845 4.574162-2.7480308 9.924595-4.3310172 15.642298-4.3310172 7.069918 0 13.580586 2.4222204 18.755732 6.4760057 2.186917-2.9540704 5.317046-5.8738009 9.791044-8.3211481 14.874372-8.1385602 28.747104-2.5344534 31.860539-1.0737506 2.34551-2.3116626 12.695803-11.22664 27.611911-5.7808318 13.997937 5.1057593 16.084689 17.6574176 16.376835 22.0412011 2.871371-1.3702464 31.526658-7.3102144 48.028698 14.5190843 16.560469 21.9021663 9.665838 43.7993073 6.05993 49.121157 7.470574 2.24717 12.53721 6.260753 15.066354 11.94359 4.282016 9.634441 0 21.05707-1.644361 24.798446 34.489847 3.714573 34.898851 34.477276 34.898851 34.79136 0 .518449-.425698.938904-.934865.938904h-532.13026982c-.51751465 0-.93486518-.420455-.93486518-.938904 0-18.037669 19.006143-22.637543 23.2965064-23.444112" fill-opacity=".645529"/><path d="m23.3018883 149.617822c-.1085362-4.463352.5009363-24.986896 19.6200062-35.360901 7.3971598-4.551296 21.022628-11.461157 37.536829-12.99054 0 0-6.8878746-22.4608177 15.286907-47.2626131 13.4000465-15.7980368 34.8985645-14.0709902 39.8327875-13.4285825.250468-2.4883876 1.310783-9.0272103 5.810861-16.2277045 5.167993-8.2583312 16.04666-18.93218234 38.5554-22.89383614 25.113608-4.41979853 41.627809 2.0746335 51.05376 8.30020912 8.332241 5.49522422 12.690387 11.62448052 14.126405 13.91604182 4.750546-3.3485606 28.494928-18.33835303 54.384987-3.9867806 11.655119 6.4634424 18.033708 15.2159333 21.490169 23.367057 0 0-15.888031-9.6955823-48.290262 4.4801027-29.805712 13.0433055-28.478231 34.6975543-28.478231 34.6975543s-28.595115-12.3514817-56.021379 4.9432729c-27.417915 17.294755-16.75632 42.294214-16.75632 42.294214s-13.550328-18.812411-44.090746-15.327329c-22.241573 2.537804-30.4485801 15.324816-35.1156369 21.351053 0 0-33.571083-6.376336-44.6167291 14.768677 0 0-28.2361111-2.22707-30.9161205 23.742283h-15.77949435c-.51763421 0-.93508115-.421292-.93508115-.938904 0-18.037669 19.0105337-22.637543 23.3018883-23.443274" fill-opacity=".598971"/><path d="m493 172c-.092534-3.700668-.723446-7.691316-2.153513-11.93783-7.856958-23.368193-31.453067-21.502934-36.062931-20.896533-.185067-1.911315-.992635-6.933954-4.416384-12.464913-3.928479-6.342905-12.197632-14.540835-29.299554-17.583928-19.087191-3.395335-31.638134 1.593189-38.805295 6.374462-6.325944 4.22178-9.640335 8.929705-10.733916 10.689206-3.608817-2.572301-21.6529-14.085394-41.328943-3.061856-8.858004 4.964643-13.703409 11.687081-16.336415 17.947257-29.888405 2.774434-27.903135 24.096557-27.802189 30.934135z"/></g><path d="m.11553757 171.986546s-2.35810904 2.298896 14.23227523 4.825048c19.4669427 2.964193 52.9738327.745165 57.6064299 6.218219 5.0507016 5.976143-18.4300438 4.275849-18.0035773 11.254055.3595699 5.93168 25.7301474 5.715129 54.3201286 5.715129h268.515035c23.154624 0 18.965217-5.170871 15.687278-7.524934-4.758028-3.41788-2.667506-6.572276 18.170819-7.007848 20.227893-.422397 35.037153-.786334 46.083472-.786334 29.434553 0 23.656349-7.15441 46.593559-7.15441 14.834345 0 32.679043-2.750113 32.679043-5.937445-75.292248-6.589566-159.297792-11.103374-250.712147-11.551297-105.111457-.51544-200.8239254 4.440527-285.17231543 11.949817" fill="#efefef"/><g transform="matrix(-1 0 0 1 478 66)"><g fill="#b5e5e0" transform="translate(44.441145 11.988841)"><path d="m50.2926439 45.3718476.5261071 2.3452957s-9.44751 6.0580055-18.5600545-2.2480684l2.6971538-4.409505s6.5828734 9.3805597 15.3367936 4.3122777"/><path d="m49.6320533 46.3254225s-1.8429309-4.6612985.3212671-4.9928684c1.7812922-.2729842.8816182 3.2215874 3.7375384 2.8476365 2.8559195-.3745742 1.2757309-3.3954747 2.3316806-4.6369918 1.0559497-1.2427637 2.3360388.5727682 2.0141486 2.7703533 0 0 .9295592 1.2982331-.013697 3.5942919 0 0-.2446865 3.1243602-3.6802579 3.6023942-3.4349489.4767874-4.7106798-3.1848157-4.7106798-3.1848157"/><path d="m52.7451112 50.064932s-1.8429301-4.6612985.3212678-4.9928684c1.7812922-.2729842.8816182 3.2215874 3.7375377 2.8476365 2.8559202-.3745742 1.2757316-3.3954746 2.3316814-4.6369918 1.055949-1.2427636 2.3360388.5727682 2.0141485 2.7703533 0 0 .9295592 1.2982331-.0136976 3.5942919 0 0-.2446865 3.1243602-3.6802573 3.6023941-3.4349489.4767875-4.7106805-3.1848156-4.7106805-3.1848156"/><path d="m12.2037513 18.0428889s-9.67663081 17.8904367-11.50088304 22.0724549c-1.8254975 4.1832646-.04296018 6.4375656 4.74056535 8.5497652 4.78352559 2.1121997 11.02396249 4.8613624 14.46451489 6.4612493 3.440552 1.5998866 6.4490116 1.5163709 9.4170015-3.4303768 2.9679899-4.9467479 5.8650023-9.5675351 7.5435636-13.2983191 1.6791838-3.730784 2.7089833-5.633571-2.0409213-8.4737285-4.7499046-2.8407808-22.623841-11.881045-22.623841-11.881045"/><path d="m18.7965866 18.2585339c4.0065062 2.0903859 15.4650514 8.4244917 17.5103309 9.720855 2.0446569 1.2969866 5.1110195 1.6379052 7.9065461-2.7971531 2.796149-4.4363048 8.8628774-15.1499995-1.7028428-22.35977388-12.290355-8.38709657-24.4119819 4.2948267-26.5182774 7.34688968-2.1069179 3.0508165-2.3596982 5.3948658 2.8042432 8.0891823"/></g><path d="m91.4208722 22.7265979c-2.387093-2.2156594-6.456483-5.5282416-10.3546553-6.5048768-6.0200323-1.5088921-10.737561 3.8037044-12.7025235 7.4110845-1.9662076 3.6073803-1.7040881 5.2471551 3.4063087 8.0667453 4.1814603 2.3072774 10.9143825 7.6585155 14.9071918 6.2113253.2963632-.3589929.5908582-.7647297.8822407-1.2265591 1.8099318-2.8719433 5.0468903-8.4830773 3.8614376-13.9577192" fill="#e9f4f2"/><path d="m81.2822631 25.442105c0 .7709622-.624479 1.3960835-1.3952726 1.3960835-.7695478 0-1.3946501-.6251213-1.3946501-1.3960835s.6251023-1.3960835 1.3946501-1.3960835c.7707936 0 1.3952726.6251213 1.3952726 1.3960835" fill="#32495b"/><path d="m88.3227561 29.2564047c0 .6506746-.527352 1.1785688-1.1773582 1.1785688-.6500068 0-1.1773588-.5278942-1.1773588-1.1785688 0-.6506747.527352-1.1779455 1.1773588-1.1779455.6500062 0 1.1773582.5272708 1.1773582 1.1779455" fill="#32495b"/><path d="m31.2286419 30.7247854-3.5968278-.0037395 1.6847873 2.7504093-3.4430427 2.2773613-.9308045-1.1050251s-1.0092535 1.5088921-.47443 2.7828183c.5342008 1.2745495 2.1374259 1.4079253 2.1374259 1.4079253s-.8461293 1.0321047.1780669 2.0760511c1.0241962 1.0445697 4.9703091-.2162683 6.6494928-2.7959066 1.6785611-2.5796384.230989-6.015001-2.2046679-7.3898941" fill="#e1f9f8"/><path d="m30.8046433 31.4433945s8.6007578-10.3197997 25.8402528-1.4116648v2.9922309l-2.336039.7971387s-11.8414517-6.6064668-20.6588784-1.0046815c-.8330544.5291406-1.9356997.2661284-2.4144882-.5964518z" fill="#e1f9f8"/><path d="m75.3400571 92.9801396 5.9696013 4.1246793 3.6447688.372081c1.1225691.1153014 2.0097904 1.0040584 2.1249733 2.1271578l.0784494.7690923h-7.2584074l-5.2778791-4.2081943c-.4868823-.3882863-.6045558-1.0813419-.2727035-1.6086128z" fill="#394c59"/><path d="m75.3400571 92.9801396s10.4057094-16.9499499-9.8677724-25.4024876l2.0533734-3.0944444s22.0292468 7.2739695 9.6143694 29.7409422z" fill="#b5e5e0"/><path d="m48.0852306 59.6056406s-12.4335554 23.7284345-31.7681387 7.2502857l1.9139083-2.2592869s13.8636945 15.4840626 26.9074094-8.2350233z" fill="#e1f9f8"/><path d="m18.3685974 64.6951131-2.2476282 2.8021391c-1.5048524 1.8753639-2.5128607 4.1016185-2.9300106 6.4712215-.1955 1.1118803-1.1449828 1.9333262-2.2731552 1.9669817l-.7714159.022437.1637469-2.2611568c.2347246-3.2278196 1.5559066-6.2805061 3.7481224-8.6594574l1.1891882-1.2901307c.4221308-.45809 1.1213237-.5254011 1.6225261-.155813z" fill="#394c59"/><path d="m48.7209172 53.9957531c1.6281296-3.733277 9.1343361-17.7258983 11.5108449-22.139766-2.1567269-1.1006623-3.586866-1.8242574-3.586866-1.8242574s-9.6766308 17.8904367-11.500883 22.0724548c-1.7763112 4.0717026-.1344842 6.3154084 4.3651305 8.3802409-1.7034656-1.6590958-2.023488-3.6591101-.7882264-6.4886723" fill="#e1f9f8"/><path d="m78.9263004 12.0072939c-9.1380716-.4412622-16.8528529 7.7738169-18.4928121 10.1508985-1.8560055 2.6874609-2.2712875 4.8270836 1.1866978 7.1405934 1.2832028-2.9835053 6.2939816-12.9898095 17.3061143-17.2914919" fill="#e1f9f8"/><path d="m73.0407523 4.64793915c-.6724208-1.18978727-1.4332523-2.09412532-1.9954702-2.6787353.2876462-.64693515.0460728-1.41976711-.5802744-1.78125303-.6693076-.38703924-1.5253987-.1570594-1.9120402.51293605-.3860196.67061871-.1568982 1.52758963.5130319 1.91400562.4632234.26799817 1.0148569.23995186 1.439478-.02430682.5254846.55344741 1.2271681 1.3967068 1.8385727 2.48615057 1.5278887 2.72049319 1.8024605 5.61051076.8162439 8.59027656l.7751517.2574029c1.3267851-4.00875419.245309-7.25714142-.8946934-9.27647655" fill="#32495b"/><path d="m75.7976773 39.9869272-2.5053897 4.8738274c-.1811803.3527604-.0410922.7896598.3113058.971026.3517755.1813662.7888493.0411346.970029-.3110026l2.4898239-4.8426647z" fill="#74a5a1"/><path d="m92.9906349 105.572827c0 1.340485-20.8172529 2.427173-46.4953176 2.427173-25.6807909 0-46.4953173-1.086688-46.4953173-2.427173s20.8145264-2.427173 46.4953173-2.427173c25.6780647 0 46.4953176 1.086688 46.4953176 2.427173" fill="#cececc"/></g><path d="m64.1963498 46.4112378.0029866-5.9997172c.000894-1.8000656-1.4457349-3.1059535-3.4398308-3.1049624-1.5186845.0007578-2.8232138.8796255-3.2485461 2.2007375-.0177471.1673781.0256972.4705016.5168171.6222057.5388424.1655965.7377885-.1120721.8100371-.2952739.2800096-.8046399 1.0341608-1.3251763 1.9210939-1.3256179 1.2086341-.0006018 2.0857689.8079754 2.0852147 1.9220152l-.0002376.4776605c-.0001113.2234097-.2982082.3691129-.5797278.4316874l-2.3999166.6285473c-1.7958665.4101024-2.495988 1.1066316-2.4966741 2.4843249-.0007955 1.6011031 1.4383652 2.8103343 3.353156 2.8233516.0259314.0003087.0511137-.0042172.0747954-.0143839.0894638-.0387839.2939753-.1705245.2941717-.5658169.0001964-.39454-.2034187-.5527812-.2928386-.6035116-.0247975-.0139038-.0518528-.019908-.0796635-.0202703-1.1582669-.0140916-1.9948795-.6906741-1.9944171-1.6200436.0004273-.8586606.4703326-1.122548 1.4588539-1.3596138 0 0 1.7387662-.4578399 2.4236104-.6631612.1161453-.03466.2314785.0532925.2291632.1744012l-.0062026.3802509.0038361 2.1099784c-.0000129.0255754.0052359.0511484.0149958.0744624.242871.5708149.6590477 1.0335998 1.204582 1.3455.1168499.0597433.1447099-.0391876.1447409-.1027503" fill="#3682e0" fill-opacity=".9" transform="matrix(.89879405 -.43837115 .43837115 .89879405 342.787978 96.92585)"/><path d="m3.921176 67.4228514 5.84906267-19.9333093c-.00250763-2.6379236 2.25893613-4.7818905 5.04112613-4.7792586l4.3825725.0041648.001834 1.9293718-4.3825718-.0041575c-1.6602084-.0015749-3.0095692 1.2777394-3.0080727 2.8518099l-5.84906272 19.9333094z" fill="#32495b" transform="matrix(.93358043 -.35836795 .35836795 .93358043 336.20892 73.799749)"/><path d="m12.0639346 43.468618 2.7631705.0026214c.104837.0000992.1897412-.0774992.1896501-.1733314l-.0020554-2.1619257c-.0000911-.0957853-.0851432-.173545-.1899801-.1736444l-2.7631699-.0026215c-.1047856-.0000992-.1896898.0774992-.1895988.1732846l.0020555 2.1619256c.0000911.0958323.0851424.1735919.1899281.1736914" fill="#bcbbb7" transform="matrix(.93358043 -.35836795 .35836795 .93358043 340.939944 73.621959)"/><g transform="matrix(.75470958 .65605903 -.65605903 .75470958 364.651265 133.354485)"><path d="m1.51110852.01264956-1.38465804.53001388c-.10394077.03978604-.1537638.16147599-.11128818.27181512l.5990964 1.55627584 1.76104625-.67408627-.59909639-1.55627584c-.04247562-.11033913-.16115927-.16752876-.26510004-.12774273" fill="#bcbbb7"/><path d="m.44221477 2.12136594.91770722 5.90426297c.03499923.22505445.28441234.35163531.51731974.26248394l3.95636066-1.51439996c.23285876-.08913276.33326897-.34961757.20825958-.5402183l-3.27996341-5.00004797z" fill="#32495b"/></g><path d="m23.8164049 36.1059787-.0005616-.5908964c-.0001155-.1210801-.1157733-.2126124-.2408934-.1906756l-9.0637744 1.587946c-.4350274.0762062-.7503759.4368962-.7499767.8578005l.0023986 2.522225 9.8140134 1.9241827c.1263208.024776.244539-.0668846.244423-.1895149l-.0005617-.5904964c-.0000803-.084771-.0581479-.1597445-.1432465-.1850816l-7.0898031-2.1085445-.0009153-.9632887 7.080536-1.8873008c.0877865-.0234225.148444-.0995338.1483617-.1863553" fill="#32495b" transform="matrix(.93358043 -.35836795 .35836795 .93358043 342.529539 75.309459)"/><path d="m25.9681466 75.4549754-6.152162-.0058391c-1.2518347-.0011873-2.2676443-1.0845691-2.2689133-2.4192149l-.0259236-27.266476c-.0037136-3.9095673 10.6816323-3.8994309 10.6853488.0101365l.0259239 27.266476c.0012651 1.3346458-1.0124863 2.4161018-2.2642738 2.4149175" fill="#d13e3e" transform="matrix(.93358043 -.35836795 .35836795 .93358043 335.499209 78.126735)"/><path d="m15.6464313 44.7226145 2.5141988.002385-.0017887-1.8816759-2.5141989-.002385z" fill="#d13e3e" transform="matrix(.93358043 -.35836795 .35836795 .93358043 340.607903 74.965409)"/><path d="m26.3572722 70.4369308-6.9451884-.0065889c-.3385226-.0003213-.6132274-.2618703-.6135338-.5841525l-.0161827-17.0223924c-.0003055-.3222821.2739017-.5833106.612425-.5829903l6.9451885.0065893c.3385233.0003212.6132273.2618703.6135338.5841524l.0161827 17.0223921c.0003062.3222821-.2739018.5833107-.6124251.5829903" fill="#f1f0ed" transform="matrix(.93358043 -.35836795 .35836795 .93358043 334.713182 78.272138)"/><path d="m23.4562667 55.3848568-4.9325443-.0046791c-.2000214-.0001897-.3623353-.1407766-.3625001-.313977-.0001639-.1732005.161882-.3134384.361904-.3132487l4.9325443.0046792c.2000221.0001897.3623353.1407354.3625001.3139359.0001646.1732004-.161882.3134794-.361904.3132897" fill="#3b3c39" transform="matrix(.93358043 -.35836795 .35836795 .93358043 336.834847 77.179688)"/><path d="m24.0850454 56.6388499-4.9325443-.0046791c-.2000221-.0001904-.3623353-.1407356-.3625001-.3139359-.0001646-.173201.161882-.3134795.3619041-.3132899l4.9325443.0046791c.2000214.0001897.3623353.1407767.3625001.3139771.0001639.1732003-.161882.3134383-.3619041.3132487" fill="#3b3c39" transform="matrix(.93358043 -.35836795 .35836795 .93358043 336.427219 77.488311)"/><path d="m18.1596232 41.9034705c.0008208.8660417-.7020156 1.5673959-1.569886 1.5665748-.8678286-.0008255-1.572042-.7035144-1.5728675-1.5695562-.0008208-.8659998.7020574-1.5673958 1.569886-1.5665747.8678705.0008254 1.5720419.7035562 1.5728675 1.5695561" fill="#3b3c39" transform="matrix(.93358043 -.35836795 .35836795 .93358043 341.261108 74.727807)"/><path d="m17.5308442 41.903443c.0008214.8660114-.702073 1.567423-1.5699131 1.5666018-.8678401-.0008253-1.5720142-.7035717-1.5728398-1.5695831-.0008214-.8660114.7020189-1.5673688 1.5698583-1.5665477.8678401.0008254 1.572069.7035177 1.5728946 1.569529" fill="#f1f0ed" transform="matrix(.93358043 -.35836795 .35836795 .93358043 341.219345 74.502473)"/><g fill="#d13e3e"><path d="m26.7563189 64.1580097s-.1350702.3562934-.4732971.667922c0 0 .325221-1.1536371-.7369927-2.6696217-.8772314-1.2519522-.8187919-2.3859603-.8187919-2.3859603s-2.2969197 1.335852-2.452516 3.8755733c0 0-.3794762-.4420076-.9698778-.595865 0 0 .2379085.9915527.1033675 1.9049134-.1191706.8086649.4071796 2.0578543 2.0020675 2.335124-.6821151-.2073404-.9139938-.7205024-.9751603-1.1340965-.0774947-.5239228.1195864-.8995421.1195864-.8995421.1620351.3762578.3991896.5213025.3991896.5213025.0903602-1.4757741 1.5262708-2.7964292 1.5262708-2.7964292s-.0339295.6589188.4758028 1.3864251c.6172605.8809546.8416042 1.2344656.8014046 1.9011624-.0165153.2741547-.1799361.8175317-.9378464 1.0282161 1.7082529-.2455785 1.9861524-1.3560771 2.1056045-1.8691041.1348582-.5792492-.1235311-1.1363132-.1688115-1.2700199" transform="matrix(.93358043 -.35836795 .35836795 .93358043 334.010182 78.868836)"/><path d="m25.7993582 67.2933304c-.6273916.0340187-.710607-.3298846-.7199328-.4770967-.0180596-.2846901.0793449-.435423.3474252-.8109855.2213859-.3101409.2060519-.5914418.2060519-.5914418s.5703804.3250483.6937819 1.191317c0 0 .1131387.6534951-.5273262.688207" transform="matrix(.93358043 -.35836795 .35836795 .93358043 333.10363 79.619408)"/><path d="m15.3301418 40.9610806c-.4569028-.0004325-.8386726.4616289-.9417728 1.0837322l.3573065.1701638c.0531367-.4022115.2945849-.7056701.5849874-.7053945.2904026.0002754.5324285.3041926.58633.7065057l.3570257-.1694863c-.1043246-.6222999-.4869322-1.0850865-.9438768-1.0855209" transform="matrix(.93358043 -.35836795 .35836795 .93358043 341.289926 74.256505)"/></g><g transform="translate(0 55)"><path d="m333.74 118.436c0 4.107-74.71 7.436-166.87 7.436s-166.87-3.329-166.87-7.436 74.71-7.436 166.87-7.436 166.87 3.329 166.87 7.436" fill="#c9c9c9"/><path d="m101.857 82.255-61.592-19.825 30.343 24.755-27.186.964 17.14 8.664-39.562 17.407 39.608 5.988 224.799-.611-40.469-16.961 32.917-18.846-47.336-4.586 7.966-15.489-25.107 8.229 14.034-60.944-42.567 55.116-3.428-43.255-23.552 44.85-14.77-11.452-1.497 32.211-23.595-26.377 1.066 23.028-12.62-11.023z" fill="#ff8806"/><path d="m179.599 108-45.599.197 3.714 12.495 32.018-.08z" fill="#fff800"/><path d="m124.510674 39.943-8.933-7.943s-15.7460003.2-27.1920003 15.294-9.209 26.584-9.209 26.584l10.922 8.492z" fill="#1c9cad"/><path d="m129.135994 37.0871323s-22.006-2.465-37.1279996 18.827c-15.122 21.292-4.184 40.018-4.184 40.018l36.4409996 25.3159997 13.502-.059 8.989-11.319 8.442 11.137 5.822-5.948 8.765 6.05 89.505-.388s11.787-21.1309997 4.695-43.8899997c0 0-39.86-1.545-62.57 22.301l-4.484 14.3309997-9.596-21.5169997z" fill="#7fecef"/><path d="m143 .076 5.338-.076s26.336 15.199 18.375 74.895l-4.75 2.118z" fill="#1c9cad"/><path d="m142.923 0s27.483 19.993 18.963 76.937l-30.886-28.929s9.895-25.56 11.923-48.008" fill="#3bbfd1"/><path d="m46.232 86-.232 7.228s20.676 24.72 71.387 20.186l.162-5.371z" fill="#1c9cad"/><path d="m85.074 83-39.074 2.534s22.621 27.156 71.317 22.043z" fill="#3bbfd1"/><g fill="#1c9cad" transform="translate(115 57)"><path d="m13.2551299 6.59807298c.0149431 3.66000002-2.9390569 6.64100002-6.59905692 6.65606472-3.66.0159353-6.641-2.9380647-6.65607298-6.59806472-.01692702-3.661 2.93807298-6.641 6.59807298-6.65607298 3.66000002-.01692702 6.64100002 2.93807298 6.65705692 6.59807298"/><path d="m47.4571081 36.2070461c.0129459 2.887-2.3180541 5.238-5.2060541 5.2510461-2.888.0119539-5.238-2.3190461-5.2510541-5.2070461-.0129459-2.887 2.3180541-5.238 5.2060541-5.2510461 2.888-.0119539 5.238 2.3190461 5.2510541 5.2070461"/></g></g></g></svg>