<?xml version="1.0" encoding="UTF-8"?>
<svg width="387px" height="262px" viewBox="0 0 387 262" version="1.1" xmlns="http://www.w3.org/2000/svg" xmlns:xlink="http://www.w3.org/1999/xlink">
    <!-- Generator: Sketch 50.2 (55047) - http://www.bohemiancoding.com/sketch -->
    <title>Group 2</title>
    <desc>Created with Sketch.</desc>
    <defs>
        <path d="M55.7882207,193.436825 C55.7882207,193.436825 4.71178606,167.890433 1.33316112,118.925107 L22.3797806,125.655213 C22.3797806,125.655213 -1.93717455,96.2620113 9.32490857,61.7252407 L21.2367273,75.5814839 C21.2367273,75.5814839 23.3880739,44.1960548 44.7884383,32.7449734 L54.4959689,47.6830564 C54.4959689,47.6830564 65.1444129,20.0092072 81.9918154,11.3182662 C81.9918154,11.3182662 78.6637255,34.9424605 84.9084062,46.6591722 C84.9084062,46.6591722 101.738964,31.5931037 107.781505,0.866920755 C107.781505,0.866920755 138.400895,23.5662386 140.913205,51.1507394 C140.913205,51.1507394 155.669422,44.8021748 163.622667,30.9338576 C163.622667,30.9338576 174.757209,52.4885502 166.365995,72.5726169 C166.365995,72.5726169 178.443857,69.7931578 186.079453,60.7544827 C186.079453,60.7544827 195.192596,92.4683275 177.972197,118.089579 C177.972197,118.089579 188.300586,117.780482 198.518279,111.32325 C198.518279,111.32325 192.552744,189.474104 130.592036,205.689627 L55.7882207,193.436825" id="path-1"></path>
        <linearGradient x1="-0.00122039028%" y1="50.0005895%" x2="100.000244%" y2="50.0005895%" id="linearGradient-3">
            <stop stop-color="#FF9400" offset="0%"></stop>
            <stop stop-color="#FFC500" offset="100%"></stop>
        </linearGradient>
    </defs>
    <g id="Page-1" stroke="none" stroke-width="1" fill="none" fill-rule="evenodd">
        <g id="Group-2" transform="translate(0.000000, -1.000000)">
            <g id="Group">
                <path d="M299.962271,171.726311 C299.962271,171.726311 306.791714,154.989186 296.785786,139.309753 C287.619702,124.943983 265.581634,123.746231 265.581634,123.746231 C263.372533,119.940473 250.43317,98.4582253 223.90952,92.5129359 C201.166369,87.4152487 177.008238,95.6642774 160.743191,113.792339 C148.121476,102.561006 130.398134,100.264511 116.809035,107.789094 C101.080621,116.501768 98.4696467,134.183088 98.2097525,136.184975 C78.669557,138.324506 42.5490724,168.574969 46.690535,211.479095 C23.3698411,232.222407 59.6900592,232.695712 59.6900592,232.695712 L328.218549,232.850261 C338.907902,184.177128 299.962271,171.726311 299.962271,171.726311" id="Fill-723" fill="#FFE600"></path>
                <path d="M30.459178,236.793664 L357.31467,236.793664 C357.31467,236.793664 358.344621,222.980887 345.881731,217.335036 C333.416433,211.689184 322.346864,220.51777 322.346864,220.51777 C322.346864,220.51777 321.68991,212.449853 312.475697,210.228217 C303.26389,208.008997 298.828843,214.84777 298.828843,214.84777 C298.828843,214.84777 303.706673,192.781135 283.321821,181.04752 C261.293379,168.372124 240.232321,186.550897 240.232321,186.550897 C240.232321,186.550897 218.213505,167.08261 187.435291,176.266174 C159.532758,184.590062 154.688618,209.160866 154.688618,209.160866 C154.688618,209.160866 152.308661,199.689938 141.660217,196.731783 C129.320054,193.307566 121.207985,199.518486 121.207985,199.518486 C121.207985,199.518486 114.628811,175.213312 84.3607592,180.185429 C51.4023211,185.599458 55.1996645,210.455211 55.1996645,210.455211 C55.1996645,210.455211 43.4274186,205.514487 34.2011736,214.050879 C24.9749286,222.584857 30.459178,236.793664 30.459178,236.793664" id="Fill-724" fill="#FFE600"></path>
                <path d="M386.49261,237.701636 C386.49261,237.701636 388.042349,239.761479 377.14123,242.019336 C364.346253,244.673225 308.560438,242.673753 305.518713,247.57101 C302.197843,252.917424 326.709718,251.410575 326.428166,257.652888 C326.18993,262.960665 309.518197,262.767479 290.731213,262.767479 C271.939417,262.767479 120.007177,262.767479 104.788927,262.767479 C89.5730823,262.767479 92.3284424,258.140682 94.479789,256.034958 C97.6105519,252.97538 96.2364815,250.152454 82.5414996,249.763668 C69.2507977,249.384541 59.5167964,249.05854 52.2614159,249.05854 C32.916141,249.05854 36.711078,242.659264 21.6396193,242.659264 C11.8959923,242.659264 0.171875,240.198561 0.171875,237.346658 C62.3732264,232.147548 130.037169,229.049333 202.470653,229.404311 C267.973623,229.723068 329.486736,232.833357 386.49261,237.701636" id="Fill-725" fill="#AECCC6"></path>
                <g id="Group-728" transform="translate(81.343098, 0.112223)">
                    <mask id="mask-2" fill="white">
                        <use xlink:href="#path-1"></use>
                    </mask>
                    <g id="Clip-727"></g>
                    <path d="M55.7882207,193.436825 C55.7882207,193.436825 4.71178606,167.890433 1.33316112,118.925107 L22.3797806,125.655213 C22.3797806,125.655213 -1.93717455,96.2620113 9.32490857,61.7252407 L21.2367273,75.5814839 C21.2367273,75.5814839 23.3880739,44.1960548 44.7884383,32.7449734 L54.4959689,47.6830564 C54.4959689,47.6830564 65.1444129,20.0092072 81.9918154,11.3182662 C81.9918154,11.3182662 78.6637255,34.9424605 84.9084062,46.6591722 C84.9084062,46.6591722 101.738964,31.5931037 107.781505,0.866920755 C107.781505,0.866920755 138.400895,23.5662386 140.913205,51.1507394 C140.913205,51.1507394 155.669422,44.8021748 163.622667,30.9338576 C163.622667,30.9338576 174.757209,52.4885502 166.365995,72.5726169 C166.365995,72.5726169 178.443857,69.7931578 186.079453,60.7544827 C186.079453,60.7544827 195.192596,92.4683275 177.972197,118.089579 C177.972197,118.089579 188.300586,117.780482 198.518279,111.32325 C198.518279,111.32325 192.552744,189.474104 130.592036,205.689627 L55.7882207,193.436825" id="Fill-726" fill="url(#linearGradient-3)" mask="url(#mask-2)"></path>
                </g>
                <path d="M206.049011,32.4152846 C205.045531,30.5268945 202.706483,29.8121075 200.82225,30.8190879 C199.166627,31.7053272 198.418228,33.6299396 198.947642,35.3686107 C182.709066,48.1043769 192.866599,67.8865909 192.974888,68.0870211 L196.370358,66.2952238 C195.975704,65.5417997 186.508816,49.0123496 200.186953,37.2304377 C201.356477,38.1963662 203.033757,38.4209445 204.455956,37.6578611 C206.337783,36.6532955 207.050085,34.3060895 206.049011,32.4152846" id="Fill-729" fill="#718286"></path>
                <path d="M137.215544,253.880937 L162.403626,253.880937 L160.964582,243.881163 C160.964582,243.881163 140.230799,243.407859 137.215544,253.880937" id="Fill-730" fill="#718286"></path>
                <polyline id="Fill-731" fill="#718286" points="162.403626 253.880937 161.445868 204.12355 149.372819 204.12355 154.399847 247.223276 162.403626 253.880937"></polyline>
                <path d="M214.755468,188.724236 C218.434896,196.934628 222.364593,207.591233 225.079044,220.38254 C227.827185,233.33564 228.55152,244.803625 228.503391,253.880937 C231.318912,253.861619 234.134433,253.837471 236.95236,253.815737 C237.034178,243.690393 236.331501,231.331339 233.775875,217.489584 C231.40073,204.621003 227.990822,193.563537 224.588133,184.573159 C221.310578,185.954436 218.033023,187.340544 214.755468,188.724236" id="Fill-732" fill="#718286"></path>
                <path d="M176.844601,142.915081 L139.634004,146.382764 C134.012589,146.909195 130.039576,152.144527 131.035837,157.722763 L138.440416,199.165922 C139.756732,206.545615 146.355158,211.783362 153.815085,211.370428 L230.300993,207.144491 C237.938995,206.721897 243.562818,199.80102 242.434203,192.206408 L235.818932,147.71333 C234.950212,141.862219 229.665696,137.723216 223.798824,138.300358 L176.844601,142.915081" id="Fill-733" fill="#CBEDEF"></path>
                <path d="M216.288362,136.812828 C216.288362,136.812828 237.534715,136.907006 233.001005,113.966206 C228.464888,91.0254062 224.106847,75.428077 224.106847,75.428077 C224.106847,75.428077 220.148273,56.5683247 198.12705,58.9807309 C176.11064,61.3931371 129.113101,69.1350534 129.113101,69.1350534 C129.113101,69.1350534 106.598561,72.2670763 113.897257,98.4075141 C121.195953,124.547952 124.875381,134.781963 124.875381,134.781963 C124.875381,134.781963 127.245713,145.22365 147.399548,143.938965 C167.553382,142.65428 216.288362,136.812828 216.288362,136.812828" id="Fill-734" fill="#CBEDEF"></path>
                <path d="M233.001005,113.966206 C228.464888,91.0254062 224.106847,75.428077 224.106847,75.428077 C224.106847,75.428077 220.148273,56.5683247 198.12705,58.9807309 C196.582123,59.1521832 194.897624,59.3501985 193.126493,59.5675324 C209.4517,61.0864548 212.61856,76.089738 212.61856,76.089738 C212.61856,76.089738 216.971788,91.6870671 221.510311,114.627867 C226.046428,137.568667 204.800075,137.476904 204.800075,137.476904 C204.800075,137.476904 204.561839,137.505882 204.159965,137.554178 C204.2105,137.771512 204.249003,137.993675 204.27788,138.218254 C211.487539,137.387555 216.288362,136.812828 216.288362,136.812828 C216.288362,136.812828 237.534715,136.907006 233.001005,113.966206" id="Fill-735" fill="#E1F9F9"></path>
                <path d="M207.880303,79.1758793 C207.880303,79.1758793 215.068303,106.279831 215.152528,114.92972 C215.236753,123.579609 213.001182,131.290132 196.105651,132.198105 C179.207713,133.103663 151.625235,136.165656 144.401138,137.006014 C137.179448,137.848786 130.212839,134.074421 127.154269,121.592211 C124.098105,109.107586 115.372397,89.3833278 122.197027,80.8590096 C129.2623,72.0328386 175.468124,70.0864929 184.942231,69.4344912 C194.416338,68.7776599 204.8843,67.1524853 207.880303,79.1758793" id="Fill-736" fill="#E2F0EE"></path>
                <path d="M207.880303,79.1758793 C207.880303,79.1758793 215.068303,106.279831 215.152528,114.92972 C215.236753,123.579609 213.001182,131.290132 196.105651,132.198105 C179.207713,133.103663 151.625235,136.165656 144.401138,137.006014 C137.179448,137.848786 130.212839,134.074421 127.154269,121.592211 C124.098105,109.107586 115.372397,89.3833278 122.197027,80.8590096 C129.2623,72.0328386 175.468124,70.0864929 184.942231,69.4344912 C194.416338,68.7776599 204.8843,67.1524853 207.880303,79.1758793" id="Fill-737" fill="#EDF9F8"></path>
                <path d="M198.769566,131.362577 C181.871629,132.27055 154.291557,135.334958 147.067461,136.1729 C139.84577,137.013258 132.876754,133.238893 129.820591,120.756683 C126.759614,108.274473 118.033906,88.5502146 124.860943,80.0234815 C126.150788,78.4127958 128.752137,77.033933 132.188516,75.8482559 C127.435821,77.2078001 123.802114,78.8547081 122.197027,80.8590096 C115.372397,89.3833278 124.098105,109.107586 127.154269,121.589796 C130.212839,134.074421 137.179448,137.848786 144.401138,137.006014 C151.625235,136.165656 179.207713,133.103663 196.105651,132.198105 C200.369841,131.968697 203.697931,131.307036 206.29206,130.304885 C204.179217,130.838561 201.700596,131.205614 198.769566,131.362577" id="Fill-738" fill="#ABC9C3"></path>
                <path d="M242.434203,192.206408 L235.818932,147.71333 C234.950212,141.862219 229.665696,137.723216 223.798824,138.300358 L214.947982,139.169693 C218.470993,139.275945 221.495873,141.896026 222.0301,145.486865 L229.160346,193.442796 C230.106072,199.820339 226.287071,205.705258 220.516456,207.685411 L230.300993,207.144491 C237.938995,206.721897 243.562818,199.80102 242.434203,192.206408" id="Fill-739" fill="#E1F9F9"></path>
                <path d="M207.119872,178.34775 C207.119872,178.34775 199.724918,176.502827 201.471985,172.257571 C203.546326,167.205766 214.856538,173.648508 214.242899,179.758005 C214.021507,181.953078 213.030059,184.928137 211.432191,187.668959 C206.73725,195.724802 202.215571,195.492979 197.296833,193.532145 C194.040935,192.235386 191.615256,189.303793 191.822209,187.468529 C192.192799,184.220595 196.129715,185.217916 196.129715,185.217916 C196.129715,185.217916 192.467131,183.725556 193.499489,180.975075 C194.53666,178.224594 197.005655,178.898329 197.005655,178.898329 C197.005655,178.898329 193.371948,177.186221 194.681045,174.257043 C195.990142,171.32545 199.931871,172.967529 199.931871,172.967529 C199.931871,172.967529 199.640693,178.393632 207.119872,178.34775" id="Fill-740" fill="#718286"></path>
                <path d="M253.691473,253.880937 L228.503391,253.880937 L228.503391,243.883578 C228.503391,243.883578 250.676219,243.407859 253.691473,253.880937" id="Fill-741" fill="#718286"></path>
                <path d="M164.778771,117.252778 L164.225292,117.151355 C163.419139,116.844673 163.014859,115.94153 163.318069,115.13015 C164.576631,111.792867 167.962475,109.250061 171.942707,108.658429 C175.70636,108.093361 179.441137,109.327335 181.691147,111.870141 C182.266283,112.517313 182.208529,113.50739 181.563606,114.082117 C180.916277,114.65926 179.929642,114.598889 179.359318,113.951717 C177.797546,112.191313 175.13363,111.34854 172.402335,111.756645 C169.524247,112.186483 167.105787,113.946888 166.239473,116.240968 C166.003643,116.868821 165.409255,117.252778 164.778771,117.252778" id="Fill-744" fill="#718286"></path>
                <path d="M149.959987,180.245799 C149.959987,180.245799 156.572851,176.452115 153.740485,172.841958 C150.371486,168.548406 141.241498,177.840638 143.489102,183.549274 C144.297662,185.601872 146.059167,188.192975 148.340461,190.392877 C155.044769,196.862183 159.333024,195.403631 163.532241,192.1726 C166.314072,190.033069 167.849373,186.550897 167.151509,184.843619 C165.917011,181.815433 162.398813,183.851127 162.398813,183.851127 C162.398813,183.851127 165.517544,181.414573 163.77529,179.050463 C162.033036,176.688768 159.84078,178.009675 159.84078,178.009675 C159.84078,178.009675 162.87288,175.370276 160.81779,172.907158 C158.762701,170.446456 155.410546,173.102759 155.410546,173.102759 C155.410546,173.102759 157.167239,178.246327 149.959987,180.245799" id="Fill-745" fill="#718286"></path>
                <path d="M138.012072,157.488526 C137.896563,157.536822 137.525973,157.720349 137.263673,157.860408 L136.392546,158.340958 C135.81019,158.671788 135.232648,159.038841 134.662324,159.415553 C133.528896,160.178636 132.438785,161.009335 131.428085,161.905233 C129.399466,163.697031 127.662025,165.73514 126.396244,167.964019 C125.135276,170.197729 124.345967,172.61255 124.100512,175.145697 C123.970564,176.408649 124.004254,177.702993 124.112544,179.009411 C124.203988,179.663827 124.278587,180.320659 124.410941,180.979905 C124.560139,181.624662 124.678054,182.33462 124.863349,182.877954 C125.52993,185.208257 126.766834,187.157017 128.574061,188.543124 C130.364444,189.938891 132.727556,190.781664 135.247086,190.984508 C140.264489,191.428836 145.941252,189.311038 148.660516,185.452153 L148.686987,185.411102 C149.784318,183.853542 151.930852,183.48166 153.485404,184.582818 C154.996641,185.654998 155.384076,187.738989 154.383002,189.284474 C152.205184,192.638661 149.040731,195.0076 145.6597,196.526523 C142.259417,198.040616 138.560737,198.767477 134.79949,198.617758 C131.055088,198.463209 127.161488,197.359636 123.862275,195.01243 C120.534185,192.703861 118.103693,189.132341 116.907698,185.447324 C116.565985,184.500714 116.390316,183.655527 116.154486,182.771702 C115.942721,181.890292 115.793522,180.98232 115.641917,180.076762 C115.406087,178.248742 115.290579,176.379671 115.403681,174.493696 C115.61304,170.726575 116.681494,166.971528 118.399684,163.643905 C120.122686,160.311452 122.442483,157.411252 125.036612,154.93123 C126.336083,153.687597 127.714966,152.547802 129.15401,151.49977 C129.878345,150.978168 130.612306,150.471056 131.37755,149.995336 C131.757765,149.753854 132.1452,149.519616 132.547074,149.287794 C132.975418,149.043897 133.297879,148.857955 133.892267,148.565762 L134.007776,148.507806 C136.440674,147.310055 139.381329,148.317035 140.574918,150.75359 C141.768506,153.194974 140.767432,156.1483 138.33694,157.346051 L138.012072,157.488526" id="Fill-746" fill="#718286"></path>
                <path d="M132.871942,168.002657 C142.492841,161.579233 153.716421,155.689484 156.969912,144.767249 L139.634004,146.382764 C134.012589,146.909195 130.039576,152.144527 131.035837,157.722763 L132.871942,168.002657" id="Fill-747" fill="#CBEDEF"></path>
                <path d="M200.340964,161.603381 C200.420376,162.475131 201.082144,163.151281 201.905142,163.286511 L202.379209,163.303415 C203.411566,163.206822 204.164778,162.28919 204.070927,161.255647 C203.223865,152.17109 201.79204,144.530596 200.954603,140.546141 L197.202982,140.915609 C197.99951,144.6779 199.489088,152.451209 200.340964,161.603381" id="Fill-748" fill="#9AB7B0"></path>
                <path d="M236.408507,178.21735 C237.481774,176.816753 238.343275,175.264023 239.086861,173.667827 C239.452639,172.861277 239.779913,172.049897 240.039807,171.236102 C240.34061,170.434381 240.571628,169.591609 240.7858,168.739177 C241.668959,165.343939 241.842222,161.596136 241.25746,157.930438 C240.653446,154.25991 239.279376,150.741516 237.443271,147.631226 C235.816526,144.873501 233.852881,142.417628 231.715972,140.205652 C231.5018,139.927947 231.258751,139.664732 230.982012,139.425664 C228.806601,137.556593 225.541078,137.80049 223.685722,139.971414 C221.832773,142.144753 222.087854,145.41925 224.263265,147.288322 L224.342677,147.343863 C226.116214,148.993185 227.690018,150.792227 228.941361,152.70718 C231.679876,156.865502 232.741111,161.506788 231.759288,166.227763 C230.832813,171.083968 228.306064,175.04669 224.150163,177.628133 C222.109512,178.934551 219.73918,179.898065 217.224463,180.550067 C215.965901,180.880897 214.671243,181.124794 213.35974,181.298661 C212.707598,181.38801 212.048236,181.450795 211.393688,181.499091 C210.768017,181.544973 210.022024,181.569121 209.55277,181.566706 L209.348224,181.566706 C207.399017,181.561877 205.832433,183.097703 205.803556,185.09476 C205.772272,187.171506 207.415862,188.960888 209.468545,189.091289 C210.481652,189.156489 211.210799,189.156489 212.057862,189.14683 C212.878454,189.129926 213.68942,189.093704 214.495574,189.028503 C216.112693,188.900518 217.717781,188.683184 219.313242,188.357183 C222.499353,187.707596 225.666212,186.649905 228.621306,184.983678 C231.578806,183.3416 234.307695,181.057179 236.408507,178.21735" id="Fill-751" fill="#718286"></path>
                <path d="M149.870369,96.05312 C151.210369,98.97312 151.400369,101.76212 148.870369,102.91312 C146.380369,104.04512 144.270369,102.15712 142.930369,99.23712 C141.590369,96.31812 141.490369,93.49812 144.020369,92.33912 C146.550369,91.18012 148.530369,93.13312 149.870369,96.05312" id="Fill-930" fill="#6A8286"></path>
                <path d="M191.870369,91.05312 C193.210369,93.97312 193.400369,96.76212 190.870369,97.91312 C188.380369,99.04512 186.270369,97.15712 184.930369,94.23712 C183.590369,91.31812 183.490369,88.49812 186.020369,87.33912 C188.550369,86.18012 190.530369,88.13312 191.870369,91.05312" id="Fill-930" fill="#6A8286"></path>
            </g>
        </g>
    </g>
</svg>