<svg height="102" viewBox="0 0 196 102" width="196" xmlns="http://www.w3.org/2000/svg"><g fill="none"><path d="m15.282 88.4640282h149.919s.472-6.313-5.245-8.894c-5.716-2.581-10.794 1.455-10.794 1.455s-.3-3.688-4.527-4.703c-4.226-1.015-6.26 2.111-6.26 2.111s2.238-10.087-7.112-15.449c-10.103-5.794-19.763 2.515-19.763 2.515s-10.1-8.898-24.217-4.701c-12.797 3.805-15.021 15.036-15.021 15.036s-1.091-4.33-5.976-5.681c-5.66-1.565-9.38 1.273-9.38 1.273s-3.018-11.109-16.901-8.836c-15.117 2.475-13.376 13.835-13.376 13.835s-5.398-2.258-9.631 1.644c-4.231 3.901-1.716 10.395-1.716 10.395" fill="#94c3e6"/><path d="m195.915 88.9240282s.787 1.039-4.742 2.181c-6.489 1.341-22.259.331-23.802 2.805-1.683 2.703 10.747 1.941 10.604 5.096-.121 2.6819998-8.574 2.5839998-18.104 2.5839998-9.528 0-99.097 0-106.815 0-7.717 0-6.32-2.3379998-5.228-3.4019998 1.586-1.546.889-2.972-6.055-3.169-6.74-.192-11.677-.356-15.356-.356-9.81 0-7.885-3.235-15.529-3.235-4.941 0-10.888-1.243-10.888-2.685 31.545-2.627 65.861-4.193 102.593-4.014 33.218.163 64.413 1.733 93.322 4.195" fill="#aeccc6"/><path d="m32.744 91.4320282s27.073.593 62.005.945c34.934.353 48.085-1.917 48.085-1.917s-28.28-1.348-55.332-1.649c-27.052-.3-49.462 1.572-54.758 2.621" fill="#719991"/><path d="m113.624 90.2200282h2.298s2.659-18.186-3.722-32.873l-4.951 16.627s5.39 6.108 6.375 16.246" fill="#99180b"/><path d="m81.84 57.7280282s-7.993 15.812-3.887 32.492h1.695s1.387-10.276 6.578-15.218z" fill="#ba2c19"/><path d="m38.871 85.1690282s-.117-1.31.346-2.672c.485-1.427 1.906-2.824 4.048-2.965l-1.261 1.557s-2.335.486-2.574 4.144z" fill="#fff"/><path d="m51.978 85.1690282s.117-1.31-.346-2.672c-.484-1.427-1.603-2.965-3.408-3.108l.177 1.177s2.815.566 3.018 4.667z" fill="#daf2f0"/><path d="m41.997 90.5390282h2.23s-.024-.82-.857-.938c-.302-.043-.559-.044-.764-.029l.279-3.026-.989-.33.206 3.444-.055.018z" fill="#728589"/><path d="m47.735 90.5390282h2.23s-.024-.82-.857-.938c-.303-.043-.56-.044-.765-.029l.279-3.026-.989-.33.206 3.444-.053.018z" fill="#728589"/><path d="m40.97 81.8630282c0 .98.025 2.666.039 3.939.004.413.34.744.752.744h7.173c.416 0 .753-.337.753-.752v-5.036s.195-1.43-2.074-1.43c-2.271 0-3.966.113-5.202.327-1.238.215-1.441 1.312-1.441 2.208" fill="#daf2f0"/><path d="m42.136 85.8020282c-.014-1.273-.039-2.959-.039-3.939 0-.896.203-1.993 1.44-2.208 1.072-.185 2.488-.295 4.322-.321l-.246-.006c-2.271 0-3.966.113-5.202.327-1.238.215-1.441 1.312-1.441 2.208 0 .98.025 2.666.039 3.939.004.413.34.744.752.744h1.128c-.413 0-.748-.331-.753-.744" fill="#fff"/><path d="m42.275 78.6450282h5.762c1.23 0 1.65-.613 1.65-2.345s-.986-4.058-4.074-4.058-4.247 1.859-4.5 3.573c-.252 1.715-.051 2.83 1.162 2.83" fill="#daf2f0"/><path d="m42.125 75.9100282c.245-1.657 1.495-3.049 4.488-3.049.563 0 1.046.025 1.462.072-.608-.422-1.414-.691-2.462-.691-3.088 0-4.247 1.859-4.5 3.573-.252 1.715-.051 2.83 1.162 2.83h.976c-1.175 0-1.37-1.078-1.126-2.735" fill="#fff"/><path d="m49.199 76.3000282c0-.561-.104-1.185-.349-1.772-.194-.465-.65-.768-1.154-.768h-2.79c-1.557 0-2.729 1.65-2.346 2.977.383 1.326 1.988 1.131 3.341 1.131h2.277c.517 0 .95-.393.995-.908.018-.199.026-.419.026-.66" fill="#bad8d3"/><path d="m45.442 75.7240282c0 .173-.141.314-.315.314-.173 0-.313-.141-.313-.314 0-.174.14-.315.313-.315.174 0 .315.141.315.315" fill="#6e868e"/><path d="m48.538 75.7240282c0 .173-.14.314-.314.314s-.314-.141-.314-.314c0-.174.14-.315.314-.315s.314.141.314.315" fill="#6e868e"/><path d="m40.238 85.4980282c-.078-.589-.422-.849-.743-.893l-.007-.001-.035-.012c-.346-.093-.742.028-.94.219-.259.249-.268.603-.268.603l-.005.113.059.459c.02.154.146.262.279.239l.162-.111.002.051c.005.156.122.277.256.27l.148-.067v.003c-.016.145.075.278.201.295l.031.004c.126.018.241-.087.257-.231l.027-.266v-.774s.213.06.249.436.405.253.327-.337" fill="#fff"/><path d="m50.741 85.4980282c.078-.589.421-.849.742-.893l.008-.001.034-.012c.346-.093.742.028.94.219.259.249.268.603.268.603l.006.113-.06.459c-.019.154-.145.262-.279.239l-.161-.111-.002.051c-.007.156-.122.277-.258.27l-.148-.067.001.003c.015.145-.076.278-.202.295l-.031.004c-.126.018-.241-.087-.256-.231l-.028-.266v-.774s-.213.06-.248.436-.405.253-.326-.337" fill="#daf2f0"/><path d="m120.631 72.7850282h8.376v13.397zm8.06-17.875-8.718 15.794v-15.794zm-8.718-16.273 8.586 15.189h-8.586zm9.034-1.154v14.932l-8.44-14.932zm0-1.084h-8.404l8.404-13.79zm-9.034-15.18h8.611l-8.611 14.129zm9.034 50.481h-8.345l8.345-15.119zm1.085-17.226v-37.326c0-.299-.243-.542-.542-.542-.3 0-.543.243-.543.542v2.986h-9.034v-2.986c0-.299-.243-.542-.543-.542-.299 0-.542.243-.542.542v19.251h-5.889c-.298 0-.542.242-.542.542 0 .299.244.542.542.542h5.889v16.343h-5.889c-.298 0-.542.243-.542.542 0 .3.244.542.542.542h5.889v16.79h-3.186c-.299 0-.541.243-.541.542 0 .3.242.543.541.543h3.186v17.241c0 .299.243.543.542.543.3 0 .543-.244.543-.543v-16.248l9.034 14.451v1.797c0 .299.243.543.543.543.299 0 .542-.244.542-.543z" fill="#d17d19"/><path d="m84.808 74.9480282s2.759 4.253 11.42 4.253c8.662 0 11.678-4.259 11.678-4.259s7.11-13.409 5.474-33.866c-1.327-16.607-12.098-34.31700004-16.106-40.39400004-.652-.988-2.132-.883-2.636.188-3.271 6.955-12.531 27.62500004-13.84 41.39500004-1.594 16.771 4.01 32.683 4.01 32.683" fill="#ef2f1b"/><path d="m113.38 41.0760282c-1.327-16.607-12.098-34.31700004-16.106-40.39400004-.2-.303-.479-.503-.783-.604 4.355 12.06000004 8.637 27.20400004 9.484 41.79700004.849 14.618-.407 26.9-1.998 35.871 2.813-1.234 3.929-2.804 3.929-2.804s7.11-13.409 5.474-33.866" fill="#d31c18"/><g fill="#ffdf00" transform="translate(84 20)"><path d="m4.937 27.4180282c-.037.995-.873 1.771-1.868 1.734-.994-.037-1.771-.873-1.734-1.868s.873-1.771 1.868-1.733c.995.036 1.771.873 1.734 1.867"/><path d="m5.656 17.7360282c-.029.775-.681 1.38-1.456 1.352-.776-.029-1.38-.681-1.352-1.456.029-.776.681-1.381 1.456-1.352s1.381.681 1.352 1.456"/><path d="m6.746 9.2080282c-.022.601-.527 1.07-1.127 1.047-.601-.022-1.071-.527-1.048-1.128.022-.601.528-1.07 1.129-1.048.6.023 1.069.528 1.046 1.129"/><path d="m8.086 1.7600282c-.016.444-.389.79-.833.773-.443-.016-.79-.389-.773-.833.016-.443.389-.789.833-.773.443.017.79.39.773.833"/><path d="m1.208 48.5140282s-.244-5.213-.244-7.516-.04-6.63 2.04-6.63c2.079 0 2.228 4.079 2.228 6.605 0 2.525-.03 7.541-.03 7.541z"/></g><path d="m89.001 68.5140282h-5.504v3.591h-3.589v3.584h-3.585v3.59h-3.59v3.627h-3.627v3.591h-3.591v3.724h1.547l22.144-21.707z" fill="#771308"/><path d="m96.6 57.4110282-1.93 21.629 5.254 11.18h1.898s1.607-17.978-4.01-32.873z" fill="#99180b"/></g></svg>