<svg height="57" viewBox="0 0 57 57" width="57" xmlns="http://www.w3.org/2000/svg"><g fill="none" fill-rule="evenodd" transform="translate(0 -2)"><path d="m48.920766 56.002146c0 1.654506-9.849863 2.997854-22.001096 2.997854-12.149041 0-21.998904-1.343348-21.998904-2.997854 0-1.658798 9.849863-3.002146 21.998904-3.002146 12.151233 0 22.001096 1.343348 22.001096 3.002146" fill="#c9c9c9"/><g fill="#d43f0c"><path d="m37.920766 13.0011544c0 2.2095238-1.7893218 3.9988456-3.9988456 3.9988456s-4.0011544-1.7893218-4.0011544-3.9988456 1.7916306-4.0011544 4.0011544-4.0011544 3.9988456 1.7916306 3.9988456 4.0011544"/><path d="m47.3625453 55.0776447c-1.1978789 1.4100293-3.9332293 1.1779992-6.110345-.5220678-2.1771157-1.697836-2.9702743-4.2189327-1.7747214-5.6311931 1.1978788-1.4122604 3.9355552-1.1802302 6.1103449.5176057 2.1794417 1.700067 2.9726003 4.2233948 1.7747215 5.6356552"/><path d="m13.6082811 56.3147178c-1.2375961-1.2396599-.7592877-3.725414 1.0724403-5.5548775 1.8295832-1.8316082 4.3176447-2.3098853 5.5530959-1.0723702 1.2375961 1.2353705.7571429 3.7232693-1.0724403 5.5527328-1.831728 1.8294635-4.3176447 2.3098853-5.5530959 1.0745149"/></g><path d="m45.200622 38.207614c2.571182 6.855478-1.960582 14.784837-10.122642 17.707093-8.164279 2.924425-16.865887-.264674-19.437069-7.122321-2.571182-6.855478 1.960581-14.782667 10.122641-17.707093 8.162059-2.924425 16.863667.264674 19.43707 7.122321" fill="#ffe570"/><path d="m45.920766 23.501115c0 5.797026-5.1472 10.498885-11.501128 10.498885-6.349416 0-11.498872-4.701859-11.498872-10.498885 0-5.801487 5.149456-10.501115 11.498872-10.501115 6.353928 0 11.501128 4.699628 11.501128 10.501115" fill="#ffe570"/><path d="m33.920766 22c0 1.657713-1.343558 3-3 3s-3-1.342287-3-3 1.343558-3 3-3 3 1.342287 3 3" fill="#a0843d"/><path d="m19.920766 38.473801-2.738626-.896256.119829-.232123c.68629-1.91932-.732043-4.163182-3.172187-5.016451-2.440144-.85327-4.976151.010746-5.66462 1.927916l-.041395.184839c-.350771-.240721-.725507-.464247-1.141639-.642639-2.562151-1.098289-5.305134-.477143-6.126504 1.388444-.823549 1.865587.588249 4.268497 3.148221 5.366786.952092.410515 1.92815.57816 2.825774.535174-1.002202.909151-1.529447 2.084814-1.270182 3.232537.444455 1.985947 3.013142 3.114326 5.740874 2.518972 2.516399-.54807 4.259359-2.370671 4.167853-4.210466h2.087195z" fill="#ffe570"/><path d="m39.299003 23.29903c-1.373069 2.611278.928973 4.8755 7.943858 5.559157 4.80574.470406 7.166693-.194435 6.593449-2.521378-.575511-2.329033-12.745068-6.447702-14.537307-3.037779" fill="#d43f0c"/><path d="m56.4313739 21.5922465c-.4236301 10.1111544-9.1569282 16.0763885-20.7741701 15.5757054-11.617242-.500683-19.8128558-2.4786291-20.203899-16.5175845-.2932824-10.1161116 10.0530691-18.9350741 21.670311-18.4327386 11.617242.49903066 19.7313882 9.2634633 19.3077581 19.3746177" fill="#accece" fill-opacity=".25" transform="matrix(.9961947 -.08715574 .08715574 .9961947 -1.579931 3.20796)"/></g></svg>