<svg height="14" viewBox="0 0 14 14" width="14" xmlns="http://www.w3.org/2000/svg"><g fill="none" fill-rule="evenodd" transform="translate(1.312933 1.572192)"><g stroke="#585858" stroke-linecap="round" stroke-linejoin="round"><path d="m0 4v-3c0-.55228475.44771525-1 1-1h1.49144441 1.50855559"/><path d="m7.5 4v-3c0-.55228475.44771525-1 1-1h1.49144441 1.50855559" transform="matrix(-1 0 0 1 19 0)"/><path d="m0 11v-3c0-.55228475.44771525-1 1-1h1.49144441 1.50855559" transform="matrix(1 0 0 -1 0 18)"/><path d="m7.5 11v-3c0-.55228475.44771525-1 1-1h1.49144441 1.50855559" transform="matrix(-1 0 0 -1 19 18)"/></g><path d="m7.8315936 3.66283925c-.217119-.217119-.56784969-.217119-.78496869 0l-1.04662491 1.05219207-1.05219207-1.05219207c-.21711899-.217119-.56784968-.217119-.78496868 0s-.217119.56784969 0 .78496868l1.05219207 1.05219207-1.05219207 1.05219207c-.217119.21711899-.217119.56784968 0 .78496868s.56784969.217119.78496868 0l1.05219207-1.05219207 1.05219207 1.05219207c.21711899.217119.56784968.217119.78496868 0s.217119-.56784969 0-.78496868l-1.05219207-1.05219207 1.05219207-1.05219207c.21155185-.21155184.21155185-.56784968-.00556715-.78496868z" fill="#585858" fill-rule="nonzero"/></g></svg>