<svg height="13" viewBox="0 0 13 13" width="13" xmlns="http://www.w3.org/2000/svg"><g fill="none" fill-rule="evenodd" stroke="#585858" stroke-linecap="round" transform="translate(.992432 .572192)"><g stroke-linejoin="round"><path d="m0 4v-3c0-.55228475.44771525-1 1-1h1.49144441 1.50855559"/><path d="m7.5 4v-3c0-.55228475.44771525-1 1-1h1.49144441 1.50855559" transform="matrix(-1 0 0 1 19 0)"/><path d="m0 11v-3c0-.55228475.44771525-1 1-1h1.49144441 1.50855559" transform="matrix(1 0 0 -1 0 18)"/><path d="m7.5 11v-3c0-.55228475.44771525-1 1-1h1.49144441 1.50855559" transform="matrix(-1 0 0 -1 19 18)"/></g><path d="m3.772949 5.493586h4" stroke-width="1.5"/></g></svg>