<svg height="14" viewBox="0 0 14 14" width="14" xmlns="http://www.w3.org/2000/svg"><g fill="none" fill-rule="evenodd" transform="translate(1.784368 1.572192)"><g stroke="#585858" stroke-linecap="round" stroke-linejoin="round"><path d="m0 4v-3c0-.55228475.44771525-1 1-1h1.49144441 1.50855559"/><path d="m7.5 4v-3c0-.55228475.44771525-1 1-1h1.49144441 1.50855559" transform="matrix(-1 0 0 1 19 0)"/><path d="m0 11v-3c0-.55228475.44771525-1 1-1h1.49144441 1.50855559" transform="matrix(1 0 0 -1 0 18)"/><path d="m7.5 11v-3c0-.55228475.44771525-1 1-1h1.49144441 1.50855559" transform="matrix(-1 0 0 -1 19 18)"/></g><path d="m0 0h8.99823546v8.99823546h-8.99823546z" transform="translate(1.5 1.015088)"/><path d="m3.64649273 5.30807335 1.70701454 1.70701454 3-3" stroke="#5b5b5b" stroke-linecap="round" stroke-linejoin="round" stroke-width="1.25"/></g></svg>