<svg height="12" viewBox="0 0 11 12" width="11" xmlns="http://www.w3.org/2000/svg"><path d="m5.05450655 3.96088034v-.99490862c-1.5923585-.00252355-3.01437754 1.14127438-3.3146797 2.77779496-.29714773 1.61696311.58987924 3.21247605 2.10905486 3.79415376.43468107.16655414.65296793.65612236.48830645 1.09521966-.14636576.3898881-.54697893.607544-.93875969.5343612-.04920917-.0088325-.09841835-.022712-.14636575-.0410077-2.2806561-.8718857-3.61245832-3.26610139-3.16642129-5.69123061.45045324-2.4535191 2.58222003-4.16259167 4.96886512-4.15943724v-.82456916c0-.39556608.49776975-.59934254.79933369-.32616852l1.9393463 1.75449643c.19620582.1779101.19620582.47568871 0 .65359882l-1.9393463 1.75449643c-.30156394.27254313-.79933369.06939755-.79933369-.32679941m1.11225358 5.60416823c-.1249156.04542386-.25361653.08327707-.38357923.11229787-.45360767.10157279-.7406612.55518046-.64035019 1.01320436.07507554.3432024.34635691.591141.66810922.6517061.10788166.0195575.2214413.0189266.33500093-.0063088.1980985-.044793.39304255-.1015728.58357039-.1697086.43720461-.1570908.66684744-.6435046.51164926-1.0851255-.15582906-.44225166-.63782664-.67315626-1.07440038-.51606543m1.67248115-1.30656674c-.03596055.05425627-.07318288.10725077-.11292875.1589835-.28326821.37159237-.21513243.90469179.15330551 1.19111444.10977432.08453884.23216638.13816423.35960553.16150704.30030216.05614893.62079269-.05551804.82078384-.3173361.05993425-.07949175.11860673-.16150705.17475566-.245415.25929451-.38925721.15772173-.91667865-.22711927-1.17912759-.38547189-.26055629-.90847712-.1589835-1.16840252.23027371m1.43589856-2.60556286c-.46433275-.01261774-.8516973.37411592-.86368415.84349579-.01135597.42206332.28516087.77409821.68388138.84854286.04290031.00820153.08769328.01324862.13248625.01387951.46370186.01387951.85106638-.36275996.86557678-.83150892 0-.00126177.0006309-.01829572.0006309-.01955749.0126178-.46937986-.35771285-.84665022-.81889116-.85485175" fill="#585858"/></svg>