<svg height="13" viewBox="0 0 13 13" width="13" xmlns="http://www.w3.org/2000/svg"><g fill="none" fill-rule="evenodd" transform="translate(1 .572192)"><g stroke="#585858" stroke-linecap="round" stroke-linejoin="round"><path d="m0 4v-3c0-.55228475.44771525-1 1-1h1.49144441 1.50855559"/><path d="m7.5 4v-3c0-.55228475.44771525-1 1-1h1.49144441 1.50855559" transform="matrix(-1 0 0 1 19 0)"/><path d="m0 11v-3c0-.55228475.44771525-1 1-1h1.49144441 1.50855559" transform="matrix(1 0 0 -1 0 18)"/><path d="m7.5 11v-3c0-.55228475.44771525-1 1-1h1.49144441 1.50855559" transform="matrix(-1 0 0 -1 19 18)"/></g><path d="m5.85620117 3.31387024c-1.46113078 0-2.70893646.90882334-3.21448771 2.19169617.50555125 1.28287282 1.75335693 2.19169616 3.21448771 2.19169616s2.70893646-.90882334 3.21448771-2.19169616c-.50555125-1.28287283-1.75335693-2.19169617-3.21448771-2.19169617zm0 3.65282694c-.80654419 0-1.46113078-.65458658-1.46113078-1.46113077s.65458659-1.46113078 1.46113078-1.46113078 1.46113078.65458659 1.46113078 1.46113078-.65458659 1.46113077-1.46113078 1.46113077zm0-2.33780924c-.48509542 0-.87667846.39158305-.87667846.87667847 0 .48509541.39158304.87667846.87667846.87667846s.87667847-.39158305.87667847-.87667846c0-.48509542-.39158305-.87667847-.87667847-.87667847z" fill="#585858" fill-rule="nonzero"/></g></svg>