<svg height="126" viewBox="0 0 334 126" width="334" xmlns="http://www.w3.org/2000/svg"><g fill="none" fill-rule="evenodd"><path d="m333.74 118.436c0 4.107-74.71 7.436-166.87 7.436s-166.87-3.329-166.87-7.436 74.71-7.436 166.87-7.436 166.87 3.329 166.87 7.436" fill="#c9c9c9"/><path d="m101.857 82.255-61.592-19.825 30.343 24.755-27.186.964 17.14 8.664-39.562 17.407 39.608 5.988 224.799-.611-40.469-16.961 32.917-18.846-47.336-4.586 7.966-15.489-25.107 8.229 14.034-60.944-42.567 55.116-3.428-43.255-23.552 44.85-14.77-11.452-1.497 32.211-23.595-26.377 1.066 23.028-12.62-11.023z" fill="#ff8806"/><path d="m179.599 108-45.599.197 3.714 12.495 32.018-.08z" fill="#fff800"/><path d="m124.510674 39.943-8.933-7.943s-15.7460003.2-27.1920003 15.294-9.209 26.584-9.209 26.584l10.922 8.492z" fill="#1c9cad"/><path d="m129.135994 37.0871323s-22.006-2.465-37.1279996 18.827c-15.122 21.292-4.184 40.018-4.184 40.018l36.4409996 25.3159997 13.502-.059 8.989-11.319 8.442 11.137 5.822-5.948 8.765 6.05 89.505-.388s11.787-21.1309997 4.695-43.8899997c0 0-39.86-1.545-62.57 22.301l-4.484 14.3309997-9.596-21.5169997z" fill="#7fecef"/><path d="m143 .076 5.338-.076s26.336 15.199 18.375 74.895l-4.75 2.118z" fill="#1c9cad"/><path d="m142.923 0s27.483 19.993 18.963 76.937l-30.886-28.929s9.895-25.56 11.923-48.008" fill="#3bbfd1"/><path d="m46.232 86-.232 7.228s20.676 24.72 71.387 20.186l.162-5.371z" fill="#1c9cad"/><path d="m85.074 83-39.074 2.534s22.621 27.156 71.317 22.043z" fill="#3bbfd1"/><g fill="#1c9cad"><path d="m128.255073 63.598073c.015 3.66-2.939 6.641-6.599 6.656-3.66.016-6.641-2.938-6.656-6.598-.017-3.661 2.938-6.641 6.598-6.656 3.66-.017 6.641 2.938 6.657 6.598"/><path d="m162.457054 93.2070461c.013 2.887-2.318 5.238-5.206 5.251-2.888.012-5.238-2.319-5.251-5.207-.013-2.887 2.318-5.238 5.206-5.251 2.888-.012 5.238 2.319 5.251 5.207"/></g></g></svg>