<svg height="35" viewBox="0 0 68 35" width="68" xmlns="http://www.w3.org/2000/svg"><path d="m5.732 27.278c-2.287 0-4.143-.393-5.732-1.154l.483-3.652c1.68.824 3.573 1.217 5.16 1.217 1.158 0 1.92-.394 1.92-1.09 0-2.005-7.23-1.523-7.23-6.76 0-3.348 3.074-5.11 6.926-5.11 1.92 0 3.902.52 5.185.975l-.52 3.59c-1.347-.52-3.177-1.003-4.702-1.003-.94 0-1.704.33-1.704.94 0 1.977 7.385 1.584 7.385 6.694 0 3.4-3.026 5.352-7.17 5.352zm19.994-.342v-9.042c0-2.067-.915-3.044-2.657-3.044-.85 0-1.74.24-2.35.61v11.476h-5.367v-15.674l5.25-.432-.128 2.562h.178c1.2587232-1.6838111 3.2377147-2.6755304 5.34-2.676 2.744 0 5.12 1.7 5.12 5.72v10.5h-5.388zm35.449 0-4.296-7.457h-.433v7.456h-5.364v-18.565l5.365-8.37v17.323c1.068-1.306 4.665-6.264 4.665-6.264h6.62l-6.278 6.63 6.495 9.261h-6.774zm-17.045-15.826-2.2 7.152c-.43 1.344-.85 3.817-.85 3.817s-.33-2.563-.788-3.907l-2.352-7.064h-6.012l6.534 15.827c-.89 2.105-2.263 3.88-4.093 3.88-.33 0-.66-.013-.98-.05l-2.134 3.296c.673.38 1.957.774 3.482.774 3.966 0 6.622-3.208 8.478-7.95l6.228-15.777h-5.311z" fill="#4741a4" fill-rule="evenodd"/></svg>