<svg height="86" viewBox="0 0 65 86" width="65" xmlns="http://www.w3.org/2000/svg"><g fill="none" fill-rule="evenodd"><path d="m41.2075309 25.0178752-16.44-10.976c-.87-.58-1.11-1.753-.53-2.622l3.45-5.161c3.11-4.671 9.43-5.93199999 14.1-2.815l5.57 3.717c3.85 2.567 4.88 7.767 2.32 11.613l-3.51 5.254c-1.09 1.642-3.31 2.084-4.96.99" fill="#accece"/><path d="m24.2975309 21.5658752c-.24 2.657-.35 5.696-.2 9.044.14 3.093.47 5.899.9 8.368 5.27-.256 10.55-.511 15.83-.766.44-1.067.89-2.462 1.16-4.136.32-1.953.28-3.644.15-4.908.45-2.345.9-4.689 1.35-7.033-6.4-.19-12.79-.379-19.19-.569" fill="#ffd88b"/><path d="m21.4775309 16.3358752s-1.08 4.647 2.53 7.083c2.3 1.549 5.99.399 9.11-.34 3.92-.926 3.9 3 3.73 5.402h1.99s0-3.173 1.17-3.175c1.76-.001 2.34 2.092 1.45 4.482 0 0 2.15-.017 2.46-3.682.3-3.663.55-5.017-.44-7.459-.99-2.443-3.35-1.783-3.35-1.783s-1.16-1.908-5.17-1.056-10.54 2.359-13.48.528" fill="#4d352b"/><g fill="#625342"><path d="m28.0075309 29.0818752c0 .61-.3 1.106-.67 1.106s-.67-.496-.67-1.106.3-1.105.67-1.105.67.495.67 1.105"/><path d="m34.3275309 29.0818752c0 .61-.3 1.106-.67 1.106s-.67-.496-.67-1.106.3-1.105.67-1.105.67.495.67 1.105"/><path d="m30.8075309 34.0928752-.24-.007c-.97-.058-1.71-.435-2.15-.742-.18-.125-.23-.374-.11-.555.13-.182.38-.227.56-.102.36.25.96.556 1.75.602.92.053 1.63-.286 1.97-.492.19-.113.43-.054.55.135.11.188.05.434-.14.548-.39.236-1.17.613-2.19.613"/></g><path d="m62.8948514 3.99657536c0 2.052-14.0325926 3.7152-31.3244444 3.7152-17.3037037 0-31.3244445-1.6632-31.3244445-3.7152 0-2.0502 14.0207408-3.7134 31.3244445-3.7134 17.2918518 0 31.3244444 1.6632 31.3244444 3.7134" fill="#dcdcdb" transform="translate(0 78)"/><g fill="#45595b"><path d="m62.2375309 9.8558752c-.62-.443-1.39-.791-2.15-.983-.77-.194-1.58-.268-2.37-.178-.19.013-.39.064-.58.093l-.3.053-.28.086c-.19.06-.39.106-.57.177l-.55.235c-.1.041-.19.074-.28.12l-.26.149-.53.296c-.33.22-.66.466-.99.697l-.04.032c-.23.155-.53.099-.69-.122-.15-.223-.1-.529.13-.684l.01-.006c.36-.243.72-.499 1.09-.728l.59-.311.29-.154c.1-.048.21-.084.31-.126l.62-.244c.21-.072.43-.12.64-.181l.32-.086.33-.051c.23-.028.44-.078.67-.086.89-.077 1.79.03 2.64.271.86.249 1.66.618 2.39 1.185.16.119.19.34.07.495-.12.152-.33.182-.49.071z"/><path d="m63.7575309 11.0248752c-.47.373-1.15.292-1.52-.177-.38-.471-.3-1.154.17-1.525s1.16-.292 1.53.179c.37.47.29 1.152-.18 1.523"/><path d="m21.9375309 42.2128752c-.22.048-.35.065-.51.091-.16.021-.31.043-.46.058-.3.034-.6.058-.89.071-.6.028-1.19.027-1.78-.016-1.19-.073-2.38-.299-3.53-.689-1.15-.391-2.26-.959-3.24-1.7-.98-.738-1.82000004-1.642-2.50000004-2.628-.36-.488-.63-1.01-.91-1.528-.24-.533-.5-1.059-.68-1.605-.41-1.082-.64-2.189-.85-3.286-.35-2.205-.38-4.393-.26-6.545.03-.661.6-1.166 1.26-1.13.63.035 1.13.561 1.13 1.191v.015c0 2.026.15 4.039.57 5.951.24.943.49 1.881.87000004 2.737.17.444.41.84.61 1.252.25.384.48.778.77 1.121 1.09 1.417 2.57 2.396 4.26 2.856.85.233 1.74.354 2.65.357.45.008.9-.018 1.35-.065.22-.023.45-.054.66-.091l.32-.06c.1-.019.23-.049.26-.06 1-.339 2.08.196 2.42 1.196.34.999-.19 2.085-1.19 2.424l-.21.057z"/><path d="m45.7775309 58.3408752v23.192h-2.45l-1.98-23.674z"/><path d="m45.7775309 81.5328752h-9.14s.31-3.218 4.18-3.383c3.88-.164 4.25 1.119 4.25 1.119z"/><path d="m25.6975309 58.3408752-1.6 23.192h-2.45l-.39-23.674z"/><path d="m24.0975309 81.5328752h-9.14s.3-3.218 4.18-3.383c3.87-.164 4.25 1.119 4.25 1.119z"/></g><path d="m43.1875309 25.6188752c-.68 0-1.37-.195-1.98-.601l-12.12-8.094c2.1-.294 4.2-.762 5.87-1.116.73-.156 1.37-.219 1.92-.219 2.48 0 3.25 1.275 3.25 1.275s.29-.081.71-.081c.78 0 1.99.278 2.64 1.864.93 2.31.77 3.648.48 6.888-.25.056-.51.084-.77.084" fill="#717c76"/><path d="m49.6775309 18.7738752-3.2 4.792c-1.27 1.897-3.83 2.409-5.73 1.143l-15.53-10.363c-1.12-.747-1.42-2.261-.67-3.381l3.14-4.706c3.11-4.671 9.43-5.93199999 14.1-2.815l5.57 3.717c3.85 2.567 4.88 7.767 2.32 11.613zm1.87-10.721c-3.68-2.809-10.13-6.716-10.13-6.716-2.91-1.938-10.43-1.828-13.89 2.758l-4.22 6.31c-1 1.512-.6 3.554.91 4.563l20.27 13.524c3.2 2.136 7.52 1.384 9.8-1.719.68-.926 1.4-1.952 2.14-3.063 2.65-3.972 3.57-9.205-4.88-15.657z" fill="#bce1dd" fill-rule="nonzero"/><path d="m52.2075309 8.5728752c2.83 4.636 1.66 8.576-.49 11.8-.86 1.293-1.7 2.487-2.49 3.565-1.58 2.145-3.99 3.316-6.47 3.4l1.73 1.154c3.2 2.136 7.52 1.384 9.8-1.719.68-.926 1.4-1.952 2.14-3.063 2.58-3.864 3.51-8.923-4.22-15.137" fill="#acd3ce"/><path d="m45.8375309 63.6988752h-24.58c-1.57 0-2.85-1.273-2.85-2.844v-19.983c0-1.571 1.28-2.845 2.85-2.845h24.58c1.57 0 2.85 1.274 2.85 2.845v19.983c0 1.571-1.28 2.844-2.85 2.844" fill="#bce1dd"/><path d="m45.8375309 38.0268752h-5.3c1.41 0 2.55 1.142 2.55 2.55v20.572c0 1.409-1.14 2.55-2.55 2.55h5.3c1.57 0 2.85-1.273 2.85-2.844v-19.983c0-1.571-1.28-2.845-2.85-2.845" fill="#acd3ce"/><path d="m36.3575309 38.0268752v6.698c0 .33.27.598.6.598s.6-.268.6-.598v-6.698z" fill="#587072"/><g fill="#45595b"><path d="m11.1575309 18.5628752c.97.079.99 3.18-.24 4.787-1.22000004 1.605-4.86000004 2.687-6.93000004 1.155-2.08-1.533-2.52-4.858-1.99-5.305.53-.448 1.11-.192 1.57 1.22.45 1.413.79.777.65-.03-.15-.908-1-3.433.25-3.854 1.12-.377.98 2.06 1.49 2.751.51.692.47-.039.37-.907-.09-.937-.18-2.982.9-3.163s.81 1.924.84 3.185c.03 1.263.15 2.916 1.33 2.676 1.17000004-.24.18-2.645 1.76000004-2.515"/><path d="m56.0575309 25.0838752c.62.418.2 1.283-.65 2.708-1.04 1.733-3.15 4.496-5.72 4.348-2.58-.15-4.51-2.448-4.58-3.136-.07-.689.84-.989 1.99-.054 1.15.937 1.16.275.5-.208-.7-.509-2.38-2.178-1.78-3.357.59-1.178 1.86 1.01 2.66 1.308.81.3.38-.289-.18-.966-.59-.731-1.78-2.396-.97-3.138.8-.743 2 1.056 2.72 2.096.71 1.041 2.06 2.749 3.13 2.223 1.23-.598 1.83-2.537 2.88-1.824"/><path d="m47.3375309 40.4498752v.028l.01.046.02.103.03.216c.03.145.06.294.09.44.07.295.15.587.24.872.18.571.41 1.116.68 1.594.28.481.59.892.94 1.194.35.304.71.502 1.13.602.42.102.89.107 1.41.012.55-.103 1.02-.267 1.43-.511.41-.246.75-.567 1.03-.971.28-.403.49-.886.62-1.424.28-1.077.26-2.324.05-3.554-.21-1.237-.61-2.471-1.15-3.65-1.08-2.357-2.69-4.509-4.69-6.168l-.01-.003c-.53-.443-.6-1.236-.16-1.769.43-.524 1.2-.604 1.74-.19 1.19.924 2.26 1.987 3.2 3.152.94 1.166 1.76 2.431 2.42 3.782.67 1.35 1.2 2.785 1.51 4.302.16.76.26 1.54.28 2.341.02.799-.04 1.623-.22 2.452-.18.826-.49 1.665-.99 2.434-.48.771-1.16 1.457-1.94 1.957-.77.502-1.64.818-2.47 1-.85.188-1.8.245-2.76.049-.95-.186-1.87-.647-2.6-1.243s-1.29-1.303-1.73-2.025c-.45-.725-.78-1.473-1.05-2.228-.14-.378-.25-.759-.36-1.143-.05-.194-.1-.387-.14-.584l-.06-.301-.03-.156-.03-.186c-.13-.983.56-1.886 1.55-2.015.98-.13 1.88.562 2.01 1.545"/></g></g></svg>