<svg height="109" viewBox="0 0 114 109" width="114" xmlns="http://www.w3.org/2000/svg"><g fill="none" fill-rule="evenodd"><g fill="#394c59" transform="translate(15 37)"><path d="m39.657394 49.4004133.243 15.6509997h4.988l.095-16.9089997z"/><path d="m39.818394 63.907413s-1.952 3.446-1.153 7.492h12.897s-1.665-8.6569997-11.744-7.492"/><path d="m.040394 49.4004133.243 15.6509997h4.988l.095-16.9089997z"/><path d="m84.755394.7734133s-3.252 21.606-28.723 13.138v7.971s11.848 4.799 22.566-2.302c10.719-7.103 9.473-18.807 9.473-18.807z"/></g><path d="m14.671394 41.4024133c-6.88199999 0-10.23099999 4.091-10.23099999 16.142v16.835c0 6.911-.08 13.048 10.23099999 13.048h45.084c7.027 0 12.724.612 12.724-10.534s0-21.304 0-27.775-5.712-6.554-8.921-6.554-48.887-1.162-48.887-1.162" fill="#b5e5e0"/><path d="m63.558394 42.5644133c-3.209 0-48.887-1.162-48.887-1.162-4.029 0-6.84399999 1.405-8.48799999 4.984 4.58899999 9.455 16.19099999 17.096 33.46499999 19.726 14.74 2.244 25.691-.496 32.831-6.169 0-4.196 0-7.892 0-10.825 0-6.471-5.712-6.554-8.921-6.554" fill="#74a5a1"/><path d="m12.031394 76.4834133c0-5.797 0-4.012 0-14.12 0-10.107 3.349-13.538 10.229-13.538 0 0 45.68.974 48.889.974.408 0 .857.001 1.33.014 0-.232 0-.471 0-.695 0-6.471-5.712-6.554-8.921-6.554s-48.887-1.162-48.887-1.162c-6.88199999 0-10.23099999 4.091-10.23099999 16.142v16.835c0 6.911-.08 13.048 10.23099999 13.048h7.53c-10.248-.02-10.17-5.158-10.17-10.944" fill="#e1f9f8"/><path d="m60.195394 87.4284133c.837.002 1.653.009 2.442 0-.763 0-1.58 0-2.442 0" fill="#e1f9f8"/><path d="m10.397394 48.8254133s-6.79499999 7.271-1.51299999 14.169c6.09499999 7.959 22.87599999 6.036 22.87599999 6.036l-1.27 4.585s-29.96899999 3.278-30.47999999-15.357c-.407-14.87 11.27399999-15.985 11.27399999-15.985z" fill="#394c59"/><path d="m49.722394 1.74041328c20.123 4.946 31.612 23.78600002 28.015 37.97300002-3.598 14.186-17.616 23.988-41.884 20.293-24.267-3.696-37.34599999-17.276-35.50299999-31.89s18.06999999-34.07100002 49.37199999-26.37600002" fill="#b5e5e0"/><path d="m4.52539401 31.9334133c1.843-14.614 18.06899999-34.07200002 49.37199999-26.37700002 5.862 1.442 10.991 4.064 15.229 7.40500002-4.857-5.14600002-11.456-9.26800002-19.404-11.22100002-31.302-7.695-47.52899999 11.76300002-49.37199999 26.37600002-1.039 8.24 2.667 16.151 10.44699999 22.147-4.89799999-5.358-7.10299999-11.739-6.27199999-18.33" fill="#e1f9f8"/><path d="m14.671394 17.7434133s10.2-17.53000002 42.978-8.87500002c24.144 6.37500002 22.348 38.14300002-1.314 39.78300002-27.121 1.878-47.63999999-11.658-41.664-30.908" fill="#537487"/><path d="m64.385394 22.8784133c4.08-7.101 1.274-13.46300002 1.274-13.46300002l-7.115 7.11400002s-5.544-5.061-14.956-5.944c-9.413-.88400002-14.409 2.483-14.409 2.483l-9.143-5.66000002c-2.033 8.15100002 2.747 12.97900002 2.747 12.97900002-2.265 4.963-3.732 11.216-4.629 16.181 6.965 8.443 21.292 13.253 38.181 12.083 6.663-.462 11.592-3.313 14.697-7.313-1.443-12.995-6.647-18.46-6.647-18.46" fill="#fcd51a"/><g fill="#32495b"><path d="m82.320394 33.6904133c-.117 0-.237-.022-.354-.069-9.347-3.781-18.628-2.609-18.721-2.596-.52.067-.996-.298-1.066-.82-.068-.523.296-1.002.816-1.072.397-.053 9.852-1.259 19.679 2.717.487.198.722.753.527 1.242-.149.373-.505.598-.881.598"/><path d="m84.070394 40.2654133c-.118 0-.238-.022-.355-.069-9.472-3.834-18.305-5-18.394-5.011-.52-.067-.887-.545-.82-1.067.066-.523.541-.893 1.06-.825.369.047 9.153 1.203 18.863 5.132.486.197.722.752.526 1.242-.149.372-.504.598-.88.598"/><path d="m81.444394 47.1514133c-.19 0-.384-.058-.551-.177-7.593-5.45-15.604-7.537-15.684-7.557-.508-.129-.816-.649-.687-1.16.129-.51.646-.817 1.152-.69.34.087 8.426 2.187 16.322 7.854.426.306.525.902.22 1.331-.184.26-.476.399-.772.399"/><path d="m7.48339401 32.9394133c-.352 0-.688-.197-.853-.535-.231-.474-.036-1.045.435-1.276 6.71399999-3.307 17.11399999-1.949 17.55399999-1.889.519.069.884.55.813 1.072-.069.523-.551.889-1.066.819-.102-.014-10.273-1.339-16.46699999 1.711-.134.067-.276.098-.416.098"/><path d="m8.05239401 37.6314133c-.368 0-.717-.216-.872-.578-.208-.483.014-1.045.495-1.254 7.06399999-3.065 15.49499999-3.248 15.84999999-3.254.511-.02.956.41.965.937.01.527-.407.961-.932.971-.083.002-8.419.185-15.13099999 3.098-.122.054-.25.08-.375.08"/><path d="m7.85339401 44.0914133c-.325 0-.642-.168-.819-.471-.266-.454-.114-1.039.338-1.306 7.66399999-4.527 15.21699999-5.379 15.53499999-5.413.52-.048.987.323 1.043.848.056.523-.321.993-.842 1.05-.074.007-7.478.85-14.77499999 5.161-.152.089-.317.131-.48.131"/></g><path d="m40.646394 55.1324133-10.064 30.611-.478 7.886 1.158.226 5.125-7.676 8.655-29.669c.369-1.266-.387-2.586-1.661-2.9-1.167-.287-2.358.375-2.735 1.522" fill="#48595b"/><g fill="#394c59"><path d="m29.957394 70.5004133c-1.654 4.442 2.524 10.004 7.725 9.88 5.201-.123 3.052-3.339 1.029-3.578 0 0 2.482.886 2.983-.984.501-1.869-2.04-2.869-2.04-2.869s3.43.562 2.985-2.449c-.444-3.012-10.311-6.373-12.682 0"/><path d="m97.321394 28.1884133s-3.376 9.243 4.79 11.771c8.166 2.527 11.663-7.637 11.359-13.139-.302-5.501-4.267-4.995-4.515-2.595 0 0-1.019-2.239-2.95-1.074-2.2 1.327 1.512 7.522-2.008 9.163-3.522 1.642-3.953-1.92-3.953-1.92z"/><path d="m15.201394 100.907413s-1.952 3.446-1.154 7.492h12.898s-1.665-8.6569997-11.744-7.492"/></g><ellipse cx="52" cy="23" fill="#e1f9f8" rx="6" ry="4"/><ellipse cx="54" cy="23" fill="#32495b" rx="3" ry="2"/><ellipse cx="33" cy="23" fill="#e1f9f8" rx="6" ry="4"/><g fill="#32495b"><ellipse cx="36" cy="23" rx="3" ry="2"/><path d="m44.2540041 30.9697701 2.675-1.577c.528-.311.732-.977.471-1.534-.255-.542-.87-.808-1.437-.622l-2.658.875-2.668-1.031c-.562-.217-1.197.016-1.487.546-.312.569-.122 1.283.428 1.62l2.779 1.702v5.802c-.7516358.0580159 2.9643148.0855873 1.897.001z"/><path d="m43.3948624 38.4766683-.8217913-.0212212c-3.3214067-.1758328-5.8552633-1.3187462-7.3618808-2.2494476-.6163435-.37895-.78755-1.1338185-.3766544-1.6825382.445137-.5517513 1.3011697-.6881733 1.9175132-.3092233 1.232687.7579002 3.2871653 1.6855699 5.9922285 1.8250235 3.1502001.1606748 5.5813329-.8670377 6.7455373-1.4915474.6505848-.3425709 1.4723761-.1637064 1.8832718.4092661.3766544.5699408.1712065 1.3157146-.4793783 1.661317-1.3354109.7154577-4.0062328 1.8583711-7.498846 1.8583711"/></g></g></svg>