<svg height="127" viewBox="0 0 208 127" width="208" xmlns="http://www.w3.org/2000/svg" xmlns:xlink="http://www.w3.org/1999/xlink"><defs><path id="a" d="m140.320394 41.16c-.117 0-.237-.022-.354-.069-9.347-3.781-18.628-2.609-18.721-2.596-.52.067-.996-.298-1.066-.82-.068-.523.296-1.002.816-1.072.397-.053 9.852-1.259 19.679 2.717.487.198.722.753.527 1.242-.149.373-.505.598-.881.598"/><filter id="b" height="183.9%" width="119%" x="-9.5%" y="-41.9%"><feGaussianBlur in="SourceAlpha" result="shadowBlurInner1" stdDeviation="1.5"/><feOffset dx="0" dy="1" in="shadowBlurInner1" result="shadowOffsetInner1"/><feComposite in="shadowOffsetInner1" in2="SourceAlpha" k2="-1" k3="1" operator="arithmetic" result="shadowInnerInner1"/><feColorMatrix in="shadowInnerInner1" type="matrix" values="0 0 0 0 0   0 0 0 0 0   0 0 0 0 0  0 0 0 0.5 0"/></filter></defs><g fill="none" fill-rule="evenodd" transform="translate(0 1)"><path d="m9.049 105.909768c-.043-1.829.223-10.6279996 9.003-14.3529996 8.76-3.716 15.722-1.165 18.812.459-2.356-3.299-5.428-9.613-2.644-17.781 4.015-11.775 16.071-10.835 18.426-10.53.096-.963.506-3.494 2.256-6.281 2.006-3.196 6.232-7.328 14.97-8.861 9.751-1.711 16.162.803 19.824 3.212 3.233 2.127 4.926 4.5 5.486 5.387 1.845-1.296 11.063-7.099 21.115-1.543 1.911 1.056 3.456 2.27 4.705 3.558 1.776-1.063 3.854-1.676 6.075-1.676 2.747 0 5.273.937 7.283 2.506.851-1.143 2.067-2.273 3.804-3.221 5.776-3.149 11.166-.98 12.375-.415.912-.895 4.928-4.345 10.723-2.237 5.435 1.976 6.247 6.834 6.361 8.531 1.114-.531 12.245-2.83 18.655 5.62 6.431 8.477 3.754 16.952 2.351 19.012 2.903.87 4.87 2.424 5.852 4.623 1.664 3.729.001 8.1499996-.639 9.5979996 13.398 1.438 13.553 13.345 13.553 13.467 0 .2-.162.363-.363.363h-206.669c-.2 0-.363-.163-.363-.363 0-6.982 7.384-8.762 9.049-9.075" fill="#00ccd3"/><path d="m9.049 105.909768c-.041-1.727.196-9.6709996 7.619-13.6859996 2.871-1.762 8.163-4.436 14.575-5.028 0 0-2.674-8.694 5.935-18.293 5.204-6.115 13.55-5.447 15.468-5.198.096-.963.506-3.494 2.256-6.281 2.006-3.196 6.232-7.328 14.97-8.861 9.751-1.711 16.162.803 19.824 3.212 3.233 2.127 4.926 4.5 5.486 5.387 1.845-1.296 11.063-7.098 21.115-1.543 4.527 2.501 7.004 5.889 8.345 9.044 0 0-6.169-3.753-18.749 1.734-11.575 5.048-11.058 13.43-11.058 13.43s-11.105-4.781-21.752 1.913-6.509 16.37-6.509 16.37-5.262-7.281-17.119-5.932c-8.636.982-11.822 5.932-13.635 8.2639996 0 0-13.035-2.4679996-17.325 5.716 0 0-10.965-.862-12.004 9.19h-6.128c-.2 0-.363-.163-.363-.363 0-6.982 7.384-8.762 9.049-9.075" fill="#00f3e8"/><path d="m191.771527 115.32621c-.033-1.407-.278-2.924-.828-4.538-3.028-8.882-12.121-8.173-13.898-7.942-.073-.727-.382-2.636-1.702-4.7380005-1.513-2.411-4.701-5.527-11.291-6.684-7.355-1.29-12.192.606-14.954 2.423-2.438 1.605-3.715 3.394-4.137 4.063-1.392-.978-8.345-5.354-15.927-1.164-3.415 1.887-5.282 4.4420005-6.295 6.8220005-11.521 1.055-10.755 9.159-10.716 11.758z" fill="#00b2bb"/><path d="m.04476499 114.719471s-.914.905 5.518 1.899c7.54900001 1.167 20.53900001.294 22.33300001 2.449 1.959 2.353-7.146 1.683-6.98 4.431.141 2.335 9.976 2.25 21.061 2.25h104.097c8.978 0 7.353-2.036 6.082-2.963-1.846-1.346-1.035-2.587 7.045-2.759 7.84-.166 13.584-.31 17.864-.31 11.413 0 9.174-2.816 18.066-2.816 5.749 0 12.666-1.083 12.666-2.338-29.189-2.594-61.756-4.372-97.193-4.548-40.753-.203-77.856 1.748-110.55900001 4.705" fill="#f0f0f0"/><path d="m139.362 115.554c0 1.962-18.437 3.553-41.18 3.553-22.745 0-41.182-1.591-41.182-3.553 0-1.963 18.437-3.554 41.182-3.554 22.743 0 41.18 1.591 41.18 3.554" fill="#b5b5b4"/><path d="m112.657394 93.87.243 15.651h4.988l.095-16.909z" fill="#6d8c8c"/><path d="m112.818394 108.377s-1.952 3.446-1.153 7.492h12.897s-1.665-8.657-11.744-7.492" fill="#6d8c8c"/><path d="m73.040394 93.87.243 15.651h4.988l.095-16.909z" fill="#6d8c8c"/><path d="m158.098415 55.8865538s-3.252 21.606-28.723 13.138v7.971s11.848 4.799 22.566-2.302c10.719-7.103 9.473-18.807 9.473-18.807z" fill="#6d8c8c" transform="matrix(.89879405 .43837115 -.43837115 .89879405 44.190406 -56.942198)"/><path d="m62.440394 65.014v16.835c0 6.911-.08 13.048 10.231 13.048h45.084c7.027 0 12.724.612 12.724-10.534s0-21.304 0-27.775-5.712-6.554-8.921-6.554-48.887-1.162-48.887-1.162c-6.882 0-10.231 4.091-10.231 16.142z" fill="#cae5e1"/><path d="m121.558394 50.034c-3.209 0-48.887-1.162-48.887-1.162-4.029 0-6.844 1.405-8.488 4.984 4.589 9.455 16.191 17.096 33.465 19.726 14.74 2.244 25.691-.496 32.831-6.169 0-4.196 0-7.892 0-10.825 0-6.471-5.712-6.554-8.921-6.554" fill="#85b5af"/><path d="m70.031394 83.953c0-5.797 0-4.012 0-14.12 0-10.107 3.349-13.538 10.229-13.538 0 0 45.68.974 48.889.974.408 0 .857.001 1.33.014 0-.232 0-.471 0-.695 0-6.471-5.712-6.554-8.921-6.554s-48.887-1.162-48.887-1.162c-6.882 0-10.231 4.091-10.231 16.142v16.835c0 6.911-.08 13.048 10.231 13.048h7.53c-10.248-.02-10.17-5.158-10.17-10.944" fill="#daf2f0"/><path d="m118.195394 94.898c.837.002 1.653.009 2.442 0-.763 0-1.58 0-2.442 0" fill="#e1f9f8"/><path d="m59.7758549 54.0431613s-6.795 7.271-1.513 14.169c6.095 7.959 22.876 6.036 22.876 6.036l-1.27 4.585s-29.969 3.278-30.48-15.357c-.407-14.87 11.274-15.985 11.274-15.985z" fill="#6d8c8c" transform="matrix(.62932039 .77714596 -.77714596 .62932039 73.362544 -27.261428)"/><path d="m107.722394 9.21c20.123 4.946 31.612 23.786 28.015 37.973-3.598 14.186-17.616 23.988-41.884 20.293-24.267-3.696-37.346-17.276-35.503-31.89s18.07-34.071 49.372-26.376" fill="#cae5e1"/><path d="m62.525394 39.403c1.843-14.614 18.069-34.072 49.372-26.377 5.862 1.442 10.991 4.064 15.229 7.405-4.857-5.146-11.456-9.268-19.404-11.221-31.302-7.695-47.529 11.763-49.372 26.376-1.039 8.24 2.667 16.151 10.447 22.147-4.898-5.358-7.103-11.739-6.272-18.33" fill="#e1f9f8"/><path d="m72.671394 25.213s10.2-17.53 42.978-8.875c24.144 6.375 22.348 38.143-1.314 39.783-27.121 1.878-47.64-11.658-41.664-30.908" fill="#6d8c8c"/><path d="m122.385394 30.348c4.08-7.101 1.274-13.463 1.274-13.463l-7.115 7.114s-5.544-5.061-14.956-5.944c-9.413-.884-14.409 2.483-14.409 2.483l-9.143-5.66c-2.033 8.151 2.747 12.979 2.747 12.979-2.265 4.963-3.732 11.216-4.629 16.181 6.965 8.443 21.292 13.253 38.181 12.083 6.663-.462 11.592-3.313 14.697-7.313-1.443-12.995-6.647-18.46-6.647-18.46" fill="#fcd51a"/><use fill="#32495b" fill-rule="evenodd" xlink:href="#a"/><use fill="#000" filter="url(#b)" xlink:href="#a"/><g fill="#32495b"><path d="m142.070394 47.735c-.118 0-.238-.022-.355-.069-9.472-3.834-18.305-5-18.394-5.011-.52-.067-.887-.545-.82-1.067.066-.523.541-.893 1.06-.825.369.047 9.153 1.203 18.863 5.132.486.197.722.752.526 1.242-.149.372-.504.598-.88.598"/><path d="m139.444394 54.621c-.19 0-.384-.058-.551-.177-7.593-5.45-15.604-7.537-15.684-7.557-.508-.129-.816-.649-.687-1.16.129-.51.646-.817 1.152-.69.34.087 8.426 2.187 16.322 7.854.426.306.525.902.22 1.331-.184.26-.476.399-.772.399"/><path d="m65.483394 40.409c-.352 0-.688-.197-.853-.535-.231-.474-.036-1.045.435-1.276 6.714-3.307 17.114-1.949 17.554-1.889.519.069.884.55.813 1.072-.069.523-.551.889-1.066.819-.102-.014-10.273-1.339-16.467 1.711-.134.067-.276.098-.416.098"/><path d="m66.052394 45.101c-.368 0-.717-.216-.872-.578-.208-.483.014-1.045.495-1.254 7.064-3.065 15.495-3.248 15.85-3.254.511-.02.956.41.965.937.01.527-.407.961-.932.971-.083.002-8.419.185-15.131 3.098-.122.054-.25.08-.375.08"/><path d="m65.853394 51.561c-.325 0-.642-.168-.819-.471-.266-.454-.114-1.039.338-1.306 7.664-4.527 15.217-5.379 15.535-5.413.52-.048.987.323 1.043.848.056.523-.321.993-.842 1.05-.074.007-7.478.85-14.775 5.161-.152.089-.317.131-.48.131"/><path d="m102.186394 39.354v-1.782l2.675-1.577c.528-.311.732-.977.471-1.534-.255-.542-.87-.808-1.437-.622l-2.658.875-2.668-1.031c-.562-.217-1.197.016-1.487.546-.312.569-.122 1.283.428 1.62l2.779 1.702v1.802c-7.307.564-8.957 7.547-8.973 7.621-.115.514.206 1.024.718 1.139.509.114 1.018-.208 1.134-.721.055-.252 1.453-6.17 8.069-6.17 6.477 0 7.172 5.966 7.198 6.217.048.493.461.861.944.861l.093-.004c.522-.052.904-.519.852-1.043-.008-.076-.807-7.318-8.138-7.899"/></g><path d="m84.400394 28.747c-.011.162-.021.324-.021.489 0 3.662 2.634 6.631 5.886 6.631 3.251 0 5.887-2.969 5.887-6.631 0-.165-.012-.327-.022-.489z" fill="#e1f9f8" transform="matrix(.95630476 .2923717 -.2923717 .95630476 13.389843 -24.979531)"/><path d="m105.466394 28.747c-.009.162-.021.324-.021.489 0 3.662 2.636 6.631 5.887 6.631s5.886-2.969 5.886-6.631c0-.165-.01-.327-.021-.489z" fill="#e1f9f8" transform="matrix(.93358043 -.35836795 .35836795 .93358043 -4.183176 42.0436)"/><path d="m58.2612306 78.4272596s-3.376 9.243 4.79 11.771c8.166 2.527 11.663-7.637 11.359-13.139-.302-5.501-4.267-4.995-4.515-2.595 0 0-1.019-2.239-2.95-1.074-2.2 1.327 1.512 7.522-2.008 9.163-3.522 1.642-3.5364605-3.7185897-4.0047719-4.1656566-.1309106-.4281892-.7074171-.7307175-1.0838283-.7251293-.8640107.0128269-1.2675241.3875209-1.5873998.7647859z" fill="#6d8c8c" transform="matrix(-.2923717 .95630476 -.95630476 -.2923717 163.396994 42.433229)"/><rect fill="#32495b" height="43" rx="2.5" transform="matrix(-1 0 0 -1 325.836568 124.846744)" width="5" x="160.418284" y="40.923372"/><path d="m172.178677 42.594809-17.979402.0206485-12.750588-12.2395439-.052669-17.3301902 12.675959-12.26888562 17.979402-.02065051 12.750588 12.23954393.052667 17.3301901-12.675959 12.2688857z" fill="#fff" stroke="#d82b2e" stroke-linejoin="round" stroke-width="2" transform="matrix(1 -.00008673 .00008673 1 -.00188 .014147)"/><path d="m170.791242 38.9832285-14.479961.0167715-10.268863-9.9415135-.042418-14.0763674 10.20876-9.96534596 14.479961-.01677314 10.268863 9.9415134.042416 14.0763674-10.208759 9.9653461z" fill="#d82b2e" transform="matrix(1 -.00008561 .00008561 1 -.001883 .013997)"/><path d="m158.398816 18.3774898c-.690428-.825814-.948291-2.1690909-.774358-3.5393206.071627-.5631818.215917-1.1310147.433437-1.6693938.255461-.6322896.542124-1.0840435.808709-1.4050266.51271-.6170835.951259-.750085.951259-.750085.392024-.2825433 1.710975-.2457001 2.121385.8019125.410364 1.0477264.839098 3.1502187.178707 4.6471942-.660472 1.4970093-2.744962 3.0800081-3.719139 1.9147193z" fill="#fff" fill-opacity=".650886" transform="matrix(.92050485 -.39073113 .39073113 .92050485 6.929083 63.701456)"/><path d="m163.799168 19.0730602c-1.282492-1.0234402-.626225-3.1724732.284041-4.7698812.910297-1.597328 2.999274-2.0446644 2.999274-2.0446644 1.252983-.2228692 1.84176.2769866 2.035682 1.0229765.239003.9197578-.122853 2.2136431-.582579 2.9889915-.263749.445088-.707436.9922382-1.230975 1.4997121-1.128704 1.0935124-2.62943 2.002008-3.505443 1.3028655z" fill="#fff" fill-opacity=".650886" transform="matrix(.92050485 -.39073113 .39073113 .92050485 7.04861 66.168459)"/><path d="m170.891126 18.1130834s-.938549.7218577-1.584589 1.7725817c-.304111.4943923-.543432 1.0614012-.589892 1.6603788-.091877 1.1873407.088339 2.1236764.589892 2.649975.289204.303641.685308.4708528 1.197998.4708528 1.401299 0 3.189074-2.1845545 3.189074-4.2131987 0-2.0284569-1.01465-3.5889332-2.802483-2.3405896" fill="#fff" fill-opacity=".650886" transform="matrix(.9998477 -.01745241 .01745241 .9998477 -.343339 2.990964)"/><path d="m156.361074 24.6767848c-.429898.3914377-.972758.4610892-1.688968.3208356-1.379368-.269838-1.891162-2.0286134-1.840568-3.7326057.050595-1.7039922 1.793664-4.9659923 3.924896-2.6104004 0 0 .871739 1.5586397.668464 3.3891141-.022923.2069223-.05939.4172047-.112652.6292579-.252142 1.0034054-.553312 1.6414389-.951172 2.0037985z" fill="#fff" fill-opacity=".650886" transform="matrix(.92050485 -.39073113 .39073113 .92050485 3.953153 62.32367)"/><path d="m168.793046 29.5420655c.029679.5077463.028054 1.0088767-.015205 1.4882442-.111246 1.2302683-.678259 1.9180586-1.452728 2.1450186-1.02726.3011239-2.419445-.2084515-3.599412-1.3408915-2.069882-1.986436-4.994473-1.4125563-6.612469-1.7029914-.232107-.0417454-.458408-.1161722-.668945-.2198382-1.256674-.6197138-1.948396-2.2926364.07367-4.3794923.649521-.6702971 1.50564-1.2570501 2.405118-1.7557229 2.369966-1.3138472 5.042762-2.0153295 5.042762-2.0153295 1.150053-.6249633 2.670066.3522939 3.259678 1.5591321.490826 1.0047265 1.419295 3.6967925 1.567531 6.2218709z" fill="#fff" fill-opacity=".650886" transform="matrix(.92050485 -.39073113 .39073113 .92050485 2.169061 65.488241)"/><path d="m73.201394 108.377s-1.952 3.446-1.154 7.492h12.898s-1.665-8.657-11.744-7.492" fill="#6d8c8c"/><circle cx="91" cy="32" fill="#32495b" r="2"/><circle cx="111" cy="32" fill="#32495b" r="2"/><path d="m155.806426 58.0084651c-1.654 4.442 2.524 10.004 7.725 9.88 5.201-.123 3.052-3.339 1.029-3.578 0 0 2.482.886 2.983-.984.501-1.869-2.04-2.869-2.04-2.869s3.43.562 2.985-2.449c-.444-3.012-10.311-6.373-12.682 0" fill="#6d8c8c" transform="matrix(-.97029573 .2419219 -.2419219 -.97029573 333.946451 81.269638)"/></g></svg>